/* XPM */
static char *result[] = {
/* columns rows colors chars-per-pixel */
"64 64 224 2 ",
"   c #3B3735",
".  c #3D3936",
"X  c #3E3B3A",
"o  c #583419",
"O  c #413F3D",
"+  c #0C4F17",
"@  c #1D4A13",
"#  c #14581B",
"$  c #245317",
"%  c #255518",
"&  c #285719",
"*  c #26591A",
"=  c #2A5D1B",
"-  c #1D621E",
";  c #22641F",
":  c #2D631E",
">  c #32631D",
",  c #27562C",
"<  c #1F6D2B",
"1  c #226520",
"2  c #256A22",
"3  c #2A6E23",
"4  c #216E2C",
"5  c #346C22",
"6  c #346B25",
"7  c #2D7225",
"8  c #25722C",
"9  c #2A752D",
"0  c #2E792E",
"q  c #327526",
"w  c #3A7526",
"e  c #337827",
"r  c #3C7827",
"t  c #3E732F",
"y  c #357C2B",
"u  c #3B7D29",
"i  c #3B633C",
"p  c #3B7935",
"a  c #6B5433",
"s  c #437925",
"d  c #417E29",
"f  c #4C7D3C",
"g  c #537132",
"h  c #636129",
"j  c #3F4040",
"k  c #444545",
"l  c #4A4846",
"z  c #4B4C4B",
"x  c #524D4A",
"c  c #475344",
"v  c #52514F",
"b  c #57574C",
"n  c #555453",
"m  c #585756",
"M  c #545B52",
"N  c #585A56",
"B  c #5C5B5B",
"V  c #635E5B",
"C  c #4C6544",
"Z  c #55694E",
"A  c #4E7445",
"S  c #55744C",
"D  c #567A48",
"F  c #596354",
"G  c #5A6754",
"H  c #5B6B54",
"J  c #5B7452",
"K  c #5C7C51",
"L  c #5D7D5D",
"P  c #61605F",
"I  c #637A56",
"U  c #646463",
"Y  c #686965",
"T  c #6C6C6B",
"R  c #706F6E",
"E  c #6D716A",
"W  c #73716F",
"Q  c #747372",
"!  c #777D72",
"~  c #797977",
"^  c #7B7A79",
"/  c #37802F",
"(  c #3C822C",
")  c #3D8430",
"_  c #498027",
"`  c #42852C",
"'  c #4D862A",
"]  c #458A2E",
"[  c #498C2E",
"{  c #568A2A",
"}  c #538C2D",
"|  c #53912F",
" . c #5C932E",
".. c #418630",
"X. c #458A31",
"o. c #4A8D31",
"O. c #4D8639",
"+. c #528A38",
"@. c #518B3C",
"#. c #4D9232",
"$. c #529533",
"%. c #5B9735",
"&. c #549A35",
"*. c #5B9C35",
"=. c #54943C",
"-. c #549E38",
";. c #67992F",
":. c #619E34",
">. c #619C39",
",. c #5CA137",
"<. c #56A239",
"1. c #5BA53A",
"2. c #5DAB3D",
"3. c #5FB03F",
"4. c #65A236",
"5. c #6AA536",
"6. c #6DA937",
"7. c #61A63A",
"8. c #6CA738",
"9. c #64AB3A",
"0. c #69AE3C",
"q. c #74A635",
"w. c #72AB37",
"e. c #74AE38",
"r. c #6CB23D",
"t. c #74B23B",
"y. c #7BB439",
"u. c #71B83F",
"i. c #598645",
"p. c #548A42",
"a. c #5A834C",
"s. c #558E49",
"d. c #5C8B4C",
"f. c #5C9546",
"g. c #599C41",
"h. c #5E8351",
"j. c #5F8B50",
"k. c #61864E",
"l. c #638C4D",
"z. c #63934B",
"x. c #669849",
"c. c #629B4C",
"v. c #769946",
"b. c #658657",
"n. c #689858",
"m. c #5EA643",
"M. c #66A845",
"N. c #62A44A",
"B. c #6CA34A",
"V. c #73AA46",
"C. c #62B342",
"Z. c #66BA44",
"A. c #65B048",
"S. c #76B347",
"D. c #74BB41",
"F. c #6EA45B",
"G. c #79AB58",
"H. c #728A6D",
"J. c #6C9663",
"K. c #7B9375",
"L. c #80B73A",
"P. c #84BA3A",
"I. c #89BE3B",
"U. c #95BE3F",
"Y. c #ABBB3C",
"T. c #CBB23F",
"R. c #8CC13C",
"E. c #92C53C",
"W. c #85B84B",
"Q. c #87B854",
"!. c #91BF5E",
"~. c #819B7A",
"^. c #87B169",
"/. c #8AB073",
"(. c #95B976",
"). c #B6BD65",
"_. c #A9BE78",
"`. c #D3AE46",
"'. c #D6B242",
"]. c #D1AE57",
"[. c #C5B253",
"{. c #D2B26B",
"}. c #D0B16F",
"|. c #D0B378",
" X c #94C446",
".X c #9CC666",
"XX c #A8C771",
"oX c #8C9C86",
"OX c #989E90",
"+X c #8BA184",
"@X c #9BBC85",
"#X c #9CB48D",
"$X c #99AD93",
"%X c #A3B790",
"&X c #A5BA9B",
"*X c #A8B1A2",
"=X c #ABBBA4",
"-X c #B3BAAB",
";X c #CFB587",
":X c #D2B98A",
">X c #D0BC9A",
",X c #99C081",
"<X c #A9C787",
"1X c #B1CD8D",
"2X c #ABC39A",
"3X c #B5CA97",
"4X c #B6C6A8",
"5X c #B8C6AA",
"6X c #C9C9AD",
"7X c #D2C3AB",
"8X c #CACBB9",
"9X c #D3C6B2",
"0X c #D3C9B8",
"qX c #CBD3BA",
"wX c #CECDC0",
"eX c #D3CFC4",
"rX c #CED3C3",
"tX c #D4D2C6",
"yX c #D5D2C9",
"uX c #D7D7CB",
"iX c #D9D5CD",
"pX c #D9D6D0",
"aX c #DCDAD2",
"sX c #E0DFD8",
/* pixels */
"j k k k k k k k k k k k k k k l n x n n m m m m m n P ~ ^ ^ ^ ^ F c.Z.f.m m m m m m m n v v n m m m m m m m m m m n k k k k k k ",
"k k k k k k k k k k k k k k k k n m m m m m m N l.Z.Z.N.J.H.^ ! m.M.3.C.j.m m m m m m m n n m m m m m m m m m m m k k k k k k k ",
"k k k k k k k k k k k k k k k k l m m n m m m N C.C.m.<.&.p.H =.&.<.<.1.m.N m m m m m m m n n m m m m m m m m m n k B R P k k k ",
"k k k k k k k k k k k k k k k k k m x x x m m K C.1.<.&.o.o.` X.o.1.9.<.<.S m m m m m m m m m m m m m m m m m m z k T T R k k k ",
"k k k k k k k k k k k k k k k k k n x x x z m a.<.-.#.o.` ` w w $.u.u.r.&.i.n K x.V.x.m m m m m m m m m m m m m n k U R T P k k ",
"k k k k k O O k k k k k k k k k l n m x x v m p.&.o.] ` r w 5 : 7.r.r.7.1.O.g.9.0.u.D.I m m n n m m m m m m m m m k k R m k X j ",
"k k k k     . k k k k k k k z n m m n x x n m a.o.] ( w 6 3 = w 7.1.,.<.<.#.$.*.,.0.Z.x.m m m x x n m m m m m m m v k z O     X ",
"k k k X     O   X k k z n m m m m m x x n N m A ( u w 5 > : % s ,.$.$.[ ] ` ] #.*.,.7.x.m G f.s.x v m m m m m m m m k k k X X k ",
"k k k X       X k l m m m m m m m n v n m j.m.&.r w > : = = w w [ ] ] ( q u ( ] [ $.<.%.J <.m.C.Z x n n m m m m m m n k k k k k ",
"k k k k     j z n m m m m m m P R Q T m F Z.1.<.u > = $ $ 5.0.,.] ( ( e 2 7 y ( ` [ $.p.2X&X2X2Xn.C p.g.m.N.j.m m m m k k k k k ",
"l l l z z n m m m m m m m m m m R ^ ^ Q N m.9.D.0.d $ @ @ 7.,.#.) y ' ;.;.d 3 e u ( X.<.,X6X0XiXn.' #.<.1.C.Z.J m m m n k k k k ",
"m m m m m m m m m m m n n m m m G S.S.B.d.1.0.9.1.*.5 ' 5.P.*.O.K.+XXXXXy.w.$.3 7 e ( &.r.I.T.uXK.u ..#.<.1.C.a.m m m m z k k k ",
"m m m m m m m m m m v v v v n m x.D.r.9.<.&.$.$.$.$.r.t.P.P.L.O.aXuXiXpXw.4.*.` ; 7 ( 4.y.P.R.XXf w d X.#.<.m.s.m m m m m j k k ",
"m m m m m m m m m m n v v v n m M.r.0.*.$.[ ( ( ` 9.r.t.y.y.y.V.uX].].iXV.*.$.X.7 2 | 4.6.y.P.R.D.| w ` o.#.<.i.m m m m m z k k ",
"m m m P R U m m m m m n Z s.p.A 7.0.,.&.[ ( ( 7 7 $.r.6.5.6.5.^.iX`.].uXB.$.X.(  .6.$.%.4.6.y.L.0.*.6 r ..o.#.J m m m m m m k k ",
"m m m ~ ~ ~ m m m m m z.m.1.&.X.,.,.&.[ ] ( 7 2 - : 7.:.4.*.*.M.iXtXeXiX5.o.X.e.P.R.5.$.&.4.6.e.*.*.d ` ` ..o.M m m m n n B z k ",
"m m U ~ ~ ^ P m m m h.Z.3.<.#.` [ -.[ ] ( 7 3 ;.I.L.6.*.$.#.$.B.@X@X<X1Xe...*.w.y.y.y...#.*.4.*.` [ &.1.r.7.O.n m m m x x x n k ",
"m m Q ~ ^ U m m m m j.C.1.&.o.` r $.] ( 7 3 - P.P.y.5.*.o.X.#.=.%.>.e.P.e.) *.*.4.6.6./ ] #.$.7 / ] &.,.r.u.0.p.F n x n x x x x ",
"n m m T U m m m m m K C.<.#.X.] *.#.( e 7 ; - y.y.6.*.$.X.y p y X.$.4.y.4.y o.#.*.*.:.[ | ] : 7 e ( [ ,.9.r.0.&.g.G B V x x x x ",
"v v m m m m m m m m M m.-.o.#.9.,.$.( 7 ; # + 5.e.4.$.X.y 9 8 y X.*.8.y.e.0 ) ) o.$.$.*.6.y.{ ; 7 ( ] &.1.r.1.&.1.n.V N x x l n ",
"v v m m m m m m m m m p.$.[ 0.0.1.$.] q - + + { >.#.) ) 4 8 0 / o.*.6.y.R.y 0 0 y ..o.*.5.y.R.w 7 e ] [ ,.9.&.&.<.C.! U b x z n ",
"v n n m m m m m m n n C #.` r.0.1.#.] y 7 - ;.w.:.o.y 9 0 y ( ..o.%.w.y.R...8 8 9 y X.&.5.y.R.w ; e ( ] $.,.] &.1.M.W ~ Y Y n m ",
"v v n m m m m m m n v v A u $.0.,.$.] u 7 _ R.6.*.o.) 0 ) ..o.$.$.*.w.y.4.X.) 9 8 0 X.$.4.t._.-X+X7 u ] #.] ] &.1.K m B B m m m ",
"n n m m m U R U Y E l.H @.` r r.7.$.X.&X%X2XR.e.4.o.) ) #.$.*.4.:...o.o.*.$.-X-X=X=Xz.$.4.e._.7X+X3 e ] &.[ [ $.s.m m m m m m m ",
"m m m m m T ~ ^ ^ F.C.0.<.#.r.u.u.$.#.8X0X9X1Xq.;.$.X...*.:.5.e.5.) X.$.%.4.rX9X9XeXx.5.e.P.U.{.&X7 ( #.*.9.O.S m m m m m m m m ",
"m m m m m m ~ ^ H.1.1.<.<.,.1.7.9.$.7.uX{.T.eX~.} %.o.) :.e.y.L.w.X.$.*.4.B.aX`.'.aX^.e.L.R.).:XoXe ] $.,.r.l.m m m m m m m n x ",
"m m m m m m B T c.&.1.r.,.#.$.&.-.*.r.qX;X{.eXS 5.4.$.o.X.w.I.E.%.$.*.4.6.e.eX;X[.1XP.y.R.E.6XiX$Xu ] &.9.r.B.N m m m n x O .   ",
"m m m m m m m m X.X.9.9.,.[ ] ] ] #.9.uXyXpXpX^.e.6.>.$.X.( *.5.$.%.4.e.W.rXaXiXuXI.I.I.q., - 0 e ( #.,.9.D.n.m m m m k       O ",
"m m m m m K B.7.-.o.,.&.] ( e ( ( ( 5 i.#.J.o.S.L.t.5.*.#.] :.*.&.4.e.y. XyX>X>XwXt.e.e.{ # ; e ] $.r.r.r.x.m m m m k X         ",
"m m m m b.D.r.1.&.X.#.) e 3 - 7 7 q 5 ' -.#.r.P.I.L.e.4.*.4.4.*.#.4.L.R..XaX`.`.aXG.5.5.4.- e ] -.0.r.r.d.m J j.Z k j X       X ",
"m m m m z.D.9.*.#.` u e ; # # - - u 5.E.R.1.u.t.E.I.y.5.e.e.4.$.] `  XR.L.yX>X>XtX*.*.*.*.| ;.6.,.1.,.1.1.g.C.C.m.k j j X X j k ",
"n m m N l.0.,.&.] u +X*XK.i + # ; G.L.P.I.y.r.7.$. .' w L.e.4.$...>.R.y.W.rXwX8XtXo.[ $.4.w.L.R.I.#.#.$.#.#.-.1.m.A k j j k k k ",
"x Z s.&.[ 7.,.#.` e *X9X3XE.I.5.d.sXtX5XXXW.,.#.` ( 7 s R.R.y.4X4X6XL.e.:.#...y ..) ) @.*.4.e.L.P.` ] ] #.7.u.,.<.O.k k k k k k ",
"G m.1.#.] &.#.( q ; 9XT.E.I.L.y.(.eX:X0XpXw.$.&.[ ( e ; R.E.E.I.y.S.e.w.4.$.X.y d $.X...4.L.6.e.w.e e 7 ] &.9.,.X.f k k k k k k ",
"A.2.,.#.] $.[ ( 7 3 8X[.U.L.e.6.2X7X'.;X8X,.9.,.#.` e 3 ' P.R.y.0.4.*.5.4.$.#.4.y.I.E.w.I.I.P.5. .3 ; ; e [ ,.$.o.+.c k k k k k ",
"Z.2.<.#.,.*.[ ( y b.tX8Xy.6.*.$.5X0X|.6X4X4.e.0.&.[ ( q ; q.y.e.5.%.#.X.4.%.*.8.w.y.I. Xy.Q.W.V.e.w.; # 2 e ] ] $.1.r.i.k k k k ",
"f.2.-.1.9.,.#.] y 3 6 Q.y.4.%.o.$X&XaXpX/.8.y.W.y.#.( ( 2  .t.5.*.$.o.y 4.4.$.*.5.e.y.!.aXuXiXaXe.P.:., * p e ( #.,.0.D.i.k k k ",
"H 1.&.D.9.,.#.] y 3 } R.y.5.$.X.y 9 / J.n.4.e.P.E.&.` ( 7 r 6.,.$.X.o.y.I.R.$.$.*.5.e.Q.tX}.;X8Xe.L.R. XqXyX+X( #.*.9.u.z.k k k ",
"z i.,.D.r.1.&.] u 7 6 I.t.5.$...0 8 < y o.*.5.y.R.$.] ( e ' *.$.o...5.e.y.P.4.o.$.*.5.^.iXT.].aXV.e.P.R.).>XK.( ] $.1.r.Z j k k ",
"n v A D.r.1.&.[ ( 7 1 } y.5.$.o.) y 8 8 ) o.4.e.8.$.#.#.q.y.:.#...X.*.4.8.e.>.) o.$.%.>.iX7X0XrX4.5.y.P.Y.:XoXq ( #.,.,.O.g k k ",
"m m O.#.9.9.&.[ ( q ( [ [ %.$.*.#.X.y 9 8 ) #.4.a m z.y.R.e.,.#.) ) #.%.*.4.*.X.o.o.>.n.-X5X$X=XX.$.4.y.XX9XK.7 e ] *.] [ &.A k ",
"m D #...( [ [ $.] #.:.$.] ( :.4.*.#.X.y 0 X.%.8.L.o g y.P.e.,.[ y y ) X.o.$.$.:.e.y.*.o.y 9 8 p o.&.5.y.%X-XK.7 ( ] #.` [ &.1.C ",
"m g.&.o.` r 5 7.,.6.5.*.#...w.e.7.%.$.) y o.*.6.P.h h u.y.w.*.[ 0 8 0 y ) X.$.*.w.P.P...8 8 9 y o.%.6.y.R.; 3 7 ( [ ,.&.o.&.2.<.",
"N C.<.#.` u 5 u.e.y.e.4.*.o.y.L.e.8.*.) X.$.4.t.E.h a B.D.t.*.[ X./ 4 8 9 ) o.*.6.L.I.9 9 0 ) ` o.*.6.L.I.5 7 ( ] $.<.9.&.&.2.m.",
"H Z.1.-.o.` w 7.W.P.y.w.%.$.e.E.P.6.X...J.N.6.y.v.a b H c.y.w.4.=.X.0 9 9 y X.&.8.y.4.y y ..o.$.$.*.w.y._ ; e ( [ $.1.0.1.&.1.p.",
"H Z.m.<.$.] t s 1XE.L.e.8.*.' ' o.) o.$.%XpXpXOXH.# : p g P.y.5.*.#...y p y X.%.8.y.%.) o.$.&.:.*.[ $.` : 7 e ( #.-.9.D.9.&.p.c ",
"m N.C.1.-.o.` J.iXY.R.y.0.} 3 1 ..o.$.*.5X7X:XeX*X- 7 ( o.E.P.e.7.*.o.X.#.#.%.4.t.P.:.` *.4.4.e.5./ X.$.| 7 ( ] $.1.r.D.m.j.M j ",
"M v D f.=.O.f /.yX:X!.0.-.u q 2 ` &.*.8.uX}.`.0XoX1 e ` $.L.I.L.8.*.| #.&.G.@X<X<X<X6.` >.w.t.y.6.X.o.*.4.#.` #.&.7.r.1.h.~ F k ",
"N x x x x l x /.2XiXtX@X&.` u 7 q *.5.S.iX7X;XtXL 2 u ] -.0.i.H 7.:.:.>.*./.iXeXeXqX:.X.[ e.I.R.>.#.*.4.w.6.*.$.d ' ` ` @.Q z k ",
"m n x x x x x N.C.1.N.~.$.X.( y 7 ` w.Q.1XqXtXyX7 e ) #.*.} =  .0.5.5.8.8.(.0X`.|.rX*.$.X.( ;.5.| *.4.w.y.y.r.$.5 u ` o.-.I v k ",
"m m n x x x n J N.f.J a.<.$.] ( r 7 q  .w.;.7 J.( ] #.&.[ 5 % 0.t.y.y.e.y./.eX'.|.tX4.*.$...3 7 $.4.6.y.I.I.D.` r ` o.$.<.K n k ",
"m m m m m n m m m m m d.9.,.$.[ ( e 3 7 u r ( ] &.,.$.#.` w : s 0.t.P.P.L.J.uXtXyXqXw.4.%.( ; 7 ] 5.y.P.E.<Xw r ( o.#.<.1.L m z ",
"m m m m m m m m m m m x.0.1.,.$.] ( e ( ] ( ` &.7.r.w -.#.u 5 % > ' w.P. .s.K.#XXXXXS.6.[ 7 7 e ` *.r.U.[.iXa.u X.#.<.m.Z.J m n ",
"m m m m m m m m m m m x.u.r.1.,.#.[ [ #.[ #.#.d [  .7 2.&.` 5 * $ @ & 0.,.[ ( 7 } ;. .r 7 e u ( ] ,.<X8X0XtXX...#.<.1.A.C.F m v ",
"m m m m m m m m m m N H D.y.0.1.@.$.,.&.-.&.&.6 & & r r.1.#.q : = % @ r.0.*.( ( / 7 3 7 e ( ] [ #.d.2X2X%X2Xd.Z p.g.m.m.h.m m z ",
"m m m m m m m m m m T T E I K H I $.1.7.7.7.*.= : : 5 &.1.#.w 5 5 = & > 5 ` [ ] ] ( q u ( ] [ &.,.d.D 1.3.C.H M m m m m m m v k ",
"m m m m m m m m m m U ~ ^ ^ Q Q ! #.2.Z.0.0.r 5 5 w w u ( ] ` u w 5 = = $ ' &.&.#.#.` ` [ $.-.1.9.d.m H c.L m m m m m m v z k k ",
"m m m m m m m m m m n m T Q ^ Q G <.-.9.0.$.r w r u ` ` [ #.X.) r w 5 5 = d 1.,.,.*.&.#.$.<.1.9.r.b.m m n P R ^ ^ E l . . O O k ",
"m m m m m m m m m n x v n m m m m m.1.<.&.#.o.` ` o.X.#.#.-.#.#.X.` r w 5 5 0.r.9.7.1.O.-.9.r.D.D.G m m m Q ^ ~ R v l       X k ",
"m m m m m m m m m m n v x m m m m d.Z.C.1.<.p.A #.#.&.<.<.1.<.&.#.X.` u w r &.D.D.C.$.D N k.x.V.l.N m m m Y ^ R P M k O   . k k ",
"m m m m m m m m m N z n n v m m m N A.Z.N.a.m m i.<.1.m.C.C.m.1.<.#.#.` ` O.[ 1.9.-.-.H m m m m m m m m m m R R P k k k k k k k ",
"m m m m m m m m m n n n v v n m m m m N N m m m n a.m.Z.Z.c.Z.3.m.<.&.@.Z #.&.<.<.1.g.m m m m m m m m m m m n v l k k k k k k k ",
"m m m m m m m m m m n n m n n n m m m m m m B T U m M h.h.m c.Z.C.m.a.m m S 1.2.C.C.K m m m m m m m m m m m m z k k k k k k k k ",
"m m n x x m m m m m m m n x x x x m m n m U U ~ ~ U m m m m m m m n m m m m H N.Z.k.m m m m m m m m m m m m m n k k k k k k k k "
};
