/* XPM */
static char *result[] = {
/* columns rows colors chars-per-pixel */
"64 64 210 2 ",
"   c #161513",
".  c #181714",
"X  c #1B1916",
"o  c #1E1D19",
"O  c #211E1A",
"+  c #25221C",
"@  c #2A261F",
"#  c #242525",
"$  c #2B2720",
"%  c #2E2921",
"&  c #2B2D2E",
"*  c #322D24",
"=  c #253628",
"-  c #363027",
";  c #383127",
":  c #363129",
">  c #3B342A",
",  c #3F382D",
"<  c #363635",
"1  c #3C3735",
"2  c #3C3835",
"3  c #3E3C3A",
"4  c #40372B",
"5  c #443B2E",
"6  c #493E2F",
"7  c #463E31",
"8  c #493F30",
"9  c #413F3C",
"0  c #15591C",
"q  c #22481D",
"w  c #27581B",
"e  c #1D621F",
"r  c #25651F",
"t  c #2D621E",
"y  c #32631D",
"u  c #34592B",
"i  c #324730",
"p  c #375934",
"a  c #216520",
"s  c #256A21",
"d  c #2A6E23",
"f  c #306720",
"g  c #346D22",
"h  c #2D7325",
"j  c #327526",
"k  c #3A7526",
"l  c #337827",
"z  c #3C7827",
"x  c #39732B",
"c  c #367B28",
"v  c #3C7D29",
"b  c #3C6535",
"n  c #4B4132",
"m  c #45433E",
"M  c #4C453B",
"N  c #44493E",
"B  c #504639",
"V  c #554B3C",
"C  c #42583B",
"Z  c #487D26",
"A  c #417E29",
"S  c #456A39",
"D  c #477836",
"F  c #4B7C3B",
"G  c #547E39",
"H  c #3F4041",
"J  c #444545",
"K  c #4A4642",
"L  c #464947",
"P  c #4E4B46",
"I  c #4B4C4A",
"U  c #524B40",
"Y  c #524D4A",
"T  c #4A5644",
"R  c #595547",
"E  c #53524E",
"W  c #58554E",
"Q  c #555C4C",
"!  c #555453",
"~  c #585756",
"^  c #555B53",
"/  c #5B5A55",
"(  c #5C5C5A",
")  c #635A4D",
"_  c #645D52",
"`  c #625E5A",
"'  c #4B6443",
"]  c #54684B",
"[  c #4D7542",
"{  c #547445",
"}  c #537D44",
"|  c #56744D",
" . c #5A7B4C",
".. c #5A6354",
"X. c #596654",
"o. c #5C6B54",
"O. c #5C7452",
"+. c #5C7C51",
"@. c #5E785B",
"#. c #636556",
"$. c #6C6355",
"%. c #65625A",
"&. c #6A655C",
"*. c #6D6C5F",
"=. c #746C5F",
"-. c #637557",
";. c #6B745C",
":. c #727D5B",
">. c #646362",
",. c #696764",
"<. c #6C6C6C",
"1. c #746E62",
"2. c #706F6E",
"3. c #7A7264",
"4. c #787668",
"5. c #737372",
"6. c #777D72",
"7. c #797977",
"8. c #7B7A79",
"9. c #827B6D",
"0. c #3D822B",
"q. c #42842C",
"w. c #468A2E",
"e. c #498D2F",
"r. c #54892A",
"t. c #50902F",
"y. c #498635",
"u. c #448A31",
"i. c #4A8D31",
"p. c #558C36",
"a. c #538B3D",
"s. c #4D9332",
"d. c #4F9138",
"f. c #529533",
"g. c #5C9636",
"h. c #539B35",
"j. c #5A9C35",
"k. c #54953C",
"l. c #549E38",
"z. c #659D35",
"x. c #5CA137",
"c. c #56A239",
"v. c #5BA53B",
"b. c #5DAB3D",
"n. c #5FB03F",
"m. c #65A336",
"M. c #6BA636",
"N. c #6EA937",
"B. c #61A639",
"V. c #64AB3B",
"C. c #69AE3C",
"Z. c #71AC37",
"A. c #74AC39",
"S. c #76AC3B",
"D. c #6CB23D",
"F. c #73B33C",
"G. c #7CB439",
"H. c #71B83F",
"J. c #588545",
"K. c #548A42",
"L. c #5B834C",
"P. c #5B8B4B",
"I. c #5B9542",
"U. c #5A9D41",
"Y. c #5F964B",
"T. c #5E8351",
"R. c #5E8B50",
"E. c #608B4B",
"W. c #669A45",
"Q. c #62944C",
"!. c #69944D",
"~. c #629A4B",
"^. c #668758",
"/. c #6A9A58",
"(. c #759655",
"). c #5CA243",
"_. c #5EA943",
"`. c #66A946",
"'. c #62A44A",
"]. c #76AB4F",
"[. c #62B342",
"{. c #66BA44",
"}. c #74BB41",
"|. c #71B449",
" X c #768B69",
".X c #7A9374",
"XX c #82B53C",
"oX c #84BB3B",
"OX c #8BBE3C",
"+X c #B0BC3C",
"@X c #C0B53E",
"#X c #8CC13C",
"$X c #90C43C",
"%X c #81A64B",
"&X c #848F73",
"*X c #928D7B",
"=X c #8DB573",
"-X c #B3BE72",
";X c #C1B64E",
":X c #8BA085",
">X c #A5BF87",
",X c #A4BA97",
"<X c #B2BCA7",
"1X c #D2BC90",
"2X c #99C081",
"3X c #AECB84",
"4X c #AAC39A",
"5X c #CAC9AF",
"6X c #D4C9B6",
"7X c #D5D4C9",
/* pixels */
"H J J J J J J J J J J J J J J I ! Y E ~ ~ ~ ~ ~ ~ ~ ( 8.8.8.8.8.X.~.[.~.~ ~ ~ ~ ~ ~ ~ ^ E E ! ~ ~ ~ ~ ~ ~ ~ ~ ~ ~ ~ J J J J J J ",
"J J J J J J J J J J J J J J J J E ~ ~ ~ ~ ~ ~ / R.{.{.'./.6.8.6._._.[.[.T.~ ~ ~ ~ ~ ~ ~ E ! ~ ~ ~ ~ ~ ~ ~ ~ ~ ~ ~ J J J J J J J ",
"J J J J J J J J J J J J J J J J I ~ ~ ~ ~ ~ ~ / {.[._.c.j.K.;.*X*X!.c.v._.^ ~ ~ ~ ~ ~ ~ ~ ! ! ~ ~ ~ ~ ~ ~ ~ ~ ~ ! J ( <.>.J J J ",
"J J J J J J J J J J J J J J J J J ! Y Y Y ~ ~ O.[.c.c.h.i.w.&X,.,.&XC.c.h. .~ ~ ~ ~ ~ ~ ~ ~ ~ ~ ~ ~ ~ ~ ~ ~ ~ ~ I J <.<.<.J J J ",
"J J J J J J J J J J J J J J J J J E Y Y Y I ! P.c.h.s.i.w.L.` # # #.].D.h.J.!  .W.].!.~ ~ ~ ~ ~ ~ ~ ~ ~ ~ ~ ~ ~ ! J >.2.<.( J J ",
"J J J J J 9 3 J J J J J J J J J I ~ ~ Y Y ! ~ J.h.s.u.q.v 4.&   . & &XV.v.a.I.V.D.H.H.-.~ ~ ~ ! ~ ~ ~ ~ ~ ~ ~ ~ ~ J L 2.~ J 3 J ",
"J J J J 1 1 3 J J J J J J J I ~ ~ ~ E Y Y ~ ~ } u.w.A k { %.X .   X %.~.h.s.h.l.x.V.D.Q.~ ~ ~ P E ~ ~ ~ ~ ~ ~ ~ ~ I J I H 1 < 3 ",
"J J J 3 1 1 3 1 H J H I ! ~ ~ ~ ~ ~ Y P ! ~ ~ | 0.v k g :.1 . .   . :  Xw.q.e.s.j.c.V.W.~ X.Y.P.I Y ~ ~ ~ ~ ~ ~ ~ ~ J J J 9 1 J ",
"J J J 3 1 1 3 3 H I ! ~ ~ ~ ~ ~ ~ ~ Y ~ ~ E._.h.k k f S &.o X   . . o &.D c 0.w.s.f.c.I.| v._.[.{ I ! ^ ~ ( ~ ~ ~ ~ ! J J J J J ",
"J J J H < < H I ~ ~ ~ ~ ~ ~ ~ ( <.5.<.~ ..{.v.l.z f w *.3 X . X . X X 3 ;.h c 0.0.i.f.a.4X,X4X4X/.T K.U._._.R.~ ~ ~ ~ L J J J J ",
"I I I I I ! ~ ~ ~ ~ ~ ~ ~ ~ ~ ( <.8.8.5.( [.V.}.D.Z u &.# X X X . X X # *.G d l c 0.e.l.2X5X6X7X/.y.s.l.).[.{.o.~ ~ ~ ! J J J J ",
"~ ! ~ ~ ~ ~ ~ ~ ~ ~ ~ ~ ! ~ ~ ~ ..|.|.].P.c.V.V.v.j.-.N X X X X X X X X K (.f.d h l 0.j.Z.OX@X7X.XA u.s.l.c.[.J.~ ~ ~ ~ I J J J ",
"~ ~ ~ ~ ~ ~ ~ ~ ~ ~ E E E ! ! ~ !.}.D.V.c.h.f.f.f.h.*.# X o X X X X X o $ 1.g.w.r h 0.M.G.oX#X3XF k q.e.s.c._.P.! ~ ~ ~ ~ J J J ",
"~ ~ ~ ~ ~ ~ ~ ~ ~ ~ E E E I ! ~ `.H.V.j.f.e.0.0.q.(.P + o o O o O O o o o I ^.e.h s f.m.N.A.oXOXH.t.k q.s.d.c.J.~ ~ ~ ~ ~ I J J ",
"~ ~ ~ ( 2.>.~ ~ ~ ~ ~ ! ] P.J.[ B.V.x.h.e.0.c h j ;.& + O O O o O o O o + & ;.q.g.M.t.j.m.N.G.oXC.j.g z q.i.h.| ~ ~ ~ ~ ~ ~ J J ",
"~ ~ ~ 8.8.7.~ ~ ~ ~ ~ R.[.c.h.u.x.x.h.s.q.0.h s ] E + O O O + + O + + O o + E (.oX#XM.t.j.m.N.Z.j.j.A q.v u.i.~ ~ ~ ~ ! ~ ~ I J ",
"~ ~ >.8.8.8.( ~ ~ ~ T.{.[.c.s.w.e.j.e.w.0.l s z.:.< O + + + + + + + + + + + < ;.G.G.S.u.s.g.m.f.q.e.h.v.D.V.F ~ ~ ~ / Y Y Y ! J ",
"~ ~ 2.8.8.>.~ ~ ~ ~ R.[.c.h.i.0.z s.w.0.h s e %X/ @ + + @ + @ + + @ + + + + @ Q !.Z.N.c u.t.f.j v w.f.x.C.H.D.a...! Y E Y Y Y I ",
"! ~ ~ <.>.( ~ ~ ~ ~ T._.c.s.u.w.j.s.0.l d a 0 ^.3 + @ @ @ + @ + @ @ @ + @ + # 3 ;.x.z.i.f.i.g d c 0.s.x.V.D.|.s.U.X.( ` Y Y Y Y ",
"E E ~ ~ ~ ~ ~ ~ ~ ! Q b.l.s.i.C.x.f.0.h a 0 p _ = + @ @ @ @ @ @ @ @ @ @ @ @ $ % / K.f.j.M.G.r.a h 0.w.f.x.C.V.h.v./.%.~ P P P ! ",
"E E ~ ~ ~ ~ ~ ~ ~ ~ ! K.h.e.N.D.x.f.w.l r 0 ^ m @ % @ % % % % @ $ % % % % $ $ $ M O.i.g.N.G.#Xk h c 0.s.c.V.f.h.c.[.6.>.! Y I ! ",
"E E ! ~ ~ ~ ~ ~ ~ ~ E ] s.q.D.Z.v.s.y.D S X./ - @ % % % % % % % % % % % % % % % : / O.P.z.G.OXk r h 0.e.h.x.i.h.v.`.5.7.<.,.! ~ ",
"E E ! ~ ~ ~ ~ ~ ~ E W ^ ] { -.-.-.....W Y K 1 @ @ * * @ = * * % * * = * % % % % % 1 M E W ( %.2.4.] { } a.y.e.h.v.+.~ ( ( ~ ~ ~ ",
"! ! / / ( >.,.>.%.( / E P K 8 4 > * % @ % % * * * % - - % - * * * * * * - % - * * % % % % % * 1 i m N P W / _ ..o...` / ( ~ ~ ~ ",
"~ ` ( ~ U M 9 1 - % @ @ @ @ @ % % % % * * * * * * * : * : : - - - - : : - * - * * * * % * % % % % @ @ @ @ @ % ; 1 9 M P ~ / %._ ",
"` ( E * @ @ @ @ @ @ @ @ % % % % % * % * * * * - - - - - : : : : : : : : : : - - : * * * * * * % % % % % @ @ @ @ @ @ @ @ * E ( ` ",
"_ / Y % @ @ @ % @ @ % % % % % % * * * * * * : : - - : > > : > > : > > : > : - - - - - - * * * % % % % % % @ @ @ @ @ @ @ @ E / / ",
"~ / / 9 % % % % % % @ % % % * * * * * : : * : - > : > > > > > > > > > > > > : : - - - - : * * * * % * % % % % % * @ % % 7 / ~ 9 ",
"~ ~ / / 9 * % % % % % % * * * * * : : : - ; ; > > > > > , , , , , , , , > > > > > - ; - ; * ; * * * % * % % % % % % * m / E 9 1 ",
"~ ~ ~ / / M % % * % % % * * * * : * ; ; ; ; > > , > , , , , 2 , i , , , > , , > > ; > ; ; 4 * * ; * * * * % % * * % M ( E 1 1 9 ",
"~ ~ ~ ~ o./ U * * % * * * * ; ; - ; ; ; > > > > 1 , 4 , 2 , 7 , 6 5 , , , , , , 4 > 4 ; 4 ; ; ; ; * * * * % % * * K / Y 3 3 3 J ",
"~ ~ ~ ^ E.E./ Y * * * * * ; * ; - ; > > > > 5 5 , , 5 7 5 n 7 n 7 7 n 2 7 5 5 , 4 4 ; 4 ; ; ; ; ; ; * ; * * * * R / I H J J J J ",
"P X.I.f.s.V.} / W * * * - - - ; > > > > 4 > 2 4 , , 7 , 7 n n n 8 8 7 7 7 5 5 , , , , > > > > > ; ; ; * * * * R / ] J J J J J J ",
"X.`.v.s.w.t.s.D ~ _ - : - - > ; > > > , , 4 4 4 n , n 5 7 5 n n n n n 7 7 2 5 5 4 , 4 , 4 > > > ; ; ; ; : - / / F F J J J J J J ",
"`.[.c.s.w.s.e.0.S ! _ > ; ; > > > > > 4 4 5 4 7 , n 5 n n n n n n n m 7 n n n , 4 7 7 4 4 > > > > ; ; ; > ( ~ y.e.p.T J J J J J ",
"[.b.c.s.x.j.e.0.l @./ _ 5 ; > > 4 > , , 4 5 5 5 , 7 n 2 n n n n n n 7 n 7 n 5 7 7 7 4 4 4 , 4 > > > > 4 _ E G e.f.x.C.J.J J J J ",
"Y.b.l.v.V.x.s.w.j d b Q #.7 > > > 4 4 4 4 7 5 5 n , n n n n n n 8 i n n n n n , 6 5 5 4 5 > 4 4 > > 7 %.E S c 0.t.c.C.H.L.J J J ",
"] _.h.H.C.x.s.w.c d r.%XQ &.8 > 4 4 4 5 5 5 7 7 n n i n n n n n n n n n n 2 n n 7 5 5 5 5 5 4 4 4 M $.Q <X7X:X0.e.j.V.H.E.K J J ",
"E } v.H.C.x.h.w.0.h g oXN.E &.B 4 4 5 5 4 7 7 7 8 8 7 8 n n n n n n n n n n 5 n 7 5 7 5 5 5 5 4 M *.Q XX-X1X.Xv e.h.B.|.{ J J J ",
"! E } H.C.b.h.e.0.h r r.F.z.T &.V 5 4 5 7 7 7 8 8 8 8 8 n n n n M n n n n n , n 7 7 5 4 5 4 5 U &.T A.oX+X1X:Xj 0.s.j.B.y.S J J ",
"~ ^ y.s.C.B.l.e.0.l 0.s.e.f.t.T *.4 5 5 5 5 7 7 n n 6 n n n n B n n n n n 6 n 6 6 6 6 5 5 5 4 &.L t.m.G.-X6X.Xd c e.h.w.e.h.F K ",
"~  .s.u.A e.e.f.w.e.z.t.u.0.z.S &.4 5 6 6 5 8 7 6 6 n n n n n n n M n n n n n 6 n 6 6 5 6 5 5 _ S j.M.G.>X<X.Xh 0.w.s.q.e.h.v.' ",
"~ U.h.u.q.k g B.x.Z.M.j.f.w.A.] _ 5 5 5 6 6 6 7 n n n n n n n n n n n n n n n 6 n 6 6 5 5 5 5 ) T j.M.G.OXa r c 0.e.c.j.u.h.b.U.",
"~ [.c.s.e.z g H.F.G.Z.B.h.i.G./ R 5 5 5 5 6 8 8 n 6 n n n B n B n n M n n n n n 6 6 6 5 5 6 5 R W j.N.XXOXd h c q.f.c.V.s.h.b._.",
"o.[.b.h.i.q.k M.#X%X#XN.z.f.M.%.8 5 5 6 7 6 7 7 n n n n n n B n n n n n n n n n n 5 5 6 5 5 5 n %.f.Z.G.q.r l 0.e.f.x.D.v.h.v.K.",
"o.{.n.c.s.u.A x 3X$XoXG.m.j.S %.5 5 5 5 6 7 8 8 6 6 n n n n n n n B B n n n n 6 n 6 n 5 6 5 5 5 *.D t.w.r d c w.s.x.V.|.D.h.k.L ",
"~ _.[.v.l.s.q.^.7X@XOXG.N.f.u 1.5 6 5 6 6 8 6 8 n n n n n n n n n n n n n n n 6 6 6 5 6 6 6 5 5 1.p y.s.s.h 0.e.h.x.C.}.V.R.^ J ",
"~ E  .I.k.a.y.:X7X-X=XC.l.v N $.5 5 5 6 6 7 8 8 6 n n n n n n n n n n n n n n n n 6 n 5 5 5 5 5 &.C t.j.m.t.0.e.j.b.D.v.T.7.~ J ",
"~ Y I Y Y Y Y =X4X7X7X2Xk.0.! ) 5 5 5 6 5 6 6 8 8 6 8 8 n n n n n n B n 8 n n 8 6 6 6 6 6 5 6 5 ) Q g.m.Z.N.l.f.A q.q.w.a.2.I J ",
"~ ~ P Y P Y Y ~._._._.&Xh.u.&.M 5 5 5 6 6 6 6 6 8 6 8 8 n n n n n 6 6 6 n n 8 8 6 6 6 6 5 6 4 4 B &.g.Z.G.G.C.g.k z q.i.h.@.E J ",
"~ ~ ~ Y P Y ! O.'.Y.O. .c.A 1.7 5 6 6 6 6 6 6 6 B 8 8 8 6 n n 8 n B 6 B 8 8 8 8 6 6 6 5 6 5 6 6 6 1.p.G.oXOX}.q.k q.i.h.c.+.~ J ",
"~ ~ ~ ~ ~ ~ ~ ~ ^ ~ ~ Y.V.S 3.6 6 6 6 6 6 5 6 6 8 8 8 8 n n V 3.9.V n n n 8 8 8 6 6 6 6 6 6 5 6 6 =.G OX$X3Xk k q.w.s.c._.+.~ I ",
"~ ~ ~ ~ ~ ~ ~ ~ ~ ~ ~ ~.C.S 1.6 6 6 6 6 6 6 6 6 6 6 n n n =.9.E V 9.=.n n 8 8 6 6 6 6 6 6 6 6 6 6 =.S %X;X7XL.0.u.s.c._.[.O.~ E ",
"~ ~ ~ ~ ~ ~ ~ ~ ~ ~ ~ !.}.W _ 6 6 6 6 6 6 6 6 6 6 6 n $.9._ i q q - ) 9.$.8 6 6 6 6 6 6 6 6 n 6 6 _ _ 5X6X7Xw.u.s.l._.[.{...~ E ",
"~ ~ ~ ~ ~ ~ ~ ~ ~ ~ ~ #.|.&.V 6 6 6 6 6 6 6 6 6 6 ) 9.$.p A g f w w q C _ 9.) 6 6 6 6 6 6 6 6 6 6 V &.,X4X4XY.] K.U._.).+.~ ~ I ",
"~ ~ ~ ~ ~ ~ ~ ~ ~ ~ <.<.W 3.n 6 6 6 6 6 6 6 6 R 9.3.2 D v.f.z j y t w y u i =.9.R 6 6 6 6 6 6 6 6 6 3.p.D.C.X.~ ~ ~ ~ ~ ~ ~ ! J ",
"~ ~ ~ ~ ~ ~ ~ ~ ~ ~ >.8.~ 3.7 7 6 6 6 6 6 V 3.4.N u x z 0.w.q.v k f t w w q.A m 3.3.V n 5 n 6 6 6 6 3.N Y.@.~ ~ ~ ~ ~ ! E I J J ",
"~ ~ ~ ~ ~ ~ ~ ~ ~ ~ ~ ~ L 1.6 6 6 6 6 M =.9.P u x v q.q.e.s.u.0.0.k k y t v B.j.S T 9.=.n 6 6 n 6 n 1.J ~ >.2.8.8.<.P 3 1 3 H J ",
"~ ~ ~ ~ ~ ~ ~ ~ ~ E E E W $.6 6 7 n $.9./ u q.A q.w.i.s.s.l.h.i.w.q.k g g g C.C.C.j.b ^ 9.$.n n 6 6 #.E ~ 5.8.8.2.E I 2 1 1 9 J ",
"~ ~ ~ ~ ~ ~ ~ ~ ~ ~ E I &.=.6 6 ) 9.&.p t.c.K.| s.s.h.l.c.v.c.h.s.e.q.q.k k j.H.H.D.f.' 3 %.9.) 6 6 1.&.E <.8.2.( ~ J 3 1 1 J J ",
"~ ~ ~ ~ ~ ~ ~ ~ ~ ~ E J #.*X9.9.<.3 K.{._.L.~ ~ J.c.c.b.[.[.b.c.c.d.s.q.q.u.i.B.V.l.l.o.~ L H 1.9.9.*X_ I ~ 2.<.>.J J J J J J J ",
"~ ~ ~ ~ ~ ~ ~ ~ ~ ~ I J & &.1.K J ~ / ~ ~ ~ ~ ~ ~ L._.{.{.~.{.[.b.c.h.d.] f.l.c.c.b.U.~ ~ ~ ! J N 1.%.& L ~ ~ I J J J J J J J J ",
"~ ~ ~ ~ ~ ~ ~ ~ ~ ~ ~ E < & 3 ! ~ ~ ~ ~ ~ ~ ( <.>.~ ^ T.T.~ Y.{.[.). .~ ~ | v._._.[.O.~ ~ ~ ~ ~ ~ H & < ~ ~ ~ I J J J J J J J J ",
"~ ~ ! E E ~ ~ ~ ~ ~ ~ ~ E Y Y Y E ~ ~ ~ ~ ` >.8.8.>.~ ~ ~ ~ ~ ~ ~ ~ ~ ~ ~ ~ o.'.{.R.~ ~ ~ ~ ~ ~ ~ ~ ~ ~ ~ ~ ~ ! J J J J J J J J "
};
