/* XPM */
static char *result[] = {
/* columns rows colors chars-per-pixel */
"64 64 232 2 ",
"   c black",
".  c #08080D",
"X  c #151416",
"o  c #18181B",
"O  c #322C10",
"+  c #1D1E22",
"@  c #1D1F2A",
"#  c #201F21",
"$  c #252325",
"%  c #26272C",
"&  c #282A34",
"*  c #2B2C35",
"=  c #353435",
"-  c #3B3735",
";  c #3D3936",
":  c #343438",
">  c #3E3B3A",
",  c #42360F",
"<  c #663E05",
"1  c #492C2A",
"2  c #4F332D",
"3  c #4A3539",
"4  c #413F3D",
"5  c #724B09",
"6  c #7A5708",
"7  c #796B08",
"8  c #6B6116",
"9  c #776719",
"0  c #7C7415",
"q  c #534C2A",
"w  c #46423E",
"e  c #574836",
"r  c #6A5830",
"t  c #746528",
"y  c #736733",
"u  c #353744",
"i  c #3A3B43",
"p  c #3B3D4C",
"a  c #3B3E51",
"s  c #503E4A",
"d  c #3F4048",
"f  c #3D4054",
"g  c #444545",
"h  c #4C4846",
"j  c #43434B",
"k  c #4C4C4B",
"l  c #5B4749",
"z  c #524D49",
"x  c #5D5347",
"c  c #52514F",
"v  c #464755",
"b  c #46495C",
"n  c #4B4D5B",
"m  c #554E53",
"M  c #555453",
"N  c #585756",
"B  c #5C5956",
"V  c #53555D",
"C  c #5C5B5B",
"Z  c #675C4A",
"A  c #645B58",
"S  c #776A4A",
"D  c #766A4C",
"F  c #6B6656",
"G  c #62605F",
"H  c #726C54",
"J  c #7A735A",
"K  c #484B64",
"L  c #4A4E64",
"P  c #4E5267",
"I  c #555766",
"U  c #595C63",
"Y  c #51556D",
"T  c #4A5A7A",
"R  c #545772",
"E  c #545972",
"W  c #625C65",
"Q  c #625B78",
"!  c #556177",
"~  c #656462",
"^  c #696567",
"/  c #6C6C6B",
"(  c #706F6E",
")  c #786D6C",
"_  c #6F706F",
"`  c #7C7763",
"'  c #6F6C77",
"]  c #747372",
"[  c #797877",
"{  c #767479",
"}  c #7B7A79",
"|  c #835B09",
" . c #896A07",
".. c #8C7804",
"X. c #99780B",
"o. c #886D16",
"O. c #997A15",
"+. c #A17F0A",
"@. c #897727",
"#. c #8E732B",
"$. c #8A7738",
"%. c #947B39",
"&. c #836F45",
"*. c #857748",
"=. c #937E44",
"-. c #887E5B",
";. c #846C70",
":. c #9B8507",
">. c #988C15",
",. c #9A8419",
"<. c #A48609",
"1. c #AD8C0F",
"2. c #AE920B",
"3. c #B5940E",
"4. c #BA970F",
"5. c #B89A09",
"6. c #A68817",
"7. c #AC8C12",
"8. c #A99417",
"9. c #B39314",
"0. c #BC9C12",
"q. c #B89915",
"w. c #BAA403",
"e. c #BCA716",
"r. c #BCA219",
"t. c #998424",
"y. c #9C8837",
"u. c #A9912A",
"i. c #B79828",
"p. c #A48838",
"a. c #AA9236",
"s. c #B59932",
"d. c #B9A624",
"f. c #BCA638",
"g. c #C5AC07",
"h. c #CBB404",
"j. c #D3BC05",
"k. c #D2B60E",
"l. c #C3A413",
"z. c #C5AD15",
"x. c #CCAB13",
"c. c #C5A91A",
"v. c #D0AF15",
"b. c #CAB415",
"n. c #CCB41B",
"m. c #D2B415",
"M. c #D5BB15",
"N. c #DABD16",
"B. c #D5B718",
"V. c #D4BC1C",
"C. c #DABD1A",
"Z. c #C6AC29",
"A. c #C7B223",
"S. c #D1BD26",
"D. c #C9BA38",
"F. c #DBC503",
"G. c #DAC309",
"H. c #DBC616",
"J. c #DDC31C",
"K. c #E2CC03",
"L. c #E6CD0B",
"P. c #E6D104",
"I. c #EBD602",
"U. c #EBD509",
"Y. c #F1DC01",
"T. c #F2DC0A",
"R. c #E2C916",
"E. c #E1C61D",
"W. c #E4CB1B",
"Q. c #E7D414",
"!. c #EBD51B",
"~. c #EEDA1B",
"^. c #F0DB19",
"/. c #F6E101",
"(. c #FAE502",
"). c #FFEB00",
"_. c #FCE80D",
"`. c #FBE715",
"'. c #F5E31D",
"]. c #FAEA1D",
"[. c #DBC825",
"{. c #D2C335",
"}. c #DAC938",
"|. c #E3CE23",
" X c #E6D326",
".X c #EAD421",
"XX c #EFDA23",
"oX c #F2DE25",
"OX c #F1DD2A",
"+X c #E0CE35",
"@X c #E8D63A",
"#X c #F6E426",
"$X c #F9E62B",
"%X c #FBEB29",
"&X c #8D8348",
"*X c #978A49",
"=X c #948853",
"-X c #AB924B",
";X c #A59948",
":X c #A99556",
">X c #B7AA47",
",X c #B2A64E",
"<X c #B7A554",
"1X c #8B846E",
"2X c #9C9269",
"3X c #A7966D",
"4X c #B5A96D",
"5X c #C7B84B",
"6X c #C8B070",
"7X c #D7C545",
"8X c #E8D44E",
"9X c #FDEB4F",
"0X c #556D92",
"qX c #79778F",
"wX c #677A98",
"eX c #7373A1",
"rX c #71809A",
"tX c #6D91B6",
"yX c #7B9AC1",
"uX c #75A5CF",
"iX c #948F88",
"pX c #A59C8A",
"aX c #A99897",
"sX c #8FA8B9",
"dX c #B6A9A9",
"fX c #BFB0AF",
"gX c #88A3C8",
"hX c #8EBCDF",
"jX c #92BDDE",
"kX c #A9CFE7",
"lX c #B5D8EB",
"zX c #C6E3EE",
/* pixels */
"d g g g g g g g g g g g g g g k M c c M B C rXgXrXU G } { } } [ C N N N N N N U rXgXrXU M M M N N N N N N N N N N M g g g g g g ",
"g g g g g g g g g g g g g g g g c N N N U wXyXhXyXwXU { iX;.} } G N N M N N U wXyXjXyXwXI M N N N N N N N N N N N g g g g g g g ",
"g g g g g g g g g g g g g g g g h N V C 0XtXhXlXjXtXiX,X5X7X{.{.{.{.{.{.S.5XpXsXjXlXjXtX0XU N N N N N N N N N N c g N _ G g g g ",
"g g g g g g g g g g g g g g g g g N c Y 0XuXkXlXlXuXeX;.u.h.j.F.F.F.F.h.g.3XwXgXlXzXkXuX0X! N N N N N N N N N N c g / / _ g g g ",
"g g g g g g g g g g g g g g g g g c c c T tXkXzXlXsX4XOX_.XXS.A.d.d.A.S.OX$X6XsXkXzXlXtX0XV N N N N N N N N N N M g ~ / / C g g ",
"g g g g g > > w g g g g g g g g h N M z z y.G.(.h.(.(.Q.:X4 * r 9.9.t % w <XU.).(.w.F.^.D N N M N N N N N N N N V g k / V g > g ",
"g g g w ; - ; g d g g g g g k M N N c z u.r.w.I.Y.).L.s.4 % q 9.<.+.7.- % c s.(.).Y.g.).D.M N z z N N N N N N N N c g k w ; ; ; ",
"g g g > ; - > ; > g g k M N N N N N z S v.l.g.(.Y.).l.*X# # 9 6.r.i.6.9 # # -XL.).Y.G.K.i.N N z k c N N N N N N N M g g w > > g ",
"g g g > - - - - g k M N N N N N N M c S H.4.g.).I.).0.#.X X 9 6.O.O.O.o.X o u.k.).I.).2.<.*XN M z z M N N N N N N N c d g g g g ",
"g g g w - - 4 c M N N N N N N C ( ] / B B.4.j.I.).`.M.d.0 O 6 O.u.7.O.6 O 0 A.M._./.(.w.6 s.N z z k c N N N N N N N N k g g g g ",
"g k k k k M N N N N N N N N N C _ } } ] Z.l.g.I.).M.3.a.Z.Z.S.S.V.V.B.A.Z.i.u.4.H.).P.w.6 S N c z z M N N N M N N N N c g g g g ",
"N N N N N N N N N N N N M N N N N C [ 1XJ.l.:.Y.U.#.e s U U ^ ] ( N n k m v W D O.I.(.2.5 S N M M M N N M c c c N N N N k g g g ",
"N N N N N N N N N N c c c c M N N ( } 2XR.1.g.(.X.n v & p L V U W n j p p i p : O <.).h.< y.N N N N N N c c c c M N N N M g g g ",
"N N N N N N N N N N M c c c c N M N M *.W.j.P.F.h L p % u s L I L p d i * V b p & e K.K...a.N N N N N N M c c c N N N N N k g g ",
"N N N G _ ~ N N N N N M M N N c z h c k !.T.K.z.b a & u L P Y I Y L K p v b L L L L G.K.h.p.N N N N N N N M M N N N N N N N g g ",
"N N N [ } ] N N N N N N N N N c z k c c !./.I.P.A K K K F S *.*.%.%.*.&.D A P E E J g.(.P.*.N N N N N N N N M M N N N M N N k g ",
"N N ~ [ } } G N N N N N N N N c k M c c |./.).K.Q.B y.e.z.z.z.z.z.z.z.z.z.z.r.y.J G.F.).T.Z N N N N N N N N N N N N N c z z c g ",
"N N _ [ } ^ N N N N N N N N N N N M c c ~.L.H.7 F.Q.H.b.z.z.z.H.R.Q.M.x.z.z.b.H.Q.2.H.H.Y.=.N N N N N N N N N N N M c c z z c h ",
"M N N / ^ N N N N N N N N N N N N N c F A.e..X7 :.#XR.R.H.v.5.X.)./.+.0.x.M.R.E.'.>.J.r.x.p.N N N N N N N N N N N C B F z z z z ",
"c c N N N N N N N N c M N N N N N N N q.q.> ^ 0 :.`.].~.R.M.x.4.)./.4.x.B.R.!.'.Q.,.n i q.p.N N N N N N N N N N N ] G N z z z c ",
"c c N N N N N N N N M c M N N N N N A %.t.[ ^ =.7 ).].^.R.N.x.3.)./.4.x.M.R.!.].Q.y P ! -X=.N N N N N N N M N N N / [ ~ c z z M ",
"c c M N N N N N N N c c c N N N N N N aX:X( 3 *.O /.].^.R.N.x.3.)./.4.x.M.R.!.'.~.y L 3 a.aXN N N N N c c c c M N C _ [ / ~ M M ",
"c c M N N N N N N M c c c M N N N N m fXp.s A =X .).].^.W.N.x.4.)./.4.x.M.R.!.'.~.=.Y h %.fXN N N N N c c c c M N N N C C N N N ",
"c N N N N ~ / ~ ~ _ C M c N N N N N B dX-X3 1 2X..).].^.R.N.x.4.).(.4.x.M.R.!.'.~.&XI 1 p.fXc z M N N N M M M M N N N N N N N N ",
"N N N N N / [ [ } } [ G N N N N N N N iX6X1 qX3X .(.%X^.W.N.x.3.)./.4.x.M.R.!.'.Q.&XI 1 p.dXz z z z M B N N N N N N N N N N N N ",
"N N N N N N [ [ } } / C N N N N N N A W :X3 s -.../.~.~.H.H.x.4.)./.4.x.M.R.~.^.L.=.qXl p.) z z z z z M N N N N N N N N N N c z ",
"N N N N N N C / [ ] G N N N N N N N M N p.D 3 *.:.).L.k.e.3.w.5.).(.5.5.5.e.v.P.Y.*XW 1 i.z z z z z z M N N N N N N N M c w ; ; ",
"N N N N N N N N C N N N N N N N N N N N p.#.2 =X:.(.D.,X,X,X,X>X5X5X>X>X,X,X,XD.Y.:Xx ^ u.l z z z z c N N N N N N N N g = - - w ",
"N N N N N N N N N N N N N c N N N N N N *.*Xs 1X:.H.P Y Y Y Y Y Y Y Y Y P Y Y L L.4Xm iXp.M c B F / N N N N N N N M d > - = - - ",
"N N N N N N N N N N C c M c M N N N N C S *XQ *X..M.p u u u d b f p p p p v p k b.u.~ r y./ ~ ~ _ } _ N N N N N M g 4 > - - - ; ",
"N N N N N N N N N N N c c c c N N N &.U N 7.n >Xr.3.e., @ & d d u @ $ % : & q z.9.z.I #.&X( 1X3X} } _ N N N N M d k w > > > 4 g ",
"N N N N N N N N N N N M c c M V N N 7X;.' i.i S.G.M.e.r.,.t.y.u.8.8.8.,.t.,.r.r.c.H.y #.2X{ >X3X} _ G N N N N g g g g d d w g g ",
"z N N N N N N N N N N N c c N N N N S s.s.<Xt H.U.H.V.S.V.[.V.V.n.S.J.S.V.J.V.V.Q.G.8.u.:Xd.*.N N N N N N N M g g g g g g g g g ",
"c N N N N N N N N N N N N c N N N N N N D i.q.g.*.J J J J J J J J ` J ` 1X8 y y D &X9.r.y.V N N N N N N N N M g g g g g g g g g ",
"N N ~ _ [ [ ( N N N N N N N N N N N M M M %.g.*XE E Y f R a K P E R E R ~         qXy.0.Z N N V c c N N N N N g g g g g g g g g ",
"N N } } } [ } ~ N N N N N N N B c z k c n r F.Z b b b . u @ @ P L f p I j V     : I S I.&XN N N M M k M N N N k g g g g g g g g ",
"N N [ } [ / [ ~ N N N N N N N M z z c c m r 3.#.n f j       g f * % + % P *   . % n O.I.D.N N N N N M c M N N N g g g g g g g g ",
"c C C [ } ~ N N N N N N N N N c z z M c m r  .3.D M         g & + + @ % n * & : * r 7.I.q.N N N N N M c M N C _ / g g g g g g g ",
"c c M C G N N N N N N N N N N z z z c B N 5 6 0.5.@.x     % > * % V = = V p : $ 8 0.1.K.<.-.N N N N N N N N / } [ M g g g g g g ",
"M c z N N N N N N N N N N N N c h z c B $.5 6 1.x.v.e.8.#.S Z A ] M e e Z q >.t.x.x.1.x...:XN N N N N N N ~ / } } C g g g g g g ",
"N N M N N N N N N N M c M N N N N M N N &.5 5 1.x.x.c.[.C.V.b.b.n.f.y.;X@.d.A.l.x.x.9.4. .<X( N N N N N N B G ( _ M g g g g g g ",
"N N N N N N N N N N N c c N N N N B N N &.6  .1.v.v.v.m.|.n.r.8.6.7.8.r.n.|.n.m.v.v.1.j.X.4X} ~ N N N c z z x B N N c g g g g g ",
"N N N N N N N N N N M M c C U N N N N N &.6 w.1.v.B.B.m.J. X[.V.n.n.V.J..XV.m.m.m.l.7./.e.~ ( A N N N c c z c M N N N j g g g g ",
"N N N N N N N N N c c N ~ / } [ ^ N N N &.6 P.<.B.B.B.m.B.J.XXoXOXoX#X X[.B.B.m.c.m.9./.q.N N N N N N N N M N N N N N c g g g g ",
"N N N B N M N N N M M ~ G ~ ] } } / N N %.| j.g.V.C.C.C.V.J.9 o.8.>.0 O H.b.C.C.M.C.7.).3.N N N N N N N N N N N N N N N g g g g ",
"N N N z z z M N N N N G C C N C G A N N p.| j.j.v.C.C.C.N.J.9 X X o X X J.H.C.C.C.C.6.).<.D N N N N N N N N N N N N N N M k g g ",
"N c c z z z c z N N N N N N N N N N N N s.| K.K.l.J.J.E.H.E.9 o o o o # J.J.C.V.C.v.2.).:.e M N N B N N N N N N U ] / ~ [ _ M d ",
"B c z z z z z c N N N N N N N N N N N A i.| K.Y.9.J.E.E.E.E.@.# + + $ q E.E.E.J.C.C.g.).<.1 B B ^ ^ N N N N N N C } } } } ] C g ",
"B c z z z z z N N N N N N N N N N N N N i. .|.^.l.B.E.|.W.|.O.% % # % t |.W.E.J.H.V.j.).5.2 N _ } } ^ N N N N N N / } } } ] k g ",
"N c z z z z z B N N N N N N N N N N N N i.7.8X9Xf.|.|.W.W.|.p.> - : - y |.|.W.E.V.z.G.).w.2 ~ } } ] / N N N N N N N ~ _ _ ~ c g ",
"N N c c z z c N N N N N N N N N N N M B a.x.8X9X9..X.X!.!..X6XpXpXpXpX6X.X!..X.X.XJ.k.).j.2 U } ] ~ c N N N N N N N N N N N N g ",
"N N N B N M B N N N N N N N N N N N N B a.8X9X9X7.XX.X.XXX^.R.m.v.x.m.B..X.X.X.X.XC.k.T.U.9 N / G c c c M N N N N N N N N N N k ",
"N N N N N N N N N N N N N N N N c c c c {.$X9X`.9..XXXXXXXXXW.N.N.M.N.J.XXXXXXXXOXV.c.(.(.[.C N M c M c M N N N N N N N N N N c ",
"N N N N N N N N N N N N N N N c z z z z }.).).).l.OXoXoXoXoXW.R.R.R.R.W.oXoXoXoXoXc.M.).Q.f.N N M c M N N N N N N N N N N N N c ",
"N N N N N N N N N N N N N N c z z M c c &X'.).).h.oX#XoXoX#X.XW.W.W.W.W.#X#X#X#X#Xe.L.T.U.=XN N N c c N N N N N N N N N N N N k ",
"N N N N N N N N N N / / ^ A N A / C B N N |./.).L.|.#X%X%X#XXX!.!.!.!.!.$X#X#X#X#Xk.).G. X*.N N N N c M N N N N N N N N N N M d ",
"N N N N N N N N N N ~ [ } } ] ] [ N N N N >X8X_.(.H.%X%X%X%XoX~.^.^.^.oX%X%X%X%X#XF.OX7X>Xc N N N N N N N N N N N N N N c h g g ",
"N N N N N N N N N N M N / ] [ [ G N N N M F @X4X@XY.|.%X%X%X#X'.].^.'.oX%X%X%XoXG.8X2XoXH N N N N N N N N ~ ] } [ _ k - > > 4 g ",
"N N N N N N N N N M c c c N N N N N N N M N >X7X! 4X@XU.'.%X%X#X].].].%X%X#X^.}.:XC J.;XN N N N N N N N N _ } [ _ c h - - - > g ",
"N N N N N N N N N N c c c N N N N N N N N N M ;X[.y [ d.Q.).).].`.`.^.`.(.Q.e.qX$. X;XN N N N N N N N N N / } _ C N h > ; > g g ",
"N N N N N N N N N N c c c c N N N N N N N N N N H {.}.G.t.y >.e.b.G.e.8.r t.G.[. XJ N N N N N N N N N N N N ( / G g g g g g g g ",
"N N N N N N N N N N M c c c M N N N N N N N N M N N &X{._.~.}.@X}.+X+X+X.X XD.*XM N N N N N N N N N N N N N N k g g g g g g g g ",
"N N N N N N N N N N N c N M c N N N N N N N U / ~ N V V F ;X{.{.{.>XH N N M M M N N N N N N N N N N N N N N N k g g g g g g g g ",
"N N c c k N N N N N N B c z z c c N N N N G ~ [ [ ~ N N N N V N N N N N N N N N N N N N N N N N N N N N N N N M g g g g g g g g "
};
