/* XPM */
static char *result[] = {
/* columns rows colors chars-per-pixel */
"64 64 239 2 ",
"   c black",
".  c #08080D",
"X  c #151416",
"o  c #18181B",
"O  c #322C10",
"+  c #1D1E22",
"@  c #1D1F2A",
"#  c #201F21",
"$  c #252325",
"%  c #23242C",
"&  c #2A292C",
"*  c #282A34",
"=  c #2B2C35",
"-  c #353435",
";  c #353437",
":  c #3B3735",
">  c #3D3936",
",  c #34343A",
"<  c #3E3B3A",
"1  c #493317",
"2  c #492B29",
"3  c #4A3539",
"4  c #413F3D",
"5  c #503533",
"6  c #6E480A",
"7  c #764D07",
"8  c #7A5708",
"9  c #796B08",
"0  c #6B6116",
"q  c #776719",
"w  c #7C7415",
"e  c #544B2B",
"r  c #46423E",
"t  c #564837",
"y  c #6C5929",
"u  c #6B5839",
"i  c #726429",
"p  c #736733",
"a  c #353744",
"s  c #3A3B43",
"d  c #3B3D4C",
"f  c #3B3E51",
"g  c #503E4A",
"h  c #3F4048",
"j  c #3D4054",
"k  c #444545",
"l  c #4A4645",
"z  c #4E4A47",
"x  c #43434B",
"c  c #4C4C4B",
"v  c #5B4749",
"b  c #524D49",
"n  c #52514F",
"m  c #5D5248",
"M  c #464755",
"N  c #46495C",
"B  c #4B4D5B",
"V  c #5A4E53",
"C  c #555453",
"Z  c #585756",
"A  c #5C5956",
"S  c #52535C",
"D  c #5C5B5B",
"F  c #675B49",
"G  c #645C58",
"H  c #73684A",
"J  c #77694A",
"K  c #6B6654",
"L  c #62605F",
"P  c #726C54",
"I  c #7A7359",
"U  c #484B64",
"Y  c #4A4E64",
"T  c #4E5163",
"R  c #4E5169",
"E  c #565766",
"W  c #51556D",
"Q  c #525671",
"!  c #545972",
"~  c #5C5D77",
"^  c #625C65",
"/  c #625B78",
"(  c #656462",
")  c #696667",
"_  c #6C6C6B",
"`  c #706F6D",
"'  c #6F706F",
"]  c #7C7763",
"[  c #6F6C77",
"{  c #747372",
"}  c #797877",
"|  c #767479",
" . c #7B7A79",
".. c #835B09",
"X. c #896A07",
"o. c #8C7804",
"O. c #99780B",
"+. c #886D16",
"@. c #997A15",
"#. c #A17F0A",
"$. c #897727",
"%. c #8C722D",
"&. c #8A7738",
"*. c #957C3C",
"=. c #836F45",
"-. c #857443",
";. c #857949",
":. c #937D44",
">. c #8D7857",
",. c #8E6461",
"<. c #9B8507",
"1. c #988C15",
"2. c #9A8419",
"3. c #A48609",
"4. c #AD8C0F",
"5. c #AC9506",
"6. c #B5940E",
"7. c #BA970F",
"8. c #B89A09",
"9. c #A68817",
"0. c #AC8C12",
"q. c #B18F13",
"w. c #A99417",
"e. c #B39314",
"r. c #BC9C12",
"t. c #B89915",
"y. c #BAA403",
"u. c #BEA313",
"i. c #BCA219",
"p. c #BBAA18",
"a. c #998424",
"s. c #9C8836",
"d. c #9F903C",
"f. c #B18D2F",
"g. c #A8942A",
"h. c #B99C27",
"j. c #B3932A",
"k. c #A48837",
"l. c #AA9235",
"z. c #B49732",
"x. c #B9A624",
"c. c #AEA13A",
"v. c #BCA737",
"b. c #C3AD02",
"n. c #C6AB0C",
"m. c #CBB401",
"M. c #CBB407",
"N. c #D3BC05",
"B. c #D2B60E",
"V. c #C3A413",
"C. c #C5AD15",
"Z. c #CCAB13",
"A. c #C5A91A",
"S. c #D0AF15",
"D. c #CAB415",
"F. c #CCB41B",
"G. c #D2B415",
"H. c #D5BB15",
"J. c #DABD16",
"K. c #D5B718",
"L. c #D4BC1C",
"P. c #DABD1A",
"I. c #C6AC29",
"U. c #C7B223",
"Y. c #D1BD26",
"T. c #C7B838",
"R. c #CCBD38",
"E. c #DBC503",
"W. c #DAC309",
"Q. c #DAC415",
"!. c #DDC31C",
"~. c #DBC818",
"^. c #E2CC03",
"/. c #E5CD0B",
"(. c #E6D104",
"). c #EBD602",
"_. c #EBD509",
"`. c #F1DC01",
"'. c #F2DC0A",
"]. c #E2C916",
"[. c #E1C61D",
"{. c #E4CB1B",
"}. c #E6D415",
"|. c #E9D413",
" X c #EBD51A",
".X c #EEDB1B",
"XX c #F0DB19",
"oX c #F6E101",
"OX c #FAE502",
"+X c #FFEA00",
"@X c #FBE80D",
"#X c #FBE715",
"$X c #F5E31D",
"%X c #FAEA1D",
"&X c #DBC823",
"*X c #D3C02D",
"=X c #D2C335",
"-X c #DECC36",
";X c #E3CE23",
":X c #E6D327",
">X c #EAD421",
",X c #EFDA23",
"<X c #F2DE25",
"1X c #F1DD2A",
"2X c #E0CE35",
"3X c #E9D739",
"4X c #F6E426",
"5X c #FAE72B",
"6X c #FBEB29",
"7X c #8D8242",
"8X c #8C834D",
"9X c #978B48",
"0X c #9D9247",
"qX c #928657",
"wX c #A78C43",
"eX c #AF924C",
"rX c #A69B48",
"tX c #AB9555",
"yX c #B8A947",
"uX c #B2A64E",
"iX c #B8A358",
"pX c #8E886D",
"aX c #988366",
"sX c #A39A78",
"dX c #B8A76E",
"fX c #C7B947",
"gX c #C5B655",
"hX c #C8B070",
"jX c #D9C543",
"kX c #E8D44E",
"lX c #FDEB4F",
"zX c #FAEA69",
"xX c #7C7780",
"cX c #998F87",
"vX c #A59C8A",
"bX c #AD9D9C",
"nX c #B6AAA9",
"mX c #BFB0AF",
"MX c #C3B5B5",
/* pixels */
"h k k k k k k k k k k k k k k c Z n b C Z Z Z Z Z Z D  .} } pXdX-X=X=XrXK S Z Z Z Z Z C n n C Z Z Z Z Z Z Z Z Z Z C k k k k k k ",
"k k k k k k k k k k k k k k k k n Z Z Z Z Z Z C Z 8X=X3X,X-X-X-X-X2X-X.X#X=X8XZ Z Z Z Z n Z Z Z Z Z Z Z Z Z Z Z Z k k k k k k k ",
"k k k k k k k k k k k k k k k k z Z Z A Z A Z 8X:X&XW.a.u w.p.D.Q.p.1.p a.W.-XR.P Z Z Z Z n Z Z Z Z Z Z Z Z Z Z C k D ' L k k k ",
"k k k k k k k k k k k k k k k k k C n b n C rX;XJ xXp.}.+X#X#X@X#X#X+X+X}.p.} p *XrXZ Z Z Z Z Z Z Z Z Z Z Z Z Z c k _ _ ' k k k ",
"k k k k k k k k k k k k k k k k k n n z b d.&XD uXjXXX4X6X6X4X%X%X4X6X6X4X|.3XdX^ jXuXZ Z Z Z Z Z Z Z Z Z Z Z Z C k ( _ _ D k k ",
"k k k k k < < r k k k k k k k k c Z C b H <XaXkX~.<X6X6X6X4X$X$X$X$X4X6X6X6X:X`.kXdX1XD Z Z Z C Z Z Z Z Z Z Z Z Z k c _ Z k < k ",
"k k k r > : > k h k k k k k c C Z Z m b c.=X4XW.<X6X6X6X6X.X.X.X.X.X<X6X6X6X6X~.+X#X-XyXZ Z Z z n C A Z Z Z Z Z Z c k c r > : : ",
"k k k < > : < > < k k c C Z Z Z Z Z n J >XH.+XB.4X4X4X6X4X.X.X X.X}.,X4X6X4X4X&X/.+XoX;XZ Z Z v z n A C Z Z Z Z Z Z k k k < < k ",
"k k k < : : : > k c C Z Z Z Z Z Z Z b 9X/.`./.C.<X4X4X<X4X{.{.{.;X}.>X4X<X4X4X<XM.+X+XXXqXA A Z z z C Z Z Z Z Z Z Z n k k k k k ",
"k k k 4 : : r c C Z Z Z Z Z Z D ` ` _ fX_.+XK.A.<X<X<X<X<X].].].~.~.;X,X<X<X<X<XV.+X+XOX=XZ Z b b z n Z Z Z Z Z Z Z Z c k k k k ",
"c k c c c C Z Z Z Z Z Z Z Z Z D [  .xX2X'.+XA.K.<X,X,X,X,XP.J.J.J.J.{.,X,X,X,X,X6.@XlX5XY.D Z b b b C Z Z Z S Z Z Z Z C k k k k ",
"Z Z Z Z Z Z Z Z Z Z Z Z C Z Z Z Z G | %.|.'.D.P.,X>X>X,X>XJ.D.B.B.B.[.,X>X,X>X>X0.lXzXkXl.Z Z Z Z Z Z Z C n n n S Z Z Z c k k k ",
"Z Z Z Z Z Z Z Z Z Z n n n n C Z Z `  .t N.+XM.;X X>X{.>X>XhXvXvXvXvXhX.X X X X>Xe.lXkXF.f.E Z Z Z Z Z Z n n n n Z Z Z Z C k k k ",
"Z Z Z Z Z Z Z Z Z Z n n n n n Z C A C 1 8.+XN.A.K.;X{.;X>Xp < , ; ; k.;X{.;X;X;Xz.lX3Xq.h.G Z Z Z Z Z Z C n n n Z Z Z Z Z c k k ",
"Z Z Z L ' ( Z Z Z Z Z C C Z Z n z z v 1 6.+XN.P.!.P.[.{.;Xy % $ $ $ a.{.;X{.[.K.i.%X{.X.j.Z Z Z Z Z Z Z Z C n Z Z Z Z Z Z C k k ",
"Z Z Z }  .} Z Z Z Z Z Z Z Z Z n b c n 2 3.+Xn.P.P.P.[.;X;X1 # $ # # $.{.[.[.[.[.t.'.E...h.Z Z Z Z Z Z Z Z Z C n Z Z Z Z Z Z c k ",
"Z Z ( }  . .L Z Z Z Z Z Z Z Z c c Z n e <.+X5.F.P.K.P.!.[.$ o o o o q [.!.[.!.!.V.(.^...j.Z Z Z Z Z Z Z Z Z Z Z Z Z A b b b n k ",
"Z Z '  . .) Z Z Z Z Z Z Z Z Z C Z Z c H 3.+X3.!.P.P.P.!.[.X X o X X q !.J.!.P.!.S.N.N...k.Z Z Z Z Z Z Z Z Z Z Z Z C b n b b b z ",
"C Z Z _ ) Z Z Z Z Z Z Z Z Z Z Z Z Z n C e.+X0.P.P.P.P.P.P.O w 1.w.w q P.J.P.L.K.K.u.N...*.Z Z Z Z Z Z Z Z Z Z Z Z D D L b b b n ",
"n n Z Z Z Z Z Z Z Z C C Z Z Z Z Z Z Z n t.oXe.G.V.S.K.K.[.>X,X,X1X1X>X;XK.G.K.K.K.3.(...-.Z Z Z Z Z Z Z Z Z Z Z Z { L A b z z n ",
"n n Z Z Z Z Z Z Z Z Z n Z Z Z Z Z Z Z A 8.OX4.V.G.G.G.Y.>X!.Y.F.F.L.&X>X!.G.G.G.G.0.n.7 =.Z Z Z Z Z Z Z Z C Z Z Z _ } ( C n c C ",
"n n C Z Z Z Z Z Z Z n n n Z Z Z Z Z Z 0XO.N.q.S.Z.G.F.;XF.i.e.w.9.w.i.F.;XF.S.S.S.0.X.7 -.A Z Z Z Z Z n n n n C Z D ' } _ K C Z ",
"n n C Z Z Z Z Z Z C n n n C Z Z Z Z Z uXX.7.6.Z.Z.V.U.A.$.0Xd.v.F.D.D.Q.&X&XZ.Z.n.4.6 7 =.C Z Z Z Z Z n n n n C Z Z Z D D Z Z Z ",
"C C Z Z Z ( _ ( ( ' D C n C Z Z Z Z S wXO.M.q.V.D.a.1.e F t t C { G F P $.w.u.Z.Z.4.8 7 =.Z n n n Z Z Z C C C Z Z Z Z Z Z Z Z Z ",
"Z Z Z Z Z _  . . . .} D Z Z Z Z Z Z Z ;.3.(.0.u.0 $ , s S - - Z & = < $     m $.7.7.8 6 Z V b b b b C Z Z Z Z Z Z Z Z Z Z Z Z Z ",
"Z Z Z Z Z Z  . . . ._ Z Z Z Z Z Z Z Z Z i.`.4.y = , % = N % @ + o % x         Z J 7.O.y Z V b b z b b Z Z Z Z Z Z Z Z Z Z A n z ",
"Z Z Z Z Z Z Z _  .} L Z Z Z Z Z Z Z Z Z v.`.+.Y = .   = T * + * = h h       M h B $.5.u Z b b b b b z C Z Z Z Z Z Z Z n n r 4 > ",
"Z Z Z Z Z Z Z Z Z Z Z Z Z Z Z Z Z Z Z Z 8X`.-.R a     S M E d f U R * @ a . N N U m ^.u b z b b m b n Z Z Z Z Z Z Z Z k : : : 4 ",
"Z Z Z Z Z Z Z Z Z Z Z Z Z C Z Z Z Z Z Z F r.7X|         ( ! ! ! Q Y U f Q j ! ! ! 9Xp.*.Z Z n A D _ A Z Z Z Z Z Z Z k ; - : : : ",
"Z Z Z Z Z Z Z Z Z Z Z n C n C Z Z Z Z Z k.t.6.qXH i i i pX] ] ] I I ] I ] I I I 7Xy.r.x.J ) K L {  ._ Z Z Z Z Z C k h < : : : > ",
"Z Z Z Z Z Z Z Z Z Z Z n n n n Z Z Z ;.z.tXg.h.W.}.L.L.L.L.L.L.L.L.L.Y.L.L.Y.Y.~.(.Q.y iXrXfXpX . . .{ Z Z Z Z Z k k 4 4 < < 4 k ",
"Z Z Z Z Z Z Z Z Z Z Z Z n n C S Z 0XgX| aX%.p ~.i.p.i.2.a.1.1.w.w.g.g.a.2.t.u.H.E.&Xa l.xX,.jX .} ' L Z Z Z Z k k k k 4 h k k k ",
"z C Z Z Z Z Z Z Z Z Z Z n n Z Z C 8X) C :.%.E C.q.D.e % a # # # = x d = # 1 p.t.p.yXB w.Z Z I Z C Z Z Z Z Z C k k k k k k k k k ",
"Z Z Z Z Z Z Z Z Z Z Z Z C C Z Z Z Z Z Z s.u ( d.B.b d M f f f f N N d a a , a Q.+.9X/ wXH Z Z Z C A Z Z Z Z C k k k k k k k k k ",
"Z Z ( { } { _ D Z Z Z Z Z Z Z Z Z C n C k.cXV iX/.R Q W Q W R Q Q Q Q W ! ! W ~.<.qXg :.;.Z Z C c C Z Z Z Z Z k k k k k k k k k ",
"Z Z  . . . . .) Z Z Z Z Z Z Z Z C b b C f.K v tXoXT.uXuXuXuXfXfXfXyXuXuXuXuXv.+X3.>.2 %.k.Z Z Z C C b C Z Z Z n k k k k k k k k ",
"C Z }  .} _ } ( Z Z Z Z Z Z Z Z b b n n h.2 ^ 9X`./.D.u.6.8.5.+X+X8.8.8.p.M./.+X<.;.3 H k.A Z Z Z Z C n C Z Z Z k k k k k k k k ",
"n Z L }  .( Z Z Z Z Z Z Z Z Z n b b C ` k.v | >.(..X X].H.Z.7.`.+X8.Z.J.}..X.XoXo.>.g t tX( Z Z Z Z C C C Z Z ' ) k k k k k k k ",
"n n C Z L Z Z Z Z Z Z Z Z Z Z c b b m nXk.2 E 8X|.$X X].H.S.6.OX+X6.Z.J.{..X6XOXO.sX[ 2 hXcXZ Z Z Z Z Z Z Z )  . .C k k k k k k ",
"C n n Z Z Z Z Z Z Z C Z Z Z Z C b b n nXk.5 E 7X.X$X X].H.S.7.`.+X6.Z.J.{..X%X+Xo.aX2 g tXnXZ Z Z Z Z Z Z ( '  . .D k k k k k k ",
"Z Z Z Z Z Z Z Z Z Z C n C Z Z Z Z C Z mXk.g W :..X$X X].J.Z.7.OX+X6.Z.J.{.XX#X+X9 8XF 3 wXMX` Z Z Z A A A A L _ ' Z h k k k k k ",
"Z Z Z Z Z Z Z Z Z Z Z n n Z Z Z Z Z Z bXk.3 Y u .X$X X].H.Z.7.OX+X6.Z.J.{.XX%XOX1 &.3 ` tXbX .( Z A C n b b n D Z Z n k k k k k ",
"Z Z Z Z Z Z Z Z Z Z Z C C D L Z Z A Z :.tX~ Y p .X$X X].H.Z.6.`.+X6.S.J.{..X%X@X9 8X)  .a.wX` ^ Z Z Z n n b n C Z Z Z k k k k k ",
"Z Z Z Z Z Z Z Z Z n n Z L _  .{ ) C Z k.7.s B 1.|.$X X].J.Z.7.OX+X6.Z.J.{.XX%X@Xo.+.) s t.t.Z Z Z Z Z Z Z A Z Z Z Z Z n k k k k ",
"Z Z A A Z Z Z Z Z C C L ( ( }  . .) Z d.V.i.&X1.<X~.~.L.Z.r.#.OX+XO.r.Z.J.{.].4X<.9 >XC.p.K Z Z Z Z Z Z Z Z Z Z Z Z Z Z c h k k ",
"Z Z Z b z z n Z Z Z Z L D Z Z Z ( D Z :.OXW.~.5.}.~.D.C.n.C.K.{.].J.D.C.C.D.~.}.W.9 ~.}..XZ Z Z Z Z Z Z Z Z Z Z Z Z Z Z n c k k ",
"Z n n b b b n n Z Z Z Z Z Z Z Z Z Z Z F `.+XE.W.I s.A.C.C.D.C.C.D.C.C.A.C.p.s.F }.E.+XoX:XZ Z Z Z Z Z Z Z Z Z Z D ' _ L } ' C h ",
"A n b b b b b n Z Z Z Z Z Z Z Z Z Z Z ;.(.OXm.I ! ! R K J J -.*.*.-.;.J K U T U A ).`.OX>XZ Z Z ) ( Z Z Z Z Z Z L  . . . .} D k ",
"A n b b b b n A A C Z Z Z Z Z Z Z Z Z k.N.(.W.U U U Y j M d U Y W W W Y U a * g M C.^.'. XZ Z `  . ._ A Z Z Z Z Z _  . . .{ c h ",
"Z n b b b b b C Z Z Z Z Z Z Z Z Z Z Z z.X.E.(.t * f N E * s d d B E Y M a @ f U l E.^.N.{.8X(  . .' ) Z Z Z Z Z Z Z ( ' ' ( n k ",
"Z Z n b z b n Z Z Z Z Z Z Z Z Z Z Z C k.6 b.OX3.O , h a d d x B ^ E S S d * N N O.OXb.4.].8XD  .{ ( C Z Z Z Z Z Z Z Z Z Z Z Z k ",
"Z Z A A Z A Z Z Z Z Z Z Z Z Z Z Z Z A -.6 5.OX_.@.K L n n c c S [ { ) ( E s t @./.oX<.V.~.K Z _ L n n n C Z Z Z Z Z Z Z Z Z Z c ",
"Z Z Z Z Z Z Z Z Z Z Z Z Z Z Z Z n n b J 7 y.^.+XQ.7.j.h.A.F.K.L.J.!.Y.I.v.l.7.J.+X).b.V.I.Z Z Z C n n C n Z Z Z Z Z Z Z Z Z Z n ",
"Z Z Z Z Z Z Z Z Z Z Z Z Z Z Z n b b b f.8 y.OX`.@XQ.Y.w O 8 @.0.9.@.8 O 9 I.K.#X+X).N.6.G.A Z Z C n C Z Z Z Z Z Z Z Z Z Z Z Z C ",
"Z Z Z Z Z Z Z Z Z Z Z Z Z Z n b b C n 7X9.5.+X`.+XB.k.X o 9 2.@.@.9.q X X &.u.OX).+Xb.r.H.I Z Z Z n n Z Z Z Z Z Z Z Z Z Z Z Z c ",
"Z Z Z Z Z Z Z Z Z Z _ ` ( L Z G _ L Z S x.^.W.`.+X/.wX# # i 9.h.h.w.q + # s.u.+X`.OXb.V.B.I Z Z Z Z C C Z Z Z Z Z Z Z Z Z Z n h ",
"Z Z Z Z Z Z Z Z Z Z (  . . .{ `  .Z Z Z R.+Xn.`.+X'.z.b $ : w.9.9.q.e $ s yX_.OX`._.y.u.z.C Z Z Z Z Z Z Z Z Z Z Z Z Z Z n z k k ",
"Z Z Z Z Z Z Z Z Z Z Z Z ) }  .} D Z Z Z P $X^.y.OX+X_.iXr = i e.e.i & 4 tX/.+X+Xm.`.W.9XD Z Z Z Z Z Z Z Z L '  . .' l > > < 4 k ",
"Z Z Z Z Z Z Z Z Z n n n n Z Z Z Z Z Z Z Z 8X@X~.dXfX1X+X<XY.p.x.x.U.Y.,X'.'.Y.iX~.@X0XZ Z Z Z Z Z Z Z Z Z {  .} ' n k > : : 4 k ",
"Z Z Z Z Z Z Z Z Z Z n n n Z Z Z Z Z Z Z Z Z 9X$XjXeX,.f.b.m.E.E.^.N.N.m.f.,.,.>.*X0XZ Z Z Z Z Z Z Z Z Z Z _  .' L Z l < > < k k ",
"Z Z Z Z Z Z Z Z Z Z n n n n Z Z Z Z Z Z Z Z Z K eXyXR.=XT.=X=X*X*X*X*X*XY.v.k.0XH Z Z Z Z Z Z Z Z Z Z Z Z Z ' ' L k k h r k k k ",
"Z Z Z Z Z Z Z Z Z Z n n n n C Z Z Z Z Z Z Z Z Z F Z C A Z Z Z Z n C C Z V V n n n Z Z Z Z Z Z Z Z Z Z Z Z Z Z c c k k k k k k k ",
"Z Z Z Z Z Z Z Z Z Z Z n Z Z n Z Z Z Z Z Z Z G _ ( Z A Z Z Z Z Z C Z Z Z Z C C Z Z Z Z Z Z Z Z Z Z Z Z Z Z Z Z c h k k k k k k k ",
"Z Z n n n Z Z Z Z Z Z A n b z n b Z Z Z Z ( L }  .( Z Z Z Z Z Z Z Z Z Z Z Z Z Z Z Z Z Z Z Z Z Z Z Z Z Z Z Z Z C k k k k k k k k "
};
