/* XPM */
static char *result[] = {
/* columns rows colors chars-per-pixel */
"64 64 236 2 ",
"   c black",
".  c #08080D",
"X  c #151416",
"o  c #18181B",
"O  c #322C10",
"+  c #1D1E22",
"@  c #1D1F2A",
"#  c #201F21",
"$  c #26262A",
"%  c #282A34",
"&  c #2B2C35",
"*  c #353435",
"=  c #3C3735",
"-  c #3D3836",
";  c #343438",
":  c #3E3B3A",
">  c #42360F",
",  c #663E05",
"<  c #492C2A",
"1  c #4F332D",
"2  c #4A3539",
"3  c #413F3C",
"4  c #724B09",
"5  c #7A5708",
"6  c #796B08",
"7  c #6B6116",
"8  c #776719",
"9  c #7C7415",
"0  c #4F4930",
"q  c #574836",
"w  c #6A582F",
"e  c #746528",
"r  c #736733",
"t  c #353744",
"y  c #3A3B43",
"u  c #3B3D4C",
"i  c #3B3E51",
"p  c #503E4A",
"a  c #3F404A",
"s  c #3D4054",
"d  c #444545",
"f  c #484648",
"g  c #4C4C4A",
"h  c #5B4749",
"j  c #524D4A",
"k  c #5D5546",
"l  c #52514F",
"z  c #464755",
"x  c #46495C",
"c  c #4B4D5B",
"v  c #554E53",
"b  c #555453",
"n  c #585756",
"m  c #5D5956",
"M  c #53545C",
"N  c #57585F",
"B  c #5C5C5B",
"V  c #665C47",
"C  c #645C58",
"Z  c #776B4D",
"A  c #786A4B",
"S  c #62605F",
"D  c #6B6659",
"F  c #736C55",
"G  c #7A7359",
"H  c #484B64",
"J  c #4A4E64",
"K  c #4E5267",
"L  c #555765",
"P  c #5A5C63",
"I  c #51556D",
"U  c #4A5A7A",
"Y  c #545872",
"T  c #625C65",
"R  c #625B78",
"E  c #556177",
"W  c #656463",
"Q  c #696567",
"!  c #6C6C6B",
"~  c #716F6E",
"^  c #6F706F",
"/  c #7C7763",
"(  c #6F6C77",
")  c #747372",
"_  c #797877",
"`  c #767478",
"'  c #7B7A79",
"]  c #835B09",
"[  c #896A07",
"{  c #8C7804",
"}  c #99780B",
"|  c #886D16",
" . c #997A15",
".. c #A17F0A",
"X. c #897727",
"o. c #8E732B",
"O. c #897839",
"+. c #947C3C",
"@. c #836F45",
"#. c #857848",
"$. c #937E44",
"%. c #877F56",
"&. c #8D6463",
"*. c #9B8507",
"=. c #988C15",
"-. c #9A8419",
";. c #A48609",
":. c #AD8C0F",
">. c #AE920B",
",. c #B5940E",
"<. c #BA970F",
"1. c #B89A09",
"2. c #A68817",
"3. c #AC8C12",
"4. c #A99417",
"5. c #B39314",
"6. c #BC9C12",
"7. c #B89915",
"8. c #BAA403",
"9. c #BCA716",
"0. c #BCA219",
"q. c #998424",
"w. c #9C8937",
"e. c #9C913A",
"r. c #A9912A",
"t. c #B79928",
"y. c #A38635",
"u. c #A48939",
"i. c #A99335",
"p. c #B39633",
"a. c #B9A525",
"s. c #ADA038",
"d. c #BAA637",
"f. c #C5AC07",
"g. c #CBB404",
"h. c #D3BC05",
"j. c #D2B60E",
"k. c #C3A413",
"l. c #C5AD15",
"z. c #CCAB13",
"x. c #C5A91A",
"c. c #D0AF15",
"v. c #CAB415",
"b. c #CCB41B",
"n. c #D2B415",
"m. c #D5BB15",
"M. c #DABD16",
"N. c #D5B718",
"B. c #D4BC1C",
"V. c #DABD1A",
"C. c #C6AD2A",
"Z. c #C8B626",
"A. c #D1BD26",
"S. c #C5B738",
"D. c #DBC503",
"F. c #DAC309",
"G. c #DAC415",
"H. c #DDC31C",
"J. c #DBC818",
"K. c #E2CC03",
"L. c #E5CD0B",
"P. c #E6D104",
"I. c #EBD602",
"U. c #EBD509",
"Y. c #F1DC01",
"T. c #F2DC0A",
"R. c #E2C916",
"E. c #E1C61D",
"W. c #E4CB1B",
"Q. c #E7D414",
"!. c #EBD51A",
"~. c #EEDB1B",
"^. c #F0DB19",
"/. c #F6E101",
"(. c #FAE502",
"). c #FFEA00",
"_. c #FBE80C",
"`. c #FBE715",
"'. c #F5E31D",
"]. c #FAEA1D",
"[. c #CFC02A",
"{. c #D9C626",
"}. c #D7C636",
"|. c #E3CE23",
" X c #EAD422",
".X c #EFDA23",
"XX c #E6D328",
"oX c #F2DE25",
"OX c #F1DD2A",
"+X c #E0CE35",
"@X c #E8D63A",
"#X c #F6E426",
"$X c #FAE72B",
"%X c #FBEB29",
"&X c #8D8248",
"*X c #978A49",
"=X c #9C9148",
"-X c #8C8354",
";X c #988A58",
":X c #AB934B",
">X c #AB9555",
",X c #B2A64E",
"<X c #B8AB49",
"1X c #B7A558",
"2X c #91876C",
"3X c #A39A78",
"4X c #B6A86C",
"5X c #C6B74D",
"6X c #C8B070",
"7X c #D7C546",
"8X c #E8D44E",
"9X c #FDEB4F",
"0X c #FAEA69",
"qX c #566A8A",
"wX c #577096",
"eX c #7C7780",
"rX c #687B98",
"tX c #887C86",
"yX c #72829A",
"uX c #678BB6",
"iX c #7B98B8",
"pX c #7A9AC1",
"aX c #72A4CF",
"sX c #998F87",
"dX c #A59C8A",
"fX c #A89897",
"gX c #99A7A7",
"hX c #B5A8A8",
"jX c #BFB0AF",
"kX c #89A6C8",
"lX c #8DBCDF",
"zX c #92BCDE",
"xX c #A5CCE6",
"cX c #AAD1EA",
"vX c #B8DBED",
"bX c #C4E2EE",
/* pixels */
"a 0 a d d d d d d d d d d d d g b l l b n n n n n n C ' ' ' ' _ B n n n n n n n n n n l l l b n n n n n n n n n n b f d d d d d ",
"d d d d d d d d d d d d d d d d b n b n n n n n n l b _ ' ' ' ' S n n n n n n n n n n n l n n n n n n n n n n n n d d d d d d d ",
"d d d d d d d d d d d d d d d d g M n n n n n n n n l S ' ) S W n n n n n n n n n n n n m b b n n n n n n n n n b d n ^ P d d d ",
"d d d d d d d d d d d d d d d d 0 n j j l n n n n b l b W ^ n n n n n n n n n n n n n n m b n n n n n n n n n n g d ! ^ ^ d d d ",
"d d d d d d d d d d d d d d d d d l l j j j n n b l l l b b n n n n n n n n n n n n n n n n n n n n n n n n n n b d T ^ ! B d d ",
"d d d d d y : d d d d d d d d d f n b j j l n n b l b b b M n n n n n n n n n n n n n n n n n l n n n n n n n n M d f ^ n d = d ",
"d d d d = = = d d d d d d d g b n n l j j b n n b b b b n n n n n n n n n n n n n n n n n n n j l n n n n n n n n l d g 0 = = = ",
"d d d : = = : = : d d g b n n n n m j j b n n n n n n n n n n n n n n n n n n n n n n n n n m l j j n n n n n n n b d d a 3 : d ",
"d d d - = ; - - a g l n n n n n n n l n n n n n n n n n n n n n n n n n S _ _ ! D n n n n n n l j j n n n n n n n n b a d d d d ",
"d d d d = ; 0 g n n n n n n n S ^ ^ ! n n n n n n n n n n n n n n n n S ) ! C S _ _ B n n n n l j g l n n n n n n n b f d d d d ",
"f f g g g b n n n n n n n n n n ^ ' ' _ n n n n n n n n n n n n n n n B m C l l W ^ W n n n n l j j b n n n b n n n n b d d d d ",
"n n n n n n n n n n n n l n n n n P ' &.S n n n n n n n n n n n n n n n n l l b n n n n n n n b b l n n l l l l n n n n g d d d ",
"n n n n n n n n n n l l l l n n n ~ ' ~ B n n n n n n n n n n n n n n n l l l l b n n n n n n n n n n n l l l l n n n n n d d d ",
"n n n n n n n n n n b l l l l n b m b j b n n n n n n n n n n n n n n n n l l l b n n n n n n n n n n n n l l l n n n n n g d d ",
"n n n S ^ W n n n n n b b n n l j f j g j n n n n n n n n n n n n n n n n b l l l n n n n n n n n n n n n b l n n n n n n b d d ",
"n n n _ _ _ n n n n n n n n n l g g b l j n n n n n n n n n n n n n n n n n l l l b n n n n n n n n n n n n b l n n n n n n g d ",
"n n W _ ' ' S n n n n n n n n b j b l l l b n n n n n n n n n n n n n n n n n b n n n n n n n n n n n n n n n n n n n l j j l d ",
"n n ^ ' ' W n n n n n n n n n b M b l l l n n n n m n n n n n $.*Xn n n n n n n n n n n n n n n n n n n n b n n n b l b j j j g ",
"b n n ! W n n n b n m m n n n n n n l n m m n n m v M m n n n Q 5X#.n n l l n n n n n n n n n n n V n n b M M b n C m C j j j j ",
"l l n n n n n n b *Xr.A @.u.i.i.#.V &Xw.u.&XfXjXhXhX~ v n n n n ` t.m l j j n %.*X<X=Xn n n A q < 1 1 1 o.{.S.*X%.^ C n g j j l ",
"l l L E P b F S.a.-.5 4 4 , [ g.P././.l.7.>Xy.+.u.y.u.t.i.u.u.*X2X>Xw.w #.S.7.;.} [ } 6.7.5.;.*.;.1.1.h.Q.T.Q.U.|.,X2XS b j j l ",
"l N wXwXqX&X'.).K.>.8.8.>.g.K.K.(.).F.9.p Y 2 p < 1 h < D sXr r o.r.7.7.I.I.Y.K.f.<.h.(./.).).).).).).).T.).).Y.G.7XOX4XQ Q b m ",
"M yXuXaXiX_.D.l.F.).(.P.(.).L.j.g.D.G.J.c L c I L I eXT h v W P r t.5.O.@. .:.:.,.:.:.:.5.3.;.5.f.h.F.h.j.k.b.Q.).OX;X{.=Xb n n ",
"yXiXlXcXvXL.8.Y.Y.I.Y.).U.;.q J G F.>.=.-.r w &X&X$.#.$.>X4Xr.v.J.F.-XeXL c w 6.z.c.c.k.n.V.V.n.G.B.l.H.B.B.l.l.v.D.8XT XX&Xn n ",
"aXzXvXvXbX6XY.(.).)._.G.} O & K Y ! Q.'.!.Q.^.^.~.Q.P.Y.(.J.F.>.x.Q.Z   ; & & 7 l.z.z.c.x.M.V.N.V.V.N. X X.XoX#X%XoXJ.>Xw.XXb n ",
"yXiXlXcXxX5X(.T.P.m.M.<.D t y J Y w.J.J.'.'.'.'.'.'.^.L.S.K g 9.0.A.r     . * $ q.9.c.n.n.N.H.N.A.H.E. X X.XoX#X#X%XOX}.eX[.&Xg ",
"N rXuXkXkXXXU.p.i.y.Z.p.P d x H K k.v.J.!.!.!.!.!.!.!.n.,XI a 0 0.B.r       $ ; 4.b.b.n.N.N.H.V.W.E.W. X.X.XoXoX%X%X%X^.a.F.Z.- ",
"n W qXgX2X(.1Xb # X | t.g t M x S l.l.M.R.R.R.R.R.R.R.9.,XI z % -.B.7   M & & y 0 a.|.B.N.V.V.H.E.W.|.!. X.XoX#X#X%X%X#XQ.q.Q.- ",
"n n N 4Xa.#X0 $ # X O C.g y & z A v.l.z.m.m.m.m.m.m.j.1.,XI u ; q.G.2XW z K c M V X.B..XV.V.H.{.|.|.|.!. X.XoX#X#X%X%X%X).V ~.* ",
"n n n S.g.[.$ = 8 8 5 B.g a t u @.l.l.6.z.z.c.c.z.c.z.1.,XI u @ -.[.G Y L % $ * q =X6.{.XXO X O 1 7 A 6XM.H.R.W.XX~.#X%X`.4.XX3 ",
"n n n }.D.b.r 2.2.2.| B.c f a H #.l.m.*.<.<.<.<.<.<.<.1.<XI u $ =.H./ Y i o @ ; q e.4.H.oX| X o o $ = dXn.M.J.Q.Q.~.'.].'.9.+XV ",
"n n n }.D.a.5.;.t. .3.m.M c a K +.l.R.(./.Y././.Y.Y.(.(.5XI p @ 4.A./ I i & @ n b d.3.Z.#X=.X o # $ * dXj.H.J.J.~.~.'.]._.F.+Xs.",
"j b b }.D.a.<...t.-.2.B.( T J L $.l.Q.).).).).).).).).).5XI s ; =.B.G Y H & o % ^ v.3.b.OX4.X o # $ * dXj.M.R.W.!.^.'.].`.j.+X[.",
"b M b }.D.C.e :.2.2. .B.( L L I #.l.G.} ,.,.,.,.,.,.,.1.<XI H a r.B.G H K a $ & C v.4.B.OX9 X + # $ ; dXc.V.R.R.!.^.^.#X`.9.+X[.",
"n n Q 7Xh.A.& 0 | | 5 A.Q M J I @.k.z.<.z.z.z.z.v.z.z.1.,XY a a w.B./ H % a d : V b.0.H.OX8 7 8 X.q.e.6XE.W.!. X.XoX$X%X_.4.+X[.",
"n n ' 7Xf.oX3 $ + X O C.W M z J Z v.l.v.M.M.M.M.M.M.B.8.,XI t & q.G.G s @     $ F G.b.XXJ.H.H.H.W.W.Q.!. X.XoX#XoX$X%X$X).r .Xi.",
"b n _ 7X ._.>Xp + X 9 d.B y t H D l.l.M.W.W.R.W.R.W.R.k.,XI t @ -.B./ Y t       +.G.|.H.N.N.V.E.E.W.W. X X.XoX#X%X%X%X'.Q.q._.l ",
"b n P 5X&.T.!.p.*Xo.a.p.: & % t H 9.v.W.^.~.^.^.^.^.~.n.,XI t > 0.A.G i .       4.E.b.n.N.M.V.H.E.W.|.!. X.XoXoX#X%X%XU.a.F.[.d ",
"l l L 2X&.A.).U.k.6.N.<.q z u % K w.J.E.].].].].].].~.L.d.I y x.0.B.G Y z z   k 9.k.c.n.N.V.V.E.E.E.|. X.X.XoX#X%X%XXX@X) }.O.a ",
"n N wXyXtX1X).).).(.`.M.o.c H u H V Q.]._._.(.).).(.(.).).H.G.7.m.J.G Y x u n X.z.c.c.N.N.N.V.H.E.B.W. X X.XoXoX|.[./.4Xr [.d d ",
"B yXuXaXkXG.g.Y.Y.I.).).L.} f z V Q.D.*.*.7 O { { { { *.;.*.[ k.D.I.O.Y H x A 6.z.z.c.n.n.M.z.k.5.0.p.2.>.4.9.g.P.(.8XQ {.V d d ",
"yXpXlXcXxX)./.Y.).).I.I./.(.D.l.P.D.6 6 6 %.#.&X3X3X%.#.-X-X*X<X[.G.f.*XC  .:.<.:.:.:.3.;.k.F.K.Y.].9X9X9X`.).).)._.4X}.e.a d d ",
"kXzXvXvXvX*Xm.8.f.f.g.f.*.f.K.K.Y.).J.XXQ Q 2 V < ( p 2 1 p R x y w 7.f.K.1.[ 5 5 4 [ f.P.h.h.K.K.|.XX0X0X9X).)./.}.@Xs.d d d d ",
"rXiXlXcXxXn w.9.k.6.1.k.9.:.h.T./._.L.b.y ' Q p 2 < 1 A O.$.:X:.t.1Xa.+.q w w 4 4 4 5 4 5 ] ] ] ] ] 3.v.8X%X).^.XX<XS l d d d d ",
"N rXuXaXuXb C p.v.N.N.C.J.E.W.!.XXXX!.C.6. .>X:X>X6X>Xu.w.#.Z m ( :XZ m b b b n O.@.@.@.@.+.y.p.t.t.t.i.i.{.}.&Xn n n n g a a 0 ",
"n P wXwXU g b n G #.n T F &X-Xm T C b V 7.u.fXjXhXsXT N b n b n 2Xp.n n n b n n n b n n n m n n C C n n n n n n n n n n l g a a ",
"n n M I j j l l n n n n n n n n n n n n n n v n n n n n n n n G 7XZ n n n n n n n n n n n n n n n n n n n n n n B ^ ! W _ ^ b a ",
"n l j j j j j l n n n n n n n n n n n n n n n n n n n n n n n n M n n n n n n n n n n n n n n m Q Q n n n n n n S ' ' ' ' ) B g ",
"n j j j j q j n n n n n n n n n n n n n n n n n n n n n n n n n n n n n n n n n n n n n n n n ^ ' ' Q n n n n n n ! ' ' ' ) g d ",
"n b j j j j j n n n n n n n n n n n n n n n n n n n n n n n n n n n n n n n n b m n n n n n W ' ' ) Q n n n n n n n W ^ ^ W l d ",
"n n b j j j b n n n n n n n n n n n n n n m n b b n n n n n n n n n n n n b b l l b n n n n S ' ) W b n n n n n n n n n n n b d ",
"n n n m n b n n n n n n n n n n n n n m n l l l l l n n n n n n n n n n b b l l l b n n n n n Q S b l l b n n n n n n n n n n g ",
"n n n n n n n n n n n n n n n n l b j b n n b l l l n n n n n n n N W S n b l l l n n n n n n n b l l l b n n n n n n n n n n b ",
"n n n n n n n n n n n n n n n b j j j j n n n l l l b n n n n b W ) ' W n n b l n n n n n n n n b l b n n n n n n n n n n n M l ",
"n n n n n n n n n n n n n M b j j l l l n n n l l l b n n n b b Q ' _ B n n n b b n n n n n n n b l b n n n n n n n n n n n n g ",
"n n n n n n n n n n ! ! Q C m m ! S n n n n n n n b n n n n n b n ' ' _ ! n n n n n n n n n n n n n b b n n n n n n n n n n l d ",
"n n n n n n n n n n W ' ' ' ) ^ _ n n n n n n n n n n n n n l l l S ^ ^ ^ n m n n n n n n n n n n n n n n n n M n n n n l g d d ",
"n n n n n n n n n n b n ! ) _ _ S n n n n n n n n n n n n b l l l n n l l m n n n n n n n n n n n n n n n W ^ ' ' ! g - = 3 3 d ",
"n n n n n n n n n b l l l n n n n n n n n n n n n n n n n b l l l l l j j n n n n n n n n n n n n n n n n ^ ' _ ^ j f = = = : d ",
"n n n n n n n n n n l l l n n n n n n n n n n n n n n n n n l l g l j j j n b b n n n n n n n n n n n n n ! ' ^ S n f : = = d d ",
"n n n n n n n n n n l l l l n n n n n n n n n n n n n n n n n l j j j l l l l l b n n n n n n n n n n n n n ! ^ W d d d d d d d ",
"n n n n n n n n n n l b l l n n n n n n n n n n n n n n n n n n l l b n l l l l b n n n n n n n n n n n n n n l d d d d d d d d ",
"n n n n n n n n n n m l n l l n n n n n n n S ! S n n n n n n n m n n n n n b b n n n n n n n n n n n n n n b g d d d d d d d d ",
"n n l l j n n n n n n m l j j l g n n n n S W _ ' W n n n n n n n n n n n n n n n n n n n n n n n n n n n n n b d d d d d d d d "
};
