/* XPM */
static char *result[] = {
/* columns rows colors chars-per-pixel */
"64 64 231 2 ",
"   c black",
".  c #08080D",
"X  c #151416",
"o  c #18181B",
"O  c #322C10",
"+  c #1D1E22",
"@  c #1D1F2A",
"#  c #201F21",
"$  c #252325",
"%  c #26272C",
"&  c #282A34",
"*  c #2B2C35",
"=  c #353435",
"-  c #3C3735",
";  c #3D3836",
":  c #343438",
">  c #3E3B3A",
",  c #42360F",
"<  c #663E05",
"1  c #492B2B",
"2  c #4A3539",
"3  c #413F3D",
"4  c #503532",
"5  c #724B08",
"6  c #7A5708",
"7  c #796B08",
"8  c #6B6116",
"9  c #776719",
"0  c #7C7415",
"q  c #4F4930",
"w  c #584636",
"e  c #6C5C2A",
"r  c #6B5531",
"t  c #726429",
"y  c #736733",
"u  c #353744",
"i  c #3A3B43",
"p  c #3B3D4C",
"a  c #3B3E51",
"s  c #503E4A",
"d  c #3F404A",
"f  c #3D4054",
"g  c #444545",
"h  c #4C4846",
"j  c #43434B",
"k  c #4B4B4A",
"l  c #5B4749",
"z  c #524D49",
"x  c #52514F",
"c  c #5D5248",
"v  c #444657",
"b  c #4B4C52",
"n  c #46495C",
"m  c #4B4D5B",
"M  c #524F57",
"N  c #555453",
"B  c #585756",
"V  c #5C5956",
"C  c #53545C",
"Z  c #5C5B5B",
"A  c #675B49",
"S  c #655B57",
"D  c #736A4E",
"F  c #786A4B",
"G  c #6A6556",
"H  c #62605F",
"J  c #726C54",
"K  c #7A7359",
"L  c #484B64",
"P  c #4A4E64",
"I  c #4D5268",
"U  c #565866",
"Y  c #51556D",
"T  c #43587B",
"R  c #545772",
"E  c #545972",
"W  c #625C65",
"Q  c #625B78",
"!  c #656463",
"~  c #6A6567",
"^  c #6C6C6B",
"/  c #716F6E",
"(  c #6F706F",
")  c #7C7763",
"_  c #6F6C77",
"`  c #747372",
"'  c #797877",
"]  c #767478",
"[  c #7B7A79",
"{  c #835B09",
"}  c #896A07",
"|  c #8C7804",
" . c #99780B",
".. c #886D16",
"X. c #997A15",
"o. c #A17F0A",
"O. c #897727",
"+. c #8F7531",
"@. c #8A7738",
"#. c #836E45",
"$. c #857848",
"%. c #937E44",
"&. c #877F56",
"*. c #846C70",
"=. c #9B8507",
"-. c #988C15",
";. c #9A8419",
":. c #A48609",
">. c #AD8C0F",
",. c #AC9506",
"<. c #B5940E",
"1. c #BA970F",
"2. c #B89A09",
"3. c #A68817",
"4. c #B18F13",
"5. c #A99417",
"6. c #B39314",
"7. c #BC9C12",
"8. c #B89915",
"9. c #BAA403",
"0. c #BCA716",
"q. c #BCA219",
"w. c #998424",
"e. c #9C8836",
"r. c #A9912A",
"t. c #B79928",
"y. c #A38634",
"u. c #A48939",
"i. c #AA9236",
"p. c #B49933",
"a. c #B9A624",
"s. c #B9A539",
"d. c #C5AC07",
"f. c #CBB404",
"g. c #D3BC05",
"h. c #D2B60E",
"j. c #C3A413",
"k. c #C5AD15",
"l. c #CCAB13",
"z. c #C5A91A",
"x. c #D0AF15",
"c. c #CAB516",
"v. c #CCB41B",
"b. c #D2B415",
"n. c #D6BB15",
"m. c #DABD16",
"M. c #D5B718",
"N. c #D4BC1C",
"B. c #DABD1A",
"V. c #C6AC29",
"C. c #CBB925",
"Z. c #D1BD26",
"A. c #C8B938",
"S. c #DBC503",
"D. c #DAC309",
"F. c #DAC617",
"G. c #DDC31C",
"H. c #E2CC03",
"J. c #E6CD0B",
"K. c #E6D104",
"L. c #EBD602",
"P. c #EBD509",
"I. c #F1DC01",
"U. c #F2DC0A",
"Y. c #E2C916",
"T. c #E1C61D",
"R. c #E4CB1B",
"E. c #E7D414",
"W. c #EBD51A",
"Q. c #EEDB1B",
"!. c #F0DB19",
"~. c #F6E101",
"^. c #FAE502",
"/. c #FFEB00",
"(. c #FCE80D",
"). c #FBE715",
"_. c #F5E31D",
"`. c #FAEA1D",
"'. c #DBC825",
"]. c #DAC935",
"[. c #E3CE23",
"{. c #E6D327",
"}. c #EAD421",
"|. c #EFDA23",
" X c #F2DE25",
".X c #F1DD2A",
"XX c #E0CE35",
"oX c #E9D739",
"OX c #F6E426",
"+X c #F9E62B",
"@X c #FBEB29",
"#X c #8D8349",
"$X c #978B48",
"%X c #948A4C",
"&X c #A68C43",
"*X c #AD944E",
"=X c #A59948",
"-X c #AB9555",
";X c #B2A64E",
":X c #B7AA48",
">X c #B7A356",
",X c #91876A",
"<X c #A69370",
"1X c #B6A871",
"2X c #C6B749",
"3X c #C8B070",
"4X c #D8C442",
"5X c #CFC151",
"6X c #E8D44E",
"7X c #FDEB4F",
"8X c #E2D56E",
"9X c #566D91",
"0X c #79778F",
"qX c #677A96",
"wX c #7373A1",
"eX c #648BB5",
"rX c #7898BB",
"tX c #7A9AC1",
"yX c #75A4CE",
"uX c #948F88",
"iX c #A59C8A",
"pX c #A99897",
"aX c #8FA8B9",
"sX c #B6A9A9",
"dX c #BFB0AF",
"fX c #86A3C7",
"gX c #8DBBDE",
"hX c #92BDDE",
"jX c #A9CFE6",
"kX c #B5D8EB",
"lX c #C6E3EE",
/* pixels */
"d q d j g g g g g g g g g g g k N z z B B B B B B B Z [ [ [ [ [ Z B B B B B B B B B B x x x N B B B B B B B B B B N g g g g g g ",
"g g g g g g g g g g g g g g g g N B V B B B B B B N B ] [ [ [ [ H B B B B B B B B B B B x B B B B B B B B B B B B g g d g g g g ",
"g g g g g g g g g g g g g g g g k B B B B V B B B B x H [ ` Z ! B B B B B B B B B B B B V x B B B B B B B B B B N g Z ( H g g g ",
"g g g g g g g g g g g g g g g g g N x z z N B B B B x x ! ^ Z B B B B B B B B B B B B B V B B B B B B B B B B B k g ^ ^ ( g g g ",
"g g g g g g d g g g g g g g g g g N z z z x B B x x x x N B B B B B B B B B B B B B B B B B B B B B B B B B B B N g ! ( ^ H g g ",
"g g g g g > i q g g g g g g g g h B B h z x B B N x x x N B B B B B B B B B B B B B B B B B B x B B B B B B B B B g j ( B g > 3 ",
"g g g g ; - ; d g g g g g g k N B B x z z N B B B N N B B B B B B B B B B B B B B B B B B B B z x N V B B B B B B k g k q ; ; ; ",
"g g g > ; ; > ; > g d k N B B B B B z z c V B B B B B B B B B B B B B B B B B B B B B B B B B x z z B B B B B B N Z g d d > ; g ",
"g g g > - - ; ; g k N B B B B B B N x N B B B B B B B B B B B B B B B B H ' ' ^ ! V B B B B B x z z N B B B B B Z N N d g g g g ",
"g g g 3 - - 3 k B B B B B B B H ( ` ^ B B B B B B B B B B B B B B B B H ' ^ S S ' ' Z B B B B x z k x B B B B B B B N k g g g g ",
"k k k k k N B B B B B B B B B B ( [ [ ` B B B B B B B B B B B B B B B Z S V x x ! ( ! B B B B x z z N B B B N B B N Z N g g g g ",
"B N B B B B B B B B B N x B B B B S ' [ H B B B B B B B B B B B B B B B x x x x V B B B B B B B N N B B N x x x N Z N B k g g g ",
"B B B B B B B B B B x x x x N B B / [ / Z B B B B B B B B B B B B B B B N x N N N B B B B B B B B B B B x x x x B B B B N g g g ",
"B B B B B B B B B B N x x x N B N B N z N B B B B B B B B B B B B B B B N x k N N B B B B B B B B B B B N x x x B B B B B k g g ",
"B B B Z ( ! B B B B B N N B B x z z z h k B B B B B B B B B B V B B B B B N x x x N B B B B B B B B B B B N x B B B B B B N g g ",
"B B B ' ' ' B B B B B B B B B x h k N N z B B B V B B B B B B V B B B B B B x x x N B B B B B B B B B B B B N N B B B B B B k g ",
"B B ! ' [ [ H B B B B B B B N l z C z x x B C B B B B B B B B F 2X#.B V N V B M B B B B B V B B B B B B N V N C B B B z z k N g ",
"B B ( ' [ ! B B B B B B B B V N B B N N x B B B B B B B B B S t.,XB B V B N ~ uXsXsXpXu.8.A B C B B #X#XG N B $.K B l N Y N z k ",
"N B Z ^ ! B B B B %X].].i.i.t.t.t.p.y.+.#.#.#.#.#.N C C B S F *X0XM G #.y.y.-X3X*Xu.-Xw.q.V.E.{.{.W.R.R.Y.V.C.n.b.p.S 9X9X9XC x ",
"x x B B B N G :X[.!.~.+X6Xz.4.} } { { { { { 6 5 5 5 e r A +.t.>Xp.4.&X%.+.F 4 = 4 s ~ ' i k.E.^.~.U.h.,.j.j.<.1.j.7.&XeXyXeXqXZ ",
"N x B B B :XoX].~././.7X7X8X{.[.H.D.g.g.H.d.} 5 6 6 | 2.H.d.8.e u n Q s 1 2 s 0X1 S 2 ~ ~ {.F./.I.S.H.d.=.9.f.f.d.9.F.jXjXgXtXqX",
"k x N B =X4X1X)./././.).7X7X7X).I.H.J.9.:.>.>.:.>.7.<.X.c $X0.F.N.:X$X,X#X#X&.<X<X#X$.%.7 7 7 H.K.c.D./.~.I.L./.^.L.~.lXkXkXhXfX",
"x x N J ].W 6X/.K.f.j.4.4.r.s.7.6.q.x.M.M.b.l.l.l.2.D m n E @.J.S.q.| =.:.=.| | | 7 , 6 =.-.S.E.A n k  .K././.L.I.I.f.jXkXhXtXwX",
"N N C ].y 1XP.F.[. X X|.}.W.[.M.T.T.B.B.M.b.x.l.j.O.N f n E ) F.n.2.n.'././.^./././.~.^.)._.E.A f f P m O.F.)././././.aXyXrXqXZ ",
"B B #X].' XXW.@XOXOX X|.}.}.[.T.T.G.B.m.M.b.x.l.0.c   b v E K N.q.0.u Y s.D.!.`.`.`.`.`.`.Y.F.e.I & u v w 1.M.7.9.E./.1XwXuXU Z ",
"B B ].D.a.U.@X@XOXOX X|.}.W.R.[.T.G.G.M.M.c.v.'.5.      . a K '.a., : Y ;XF.!.!.!.!.!.!.!.R.c.j.L u % * i p.a.@.%.:XY..X*.>Xx z ",
"B G _.O.E._.@X@XOXOX X|.|.[.[.R.T.G.B.m.B.G.'.G.+.      u R ) N.;.$ u Y ;Xj.R.R.R.Y.R.R.R.m.k.k.S P i i Z s.0 X # 3 *X^.r.C.3 - ",
"B =X}.y /.@X@X@XOXOX X|.|.}.R.R.T.T.G.B.G.{.v.F.F %     @ a K G.w.* u I ;X2.n.F.m.m.m.n.m.l.k.k.F I v C W V.O X # $ 3  Xd.N.- 3 ",
"B ].XX5./.@X@X X|.}.R.[.T.3Xu.w.O.9 9 9 |.'.q.c.A 3 j d % L ) N.e.s p Y ;X2.l.l.l.l.l.l.l.7.c.k.$.Y P U ~ C.6 ..9 q % Z.g.N.- - ",
"b ].].0.).OX_.Q.Q.R.Y.F.h.iX2 % # o X 0 .XN.5.c.G * % f I L J N.r.j n Y :X2.8.2.1.<.1.<.1. .n.k.$.R C U ` N.X.3.3.5.t V.S.N.= > ",
"C ].].c.`.`.`.Q.E.R.F.m.h.iX= # # o X 5.|.v.5.c.( % o * L R K N.-.: n Y 2X/././././././././.E.k.$.Y P W _ n.3.3.q.o.6.a.S.C.3 g ",
"N :X].D.(.`._.Q.W.R.F.F.h.iX= # # o X 5..Xv.3.s.x Z + & f E ) '.5.@ p Y 2X^.~.~.~.~.~.~.~.~.R.k.@.L s M S Z.3.X.t.o.5.a.S.'.g g ",
"k G ].0.`._._.!.W.R.Y.m.M.iX; $ + o X 0  XN.6.u.q = $ o d E K C.-.% p Y :X,.2.1.1.1.1.1.1.o.F.k.@.L d j b N.X.X.3.3.y V.S.'.d g ",
"N Z XX5.).@XOXQ.W.R.T.G.B.3Xy e , # X O {.'.0.$Xw : % & E E ) F.;.$ p Y ;X2.l.l.l.x.x.l.l.7.k.k.F p i d k v.6 9 9 - * Z.f.Z.g g ",
"B B |.r ^.@X@X@X+X X X|.}.}.R.[.[.[.G.G.G.|.N.O.A U P I j ! ,Xc.w.: f Y ;X7.m.m.n.n.n.n.m.l.j.l.F f * p b V.O X + % q .X9.C.g g ",
"B B oXw.E.OX@X@X@X X X|.}.}.[.T.[.B.F.B.v.G.[.a.q i * * C   t N.;.& v Y ;X9.Y.Y.T.Y.Y.Y.Y.n.k.k.H v C i b a.| X # z >X.X<X2Xg g ",
"N B 5XH.a.!.@X@X+XOX!. X}.}.[.T.T.B.B.B.M.M.v.V.-.= %       y N.0.q p Y ;Xl.W.W.E.Q.E.W.Q.F.c.0.Y P v j W r.C.y.&Xp.U.3X0XiXm d ",
"N B %X'.[ 4X X@XOX X X|.}.W.T.T.B.M.B.B.b.b.x.j.w.$ : .     t G.0.k.k I A.J.!._._._.`._._.F.F.e.E P p u D 1.F.b.P.^./.aXfXaXqXk ",
"x x B {.@.-XY..XOXOX X|.|.[.N.G.N.M.B.B.j.b.x.l.k.8 * & :   D E.0.6.D.F.I.I.K.E.!.Q.Q.!.E._.E.K E P * O X.m.(./././.~.jXkXhXrXqX",
"N x x &.'.S 6XH.c.z.x.M.G.G.z.N.B.x.B.B.b.j.x.x.l.7.e m P 0X#XF.F.k.e.>X-X%X%X#X#X$.y y ;.-.,.F.K I w :.P./.I.I.I.I.9.lXlXkXhXyX",
"B B N B =X'.,XOX/.J.h.0.c.g.S.g.d.8.:.4.6.:.4.6.6.>.>...$.e.6.8.@.U ~ N l ~ 0XW U R m P n F.F.S.d.D.H.^.^.H.^.^.D.j.S.kXjXgXrXqX",
"B B B B B =X X4XF.P././.U././././././.^.~.^.g.7.d.J.I.L.K.8.7.r.O.y r iXS 1 s 1 1 s 2 Q i q.F./.^.K.S.f.,.9.9.,.H./.!.rXyXeXqXk ",
"B B B B B B J ;X{.P.E.~.E.g.2.1.:.:.:.<.7.2. .} | ,.0.s.#XA e.-X,X%.u.u.r.t.y.y.y.%.y.-X7.l.I.I.K.f.| < 5 5 7 -.a.A.J T 9X9Xn d ",
"B B B B B B B x #X$Xs.'.O.4 4 w 4 w F x B x $Xs.$X&.B B B B B p.] B B B N l / sXdXdXpX%.u.&X%.A F i.i.e.@.F i.$XC V V C T f q d ",
"B B B B N N B B B N N H H ! ] [ [ ^ B B N k N x N B B B B B B $.2X~ B B M N N N S N B B B B B B V B B B B B B B B B B B d d d q ",
"B B B x k k B B B B Z H Z V N Z H Z B B B N x N N B B B B B B B $X&.B B N N B B N V B B B B B B B B B B B B B B B B B B N k d d ",
"B N N z z z x z B B B B B B B B B B B B B B B B B B B B B B B B V B B B V B B B B B B B B B B V B V B B B B B B Z ( ^ ! ' ( B d ",
"B x z x w z z x B B B B B B B B B B B B B B B B B B B B B B B B V B B B N B B B B B B B B B B B ^ ! B B B B B B H [ [ [ ' ' G d ",
"B x z z z z x B B B B B B N B B B B B B B B B B B B B B B B B B B B B B B B B B B B B B B B B ( [ [ ^ B B B B B B ^ [ [ [ ` k g ",
"B x w z h z z B B B B B B V B B B B B B B B B B B B B B B B B B B B B B B B B N B B B B B B H [ [ ( ! B B B B B B B H ( ( ! x g ",
"B B B x z z N B B B B B B B B B B B B B B B B B N N B B B B B B B B B B B N x x x B B B B B H ' ` ! B B B B B B B B B B B B B g ",
"B B B B B B B B B B B B B B B B B B B B B N x x N N B B B B B B B B B B B N x x x N B B B B B ^ H x x x B B B B B B B B B B B k ",
"B B B B B B B B B B B B B B B B N x x N B B x x x x B B B B B B B Z ! H B B x x x B B B B B B B N x x x N B B B B B B B B B B x ",
"B B B B B B B B B B B B B B V x h z z w N B B x x x N B B B B B ! ` [ ! B B N x N B B B B B B B B x x B B B B B B B B B B B B N ",
"B B B B B B B B B B V B B B x z z N x N B B B N x x N B B B N N ^ [ ' Z B B B N N B B B B B B B B x x B B B B B B B B B B B B k ",
"B B B B B B B B B B ^ ^ ! H V V ^ H B B B B B B N N B B B B B N N [ ' ' ^ B B B B B B B B B B B B B x B B B B B B B B B B B x d ",
"B B B B B B B B B B H [ [ [ ( ( ' B B B B B B B B B B B B B x x x H ( ( ( V B B B B B B B B B B B B B B B B B N B B B B N k q d ",
"B B B B B B B B B B N V ^ ' [ [ H B B B B B B B B B B B B N x x x N B N x B B B B B B B B B B B B B B B B ! ( [ [ ( h ; - > 3 d ",
"B B B B B B B B B x x x x B B B B B B B B B B B B B B B B N x x x x x z z B B B B B B B B B B B B B B B B ( [ ' ( x g - - ; 3 d ",
"B B B B B B B B B B x x x B B B B B B B B B B B B B B B B B x x x x k k z B N N B B B B B B B B B B B B B ^ [ ( H B h > ; > g g ",
"B B B B B B B B B B x x x x B B B B B B B B B B B B B B B B N x z z z x x x x x N B B B B B B B B B B B B B ( ( ! g g d q g g g ",
"B B B B B B B B B V x N x x N B B B B B B B B B B B B B B B V B x x N B N x x x B B B B B B B B B B B B B B N x g g g g d d g g ",
"B B B B B B B B B B B x B N x V B B B B B B H ( H V B B B B B B B B B B B N N B B B B B B B B B B B B B B B N x g g g g g g g g ",
"B B x x z B B B B B B B x z z x z B B B B H H [ [ H B B B B B B B B B B B B B B B B B B B B B B B B B B B B B N g g g g g g g g "
};
