/* XPM */
static char *result[] = {
/* columns rows colors chars-per-pixel */
"64 64 236 2 ",
"   c black",
".  c #08080D",
"X  c #151416",
"o  c #18181B",
"O  c #322C10",
"+  c #1D1E22",
"@  c #1D1F2A",
"#  c #201F21",
"$  c #252325",
"%  c #23242C",
"&  c #2A292C",
"*  c #282A34",
"=  c #2B2C35",
"-  c #353435",
";  c #353437",
":  c #3B3735",
">  c #3D3936",
",  c #34343A",
"<  c #3E3B3A",
"1  c #42360F",
"2  c #492C2A",
"3  c #523426",
"4  c #4C3133",
"5  c #4A3539",
"6  c #413F3D",
"7  c #6E480A",
"8  c #764D07",
"9  c #7A5708",
"0  c #796B08",
"q  c #6B6116",
"w  c #776719",
"e  c #7C7415",
"r  c #534C2A",
"t  c #46423E",
"y  c #574836",
"u  c #6C5C2A",
"i  c #695534",
"p  c #746528",
"a  c #736733",
"s  c #353744",
"d  c #3A3B43",
"f  c #3B3D4C",
"g  c #3B3E51",
"h  c #503E4A",
"j  c #3F4048",
"k  c #3D4054",
"l  c #444545",
"z  c #4A4645",
"x  c #4E4A47",
"c  c #43434B",
"v  c #4C4C4B",
"b  c #5B4749",
"n  c #524D49",
"m  c #5D5347",
"M  c #52514F",
"N  c #464755",
"B  c #46495C",
"V  c #4B4D5B",
"C  c #5A4E53",
"Z  c #555453",
"A  c #585756",
"S  c #5C5956",
"D  c #52535C",
"F  c #5C5B5A",
"G  c #675C4A",
"H  c #645B58",
"J  c #776A4A",
"K  c #766A4C",
"L  c #6C6755",
"P  c #62605F",
"I  c #726C54",
"U  c #7A735A",
"Y  c #484B64",
"T  c #4A4E64",
"R  c #4E5163",
"E  c #4E5169",
"W  c #565766",
"Q  c #51556D",
"!  c #525671",
"~  c #545972",
"^  c #5C5D77",
"/  c #625C65",
"(  c #625B78",
")  c #656462",
"_  c #696567",
"`  c #6C6C6B",
"'  c #706F6E",
"]  c #6F706F",
"[  c #7C7763",
"{  c #6F6C77",
"}  c #747372",
"|  c #797877",
" . c #767479",
".. c #7B7A79",
"X. c #835B09",
"o. c #896A07",
"O. c #8C7804",
"+. c #99780B",
"@. c #886D16",
"#. c #997A15",
"$. c #A17F0A",
"%. c #897727",
"&. c #8E732B",
"*. c #8A7738",
"=. c #947B39",
"-. c #836F45",
";. c #857443",
":. c #82744A",
">. c #867B49",
",. c #937E44",
"<. c #91755A",
"1. c #8E6461",
"2. c #9B8507",
"3. c #988C15",
"4. c #9A8419",
"5. c #A48609",
"6. c #AD8C0F",
"7. c #AC9506",
"8. c #B5940E",
"9. c #BA970F",
"0. c #B89A09",
"q. c #A68817",
"w. c #AC8C12",
"e. c #B18F13",
"r. c #A99417",
"t. c #B39314",
"y. c #BC9C12",
"u. c #B89915",
"i. c #BAA403",
"p. c #BEA313",
"a. c #BCA219",
"s. c #BBAA18",
"d. c #998424",
"f. c #9C8937",
"g. c #A8942A",
"h. c #B99C26",
"j. c #B3942A",
"k. c #A48838",
"l. c #B48C31",
"z. c #AA9236",
"x. c #B59932",
"c. c #B9A624",
"v. c #BDA839",
"b. c #C3AD02",
"n. c #C6AB0C",
"m. c #CBB401",
"M. c #CBB407",
"N. c #D3BC05",
"B. c #D2B60E",
"V. c #C3A413",
"C. c #C5AD15",
"Z. c #CCAB13",
"A. c #C5A91A",
"S. c #D0AF15",
"D. c #CDB213",
"F. c #C8B516",
"G. c #CCB41B",
"H. c #D2B415",
"J. c #D5BB15",
"K. c #DABD16",
"L. c #D5B718",
"P. c #D4BC1C",
"I. c #DABD1A",
"U. c #C6AC29",
"Y. c #C7B223",
"T. c #D1BD26",
"R. c #C6B738",
"E. c #CDBE38",
"W. c #DBC503",
"Q. c #DAC309",
"!. c #DAC415",
"~. c #DDC31C",
"^. c #DBC818",
"/. c #E2CC03",
"(. c #E5CD0B",
"). c #E6D104",
"_. c #EBD602",
"`. c #EBD509",
"'. c #F1DC01",
"]. c #F2DC0A",
"[. c #E2C916",
"{. c #E1C61D",
"}. c #E4CB1B",
"|. c #E6D415",
" X c #E9D413",
".X c #EBD51B",
"XX c #EEDA1B",
"oX c #F0DB19",
"OX c #F6E101",
"+X c #FAE502",
"@X c #FFEA00",
"#X c #FBE80D",
"$X c #FBE715",
"%X c #F5E31D",
"&X c #FAEA1D",
"*X c #DAC627",
"=X c #D2C335",
"-X c #DAC938",
";X c #E3CE23",
":X c #E6D326",
">X c #EAD421",
",X c #EFDA23",
"<X c #F2DE25",
"1X c #F1DD2A",
"2X c #E0CE35",
"3X c #E8D63A",
"4X c #F6E426",
"5X c #FAE72B",
"6X c #FBEB29",
"7X c #8E8343",
"8X c #8D834D",
"9X c #978B49",
"0X c #958A51",
"qX c #AD9049",
"wX c #A59A48",
"eX c #A99556",
"rX c #B7AA46",
"tX c #B2A64E",
"yX c #B8A358",
"uX c #948563",
"iX c #9C9269",
"pX c #868179",
"aX c #A69C70",
"sX c #B6A86B",
"dX c #C7B84D",
"fX c #C8B070",
"gX c #D8C545",
"hX c #E8D44E",
"jX c #FDEB4F",
"kX c #FAEA69",
"lX c #7C7780",
"zX c #998F87",
"xX c #A59C8A",
"cX c #A99897",
"vX c #B6A9A9",
"bX c #BFB0AF",
/* pixels */
"j l l l l l l l l l l l l l l v Z n M A A A A A A A P ........ .F A A A A A A A A A A A M M Z A A A A A A A A A A Z c l l l l l ",
"l l l l l l l l l l l l l l l l Z A A A A A A A A M Z | ........) A A Z A A A A A A A A M Z A A A A A A A A A A Z x l l l l l l ",
"l l l l l l l l l l l l l l l l x A A A A A A A I qXf.v.gXgX=X=X=X=X=X=XE.-XE.rXwXL A A A Z A A A A A A A A A A M l F ] P l l l ",
"l l l l l l l l l l l l l l l l l A M n n A A 9X*X<.1.1.l.b.N.W.W.W.W.m.i.x.1.l.gX%X9XA A A A A A A A A A A A A v l ` ` ` l l l ",
"l l l l l l l l l l l l l l l l l Z n x n v 9X#XI.yXT.].@X,XT.U.c.c.Y.T.1X+X1XdXfXQ.#X8XA A A A A A A A A A A A Z l ) ` ` P l l ",
"l l l l l < < t l l l l l l l l x A Z n m f.!.+XM.@X+X XeX6 = p t.t.p & 5 yX X@XOXi./.oXK A A Z A A A A A A A A A l v ` A l > l ",
"l l l t > : > l j l l l l l v Z A A M x j.y.i._.'.@X`.x.6 & r e.$.5.e.: $ m x.].+X'.C.@XE.A A x n A A A A A A A A v l v t > : > ",
"l l l < > : < > < l l v Z A A A A A n J H.V.b.+X'.@Xy.9X# # w q.h.h.5.p + # qX`.@X'.Q./.c.A D n x M A A A A A A A A l l l < < l ",
"l l l < : : : : l v Z A A A A A S Z M >.J.0.b.@X_.@Xy.*.X X @.q.#.q.#.@.X o k.B.@X_.@X7.5.9XC Z n n A A A A A A A A M l l l l l ",
"l l l t : : 6 M Z A A A A A A F ' ' ` S Y.u.N._.@X#XJ.c.e O 9 #.q.q.@.9 O e G.K.#XOX+Xi.X.z.A Z n v M A A A A A A A F c l l l l ",
"l v v v v Z A A A A A A A A A F ' ....} U.V.b._.@XJ.9.l.v.U.T.T.L.P.T.T.U.c.l.9.!.@X).i.8 J Z M n n M A A A A A A A A Z l l l l ",
"A A A A A A A A A A A A Z A A A Z P | pX[.V.+.OX`.&.y d F / _ } { C M v v v W K #.`.+X7.7 :.A A Z Z A A M M M M A A A A v l j l ",
"A A A A A A A A A A M M M M Z A A ' ..iX[.6.b.+X+.V N = d R W W / V c j f s c s O 5.@Xb.7 f.A A A A A A M M M M Z A A A Z l l l ",
"A A A A A A A A A A Z M M M M A Z S Z ;.|.B./.W.z T f % s c D R T j j d = D B s * y )./.o.g.A A A A A A Z M M M A A A A A v l l ",
"A A A P ] ) A A A A A Z Z A A M x x n n .X]./.C.N g * s E E Q W Q E Y f N N T E R T Q.W.m.z.Z A A A A A A Z M A A A A A A A l l ",
"A A A | ..} A A A A A A A A A M x v Z M >XOX'.).S Y E Y L J :.;.=.*.;.:.K P E ~ ~ U b.+X_.:.A A A A A A A A Z Z A A A A A A v l ",
"A A ) | ....P A A A A A A A A v v A M M :XOX@XW.|.m f.s.D.C.C.C.C.C.C.C.C.C.a.f.I !./.@X'.G A A A A A A A A A A A A S M n n M l ",
"A A ] | .._ A A A A A A A A A A A A M M XX|.^.0 Q.|.^.F.C.C.F.J.|.}.J.C.V.C.D.[..X7.!.Q.'.,.A A A A A A A A A A A Z n M n n n x ",
"Z A A ` _ A A A A A A A A A A A A A M G A.s.XX0 2.4X[.}.J.D.y.+.@XOX$.y.Z.J.[.!.%X3.*Xs.Z.f.A A A A A A A A A A A F S P n n n M ",
"M M A A A A A A A A M A A A A A A A A u.a.d ` 0 2.$X&XoX[.K.Z.9.@XOXy.Z.J.[..X&X|.4.V d y.k.A A A A A A A A A A A ] P S x x n M ",
"M M A A A A A A A A A M A A A A A A C f.d..._ ,.0 OX$XXX[.K.Z.8.@XOX0.Z.J.[..X%X|.a W ^ eX,.A A A A A A A M A A A ` | P Z n n Z ",
"M M Z A A A A A A A M M M A A A A A D cXeX` 5 :.1 +X&XoX}.K.Z.9.@XOX9.Z.L.[..X%XXXi V 6 l.cXA A A A A M M M M A A S } | ` ) Z A ",
"M M Z A A A A A A M M M M M A A A A C bXk.h H 0X0 @X&XoX[.K.Z.8.@X'.9.Z.J.[..X%XXX,.W h =.bXA S A A A M M M M Z A A A F F A A A ",
"M A A A A ) ` ) ) ] P M M A A A A A H vXqX4 2 iXO.@X&XoX}.K.Z.9.@XOXy.Z.J.^.XX%XXX7XW 4 k.bXM n Z A A A Z Z Z A A A A A A A A A ",
"A A A A A _ | ......| P A A A A A A A zXfX4 { aXO.+X6XXX[.K.Z.8.@XOX9.Z.J.[..X%X X8XW 4 k.vXn n n n A Z A A A A A A A A A A A A ",
"A A A A A F | | ....` F A A A A A A A ) eX5 h <.O.].oXXX[.J.Z.0.@XOXy.Z.K.[..XoX(.,.lXb k.` n n x n n S A A A A A A A A A A M n ",
"A A A A A A F ` | } P A A A A A A A A A k.J 5 >.2.@X(.D.p.p.0.0.@X@X7.0.0.y.D.(.'.9X/ 2 j.n n n n n n Z A A A A A A A Z M t > > ",
"A A A A A A A A A A A A A A A A A A A A f.*.2 0X2.@XR.tXtXtXtXrXdXdXrXrXtXtXtXE.OXeXC / l.x n n M n M Z A A A A A A A l : : : t ",
"A A A A A A A A A A A A A Z D A A A A A :.9Xh uX2.^.E ! Q Q Q E ! Q Q Q Q E Q E ^.yXZ iXk.Z M S L ` S A A A A A A A l ; : : : : ",
"A A A A A A A A A A A M Z M Z A A A A A K 9X( 0Xo.!.f s s s k B N f f f f N f x J.g._ G k._ L P ] ..` A A A A A Z j 6 < : - : > ",
"A A A A A A A A A A A M M M M A A A U W A t.V rXp.0.s.1 + * j l , % % % , & r F.t.C.W *.,.] pXiX....] A A A A Z l j 6 < < < 6 l ",
"A A A A A A A A A A A A M M Z A A A gX<.{ l.d P.Q.J.s.u.4.d.f.g.r.q.3.4.d.4.a.a.A.^.a &.uX .dXaX..] P A A A A v l l l l j l l l ",
"x Z A A A A A A A A A A M M A A A A J x.tXyXu K._.^.!.*XG.*XT.P.P.P.*X!.T.T.P.P.^.Q.c.g.eXx.>.D A A A A A A Z l l l l l l l l l ",
"Z A A A A A A A A A A A A M A A A A F A J u.u.n.*.` U U U U <.I U [ U [ uXq a u K 8X7.u.k.A A A Z A A A A A Z l l l l l l l l l ",
"S A _ ] | | ' A A A A A A A A A A A M Z n =.n.9X~ ~ ~ k ~ k Y E ~ ~ ! ! )         lX,.y.G A A Z M M A A A A A l l l l l l l l l ",
"A A ......| .._ A A A A A A A A A x v M M i /.G Y B k . s @ % E Y k k W N D     , W ;._.8XA A A Z M M Z A A A M l l l l l l l l ",
"Z A | ..| ` | P A A A A A A A A x n M M n i 0.&.B k N       l k = * o * W =   . * V @._.R.A A A A A Z M Z A A A l l j l l l l l ",
"Z A F | .._ A A A A A A A A A M n n Z M Z i o.9.K Z         l % o + @ % B * % , = u e.'.a.A A A A A Z M Z A A ] ` l l l l l l l ",
"M M Z A F A A A A A A A A A A M x n m Z A 7 9 y.0.%.m     $ < & * F ; ; W j , $ q 0.w./.5.8XA A A A A A A A ` ..| M l l l l l l ",
"Z M Z A A A A A A A A A A A A M n x Z A *.8 9 6.Z.Z.s.r.=.K G H } M y r G r 3.d.Z.Z.e.C.O.eXA A A A A A A ) ] ..| P l l l l l l ",
"A A Z A A A A A A A Z M Z A A A A A A A ;.8 8 6.Z.S.V.*X~.P.F.D.G.v.f.9X%.c.Y.V.Z.Z.t.y.o.yX] A A A A A A H P ' ` A l j l l l l ",
"A A A A A A A A A A A M M A A A A A A A -.8 o.6.S.S.S.L.*XG.a.r.w.w.t.s.G.;XG.D.H.S.6.N.+.sX..) A A A M n x M A F A M l l l l l ",
"A A A A A A A A A A A Z M F P A A A A A ;.8 i.6.H.H.H.H.~.>X*XP.G.G.~.*X>XI.H.H.H.V.6.'.y._ } H A A A M M n M Z A A A l l l l l ",
"A A A A A A A A A M M A ) ` | } _ A A A -.9 _.5.L.L.L.L.P.~.,X4X1X<X<X>X*XL.L.S.A.H.t.OXu.A Z A A A A A A A A A A A A M l l l l ",
"A A A S A Z A A A Z Z ) P ) | ....` A A =.X.N.i.I.I.L.I.P.~.w @.r.3.e O !.P.I.I.I.I.w.@Xu.Z A A A A A A A A A A A A A A v j l l ",
"A A A n n x Z A A A A P F F Z S ) H A A k.X.N.Q.G.I.I.I.I.^.w X X o X X ~.!.I.I.I.I.5.@X5.K A A A A A A A A A A A A A A M v l l ",
"A Z M n n n M n A A A A A A A A Z D A A x.X./.(.y.{.[.~.~.{.w o o o o # ~.~.~.P.L.G.8.@X2.y S A Z F A A A A A A P ] ` ) | ] M l ",
"S n n n n n n M A A A A A A A A A A A S h.X./.'.t.~.{.{.{.{.&.# + + # r {.~.~.~.I.I.n.@X5.2 Z S ` L A A A A A A P | ......} F l ",
"S M n n n n n A A A A A A A A A A A A A h.o.{.$Xa.L.{.;X}.;Xd.# $ $ & u }.;X{.~.~.P.N.@X8.3 A ' ...._ A A A A A A ` | ....] v l ",
"A Z n n n n n A A A A A A A A A A A A A h.w.3XjXv.;X;X}.}.}.z.: ; ; : a >X}.;X~.P.A.W.@X0.3 ) ....} ` A A A A A A A ) ] ] _ M l ",
"A A M n n n Z A A A A A A A A A A A A A z.Z.hXjXe.>X>X>X>X>XfXxXxXxXxXfX>X>X>X>X.X*XN.@XN.3 F ..} ) Z Z A A A A A A A A A A A l ",
"A A A A S Z A A A A A A A A A A A A A S z.hXkXjXe.>X>X>X>XoX}.H.B.S.H.L.>X>X>X.X>XI.D.#X`.p A ` ) M M M Z A A A A A A A A A F v ",
"A A A A A A A A A A A A A A A A M M n M =X6XjX#Xe.,X<X,XXX,X}.K.K.L.K.~.,X,X,X,X,XP.V.+X].*XA A M M M M Z A A A A A A A A A A M ",
"A A A A A A A A A A A A A A A M n n n n =X#X@X@XV.<X<X<X<X<X}.[.[.[.[.}.<X<X<X<X<XA.L.@X XR.A A Z M Z A A A A A A A A A A A A M ",
"A A A A A A A A A A A A A A m x n A Z M 9XoX@X@Xn.<X<X4X<X4X>X}.}.}.[.}.4X4X4X4X4XC.(.].`.0XA A A M M A A A A A A A A A A A A v ",
"A A A A A A A A A A ` ' _ P S S ` F A A A ;XOX+X).>X5X4X4X5X,X.X.X.X.X>X4X5X4X4X4XD.@XQ.:X>.A A A A M A A A A A A A A A A A M j ",
"A A A A A A A A A A ) ......} ] | A A A A rXhX$X+X^.6X6X6X6X4XXXoXoXoX,X6X6X6X6X4X/.4XdXrXA A A A A A A D Z A A A A A Z Z v l l ",
"A A A A A A A A A A Z A ` } ..| P A A A S S 3XsX3X`.|.6X6X6X6X%X&XoX%X<X6X6X6X<XQ.hXiX,XK A A A A A A A A ) } ....` x > > < < l ",
"A A A A A A A A A M M M M A A A A A A A A A rX-X^ sX3X X%X6X6X4X&X&X4X6X6X4XoXgXyXW *XwXZ A A A A A A A A ' ....] M l : : > < l ",
"A A A A A A A A A A M M M A A A A A A A A A A wX2Xa } s.|.@X@X#X$X#X$X$X#X|.s...a :XwXA A A A A A A A A A ` ..] P A v < > < l l ",
"A A A A A A A A A A M M M M A A A A A A A A A A I =X=XQ.d.G 3.s.s.!.s.r.i d.Q.*X:X>.A A A A A A A A A A A A ` ` F l l l l l l l ",
"A A A A A A A A A S M M M M Z A A A A A A A A A A A 8X=X#X%X2X2X2X2X2X2XXX:X=X7XZ A A A A A A A A A A A A A F v v l l l l l l l ",
"A A A A A A A A A A A M A Z M A A A A A A A P ` ) A D A L wX=X=X=Xv.L A A A M A A A A A A A A A A A A A A A Z v l l l l l l l l ",
"A S M M M A A A A A A A M x M M v A A A A P ) | | ) A A A A D A A A A A A A A A A A A A A A A A A A A A A A A Z l l l l l l l l "
};
