/* XPM */
static char *result[] = {
/* columns rows colors chars-per-pixel */
"64 64 239 2 ",
"   c black",
".  c #08080D",
"X  c #151416",
"o  c #18181B",
"O  c #322C10",
"+  c #1D1E22",
"@  c #1D1F2A",
"#  c #201F21",
"$  c #252325",
"%  c #23242C",
"&  c #2A292C",
"*  c #282A34",
"=  c #2B2C35",
"-  c #353435",
";  c #353437",
":  c #3C3735",
">  c #3D3836",
",  c #34343A",
"<  c #3E3B3A",
"1  c #42360F",
"2  c #663E05",
"3  c #492C2A",
"4  c #523426",
"5  c #4C3133",
"6  c #4A3539",
"7  c #413F3C",
"8  c #6E480A",
"9  c #764D07",
"0  c #7A5708",
"q  c #796B08",
"w  c #6B6116",
"e  c #776719",
"r  c #7C7415",
"t  c #4F4930",
"y  c #574836",
"u  c #6C5C2A",
"i  c #695534",
"p  c #746528",
"a  c #736733",
"s  c #353744",
"d  c #3A3B43",
"f  c #3B3D4C",
"g  c #3B3E51",
"h  c #503E4A",
"j  c #3F404A",
"k  c #3D4054",
"l  c #444545",
"z  c #4A4645",
"x  c #4E4A47",
"c  c #43434B",
"v  c #4C4C4A",
"b  c #5B4749",
"n  c #524D4A",
"m  c #5D5546",
"M  c #52514F",
"N  c #464755",
"B  c #46495C",
"V  c #4B4D5B",
"C  c #5A4E53",
"Z  c #555453",
"A  c #585756",
"S  c #5D5956",
"D  c #52535C",
"F  c #5C5C5B",
"G  c #665C47",
"H  c #645C58",
"J  c #776B4D",
"K  c #786A4B",
"L  c #6C6756",
"P  c #62605F",
"I  c #736C55",
"U  c #7A7359",
"Y  c #484B64",
"T  c #4A4E64",
"R  c #4E5163",
"E  c #4E5169",
"W  c #565766",
"Q  c #51556D",
"!  c #525671",
"~  c #545972",
"^  c #5C5D77",
"/  c #625C65",
"(  c #625B78",
")  c #656463",
"_  c #696567",
"`  c #6C6C6B",
"'  c #716F6E",
"]  c #6F706F",
"[  c #7F7860",
"{  c #6F6C77",
"}  c #747372",
"|  c #797877",
" . c #767478",
".. c #7B7A79",
"X. c #835B09",
"o. c #896A07",
"O. c #8C7804",
"+. c #99780B",
"@. c #886D16",
"#. c #997A15",
"$. c #A17F0A",
"%. c #897727",
"&. c #8E732B",
"*. c #897839",
"=. c #947C3C",
"-. c #836F45",
";. c #857443",
":. c #86794A",
">. c #937E44",
",. c #8D7857",
"<. c #8E6461",
"1. c #9B8507",
"2. c #988C15",
"3. c #9A8419",
"4. c #A48609",
"5. c #AD8C0F",
"6. c #AC9506",
"7. c #B5940E",
"8. c #BA970F",
"9. c #B89A09",
"0. c #A68817",
"q. c #AC8C12",
"w. c #B18F13",
"e. c #A99417",
"r. c #B39314",
"t. c #BC9C12",
"y. c #B89915",
"u. c #BAA403",
"i. c #BEA313",
"p. c #BCA219",
"a. c #BBAA18",
"s. c #998424",
"d. c #9C8937",
"f. c #9C913A",
"g. c #A8942A",
"h. c #B79928",
"j. c #A38635",
"k. c #A48939",
"l. c #B48C31",
"z. c #A99335",
"x. c #B39633",
"c. c #B9A624",
"v. c #ADA038",
"b. c #BAA637",
"n. c #C3AD02",
"m. c #C6AB0C",
"M. c #CBB401",
"N. c #CBB407",
"B. c #D3BC05",
"V. c #D2B60E",
"C. c #C3A413",
"Z. c #C5AD15",
"A. c #CCAB13",
"S. c #C5A91A",
"D. c #D0AF15",
"F. c #C6B114",
"G. c #CDB213",
"H. c #CBB917",
"J. c #CCB41B",
"K. c #D2B415",
"L. c #D5BB15",
"P. c #DABD16",
"I. c #D5B718",
"U. c #D4BC1C",
"Y. c #DABD1A",
"T. c #C6AD2A",
"R. c #C8B626",
"E. c #D1BD26",
"W. c #C8B838",
"Q. c #DBC503",
"!. c #DAC309",
"~. c #DAC415",
"^. c #DDC31C",
"/. c #DBC818",
"(. c #E2CC03",
"). c #E5CD0B",
"_. c #E6D104",
"`. c #EBD602",
"'. c #EBD509",
"]. c #F1DC01",
"[. c #F2DC0A",
"{. c #E2C916",
"}. c #E1C61D",
"|. c #E4CB1B",
" X c #E6D415",
".X c #E9D413",
"XX c #EBD51A",
"oX c #EEDB1B",
"OX c #F0DB19",
"+X c #F6E101",
"@X c #FAE502",
"#X c #FFEA00",
"$X c #FBE80C",
"%X c #F9E517",
"&X c #FDEA12",
"*X c #F5E31D",
"=X c #FAEA1D",
"-X c #CFC02A",
";X c #D9C627",
":X c #D2C236",
">X c #DECC36",
",X c #E3CE23",
"<X c #EAD422",
"1X c #EFDA23",
"2X c #E6D328",
"3X c #F2DE25",
"4X c #F1DD2A",
"5X c #E0CE35",
"6X c #E8D63A",
"7X c #F6E426",
"8X c #FAE72B",
"9X c #FBEB29",
"0X c #8D8248",
"qX c #978B49",
"wX c #9C9248",
"eX c #8C8354",
"rX c #988A58",
"tX c #A59847",
"yX c #AD9049",
"uX c #AB9555",
"iX c #B2A64E",
"pX c #B8AC48",
"aX c #B7A558",
"sX c #918569",
"dX c #A39A78",
"fX c #B6A66D",
"gX c #C5B74A",
"hX c #C8B752",
"jX c #C8B070",
"kX c #D8C546",
"lX c #E8D44E",
"zX c #FDEB4F",
"xX c #FAEA69",
"cX c #7C7780",
"vX c #998F87",
"bX c #A59C8A",
"nX c #A89897",
"mX c #B5A8A8",
"MX c #BFB0AF",
/* pixels */
"j t j c l l l l l l l l l l l v Z M n A A A A A A A H ..........F A A A A A A A A A A Z M M Z A A A A A A A A A A Z c l l l l l ",
"l l l l l l l l l l l l l l l l Z A A A A A A A A M A | ........P A A A A A A A A A A A M Z A A A A A A A A A A Z z l l l l l l ",
"l l l l l l l l l l l l l l l l z A A A A A A A A A M P ..} F ) A A A A A A A A A A A A A Z A A A A A A A A A A M l F ] P l l l ",
"l l l l l l l l l l l l l l l l l A n n n A A A A Z Z M ) ` F A A A A A A A A A A A A A A A A A A A A A A A A A v l ` ` ] l l l ",
"l l l l l l l l l l l l l l l l l Z n n n n A A M M M M Z A A A A A A A A A A A A A A A A A A A A A A A A A A A Z l ) ] ` F l l ",
"l l l l l < < j l l l l l l l l z Z A x n M A A Z M M M Z D A A A A A A A A A A A A A A A A A M A A A A A A A A A l v ] A l > l ",
"l l l l > : > l l l l l l l v Z A A Z n n A A A A Z A Z A A A A A A A A A A A A A A A A A A A n n A A A A A A A A v l c t : > > ",
"l l l < > : < > < l l v M A A A A S n x Z A A A A A A A A A A A A A A A A A A A A A A A A A A n n M A A A A A A A A l c j < < l ",
"l l l < : : : < l v Z A A A A A A A n A A A A A A A A A A A A A A A A A P | } ` ) F A A A A A A x x A A A A A A A A M l l l l l ",
"l l l 7 : : 7 v A A A A A A A F ] } ` A A A A A A A A A A A A A A A A P | ` L H | } F A A A A n M x M A A A A A A A A c l l l l ",
"v l v v v Z A A A A A A A A A F ] ..| } A A A A A A A A A A A A A A A F H S M Z ) ] ) A A A A M n n Z A A A A A A A A Z l l l l ",
"A A A A A A A A A A A Z M A A A A H | | P A A A A A A A A A A A A A A A Z M M M A A A A A A A A M A A A M M M M A A A A v l l l ",
"A A A A A A A A A A M M M M Z A A ] ..' F A A A A A A A A A A A A A A A M M M M Z A A A A A A A S A A A M M M M Z A A A A l l l ",
"A A A A A A A A A A M M M M Z A Z S A n M A A A A A A A A A A A A A A A A M M M M A A A A A A A A A A A Z M M M A A A A A v l l ",
"A A A P ] ) A A A A A Z Z A A M x x n x x A F A A A A A A A A A A A A A A Z M M M A A A A A A A A A A A A Z M A A A A A A A l l ",
"A A A | ..| A A A A A A A A A M x v Z Z n A A A A A A A A A A A A A A A A A M M M Z A A A A A A A A A A A A Z Z A A A A Z A v l ",
"A A ) | ....P A A A A A A A A M n Z M M M A A A A A A A A A A A A A A A A A A Z A A A A A A A A A A A A A A A A A A A n n n Z l ",
"A A ] ....) A A A A A A A A A A A A M M M D A A A A A A A A A >.wXA A A A A A A A A A A A A A A A A A A A A A A A Z M Z n n v v ",
"Z A A ` ) A A A A A A A A A A A A A Z Z A F A A A C A A A A A _ hX;.A A n M A A A A A A A A A A A A A A A A A A A F F H n n n n ",
"M M A A F A A A A qXg.K -.j.x.k.;.G >.d.k.0XnXMXmXmX' C A A A A  .x.A M n n F :.qXpXwXA A A K y 4 4 4 4 %.;Xb.qX:.} H A n x x Z ",
"Z M Z A A A I :Xc.3.X.0 8 2 o.M.`.].+Xm.t.uXj.=.j.j.k.h.x.k.k.:.sXuXj.G ;.W.y.4.+.o.+.9.y.r.4.1.1.7.9.B..X[.'..X2XaXsX) Z M n M ",
"M M Z A A 0XoX#X(.6.u.6.6.M.(.(.@X#X~.a.d ^ 6 h 5 3 b 3 L vXG %.&.g.8.9.].].[.(.m.8.B.@X+X#X#X#X#X#X#X#X[.@X#X[.!.kX4XfX` ) Z A ",
"M M Z A qX&XQ.F.!.@X@X_.@X#X(.L.n.Q.^.;XV R V Q W W  ./ b C _ W a h.7.>.;.@.5.5.5.w.w.5.r.q.4.7.m.B.Q.B.V.C.G..X#X4XrX;XtXZ S Z ",
"Z Z Z L *X).u.].].].].#X'.4.y T U !.6.1.3.a a 0X0XeX>.0XyXfXg.F.|.!.eX{ W V u t.A.D.D.C.K.Y.Y.J.Y.U.Z.^.^.U.S.Z.H.Q.kXF 2XeXA A ",
"A A A tXlXfX].#X#X#X&X~.#.O * T ^ I  X3XXX.XoXOXoX.X_.].@X).!.e.a. XJ   , * = w A.A.K.A.A.I.Y.I.Y.^.Y.<X1X1X3X7X9X7X/.uX*.2XA A ",
"A A A pXl.hX#X[.).V.~.8.K s d T ~ d././.*X*X*X*X*X*XOX).W.E v a.i.E.a     . , $ %.C.K.K.I.I.Y.Y.Y.Y.}.<X<X1X3X7X7X9X4X:XcX;XqXn ",
"A A A :X<.4X'.x.k.j.R.l./ f B Y E S.H./.XXXXXXXXXXXXoXG.iXE j t p.^.a       % ; e.R.J.K.I.I.^.Y.,X}.|.<X<X1X3X3X7X9X9XOXa.!.R.: ",
"A A A :Xl.@XaXZ $ X r c.v s D B H Z.Z.L.{.{.{.{.{.{.{.i.iXE N * 3.U.w   W = = d t a.,XU.I.Y.Y.^.}.,X|.<X1X1X3X7X9X9X9X7X Xs. X< ",
"A A A W.u.1Xt % # X O T.v d = N J Z.C.A.L.L.L.L.L.L.V.9.iXQ j , s.~.sX) c R V W G %.I.1X^.Y.}.{.}.|.|.<X<X1X3X3X7X9X9X9X$Xm  X> ",
"A A A :XM.-X& : e e 0 E.v c d f ;.Z.F.t.A.A.A.A.A.D.A.9.iXQ k % 3.R.[ ~ W * % - y wXp.;X<XO X $ 4 u a jXL.}.{.|.2XoX7X9X&Xe.2X7 ",
"A A A :XQ.R.p q.$.0.#.U.v c c Y ;.Z.U.4.t.8.8.8.8.8.8.9.pXQ f @ 2.-X[ ! g + + - y f.r.U.4Xr X o # % s bXK.P././. XoX*X=X*Xa.>XG ",
"Z A A :XQ.c.r.4.h.#.0.I.D V g T =.Z.|.+X+X+X+X+X].+X+X@XgXQ h @ e.U.[ ! g * + F Z b.q.R.7X2.X o # $ : bXV.Y.{. XoXoX*X=X$X!.5Xv.",
"v Z A :XQ.p.r.4.c.#.0.U.{ / V Q =.Z.|.#X#X#X#X#X#X#X#X#XgXQ k , e.H.U ! Y = o * } J.q.J.1Xe.X o $ $ - bXV.P.{.|.OXOX*X=X&XH.>X-X",
"A A A :XQ.T.p 7.0.0.#.^.{ W W Q ;.Z.L.$.7.8.7.8.8.7.7.9.pX~ B j g.U.U Y R k & = H F.e.U.4Xr X o # $ , bXK.P.P.|.XXOXOX*X&Xa.5X-X",
"A A _ kXB.E.& t p @.0 E._ D T Q :.Z.F.8.A.A.A.A.A.A.Z.9.iX~ k j d.U.[ Y % c j < G H.p.;X4Xe w e s.s.z.jX}.}.|.XX1X3X8X9X$Xe.5XE.",
"A A ..kXn.1X6 & o X O T.) D N E J Z.Z.D.P.L.P.P.P.P.U.u.iXQ s = s.^.U g @     $ J ~.J.2X;X~.^.}.^.|.|.XX1X3X3X7X7X8X9X8X#Xa 1Xz.",
"A A } kX#.[.aXh $ X r T.F d s T L Z.Z.L.|.|.{.|.|.{.{.m.iXQ s @ 3.U.[ ! s       &.^.,X^.I.Y.Y.Y.^.|.,XXX1X1X3X3X7X9X9X*X Xs.%Xm ",
"Z A W hX<.[.).yXqX&.c.l.< = % s Y S.G.|.oXoXOXOXoXoXoXK.iX~ , 1 p.-XU k .       e.;XJ.I.I.P.Y.}.^.,X|.<X1X1X3X7X9X9X9X[.a.!.-Xj ",
"M M A f.<.>X#X'.C.t.I.y.y N f * E d./.{.=X=X=X=X=X9XoX).b.Q d Z.i.E.U ! N N   m i.A.D.K.I.Y.Y.}.^.^.,X<X<X1X4X7X7X9X2X6X| ;X*.j ",
"A M M wX,.aX#X#X#X@X&XY.&.V Y f B G  X9X&X@X@X#X#X@X+X#X@X^.~.t.L.{.U ~ B f A %.A.D.D.K.K.Y.Y.}.^.^.|.<X<X1X3X3X,X-X+XfXa -Xj j ",
"A A Z L ;X~.N.].].`.#X#X).+.z N S  XQ.1.1.w O O.O.O.O.1.1.1.o.a.Q._.*.~ Y N K t.A.A.D.D.K.L.D.t.y.t.b.0.e.e.i.N._.#XlX/ ;XG l l ",
"A A A A wX$X+X_.@X#X`.`.+X#X!.F.`.Q.q q q eX;.0XdXdX,.:.eXrXqXpXE.~.F.qXG &.w.8.5.5.5.5.4.C.!._.[.3XzXzX8X&X#X#X#X%XfX>Xf.j l l ",
"A A A A A qX~.u.n.n.M.n.1.n.(.(.].#X/.2X` ` 6 H 3 { h 5 3 h ( B < u y.n.(.9.o.0 0 8 o.u._.B.B.(.(.}.2XxXxXzX#X#X+X>X6Xv.l l l l ",
"A A A A A A d.t.C.t.t.C.i.5.B.[.+X+X XF.f <.' 6 6 3 5 K *.>.yXq.l.aXc.=.i i u 8 9 9 9 0 0 X.X.X.X.o.w.R.lX8X@X%X2XpXF M l l l l ",
"A A A S A A H x.L.L.I.T.{.{.|.XX2X2XoXS.y.3.uXk.uXjXuXyXd.;.J A { tXK A M Z Z S *.-.-.-.-.=.j.x.h.l.h.x.g.;X:XeXA A A A l j l l ",
"A A A n v n M S J U A / I eX:.S / / A G h.d.nXMXmXvX/ D A A A F sXx.A A A Z A A Z Z A A A F A A H A A S A A A A A A A A Z v l l ",
"A Z Z n n n M n A A A A A A A A A A A A A A Z A A A A A A A A J kXU A A A A A A A A A A A A A A A A A A A A A A P ] ` P | ] Z j ",
"A M n x n n n M A A A A A A A A A A A A A A A A A A A A A A A A D A A A A A A A A A A A A A A F _ _ A A A A A A P ........| F l ",
"A n n n n n n A A A A A A A A A A A A A A A A A A A A A A A A A A A A A A A A A A A A A A A A ] | | ` A A A A A A ` ......} v l ",
"A Z x n n n n S A A A A A A A A A A A A A A A A A A A A A A A A A A A A A A A D A A A A A A ) ....} ` A A A A A A A ) ] ] ) M l ",
"A A m n x x Z A A A A A A A A A A A A A A A A A M A A A A A A A A A A A A Z M M M A A A A A F ..} ) M A A A A A A A A A A A A l ",
"A A A F A A A A A A A A A A A A A A A S A Z M M Z M A A A A A A A A A A A Z M M M Z A A A A A ` P Z M n Z A A A A A A A A A A v ",
"A A A A A A A A A A A A A A A A Z M n M A A Z M M M A A A A A A A F ) P A Z M M M A A A A A A A Z M M M Z A A A A A A A A A A M ",
"A A A A A A A A A A A A A A A n n n n n Z A Z M M M A A A A A A ) } ..) A A Z M A A A A A A A A Z M Z A A A A A A A A A A A A M ",
"A A A A A A A A A A A A A F Z n n Z M Z A A A M M M Z A A A Z Z ) ..| A A A A Z Z A A A A A A A A M M A A A A A A A A A A A A v ",
"A A A A A A A A A A ` ` ) H A H ` F A A A A A A Z Z A A A A A M A ....| ` A A A A A A A A A A A A A Z Z A A A A A A A A A A M c ",
"A A A A A A A A A A ) } ....} } ..F A A A A A A A A A A A A M M Z P ] ] ] A A A A A A A A A A A A A A A A A A A A A A A Z v l l ",
"A A A A A A A A A A Z F ` } ..| F A A A A A A A A A A A A A M M M A A A M S A A A A A A A A A A A A A A A ) ] ....` z > : < < l ",
"A A A A A A A A A Z v M M A A A A A A A A A A A A A A A A M M M M M M n n A A A A A A A A A A A A A A A A ] ..| ] v z > : > < l ",
"A A A A A A A A A A Z M M Z A A A A A A A A A A A A A A A A M Z n M v x M Z Z Z A A A A A A A A A A A A A ` ..] P A v < > < l l ",
"A A A A A A A A A A M M M Z A A A A A A A A A A A A A A A A A n n n n M M M M M Z A A A A A A A A A A A A A ` ` P l l l l l l l ",
"A A A A A A A A A A Z M M M Z A A A A A A A A A A A A A A A A A M M Z A M M M M Z A A A A A A A A A A A A A A M l l l l l l l l ",
"A A A A A A A A A A Z Z A Z M A A A A A F A H ` P A A A A A A A A A A A A Z Z A A A A A A A A A A A A A A A A v l l l l l l l l ",
"A A Z n n A A A A A A S M n n M n A A A A P ) | ..) A A A A A A A A A A A A A A A A A A A A A A A A A A A A A Z l l l l l l l l "
};
