/* XPM */
static char *result[] = {
/* columns rows colors chars-per-pixel */
"64 64 240 2 ",
"   c black",
".  c #08080D",
"X  c #151416",
"o  c #18181B",
"O  c #322C10",
"+  c #1D1E22",
"@  c #1D1F2A",
"#  c #201F21",
"$  c #252325",
"%  c #23242C",
"&  c #2A292C",
"*  c #282A34",
"=  c #2B2C35",
"-  c #353435",
";  c #353437",
":  c #3C3735",
">  c #3D3836",
",  c #34343A",
"<  c #3E3B3A",
"1  c #42360F",
"2  c #663E05",
"3  c #492B2B",
"4  c #4A3539",
"5  c #413F3D",
"6  c #503532",
"7  c #6D480A",
"8  c #764D07",
"9  c #7A5708",
"0  c #796B08",
"q  c #6B6116",
"w  c #776719",
"e  c #7C7415",
"r  c #4F4930",
"t  c #584636",
"y  c #6C5C2A",
"u  c #6B5531",
"i  c #726429",
"p  c #736733",
"a  c #353744",
"s  c #3A3B43",
"d  c #3B3D4C",
"f  c #3B3E51",
"g  c #503E4A",
"h  c #3F404A",
"j  c #3D4054",
"k  c #444545",
"l  c #4A4645",
"z  c #4E4A47",
"x  c #43434B",
"c  c #4C4C4A",
"v  c #5B4749",
"b  c #524D49",
"n  c #5D5446",
"m  c #52514F",
"M  c #464755",
"N  c #46495C",
"B  c #4B4D5B",
"V  c #5A4E53",
"C  c #555453",
"Z  c #585756",
"A  c #5C5956",
"S  c #52535C",
"D  c #5C5B5B",
"F  c #675B49",
"G  c #655B57",
"H  c #73674A",
"J  c #736A4E",
"K  c #7C6C4C",
"L  c #6B6655",
"P  c #62605F",
"I  c #726C54",
"U  c #7A7359",
"Y  c #484B64",
"T  c #4A4E64",
"R  c #4E5163",
"E  c #4E5169",
"W  c #565766",
"Q  c #51556D",
"!  c #525671",
"~  c #545972",
"^  c #5C5D77",
"/  c #625C65",
"(  c #625B78",
")  c #656463",
"_  c #696567",
"`  c #6C6C6B",
"'  c #716F6E",
"]  c #6F706F",
"[  c #7F7860",
"{  c #73716F",
"}  c #6F6C77",
"|  c #747372",
" . c #797877",
".. c #767478",
"X. c #7B7A79",
"o. c #835B09",
"O. c #896A07",
"+. c #8C7804",
"@. c #99780B",
"#. c #886D16",
"$. c #997A15",
"%. c #A17F0A",
"&. c #897727",
"*. c #8B712B",
"=. c #89783A",
"-. c #947C3B",
";. c #836E45",
":. c #857443",
">. c #85794A",
",. c #937E44",
"<. c #8D7857",
"1. c #8E6461",
"2. c #9B8507",
"3. c #988C15",
"4. c #9A8419",
"5. c #A48609",
"6. c #AD8C0F",
"7. c #AC9506",
"8. c #B5940E",
"9. c #BA970F",
"0. c #B89A09",
"q. c #A68817",
"w. c #AC8C12",
"e. c #B18F13",
"r. c #A99417",
"t. c #B39314",
"y. c #BC9C12",
"u. c #B89915",
"i. c #BAA403",
"p. c #BEA313",
"a. c #BCA219",
"s. c #BBAA18",
"d. c #998424",
"f. c #8F863C",
"g. c #9C8836",
"h. c #A8942A",
"j. c #B99C27",
"k. c #B3932A",
"l. c #A38634",
"z. c #A48939",
"x. c #B48C31",
"c. c #A99336",
"v. c #B49933",
"b. c #B9A624",
"n. c #AFA33E",
"m. c #BBA837",
"M. c #C3AD02",
"N. c #C6AB0C",
"B. c #CBB401",
"V. c #CBB407",
"C. c #D3BC05",
"Z. c #D2B60E",
"A. c #C3A413",
"S. c #C5AD15",
"D. c #CCAB13",
"F. c #C5A91A",
"G. c #D0AF15",
"H. c #CDB213",
"J. c #C9B617",
"K. c #CCB41B",
"L. c #D2B415",
"P. c #D6BB15",
"I. c #DABD16",
"U. c #D5B718",
"Y. c #D4BC1C",
"T. c #DABD1A",
"R. c #C6AC29",
"E. c #CAB723",
"W. c #CDBD2B",
"Q. c #D1BD26",
"!. c #C8B938",
"~. c #DBC503",
"^. c #DAC309",
"/. c #DAC415",
"(. c #DAC718",
"). c #DDC31C",
"_. c #E2CC03",
"`. c #E5CD0B",
"'. c #E6D104",
"]. c #EBD602",
"[. c #EBD509",
"{. c #F1DC01",
"}. c #F2DC0A",
"|. c #E2C916",
" X c #E1C61D",
".X c #E4CB1B",
"XX c #E6D415",
"oX c #E9D413",
"OX c #EBD51A",
"+X c #EEDB1B",
"@X c #F0DB19",
"#X c #F6E101",
"$X c #FAE502",
"%X c #FFEA00",
"&X c #FBE80C",
"*X c #F9E516",
"=X c #FDEA12",
"-X c #F5E31D",
";X c #FAEA1D",
":X c #DAC627",
">X c #DAC935",
",X c #E3CE23",
"<X c #E6D327",
"1X c #EAD421",
"2X c #EFDA23",
"3X c #F2DE25",
"4X c #F1DD2A",
"5X c #E0CE35",
"6X c #E9D739",
"7X c #F6E426",
"8X c #FAE72B",
"9X c #FBEB29",
"0X c #8D8242",
"qX c #8D834D",
"wX c #978B48",
"eX c #968C4E",
"rX c #978A56",
"tX c #A68C43",
"yX c #A49846",
"uX c #AF924C",
"iX c #AA9656",
"pX c #B7AA47",
"aX c #B2A64E",
"sX c #B8A358",
"dX c #938669",
"fX c #A39A78",
"gX c #B8A76E",
"hX c #C7B84D",
"jX c #C8B070",
"kX c #D9C543",
"lX c #CFC151",
"zX c #E8D44E",
"xX c #FDEB4F",
"cX c #FAEA69",
"vX c #7C7780",
"bX c #998F87",
"nX c #A59C8A",
"mX c #A99897",
"MX c #B6A9A9",
"NX c #BFB0AF",
/* pixels */
"h r h x k k k k k k k k k k k c Z b m Z Z Z Z Z Z Z G X.X.X.X.X.D Z Z Z Z Z Z Z Z Z Z Z b m C Z Z Z Z Z Z Z Z Z Z C k k k k k k ",
"k k k k k k k k k k k k k k k k m Z Z Z Z Z Z Z Z m Z | X.X.X.X.P Z Z Z Z Z Z Z Z Z Z Z m C Z Z Z Z Z Z Z Z Z Z Z k k h k k k k ",
"k k k k k k k k k k k k k k k k l Z Z Z Z Z Z Z Z Z m P X.| D ) Z Z Z Z Z Z Z Z Z Z Z Z Z C Z Z Z Z Z Z Z Z Z Z C k D ] P k k k ",
"k k k k k k k k k k k k k k k k k Z m b b Z Z Z Z Z m C ) ] Z Z Z Z Z Z Z Z Z Z Z Z Z Z Z Z Z Z Z Z Z Z Z Z Z Z c k ` ` ] k k k ",
"k k k k k k k k k k k k k k k k k C b z b b Z Z m m m m C Z Z Z Z Z Z Z Z Z Z Z Z Z Z Z Z Z Z Z Z Z Z Z Z Z Z Z C k ) ] ] D k k ",
"k k k k k < < h k k k k k k k k l Z Z b b m Z Z C m m m C Z Z Z Z Z Z Z Z Z Z Z Z Z Z Z Z Z A m Z Z Z Z Z Z Z Z Z k x ` Z k , r ",
"k k k k > : > k k k k k k k c C Z Z m b b Z Z Z Z C Z C Z Z Z Z Z Z Z Z Z Z Z Z Z Z Z Z Z Z Z z b Z Z Z Z Z Z Z Z m k c r : < < ",
"k k k < > : < > < k k c m Z Z Z Z A b b m Z Z Z Z Z Z Z Z Z Z Z Z Z Z Z Z Z Z Z Z Z Z Z Z Z Z b z m Z Z Z Z Z Z Z Z k x h < < h ",
"k k k > : : : > k c C Z Z Z Z Z Z Z b Z Z Z Z Z Z Z Z Z Z Z Z Z Z Z Z Z P  . .` ) Z Z Z Z Z Z Z b b C Z Z Z Z Z Z Z m h k k k k ",
"k k k 5 : > 5 m Z Z Z Z Z Z Z D ] | ` Z Z Z Z Z Z Z Z Z Z Z Z Z Z Z Z P  .` G G  . .D Z Z Z Z b b b m Z Z Z Z Z Z Z Z c k k k k ",
"c k c c c C Z Z Z Z Z Z Z Z Z D ] X.X.{ Z Z Z Z Z Z Z Z Z Z Z Z Z Z Z D A A m C ) { ) Z Z Z Z b z b m Z Z Z Z Z Z Z Z m k k k k ",
"Z Z Z Z Z Z Z Z Z Z Z C C Z Z Z Z G  .X.P Z Z Z Z Z Z Z Z Z Z Z Z Z Z Z Z m m m Z Z Z Z Z Z Z Z m Z Z Z C m m m Z Z Z Z c k k k ",
"Z Z Z Z Z Z Z Z Z Z m m m m C Z Z ] X.{ D Z Z Z Z Z Z Z Z Z Z Z Z Z Z Z C m m m Z Z Z Z Z Z Z Z Z Z Z Z m m m m C Z Z Z Z h k k ",
"Z Z Z Z Z Z Z Z Z Z C m m m m Z Z A C b m Z Z Z Z Z Z Z Z Z Z Z Z Z Z Z Z m m m m Z Z Z Z Z Z Z Z Z Z Z C m m C Z Z Z Z Z c k k ",
"Z Z Z P ] ) Z Z Z Z Z C C Z Z m z z b z b Z Z Z Z Z Z Z Z Z Z Z Z Z Z Z Z m m m m Z Z Z Z Z Z Z Z Z Z Z Z C m Z Z Z Z Z Z C k k ",
"Z Z Z  .X.| Z Z Z Z Z Z Z Z Z m z z m m m Z Z Z Z Z Z Z Z Z Z A Z Z Z Z Z Z m m m Z Z Z Z Z Z Z Z Z Z Z Z Z m C Z Z Z Z Z Z c k ",
"Z Z ) X.X.X.P Z Z Z Z Z Z Z Z b b Z m m m Z Z Z Z Z Z Z Z Z A K hX;.Z Z Z A S R C C A A Z Z Z Z Z Z Z Z Z Z Z Z Z Z Z b b b C k ",
"Z Z ] X.X.) Z Z Z Z Z Z Z Z Z Z Z Z m m m Z Z Z Z C Z Z Z Z A v.bXZ Z G Z C _ bXMXMXmXz.r.H Z Z Z A qXqXL Z Z >.K C m C b b b c ",
"C Z Z ` ) D Z Z Z qX>X>Xc.x.b.x.j.v.l.-.:.;.;.;.=.V Z S Z C ;.uX} S L ;.l.l.iXjXuXtXiXd.u.R.+X,X1XOXXX(.).R.K.P.L.v.G G b b b b ",
"m m Z Z Z Z A pX,X@X#X8XzXD.w.O.o.o.o.o.o.9 8 8 7 7 u u F -.j.sXk.w.tX,.*.H r 3 6 g _ ..s J.XX#X#X}.C.w.p.A.9.y.A.y.tXA b z z C ",
"m m C Z Z pX4XkX$X%X%XxXcXzX<X X~._.C.C.'.N.O.7 9 9 +.9._.M.u.y s B ( g 3 4 l } 3 F 4 _ ` <X(.%X{.~.~.M.2.M.C.M.i.i.Y.iXC z m m ",
"m m C Z yXkXgX*X%X%X%X=XxXcXxX;X{.'.~.p.5.6.6.5.e.9.9.$.n wXN./.Q.pXwXdXqXqX<.fXdXrX,.<.0 q 0 '.'.J.~.%X#X].].%X%X[.#X=XiX_ C Z ",
"m m Z I :X^ zX%X'.V.A.w.t.e.v.A.t.p.G.U.U.L.G.D.A.y.H B Y ~ >.'.~.p.+.2.2.2.2.+.+.O.1 9 2.2.^.XXF j c @.'.%X%X].{.{.B./.:XI Z Z ",
"C Z S >Xp gX].(.,X3X3X3X1X1X,XU.). XT.I.U.L.G.D.S.&.C f N ~ U (.J.t./.).%X$X{.$X%X%X#X$X=X;XXXF Y j T B &./.=X$X%X%X%XgX<.wXZ Z ",
"S Z qX>X .5X<X9X7X7X3X2X1X1X,X,X XT.T.T.U.L.D.D.p.n   M N Q U Y.s.S.a Q m.^.+X;X;X;X;X;X;X|.(.g.E * a M t 9.P.u.p.[.%XQ.1.tXV W ",
"Z Z >X^.s.}.9X9X9X3X3X2X2X.X.X.X X XT.I.P.K.Y.:Xr.      . j U :Xa.1 , Q aX/.+X+X@X@X@X@X+X.XH.A.Y a * = s k.b.=.g.pX`.{.1.R.C v ",
"Z L }.f.XX-X9X9X7X7X3X2X1X1X.X,X X).T.T.T.).:X).&.      a ! U Y.d.+ a Q aXp.XX.X.X|.|.|..XI.S.S.G T a s D m.e X + 5 iX$Xx.E.> > ",
"Z yX+Xy %X9X9X9X7X7X3X2X1X1X1X.X X X XT.).<XK./.K &     @ j U Q.d.= a Q aX9.T./.I.I.I.I.I.D.S.S.K E M R ) R.O X + % 5 2XM.Y.: 5 ",
"Z >X5Xr.%X9X9X3X2X1X1X X XjXz.d.&.w q w 4X:Xa.J.F s x h % Y U ).g.x f ! aX0.D.H.D.D.D.D.H.y.H.S.;.Q R S _ W.9 #.w r & :XC.(., ; ",
"B >X5Xs.=X7X-X+XXXXX|.I.Z.nX: $ # o X e 3XY.r.J.G = * h E Y U Y.h.x N E pX0.8.8.9.8.9.8.9.@.P.S.>.Q W W | Y.$.q.q.w.i b.~.Y.- < ",
"C >X>Xs.=X;X-X+XOX.X(.I.Z.nX- $ # o X r.3XK.r.J.| & o = Y ~ U Q.r.= N E hX%X%X%X%X%X%X%X%X%X.XS.-.Q B / } T.e.$.j.5.t.b.~.W.r h ",
"C pX5X/.=X;X-X+XOX.X|.I.Z.nX- $ # o X r.3XK.q.m.m D + * f ~ <.W.r.$ h E hX%X#X#X#X#X#X#X#X#X.XS.=.E x B S T.q.$.j.5.r.b.~.:Xk h ",
"z L >Xs.*X-X-X+XOX.X|.I.Z.mX5 # # o X e 7XY.r.c.r - @ + j ! U :X3.$ d E pX0.u.y.y.y.9.9.9.%.P.S.=.N j x m Y.@.$.q.e.i R.~.W.k k ",
"C D 5Xr.*X9X7X+XOX.X X).I.jXp y 1 # X O 1X:Xa.wXt - % * Q ! [ J.4.% d Q aX0.D.D.D.D.D.D.D.y.S.S.;.j s h c K.q w w : & W.B.:Xk k ",
"Z Z 1Xu &X9X9X9X3X3X3X2X1X1X.X,X,X X).:X:X1XK.&.F W N R h ) dX/.d., d Q aX8.P.P.U.P.P.P.P.D.S.S.K j = s M R.O X o & t 4Xi.m.k k ",
"Z Z 6Xd.oX9X9X9X8X8X3X2X1X1X1X X X X/.U.U.).<Xs.r s = , S   y Y.4.* M Q aXA.|.|.|.|.|.(.|.P.S.D.P N R s B b.+.X # b sX#Xv.:Xk k ",
"C Z lX~.b.@X9X9X7X7X3X@X1X1X,X X XT.T.T.U.L.K.R.3.: %       p Y.p.r h Q aXZ.OXOX+XOXOX+X+X.XH.A.R R N g W k.E.l.tXv.oX4X1.W.l k ",
"C Z eX,XvXkX7X9X7X7X3X2X1X1X X).T.T.T.U.G.L.G.A.d.$ , .     i ).s.J.c R !._.@X-X-X-X-X-X-X(.(.f.~ T a < H 9.I.H.[.#X%XlXx.m.k k ",
"m m C <X=.iX|.3X8X7X3X2X1X1XQ.T.T.Y.T.T.S.G.D.D.D.q = * a   J .Xa.t.P.(.#X{.`.oXOX+X+X@XoX-XoXU ~ T = O $./.=X%X$X%X$XgXkXc.k k ",
"S m C >.<XG kX_.L.S.F.U.T. XS.I.T.L.T.T.L.F.G.D.D.p.y B E ..qX`./.S.c.iXiXwX0XqX0X0Xp p d.2.7./.U E t 3.[.%X{.{.{.{.i.^.=Xn k k ",
"Z Z C Z yX:XrX8X$X'.J.F.Z.V.~.C.N.8.5.e.t.w.6.t.e.6.6.#.:.0X8.r.p W _ C v / ..Q W ! R R N (.(.~.M.^.~.%X%X~.$X%XC.D.~.&Xf.k k k ",
"Z Z Z Z Z yX3XlX/.}.%X%X&X%X%X$X%X%X%X$X#X#XB.y.V.`.{.].].y.y.h.&.=.u nXL 3 v 6 3 g 4 ( s a./.%X#X'._.B.7.i.i.7.`.%X@X=.k k k k ",
"Z Z Z Z C D I aX<X'.XX#XXX~.0.8.5.2.5.8.9.A.@.O.+.5.a.m.qXF z.iXdX,.z.z.x.k.l.l.x.-.l.iXy.D.{.{.'.B.O.2 7 8 9 q.b.!.J k k k k k ",
"Z Z Z Z Z C C C qXwXm.:Xi 6 t t 6 t H Z Z m tXn.eXqXZ Z Z Z Z v...Z Z Z C b ' MXMXNXmX,.z.tX0XF >.c.v.c.p K c.eXZ Z Z C k k k k ",
"Z Z Z Z C C Z Z Z C Z ) ) )  .X. .` Z Z m m m m C Z Z Z Z Z Z >.hX_ Z Z C C C C V D Z Z Z Z Z Z Z Z Z Z Z Z Z Z Z Z Z Z c h k k ",
"Z Z Z m m z C Z Z Z Z P Z Z Z Z P P Z Z Z m m C Z Z Z Z Z Z Z Z eX>.Z Z C C Z Z A S Z Z Z Z Z Z Z Z Z Z Z Z Z Z Z Z Z Z m c k k ",
"Z Z Z m b b m b Z Z Z Z Z Z Z Z Z Z Z Z Z Z Z Z Z Z Z Z Z Z Z Z A Z Z Z Z Z Z Z Z Z Z Z Z Z Z Z Z Z Z Z Z Z Z Z D ] ` ) X.] m k ",
"Z b r b b b b m Z Z Z Z Z Z Z Z Z Z Z Z Z Z Z Z Z Z Z Z Z Z Z Z A C Z Z Z Z Z Z Z Z Z Z Z Z Z A ` ) Z Z Z Z Z Z D X.X.X.X.X.Z k ",
"Z m b b b b b Z Z Z Z Z Z Z Z Z Z Z Z Z Z Z Z Z Z Z Z Z Z Z Z Z Z Z Z Z Z Z Z Z Z Z Z Z Z Z Z ]  .X.` Z Z Z Z Z Z ` X.X.X.| c h ",
"Z m b b b b b A Z Z Z Z Z Z Z Z Z Z Z Z Z Z Z Z Z Z Z Z Z Z Z Z Z Z Z Z Z Z Z Z Z Z Z Z Z Z ) X.X.] _ Z Z Z Z Z Z Z ) ] ] ) m k ",
"Z Z C b b z C Z Z Z Z Z Z Z Z Z Z Z Z Z Z Z Z Z C Z Z Z Z Z Z Z Z Z Z Z Z m m m m C Z Z Z Z D X.| ) C Z Z Z Z Z Z Z Z Z Z Z Z k ",
"Z Z Z A A C Z Z Z Z Z Z Z Z Z Z Z Z Z Z Z Z m m m m Z Z Z Z Z Z Z Z Z Z S C m m m C Z Z Z Z Z ` ) m m m C Z Z Z Z Z Z Z Z Z Z c ",
"Z Z Z Z Z Z Z Z Z Z Z Z Z Z Z Z m m m n Z Z m m m m Z Z Z Z Z Z Z D ) P Z Z m m m Z Z Z Z Z Z Z m m m m C Z Z Z Z Z Z Z Z Z Z m ",
"Z Z Z Z Z Z Z Z Z Z Z Z Z Z A m b b b b Z Z Z m m m C Z Z Z Z Z ) | X.) Z Z C m Z Z Z Z Z Z Z Z C m C Z Z Z Z Z Z Z Z Z Z Z Z m ",
"Z Z Z Z Z Z Z Z Z Z Z Z Z Z m b b m m m Z Z Z m m m C Z Z Z C C ` X. .Z Z Z Z C C Z Z Z Z Z Z Z Z m m Z Z Z Z Z Z Z Z Z Z Z Z c ",
"Z Z Z Z Z Z Z Z Z Z ` ' ) P A A ` P Z Z Z Z Z Z C C Z Z Z Z Z m C X.X. .` Z Z Z Z Z Z Z Z Z Z Z Z Z m Z Z Z Z Z Z Z Z Z Z Z m k ",
"Z Z Z Z Z Z Z Z Z Z )  .X.X.| { X.D Z Z Z Z Z Z Z Z Z Z A Z m m m P ] ] ] D Z Z Z Z Z Z Z Z Z Z Z Z Z Z Z Z Z Z Z Z Z Z m c k k ",
"Z Z Z Z Z Z Z Z Z Z Z Z ` | X. .D Z Z Z Z Z Z Z Z Z Z Z Z Z m m m Z Z C m Z Z Z Z Z Z Z Z Z Z Z Z Z Z Z Z ) ] X.X.] l > > < 5 k ",
"Z Z Z Z Z Z Z Z Z m m m m Z Z Z Z Z Z Z Z Z Z Z Z Z Z Z Z m m C m m m b b Z Z Z Z Z Z Z Z Z Z Z Z Z Z Z Z ] X.X.] m k > : > < k ",
"Z Z Z Z Z Z Z Z Z Z b m m Z Z Z Z Z Z Z Z Z Z Z Z Z Z Z Z Z m m m c b b b Z C m Z Z Z Z Z Z Z Z Z Z Z Z Z ` X.] P Z l 5 > < k k ",
"Z Z Z Z Z Z Z Z Z Z m m m m Z Z Z Z Z Z Z Z Z Z Z Z Z Z Z Z m m b b b m m m m m Z Z Z Z Z Z Z Z Z Z Z Z Z Z ] ] ) k r h k k k k ",
"Z Z Z Z Z Z Z Z Z D m m m m C Z Z Z Z Z Z Z Z Z Z Z Z Z Z Z Z Z m m C Z m m m m m Z Z Z Z Z Z Z Z Z Z Z Z Z Z c k h h k k k k k ",
"Z Z Z Z Z Z Z Z Z Z Z m Z Z m Z Z Z Z Z Z Z D ' P Z Z Z Z Z Z Z A Z Z Z Z C Z Z Z Z Z Z Z Z Z Z Z Z Z Z Z Z Z c k k k k k k k k ",
"Z A m m b Z Z Z Z Z Z Z m b b m z Z Z Z D P )  .X.) Z Z Z Z Z Z Z Z Z Z Z Z Z Z Z Z Z Z Z Z Z Z Z Z Z Z Z Z Z C k k k k k k k k "
};
