/* XPM */
static char *result[] = {
/* columns rows colors chars-per-pixel */
"64 64 231 2 ",
"   c black",
".  c #08080D",
"X  c #151416",
"o  c #18181B",
"O  c #322C10",
"+  c #1D1E22",
"@  c #1D1F2A",
"#  c #201F21",
"$  c #26262A",
"%  c #282A34",
"&  c #2B2C35",
"*  c #353435",
"=  c #3B3735",
"-  c #3D3936",
";  c #343438",
":  c #3E3B3A",
">  c #493317",
",  c #492B29",
"<  c #4A3539",
"1  c #413F3D",
"2  c #503533",
"3  c #724B09",
"4  c #7A5708",
"5  c #796B08",
"6  c #6B6116",
"7  c #776719",
"8  c #7C7415",
"9  c #544B2B",
"0  c #46423E",
"q  c #564837",
"w  c #6C5929",
"e  c #6B5839",
"r  c #726429",
"t  c #736733",
"y  c #353744",
"u  c #3A3B43",
"i  c #3B3D4C",
"p  c #3B3E51",
"a  c #503E4A",
"s  c #3F4048",
"d  c #3D4054",
"f  c #444545",
"g  c #484648",
"h  c #4C4C4B",
"j  c #5B4749",
"k  c #524D49",
"l  c #52514F",
"z  c #5D5248",
"x  c #464755",
"c  c #46495C",
"v  c #4B4D5B",
"b  c #5A4E53",
"n  c #555453",
"m  c #585756",
"M  c #5C5956",
"N  c #54555D",
"B  c #5C5B5A",
"V  c #675B49",
"C  c #645C58",
"Z  c #73684A",
"A  c #77694A",
"S  c #6A6556",
"D  c #62605F",
"F  c #726C54",
"G  c #7A7359",
"H  c #484B64",
"J  c #4A4E64",
"K  c #4E5167",
"L  c #555667",
"P  c #595C63",
"I  c #51556D",
"U  c #545872",
"Y  c #625C65",
"T  c #625B78",
"R  c #556176",
"E  c #656463",
"W  c #696667",
"Q  c #6C6C6B",
"!  c #706F6D",
"~  c #6F706F",
"^  c #7C7763",
"/  c #6F6C77",
"(  c #747372",
")  c #797877",
"_  c #767479",
"`  c #7B7A79",
"'  c #835B09",
"]  c #896A07",
"[  c #8C7804",
"{  c #99780B",
"}  c #886D16",
"|  c #997A15",
" . c #A17F0A",
".. c #897727",
"X. c #8F7633",
"o. c #8A7738",
"O. c #836F45",
"+. c #857748",
"@. c #937D44",
"#. c #877F56",
"$. c #896864",
"%. c #9B8507",
"&. c #988C15",
"*. c #9A8419",
"=. c #A8880C",
"-. c #AE920B",
";. c #B5940E",
":. c #BA970F",
">. c #B89A09",
",. c #A68817",
"<. c #AC8C12",
"1. c #A99417",
"2. c #B39314",
"3. c #BC9C12",
"4. c #B89915",
"5. c #BAA403",
"6. c #BCA716",
"7. c #BCA219",
"8. c #998424",
"9. c #9C8836",
"0. c #AA912A",
"q. c #B79928",
"w. c #A48837",
"e. c #AA9235",
"r. c #B49732",
"t. c #B9A624",
"y. c #B9A538",
"u. c #C5AC07",
"i. c #CBB404",
"p. c #D3BC05",
"a. c #D2B60E",
"s. c #C3A413",
"d. c #C5AD15",
"f. c #CCAB13",
"g. c #C5A91A",
"h. c #D0AF15",
"j. c #CAB415",
"k. c #CCB41B",
"l. c #D2B415",
"z. c #D5BB15",
"x. c #DABD16",
"c. c #D5B718",
"v. c #D4BC1C",
"b. c #DABD1A",
"n. c #C6AC29",
"m. c #C7B223",
"M. c #D1BD26",
"N. c #C9BA38",
"B. c #DBC503",
"V. c #DAC309",
"C. c #DAC415",
"Z. c #DDC31C",
"A. c #DBC818",
"S. c #E2CC03",
"D. c #E5CD0B",
"F. c #E6D104",
"G. c #EBD602",
"H. c #EBD509",
"J. c #F1DC01",
"K. c #F2DC0A",
"L. c #E2C916",
"P. c #E1C61D",
"I. c #E4CB1B",
"U. c #E7D414",
"Y. c #EBD51A",
"T. c #EEDB1B",
"R. c #F0DB19",
"E. c #F6E101",
"W. c #FAE502",
"Q. c #FFEA00",
"!. c #FBE80D",
"~. c #FBE715",
"^. c #F5E31D",
"/. c #FAEA1D",
"(. c #DBC823",
"). c #D2C12E",
"_. c #D3C335",
"`. c #DECC36",
"'. c #E3CE23",
"]. c #E6D327",
"[. c #EAD421",
"{. c #EFDA23",
"}. c #F2DE25",
"|. c #F1DD2A",
" X c #E0CE35",
".X c #E9D739",
"XX c #F6E426",
"oX c #FAE72B",
"OX c #FBEB29",
"+X c #8D834A",
"@X c #978A48",
"#X c #9D9246",
"$X c #928657",
"%X c #AA9349",
"&X c #AB9555",
"*X c #B7A947",
"=X c #B2A64E",
"-X c #B8A358",
";X c #8F876C",
":X c #A39A78",
">X c #B6A86C",
",X c #C7B947",
"<X c #C5B655",
"1X c #C8B070",
"2X c #D8C543",
"3X c #E8D44E",
"4X c #FDEB4F",
"5X c #FAEA69",
"6X c #536585",
"7X c #5C708F",
"8X c #557099",
"9X c #7C7780",
"0X c #677B99",
"qX c #836984",
"wX c #74839B",
"eX c #678BB6",
"rX c #7196BA",
"tX c #7B9BC1",
"yX c #75A5CE",
"uX c #98948D",
"iX c #A59C8A",
"pX c #AD9D9C",
"aX c #8694AD",
"sX c #B8ABAB",
"dX c #C3B5B5",
"fX c #8DAFD1",
"gX c #8DBCDF",
"hX c #A4CCE6",
"jX c #ABD1E8",
"kX c #B9DCEF",
"lX c #C6E4EE",
/* pixels */
"s f f f f f f f f f f f f f f h m k l n m m m m m m P ` ` ` ;X<X_.2X_.=XS N m m m m m m l l n m m m m m m m m m m n f f f f f f ",
"f f f f f f f f f f f f f f f f l m m m m m m m m +X_..X].`.`.`.`.`.`.].!.N.+Xm m m m m l m m m m m m m m m m m m f f f f f f f ",
"f f f f f f f f f f f f f f f f h m m n m m m +X].(.V.8.e 1.6.C.j.6.1.t ..B.`.N.F m m m m n m m m m m m m m m m l f m Q P f f f ",
"f f f f f f f f f f f f f f f f f n l k k m #X[.t ` t.U.W.!.^.!./.!.Q.Q.U.m.) t ).#Xm m m m m m m m m m m m m m l f Q ~ ~ f f f ",
"f f f f f f f f f f f f f f f f 0 n l k k #X(.B -X2X^.^.OXOXXX/./.XXOXXX/.U..X>XY 2X=Xm m m m m m m m m m m m m n f E ~ ~ B f f ",
"f f f f f : : 0 f f f f f f f f h m n k Z |.$X3XA.|.OXOXOXXX^.^.^.^.OXOXOXOX].J.3X>X|.C m M n n m m m m m m m m m f g Q m f : f ",
"f f f 0 - = - f s f f f f f h n m m n k r.2X|.B.XXOXOXOXOX{.T.T.T.T.XXOXOXOXOXA.Q.~.2X*Xm m m k k n m m m m m m m l f h 0 = = = ",
"f f f : - = : - : f f h n m m m M M k A '.V.Q.a.OXXXXXXXXXY.Y.Y.].U.{.XXXXXXOX(.F.Q.W.'.m m m k k l m m m m m m m n f f 0 : 1 f ",
"f f f : = = = - f h n m m m m m m m l +XH.K.U.d.}.XXXX}.XXI.I.L.U.A.{.XX}.XXXX}.i.Q.Q.R.$XM M n k k n m m m m m m m l s f f f f ",
"f f f 1 = = 0 h n m m m m m m B ~ ( Q N.U.Q.l.g.}.}.}.}.}.P.L.L.A.A.Y.}.}.}.}.}.s.Q.Q.E._.m M k k h l m m m m m m m m g f f f f ",
"h g h h h n m m m m m m m m m B ~ ` $. XK.W.g.v.}.{.{.{.{.P.x.x.x.x.A.{.{.{.{.|.;.!.4XoXM.B m k k k n m m m N m m m m n f f f f ",
"m m m m m m m m m m m m n m m m B P 9Xo.H.K.a.v.{.[.[.[.Y.x.l.l.a.l.(.{.[.{.[.[.-.4X5X3Xe.m m m n n m m n l l l m m m m h f f f ",
"m m m m m m m m m m l l l l n m M Q ` 2 p.Q.p.P.Y.'.[.Y.[.1XiXiXiXiX1XY.Y.[.[.Y.1.4X3Xh.r.b m m m m m m l l l l m m m m n f f f ",
"m m m m m m m m m m l l l l l m n M n > >.Q.p.g.c.'.I.'.[.t : ; * * e.I.I.'.'.I.*X4X.X<.q.Y m m m m m m n l l l m m m m m h f f ",
"m m m B ~ E m m m m m n n m m l h k k > ;.Q.a.b.P.b.P.'.I.w $ $ $ $ 8.I.I.P.P.v.3./.P.] r.M b m m m m m m n n m m m m m m m f f ",
"m m m ` ` ) m m m m m m m m m l k k k , =.Q.u.b.b.b.P.P.'.> # # # # ..L.'.P.P.Z.2.J.S.' q.M m m m m m m m m l n m m m n m m h f ",
"m m E ` ` ` D m m m m m m m m l k n l 9 %.Q.-.j.v.v.b.Z.P.# o o o o 7 P.Z.P.P.Z.3.F.S.' r.n m m m m m m m m m m m m M l k k l 0 ",
"m m ~ ` ` E m m m m m m m m m m n m l Z =.Q.=.b.b.b.Z.b.P.X X X X X 7 P.b.b.b.b.h.V.p.' w.m m m m m m m m m m m m n l n k k k h ",
"n m m Q W m m m m m m m m m m m m m l n ;.Q.<.v.x.c.x.x.P.O 8 &.1.8 7 b.x.x.z.x.v.s.p.' X.B m m m m m m m m m m m B M B k k k l ",
"l l m m m m m m m m l n m m m m m m m l 4.E.2.l.g.h.c.c.Z.[.|.|.|.|.[.(.c.c.c.v.l.=.F.' O.m m m m m m m m m m m m ~ S m k k k l ",
"n l n m m m m m m m m l m m m m m m M M >.E.<.s.l.l.l.M.[.(.Z.k.k.v.(.[.Z.k.l.l.l.<.u.4 O.M m m m m m m m n m m m ~ ) E l k k l ",
"l l n m m m m m m n l l l m m m m M n #X{ p.2.h.h.l.k.'.k.7.1.<.,.1.7.k.'.k.h.h.h.=.] 3 O.m m m m m m l l l l m m M ~ ) Q E n m ",
"l l n m m m m m m n l l l n m m m m b =X] 3.;.f.f.s.m.d...#X#Xy.k.d.k.C.A.Z.s.f.h.=.3 3 O.m m m m m m l l l l l m m m B B m m m ",
"n n n m m E ~ E E ~ P l l N m m m m C @X{ u.2.s.d.8.&.9 V q q l ( V V F X.1.s.f.f.-.4 3 O.M n k l m m m n n m m m m m m m m m m ",
"m m m m m Q ` ` ` ` ) B m m m m m m m #.-.B.-.7.6 $ * u N ; ; B % & : $     z ..3.:.4 3 C b k k q k n M m m m m m m m m m m m m ",
"m m m m m m ` ` ` ` ~ m m m m m m m m n 7.J.<.w & ; $ & v @ + + o $ g         m A :.] w n n k k l k l n m m m m m m m m m m l k ",
"m m m m m m m ~ ` ) D n m m m m m m m m y.J.} v % .   & K % + % & d s       x s c ..>.e m k k k h k k n m m m m m m m n l 0 : - ",
"m m m m m m m m m m m m m m m m m m m m +XG.+.I y     N g I i d J K $ @ y . c c c V S.V k k k k l l l m m m m m m m n f = = = : ",
"m m m m m m m m m m m m n n m m m m m m V 3.+X/         E U U U U J H d I d U U U #Xu.X.m m l M S Q m m m m m m m n s = = = = = ",
"m m m m m m m m m m m n n l n m m m m M w.4.<.$XZ r r r ;X^ ^ ^ G G ^ G ^ G G G +.u.4.q.A W D E ~ ) ~ m m m m m n f f : = = = - ",
"m m m m m m m m m m m l l l l m m m +.r.&X0.4.V.U.v.v.Z.v.v.v.v.Z.k.Z.k.v.Z.M.L.F.b.w -Xr.*X;X` ` ` ~ m m m n n s f 1 1 1 : 1 s ",
"n m m m m m m m m m m n l l n m m @X<X_ ;X..o.C.7.7.7.*.8.&.&.1.1.0.9.8.*.7.7.l.S.M.: q.7X;X2X` ) ~ D m m M n h f f s f s 0 f f ",
"k n m m m m m m m m m m l l m m m +.W n @.o.P 6.-.j.9 % ; $ $ $ & d s % @ > t.6.7.*Xc 2.M M G n n m m m m m n f f f f f f f f f ",
"n m m m m m m m m m m m n n m m m M M m 9.e E 0.a.h i d i i i i c c s y y ; y V.{ @XT #XS n m m n M m m m m n f f f f f f f f f ",
"m m W ~ ) ( ~ m m m m m m m m m m M b l w.uXb >XU.H I I I I I U I I U I I R K (.{ $Xa @.+.m m m l l M M m m m f f f f f f f f f ",
"m m ` ` ` ` ` W m m m m m m m m n k k k r.V j &XE.N.=X=X=X=X*X,X,X*X=X=X=X=Xy.Q.=.#., X.w.b m m n l l n m m m h f f f f f f f f ",
"m m ) ) ) Q ) E m m m m m m m m k k k k q., Y $XG.F.j.6.:.>.>.Q.Q.>.>.>.6.j.B.Q.{ @.< Z 9.m m m m m l l n m m m f f f f f f f f ",
"n m B ) ` W n m m m m m m m m l k k m ! w.j 9X@.F.T.Y.L.z.f.;.J.Q.:.f.x.U.T.T.W.[ #.a 9 &XE m m m m n l n m B ~ Q f f f f f f f ",
"l l n M D m m m m m m m m m m k k k l sXw., P +XU.^.Y.I.z.h.:.E.Q.;.f.z.I.T./.Q.[ :X/ 2 iXiXm m m m m m m m Q ` ) n f f f f f f ",
"n l l m m m m m m m n m m m m n k k k sXw., L +XT.^.Y.L.z.f.:.E.Q.;.f.C.I.T./.Q.[ :X, 2 &XsXm m m m m m m E ~ ` ` B f f f f f f ",
"m m m m m m m m m m n l n m m m M n m sXw.a I @.T.^.Y.L.z.f.:.E.Q.:.f.x.L.R./.Q.5 +XV a w.dX! P m m m m M M D Q ~ N f f f f f f ",
"m m m m m m m m m m m l l n m m M n m pX#X< v e T.^.Y.L.x.f.:.E.Q.;.f.x.I.R./.W.> o.2 W &XpX$.W m m m l k k l B m m l f f f f f ",
"m m m m m m m m m m n n n m B n m m m @.&XU J t U./.Y.L.z.f.:.E.Q.;.f.x.L.R.OXQ.5 +XW ` *.#X~ E m m m l l k l m m m m f f f f f ",
"m m m m m m m m m l l m E ~ ` ` W m m w.3.s v *.Y.^.Y.L.z.f.:.E.Q.:.f.z.L.T./.~.[ } W u 3.q.m m m m n M M n m m m m m l f f f f ",
"m m m M n n m m m n n D E E ) ` ` Q n @Xf.7.(.&.^.A.A.z.j.3.=.E.Q.{ 3.f.z.I.A./.&.5 [.j.7.S m m m m m m m m m m m m m n f s f f ",
"m m m k k k n m m m B D m m M B P B m 9.J.V.C.-.L.Z.j.d.d.d.l.L.I.C.j.d.d.j.A.I.p.5 A.L.T.M m m m m m m m m m m m m m n n h f f ",
"m n l k k k l k m m m m m m m m m m m V J.Q.S.V.^ 9.6.d.d.d.d.j.d.d.d.g.d.d.9.V U.B.Q.E.].m m m M M m m m m m m D ~ Q E ` ~ l f ",
"M l k k k k k l m m m m m m m m m m m +.F.W.i.G U U K S A O.+.o.o.+.+.O.S H K H V F.E.E.[.n m m W W m m m m m n D ` ` ` ` _ B f ",
"m l k k k k k m m m m m m m m m m m m e.i.S.C.H J H J d d d H H I L I H H y % p x d.S.J.Y.m m ~ ` ` Q m m m m m m Q ) ` ` ( h f ",
"m l k k k k k m m m m m m m m m m m m e.] S.S.q % s c L & y s d v L J x y % p H g B.S.a.I.+XE ` ` ~ W m m m m m m m E ~ ~ E l f ",
"m m l k k k l m m m m m m m m m m m M w.3 u.Q.%.O : s u u a f v P P N N y & a H { Q.u.-.L.+XD ` ( E n m m m m m m m m m m m n f ",
"m m M M m M m m m m m m m m m m m m M O.3 =.W.H.| S P h h x l N / _ W Y P u q | D.E.%.s.Z.S m Q D l l l n m m m m m m m m m m h ",
"m m m m m m m m m m m m m m m m n k k A 3 5.S.Q.C.:.q.q.g.M.v.z.z.v.M.n.y.r.:.c.Q.G.5.s.n.m m m n l n l n m m m m m m m m m m l ",
"m m m m m m m m m m m m m m M l k k k 0.4 5.W.J.!.x.m.8 O 4 | <.,.| 4 O 8 t.x.~.Q.G.p.>.m.m m m n l n m m m m m m m m m m m m l ",
"m m m m m m m m m m m m n M l k k n l +X&.-.Q.J.Q.z.9.o o 7 | | ,.,.} X X X.3.Q.G.Q.i.:.z.+.m m m l l m m m m m m m m m m m m h ",
"m m m m m m m m m m Q ~ E D M M Q C M M t.S.V.J.Q.D.e.# # 7 ,.q.q.<.r + # 9.6.Q.J.W.u.6.l.F m m m n n n m m m m m m m m m m n f ",
"m m m m m m m m m m E ` ` ` ( ~ ` B m m N.Q.j.J.Q.K.q.z $ = <. .=.<.9 $ : r.U.Q.J.G.5.7.r.M m m m m m m m m m m m m m m l h f f ",
"m m m m m m m m m m n m Q ( ` ) B m m m F ^.B.5.E.Q.U.-X0 & t 1.2.r & 1 &XD.Q.Q.i.E.z.9.C m m m m m m m m E ~ ` ` ~ k - = : 1 f ",
"m m m m m m m m m n l l l M m m m m m B m +X~.A.>X,X.X!.R.).m.t.t.m.M.[.!.K.).-XC.!.@Xm m m m m m m m m m ~ ` ) ~ l g = = = : f ",
"m m m m m m m m m n l l l m m m m m m P R eXhXlXkXaX$.%X5.p.B.B.B.V.p.i.0.$.qXaXjXkXhXeXR L m m m m m m m W ` ~ P m g : - : 0 f ",
"m m m m m m m m m m l l l l m m m m m U 8XyXhXkXjXfXuX>XN._.N.).).M.M.).N.>X0XfXjXkXjXyX8XR m m m m m m m m ~ ~ D f f f f f f f ",
"m m m m m m m m m m l n l l n m m m m P 7XeXgXkXgXeX7XP m m B m l n m m b N 6XeXgXkXgXeX7XP m m m m m m m m m h f f f f f f f f ",
"m m m m m m m m m m n n m n l m m m m m P 0XfXgXtX0XP B m m m m m m m m m m P 0XrXgXtX0XP m m m m m m m m m m h f f f f f f f f ",
"m m l l h m m m m m m M l k k l h m m m m W wXfXwXQ m M m m m m m m m m m m m B 0XfXwXP m m m m m m m m m m m n f f f f f f f f "
};
