/* XPM */
static char *result[] = {
/* columns rows colors chars-per-pixel */
"64 64 62 1 ",
"  c #3C3735",
". c #3D3836",
"X c #3D3C3B",
"o c #403F3E",
"O c #42403F",
"+ c #3F4040",
"@ c #434444",
"# c #494745",
"$ c #4E4A47",
"% c #474848",
"& c #4B4B4A",
"* c #514D4A",
"= c #52514F",
"- c #555453",
"; c #585756",
": c #5D5956",
"> c #5C5C5B",
", c #635E5B",
"< c #61605F",
"1 c #646463",
"2 c #696766",
"3 c #696867",
"4 c #6C6B6B",
"5 c #706F6E",
"6 c #6F706F",
"7 c #73716F",
"8 c #747372",
"9 c #787675",
"0 c #797877",
"q c #7C7B7A",
"w c #807F7E",
"e c #81807F",
"r c #7F8080",
"t c #848382",
"y c #888786",
"u c #888887",
"i c #8C8B8B",
"p c #908F8E",
"a c #90908F",
"s c #949494",
"d c #989797",
"f c #989897",
"g c #979898",
"h c #9C9C9C",
"j c #A4A4A4",
"k c #A8A8A7",
"l c #ABABAB",
"z c #B0B0AF",
"x c #B5B4B4",
"c c #B8B7B7",
"v c #BBBBBB",
"b c #C0C0BF",
"n c #C4C4C3",
"m c #C8C7C7",
"M c #CCCCCC",
"N c #D0D0CF",
"B c #D4D4D4",
"V c #D8D7D7",
"C c #DDDDDD",
"Z c #E0DFDF",
"A c #E0E0DF",
"S c #E1E1E0",
/* pixels */
"+@@@%@@@@%%+%%%%-=*;;;;;;;,qqqq0>;;;;;;;;;;===;;;;;;;;;;;=%@%%@@",
"@@@%@@%@%++%%+%+-;;;;;;;;=-90q0q<;;;;;;;;;;;=;;;;;;;;;;;;#@@@@%@",
"@%@%@%@@@%%@%+%+#;;:;;;;;-=<q8<<;;;;;;;;;;;;;=;;;;;;;;;;=@>6>%+%",
"@@@@@@%%%++%@%@%@;*$*;;;;;-=34;;;;;;;;;;;;;;;;;;;;;;;;;;=@446+%@",
"%@%@@%@@%+%%%%+%@-=***;;====-;;;;;;;;;;;;;;;;;;;;;;;;;;;-@164<%+",
"%@@@@XX@%%+++%%+#;;$*=;;-===-;;;;;;;;;;;;;;;;:--;;;;;;;;;%&4;@X@",
"@%@@. .@+%%%+%&-;;*$*-;;;;;;;;;;;;;;;;;;;;;;;;;$=:;;;;;;;&@&O  .",
"@@@X  X +++&-;;;::**-:;;;;;;;;;;;;;;;;;;;;;;;;;=$*;;;;;;;;%@@XX@",
"%@@X  ..@&-;;;;;-;=;;;;;;;;;;;;;;;;;<9942:;;;;;=*&-;;;;;;;=%++%+",
"@@@+  +&;;;;;;;<774;;;;;;;;;;;;;;;;<92,,99:;;;;=*&=;;;;;;;;%%%%%",
"&&&&&-;;;;;;;;;;70q7;;;;;;;;;;;;;;;>,,=-271;;;;=*$-;;;;;;;;-%++%",
";;;;;;;;;;;;-;;;;<00<;;;;;;;;;;;;;;;-===;;;;;;;;=;;;-===;;;;%%+%",
";;;;;;;;;;====-;;707>;;;;;;;;;;;;;;;=====;;;;;;;;;;;====-;;;;%+%",
";;;;;;;;;;-====;-:==-;;;;;;;;;;;;;;;;===-;;;;;;;;;;;-===;;;;;&+%",
";;;>61;;;;;--;;=$*&&&;;;;;;;;;;;;;;;;-===;;;;;;;;;;;;--;;;;;;-%%",
";;;0q9;;;;;;;;;=$&-==;;;;;;;;;;;;;;;;;===-;;;;;;;;;;;;--;;;;;;&+",
";;10q0>;;;;;;;;=*;===-;;;;;;;;;;;;;;;;;;;;;;;;;;;;;;;;;;;;;***=O",
";;6qq3;;;;;;;;;;;-===;;;;;;;;;;;;;;;;;;;;;;;;;;;;;;;;;;;;-==****",
"-;>33>;;;;;;;;;;;;=-;;;;;--;;;;;;;;;**;;;;;;;;;;;;;;;;;;;>:,***=",
"==;;;;;;;;=-;;;;;;;=;;;;===-;;;;;-:=*=;;;;;;;;;;;;;;;;;;;7<:*$$=",
"-=;;;;;;;;-=;;;;;;;;;;;;-===;;;;****=-;:<<;;;;;;;;;;;-;;;40<-**-",
"==-;;;;;;;==-;;;;;;;;;;;;===-;;;-**,8q7900;;;;;;;;;====;;:7022-;",
"==-3khklkhkgshtkjx4hihg;;=-qhhj<djjh4qwsvvMzc:;;1a8t>==-<lfja;;;",
"--;tCBCAMACCCmhnCCtbCCCh;--gAAB;lZAb;2bAACZAANj=yNnVs--;2CCCk;;;",
"-;;rCVmCkNVNNxtvCCrvCACn8;;hBCC8xZZM;bCAAMbVCCCewVCCi;;;;VACt;;;",
";;;iCBbh0q4>;;rcCVrmCCCCn6;hNCC>kZAV9CCCl;;1MCCvfBMCr;;;;VCCk;=*",
";;;uCMcncvhllqunCvrkCCBCAM,aNCC<jZZM4NACVVxklx09elCCbklbVCCCvO..",
";;;tCNNCCCVACtsCCn6sAAvBCAMjBCC;vAZm;eNCCACACCk:7vBCCCCAAACCb  O",
";;;yCnCNcbMnx6uACvqiBAlhCACCMCC3vCCNqyffkvMCZCAbaNNABvvlbVCCe   ",
";;;tAvCu;;;--=rCAv4qACxqkCCCmCC>MACmzCCB>;;1zAAAxBACh;;;-BCVy  .",
";;;tCBA4;;;-==rCCbr0VCj04iCCVCZ<MACbrVCCme<ynASAxSACr;;-+ACCgXo@",
";;;iCCCt;;;-==rACMtaCCj83;lCBCC6vCCM;kCCCACCCCAhsACAi;;&+CCCj@@@",
"&-;9VVV6;;;-==pMNmqkCVz;;;;jBCZ4mVCm;-amCCVCVbi;iCCCu;-%&VVCg+++",
"&==;ahhi>===ahhh=>==hrjh&===shhg==;3hhhf393qhhgi&><<hhhu@+++grgh",
"%+%&MZZZ4o@+MZCZ=+X+BVCCX++@NSCVO@XOCCCBooo1SCZnX++1CCCMX X<CVCM",
"%o==BZZZ3+o+BCZC;XX+NCCC@+++VSSVOOXXVCCN+@o>CCCC@X+-CCCn X 1CCCM",
"%o&-mZZZ6o++MZZC1XXXMCCV;@X@BZZVooX.CCCBo@X1CCCM+++@CCCm+++;CCCM",
"ssdtlccx6ssskcxxyrsslxcxassszcxxg0ajlccljgducccchdsixccjggrgzzkj",
"mCCZ5@++nCZZ=o@XnCZZ%+X+MCZV+XXXCCCCo@@@CCCB+oo@CCCM+@%qSCCM XXX",
"MCCCqo++MCCZ%@oXMCCZ-o@+CCCZXX++CCCVooO&CCCB=%+>CCZM+@&8SCVbXXXX",
"MCCZu+++bCCC8+++MCZC&+o+BCCV++o@VZCB+X+@CZSV&-%%CCCN+%+>SCCmXXXX",
"cmvm-&&&lvvc&%&&xcvz-%%&zcvx=%%&cMbj%%%%zvnc111-cvcl%++3vcvk+++X",
";;;;;;;;;;--->>;;;;;;;=-;;;;;;;;;;;;-==-;<09138>;;;-;&%;;;;+%+++",
";;;;;;;;;==;<4q03;;;-===;;;;;;;;;;;;===-;;;;;;;;;;;;;;;;;;;=%%++",
";;::;;;;;--1<100q4;;-===-;;;;;;;;;;;-=--;;;;;;;;;;;;;;;;;;;;%+%+",
";;;*$*=;;;;<>;;><>;;--=-;;;;;;;;;;;;;-;;;;;;;;;;;;;;;;;;;;;;-%%%",
";;******;;;;;;;;;;;;;;;;;;;;;;;;;;;;;;;;;;;;;;;;;;;;;;;;>64106-+",
";******=;;;;;;;;;;;;;;;;;;;;;;;;;;;;;;;;;;;;;;;>33;;;;;;>r00r0>%",
";******;;;;;;;;;;;;;;;;;;;;;;;;;;;;;;;;;;;;;;;;6qq3;;;;;;4qqq8%+",
";-$**$*:;;;;;;;;;;;;;;;;;;;;;;;;;;;;;;;-;;;;;;1qq64;;;;;;;<681-%",
";;-***-;;;;;;;;;;;;-;;;:-;;;;;;;;;;;;-===;;;;;>q81-;;;;;;;;;;;;+",
";;;:;-:;;;;;;;;;;;;,;-*===;;;;;;;;;;;-===-;;;;;4<===-;;;;;;;;;>&",
";;;;;;;;;;;;;;;;-=*=;;-===;;;;;;;>1>;;===;;;;;;;--==-;;;;;;;;;;-",
";;;;;;;;;;;;;;:*$***-;;===;;;;;;18q3;;-=;;;;;;;;;&-;;;;;;;;;;;>&",
";;;;;;;;;;;;;:=**--=;;;====;;;-=1q0;;;;--;;;;;;;;&-;;;;;;;;;;;;%",
";;;;;;;;;;442,::2<;;;;;;;-;;;;;=;qqq4;;;;;;;;;;;;;-;;;;;;;;;;;=%",
";;;;;;;;;;<qqq850;;;;;;;;;;;;;==->585;;;;;;;;;;;;;;;;;;;;;;;=&@@",
";;;;;;;;;;;;49q9<;;;;;;;;;;;;;==-;;-*;;;;;;;;;;;;;;;;<6qq6#..Xo@",
";;;;;;;;;====;;;;;;;;;;;;;;;;-=-===**;;;;;;;;;;;;;;;;6q06=%   o@",
";;;;;;;;;;==&;;;;;;;;;;;;;;;;;==&=&&*;-;;;;;;;;;;;;;;4q6>;%X o@@",
";;;;;;;;;;-&-=;;;;;;;;;;;;;;;;;*$$&**===-;;;;;;;;;;;;;66<@@@@@%@",
";;;;;;;;;;=-==-;;;;;;;;;;;;;;;;;=-;;-===-;;;;;;;;;;;;;;&%%@@@@@@",
";:;;-:;;;;;=;--;;;;;;;>5<;;;;;;;:;;;;;-;;;;;;;;;;;;;;;;&@%@%@@@%",
";--==;;;;;::***=*;;;;<10q1;;;;;;;;;;;;;;;;;;;;;;;;;;;;;-@@@%@%@@"
};
