/* XPM */
static char *result[] = {
/* columns rows colors chars-per-pixel */
"64 64 252 2 ",
"   c #6B4639",
".  c #784939",
"X  c #4C4642",
"o  c #554844",
"O  c #5B4A44",
"+  c #644B45",
"@  c #6A4C44",
"#  c #764E43",
"$  c #6D564F",
"%  c #745146",
"&  c #7D5144",
"*  c #755B54",
"=  c #7B5A53",
"-  c #7E655C",
";  c #894E39",
":  c #8A5239",
">  c #99553A",
",  c #A7593A",
"<  c #B45E3A",
"1  c #AF6038",
"2  c #B86337",
"3  c #B5613A",
"4  c #BC643B",
"5  c #C3663B",
"6  c #C5683B",
"7  c #CB6A3C",
"8  c #D36D3D",
"9  c #DA6E3D",
"0  c #D5703C",
"q  c #DC713D",
"w  c #E3743D",
"e  c #EB763E",
"r  c #EC783F",
"t  c #F2773E",
"y  c #F57A3E",
"u  c #FD7D3E",
"i  c #814E43",
"p  c #835343",
"a  c #8C5443",
"s  c #8D5949",
"d  c #935643",
"f  c #945942",
"g  c #9C5A43",
"h  c #975B48",
"j  c #9B5D4A",
"k  c #845D53",
"l  c #8B5E52",
"z  c #915F51",
"x  c #A35C43",
"c  c #AB5E43",
"v  c #A15F48",
"b  c #B15E40",
"n  c #9B614D",
"m  c #8B6457",
"M  c #946151",
"N  c #9D6350",
"B  c #9F6A59",
"V  c #AE6143",
"C  c #A4634E",
"Z  c #AB654D",
"A  c #AC684E",
"S  c #B36344",
"D  c #BB6545",
"F  c #BF6946",
"G  c #B4664C",
"H  c #BA674B",
"J  c #B5694D",
"K  c #BC6A4B",
"L  c #A36450",
"P  c #A96954",
"I  c #BC7158",
"U  c #967066",
"Y  c #A77465",
"T  c #B77662",
"R  c #C26743",
"E  c #C76745",
"W  c #C46945",
"Q  c #CB6C44",
"!  c #C36B4A",
"~  c #CB6D49",
"^  c #D36D43",
"/  c #D76F46",
"(  c #CB7149",
")  c #D57245",
"_  c #DC7244",
"`  c #D47148",
"'  c #DB7648",
"]  c #C06D50",
"[  c #C77558",
"{  c #D77B58",
"}  c #E47543",
"|  c #EA7642",
" . c #EC7942",
".. c #E87C48",
"X. c #F37A41",
"o. c #F27A45",
"O. c #FB7D41",
"+. c #E37C54",
"@. c #C67B63",
"#. c #FF823F",
"$. c #AE9A76",
"%. c #B3AD79",
"&. c #B1B075",
"*. c #B8B67A",
"=. c #D68648",
"-. c #D79853",
";. c #EB8647",
":. c #F48546",
">. c #FF8442",
",. c #FF8B45",
"<. c #FC854A",
"1. c #FF8C4A",
"2. c #FE9247",
"3. c #FF944B",
"4. c #FF9B4D",
"5. c #EE9451",
"6. c #FC9553",
"7. c #FE9D53",
"8. c #DBA95D",
"9. c #F2A756",
"0. c #FFA353",
"q. c #FFAB55",
"w. c #F9A65A",
"e. c #FFAB5B",
"r. c #F8B35B",
"t. c #FFB35B",
"y. c #FFBB5D",
"u. c #D8B666",
"i. c #CEB470",
"p. c #FCAD61",
"a. c #E7BA63",
"s. c #FFBB62",
"d. c #FEB965",
"f. c #E8AC79",
"g. c #FAB97C",
"h. c #FFC15F",
"j. c #CBCB79",
"k. c #D7C770",
"l. c #D6CA75",
"z. c #E6C56B",
"x. c #FFC363",
"c. c #FFCA65",
"v. c #FFC56A",
"b. c #F4CC6A",
"n. c #FFCC6A",
"m. c #FFD167",
"M. c #FFD36C",
"N. c #FFDC6E",
"B. c #E8CF75",
"V. c #FFCC71",
"C. c #FFD472",
"Z. c #FFDB73",
"A. c #FDDB79",
"S. c #FEE473",
"D. c #FFEB76",
"F. c #FDE67B",
"G. c #F2E878",
"H. c #FFEB7B",
"J. c #FDF379",
"K. c #FFF37B",
"L. c #FFFC7E",
"P. c #ABAB85",
"I. c #B7A889",
"U. c #B8B687",
"Y. c #B7AF92",
"T. c #BAB897",
"R. c #BEB9A5",
"E. c #C7BA87",
"W. c #C6BB99",
"Q. c #DBB991",
"!. c #E7B585",
"~. c #FEBC84",
"^. c #C5BCA5",
"/. c #C8C589",
"(. c #D8CA8B",
"). c #DBDB87",
"_. c #C7C598",
"`. c #D8C796",
"'. c #D8D498",
"]. c #E7CA87",
"[. c #FCC78B",
"{. c #F0D08D",
"}. c #FDD88A",
"|. c #E7C99A",
" X c #E7D494",
".X c #FFD59C",
"XX c #FDDA9B",
"oX c #EBEA8A",
"OX c #FEED82",
"+X c #FEE588",
"@X c #FFF483",
"#X c #FFFD84",
"$X c #FAF38A",
"%X c #FFFE8C",
"&X c #E9E899",
"*X c #FEE897",
"=X c #FFE49C",
"-X c #FFFF93",
";X c #F8F49C",
":X c #FFFF9B",
">X c #C7C3A8",
",X c #D8C9A7",
"<X c #C8C4B4",
"1X c #D6C9B7",
"2X c #D7D4B0",
"3X c #E5C9A7",
"4X c #EAD4AA",
"5X c #FCD7A7",
"6X c #FFDBAC",
"7X c #F0D0B1",
"8X c #F4D6B7",
"9X c #FDDBB4",
"0X c #FDDBBB",
"qX c #E6E5A5",
"wX c #FFE3A4",
"eX c #FFECA4",
"rX c #FFE5AC",
"tX c #FFECAC",
"yX c #FFFFA4",
"uX c #FCF3A8",
"iX c #FFFFAB",
"pX c #EDE6B7",
"aX c #FFE5B5",
"sX c #FFECB4",
"dX c #FFE3BB",
"fX c #FFEBBB",
"gX c #F6F4B3",
"hX c #FFF4B4",
"jX c #FFFFB4",
"kX c #FFF4BC",
"lX c #FFFFBC",
"zX c #E2DFC4",
"xX c #FCDEC8",
"cX c #EBE0C8",
"vX c #F2E2C1",
"bX c #FFE5C3",
"nX c #FFEAC4",
"mX c #FFE4CB",
"MX c #FFECCC",
"NX c #FFF4C3",
"BX c #FFFEC4",
"VX c #FEF3CA",
"CX c #FFFFCB",
"ZX c #FFE5D2",
"AX c #FFEDD4",
"SX c #FFF4D6",
"DX c #FFFFD4",
"FX c #FFFFDB",
"GX c #FFFFE3",
"HX c #FFFFEB",
"JX c #FFFFF3",
"KX c #FFFFFE",
/* pixels */
"X o o O @ & & i & p a f g g g j L v j N L L A K J ! ' +.+.;.{ +.{ ' ` ( ~ ~ ' | } ~ ~ J C Z C Z L L L N N N M l l = @ @ @ @ + + ",
"X o o O + % p a > a d f d f g f j j N N j N A H K ~ } ..o.o.o.+.O.} } } ' ' O.O.X._ ' ! Z G K K J A A L L L N N M & % @ @ @ + + ",
"o O + O O + # f x x g g d d f g g L L N L Z G ( ~ ~ ' o.>.u X.u >.X.O.| } } | o.o.| } } Q ! ! ! K J J K H K A P n a m U - @ + + ",
"O O + + + + % a c S , x > g g x x P c c G G E ~ / _ e >.2.,.t u 2.3.,.X.o.| | |  .O.#.y } _ ` ` ( ! ( ` ` ~ ` ! G g U U U # # @ ",
"o O + + @ @ % f < D c c x x x x c G S D F E ^ _ } e >.,.4.,.>.>.3.0.1.1.>.r w  .r y #.#.u  .} } } ' _ } ' ' ' ` Q c P Y U m & # ",
"O + @ + @   # > c R c x x x x c c H ! ^ 8 _ }  .y 2.q.t.4.1.1.6.q.7.>.3.,.:.r w r r r y y y :.y X.}  .} } } } ' ' R D T C f ; & ",
"O @ + +     : , c b x x c c c E E ! ^ _ q } <.,.3.t.s.v.q.e.e.n.n.y.0.3.O.:.y w q #.y y O.y #.y >.| u o.X. . .| | } 7 D 3 , ; . ",
"+ + @ . . ; > 1 < S c c G ! E ~ ` ~ ^ w O.u 1.q.n.n.D.n.t.v.x.e.t.d.t.5.;.;. .q #.#.5.;.:.y #.#.,.O.>.#.u O.X.O.X.| } R R 3 , i ",
"+ + % . ; > 3 1 3 Q ) ` K ~ ` ` ` / | O.0.0.0.v.A.@XH.K.C.Z.C.M.n.d.t.0.5...< 8 8 =.=.=.=.;.y 2.2.#.#.#.y u #.#.u X. .^ 5 R c d ",
"@ @ h > > , 6 0 ~ _ _ } _ ` / _ } | ,.1.0.v.D.%XH.#X@X%X@X@XV.d.C.v.d.7.w.:.../ ' ) =.=.=.' ..:.,.y ,.#.u 2.2.#.O.X.e ^ E R V d ",
"@ p x V x Z ( ( ) _ } } t e w } >.,.7.s.v.F.@X-X%X@X-X%X%X@XA.A.V.V.p.p.p.7.7.6.6...-.-.-.=.5.:.5.:.4.2.#.2.2.2.,. .| } ^ 4 g a ",
"* m C A G G K ( _ | | y 3.,.| O.3.q.x.M.K.@X-X-X:X:X-X%X%X%XOX-X-XOXV.v.v.d.v.n.v.C.C.s.9.r.5.;.0 #.;.#.y #.2.#.>.u o.| ) Z > a ",
"= l N A K K F Q e e e <.q.6.3.0.e.M.Z.Z.%X%X-XyXyX:X-X-X@X-X-X@XOX+XOX@XOX@X@X@XA.S.H.F.A.n.d.0.=._ ;.e r 4.2.2.#.u  .| ) V f a ",
"m l N J J K ! ( q e <.7.7.e.0.d.M.K.@X%X-X:X:XyXyX:X-X:XiXjX:X-X%X$X%X-X:X:X-X-XH.H.@X@XOX@XZ.s.e.=.0 q r #.#.#.#.y o.| ' D g d ",
"l l M A [ K Q 7 9 y 1.0.t.x.s.M.Z.@X#X%X%X-X-XyXyXyX-X:XiXiX:XyX:XyX%X:XiXyXyXyX:X%X-X-X-X-X%XF.b.5.' ) =.5.7.3.#.u o.| ' ! V g ",
"k k l Y I I 7 q <.3.7.0.v.S.Z.F.A.-X-X:X-X$X-XiXiXyXyXiXiXiXiXiX:X:X$X+XiXjXyXiXiXyXyX:X:XyX-X%Xv.8.8.-.8.8.r.r.7.2.u o.} ) W V ",
"k m m U T [ 0 2.0.3.q.n.S.K.H.H.@X%XiXyX-X-XjXlXCXBXDXDXCXDXlXjXjXjX:X;X*XlXlXlXBXlXlXjXlXjXyX:Xn.u.u.8.u.a.a.r.q.4.2.u t } ( 6 ",
"k l U Y T ( X.0.t.e.n.K.-X%X%X%XyXyXiXiXlXjXlXlXCXFXHXGXCXGXFXBXBXBXiXiXyXjXBXlXlXeXtXkXBXBXlXiX%XOXA.M.Z.u.a.y.q.0.2.#.y w ) F ",
"l M l B A 8 ,.3.h.K.#X%X:XyX%XyXjXiXiXlXlXCXFXHXGXGXHXKXGXGXGXFXFXCXBXiXyXiXyX:XiXjXsXbXVXkXBXBXiXiX-X%XL.b.z.b.q.0.4.#.r  .} D ",
"h h n C S q 1.t.Z.#X#X-XiXyXiXjXjXyXiXjXlXCXFXHXGXJXJXKXKXGXBXFXGXDXBXlX*X*X$X}.*X[.`.3X8X4X2X2XVXlXiX:X#XM.a.c.q.q.4.2.y r } K ",
"z j n G 7 <.4.y.M.-X:XyXjXlXlXBXCXjXlXlXlXCXDXGXKXKXKXKXKXJXJXGXGXDXjXuX~.g.g.*X+X].XX8X4X1X<X>XzXNXlX:X:X#Xb.a.0.q.0.4.,.e } F ",
"j x G E w 7.e.C.-X-XyXjXBXlXlXCXBXCXBXFXDXFXDXBXGXJXHXKXKXKXKXKXHXDXlX.X[.~.V.g.].=X5X5X0X<XW.R.2XpXgXyX:X%X@Xb.c.y.4.0.,.:.' K ",
"n V ^ } 1.d.y.#XlXBXjXlXjXlXFXGXDXDXBXGXHXGXFXFXFXGXGXKXKXKXKXKXHXFXlX~.f.f.f.f.B.}.{.(.4X_._.R.2X2XqX&X-X-X#X#XD.M.m.h.t.#.) K ",
"N G ) >.t.N.#X-XlXDXlXBXBXCXFXFXDXFXCXDXJXJXKXGXFXGXDXHXKXKXKXJXGXBXuX~.f.f.[.*X!.].(.).(._./.T.R.R.R.'.$X$X-X#XD.K.N.x.y.<.' ~ ",
"C G _ >.y.M.#X-XjXBXCXCXDXFXGXFXFXFXGXHXHXKXKXGXDXDXHXGXHXKXJXHXDXlXeXg.!.!..X]./.i.(./././._._.R.R.<X'.&X-X#X%X@XL.c.m.q.u | ' ",
"C J ) e y.D.-XiXCXCXCXCXFXHXHXFXFXGXDXGXKXKXKXHXGXFXGXGXFXDXFXHXDXBXiX[.~..X.X{.]./.(._././._._._._._._.).qX%X%X#X#XL.D.y.>.y _ ",
"L G ~ X.t.K.:XiXlXCXCXDXFXGXGXGXHXKXFXHXKXKXKXKXGXFXFXHXFXFXFXFXCXlX=X[.[.=X.X[. X'./.>X/._.T./.>X>X_./.'.&X-X$X#X%XL.J.h.4.>.e ",
"L J ) O.y.L.:XiXlXlXiXCXDXFXBXDXGXGXGXGXKXKXKXKXKXHXDXDXFXGXFXGXFXiX*X[.[.rXiXrXeX'._.<XW.W.T.T.T._.U././.qXgX-X@X#XK.m.h.q.>.y ",
"Z H e <.y.%X-X:X:XjXiXjXlXBXCXDXDXCXHXGXJXKXKXKXJXHXGXFXHXHXGXCXCXeX=X.X.X.XXX*X;X'.>X<X_.T.T.T.T.R._.T.j.&XuX:XL.J.J.S.y.0.>.y ",
"Z ! y 4.Z.-X-X:X:XiXjXjXjXjXBXDXFXFXHXHXKXKXKXKXKXKXJXHXKXHXFXuXuX.XeX=X5XrX=X*XoX2X>XR.R.U.P.T.P.T.T.U.*.).G.%XL.L.K.y.q.q.2.w ",
"L ~ <.0.D.#X-X:X:XiXBXlXjXjXjXlXCXDXKXKXKXKXKXKXKXKXKXKXHXJXNXrXXXwX.X5X5XrX=X*X'._.<X<XR.T.T.P.P.P.U.U.*.j.z.S.D.J.m.y.q.3.y 9 ",
"Z E e 2.t.Z.%X-XiXlXBXjXlXlXlXjXlXCXHXKXKXKXKXKXKXKXKXKXHXHXsX5X6XtXXX.XwXrXwX'._.<X<X<XT.T.P.P.P.P.P.*.j.j.B.S.J.S.x.t.4.#.| ^ ",
"V Q O.3.0.M.#X-X:XBXlXjXlXlXjXlXjXDXFXHXKXKXKXKXKXKXHXFXFXGXlXhXhXsX5X6X9XaXwX|._.,X1X>XR.Y.I.%.%.%.&.P.j.j.G.J.G.c.t.0.#.#.#.( ",
"D _ O.,.6.s.N.#XyXjXjXiXiXiXBXlXlXDXFXKXKXKXKXKXKXKXKXJXkXCXBXkXlXlXaXaX0X9X4X,X,X4X1X7X^.R.%.%.%.%.&.*.*.j.oXL.S.h.q.0.2.#.y e ",
"K ` r >.4.x.Z.%X-XyXyXiXyXjXlXlXBXCXDXHXKXKXKXKXKXKXJXGXDXlXaXuXlXhX5X0XbXbXnXrX5XrXfX0X3XW.$.i.*.&.&.*.&.G.oX%XS.h.4.2.4.4.#.t ",
"! ^ e y 4.y.m.H.%X-X:XyXyXjXlXBXlXCXDXGXHXKXKXKXKXFXFXSXFXFXBXtXjXkX5X5X5XnXNXnXsXtXhXNXdX,XE.%.U.U.U.j.l.oX-X#XD.S.q.4.4.4.,.w ",
"F ^ e u 4.t.c.N.#X-X:X:XyXlXCXCXCXCXCXGXJXJXKXKXHXmXSXHXJXGXFXBXhXBXkX9X9XaXnXNXhXhXuXkXsX5X_.i.*.*.*.oX$XJ.#X#XN.m.y.q.t.q.2.#.",
"J ( w >.4.e.c.C.@X%X-X:XyXjXBXCXGXGXDXFXGXKXHXDX0XxXFXHXHXHXGXBXBXBXkX6X6X9XsXhXlXjXkXNXkX5X`.E.*./. X-X:X%XD.N.m.N.m.h.h.q.4.#.",
"D R / 3.t.e.x.Z.@X%X-XyXyXiXlXCXDXGXFXFXGXFXDXaX7XmXFXHXHXGXSXMXBXCXBX6X6X6XtXwXuXhXNXVXdX6X3X|.{.].;XiXyXiX#XL.m.c.N.h.y.4.#.#.",
"G D R e 4.1.0.t.Z.%X%XyXiXuXjXBXDXHXCXDXFXDXNX3X7XbXAXGXAXxXSXMXBXfXwX5XhX|.|.XXwXrXBXVXMX8X5XwX=XiXBXlXiXyX#XS.c.r.h.y.0.#.#.r ",
"J J H ^ >.7.e.c.N.#X%XyXiXuXjXlXBXCXBXkXNXvXbX3X9XnXZXSXZXZXZXAXnXaXrX9X7X3X|.Q.(.fXVXDXSXfXsXhX:XjXDXCXyX:X#XD.N.c.c.h.4.#.#.w ",
"K G K K 9 7.3.q.v.OX%X:XiXiXiXyXlXjXjXpXcXvX3X0X0X0XxXAXAXxXmXAXZXaXaXkXsX6X3XQ.Q.nXFXGXAXDXlXlXjXBXCXjXiX%X-X%XN.D.c.4.4.y y w ",
"G K ! E _ 4.<.,.0.v.Z.#XyXjXiXiXuXuXgX,XW.,X,X|.6X0XxXZXMXxX8XxXmXbXsXrXhXfX9X9X6XFXHXHXHXFXDXCXBXlXCXjXiX#X#X%XD.D.m.#.>.y e q ",
"J H ! Q q } w <.1.p.v.V.#XiXjXjXuX X`._.Y.T.`.`.3X4XkXnXnXZXcX8XmXNXlXhXhXkXlXlXBXDXKXKXGXGXFXBXBXCXjXlXyXK.L.#XJ.m.0.#.u O.q 7 ",
"G K Q _ ^ q e w o.<.q.V.b.#XyXiX;X'.*.$.I.Y.W.E.^.5XBXDXVXbX9X9X9XlXhXfXhXCXBXBXBXGXKXKXKXGXCXjXjXlXjXiX:XiX:XJ.m.y.0.0.u e ^ R ",
"Z ! Q _ q 8 } >.} <.1.7.p.C.%X:X;X&Xi.$.P.Y.I.I.Q..XBXBXCXdXnXbXkXkXsXCXFXGXCXBXFXHXGXKXHXFXFXBXlXiXyXyXjXiX-XL.y.x.2.O.e q ^ 7 ",
"P G E q w q q q ^  .1.<.6.p.H.:XyXqX'.U.I.I.I.I.Q.5XBXCXCXDXCXFXBXlXBXCXDXFXCXFXAXGXFXKXDXCXFXCXCXjXyX:X:X:XS.m.h.h.>.o.+.{ ! D ",
"A D R q w w w 6 5 ..<.<.1.7.Z.%X:X&X'.(.(.W.^.^.3XxXmXSXSXSXVXkXjXlXsXVXDXCXCXBXNXBXFXFXDXCXDXDXlXjX-X%X%XN.m.M.N.h.O.+.@.[ ! < ",
"Z D R 8 8 q r q 5 7 0 ;.:.6.d.V.C.$XoX&XpXU.R.1X1X8XZXmXGXGXGXFXNXCXNXmXDXCXBXBXCXlXCXCXFXCXlXCXCX-X%XJ.N.q.0.t.y.q.>...@.@.D c ",
"G G R E 8 q w q 8 0 q _ o.:.6.<.p.d.OX;XgXqX/.>X1X8XZXZXGXHXGXMXmXfXkXmXCXBXBXlXlXBXBXBXFXBXiXjXiX-XS.v.y.4.3.,.,.>...{ [ [ G g ",
"G J H Q ^ 7 5 5 7 q  .8 ) ' ' ' ;.6.d.%XuX&X_.>X,X4X0XMXDXVXCXVXnX7X5X8XdXBXNXBXlXCXDXDXDXjXyXyXyX-XD.c.q.q.1.O.y } ' ! K J C x ",
"G K K ^ ^ G S 5 5 q q 3 3 4 Q E ` <.p.d.$X&X'./.'.4X4XrXsXrXrXyX;X.X3X8X0XnXVXBXBXBXBXCXCXiX:X-X-XL.m.q.1.2.O.o._ ( ! K J A L g ",
"G K K G K H R 7 5 7 6 6 4 3 4 Q Q ..6.e.V.+XoX(./.'. X*XeX=X}.:X+X{.|.7XaXNXFXGXCXlXCXlXCXyX-X#XK.Z.x.4.2.O. .' ! ! K K G Z C j ",
"K ~ E ! W F Q 8 7 5 7 8 2 3 4 6 6 7 _ 6.d.d.z.a.l.l.l.l.*X*X+X}.}.].[.7XsXCXGXFXCXlXCXCXBXiX#XZ.h.t.4.<.u O.| ~ ! ~ K J P L P j ",
"~ ~ ! ! ! E ^ 8 0 7 5 6 4 2 2 4 1 4 Q :.1.e.p.-.u.u.j.k.B.F.A.B.{.].XX9XkXjXCXCXlXlXjXyX:XD.h.0.4.4.#.y  .| ` ~ ! ] ! A L N N h ",
"G K ! H H Q ) / 9 7 7 7 5 4 2 4 3 6  .1.o.w.w.8.u.k.k.i.u.u.a.l.k.l.}.{.lXFXlXlXBXjX-XyX%XS.q.4.1.#.#.r  .) ~ ! ] ! ! J J L j a ",
"z C P G H ! E ^ 7 5 Q Q R 5 5 5 4 7  .1.o.:.7.d.a.8.8.i.i.u.8.j.l.u.k.F.:XBXlXjXyX-X-X-XS.q.3.,.O.o.O.| } ~ ! ! ! K G G Z x h p ",
"k k z Z G G E ~ R D D ^ ^ Q 7 8 8 | r >. ._ >.q.e.9.-.8.8.8.i.k.l.z.C.@X%XyX:X-XL.#XL.K.x.2.y y | } | ../ ] @.@.@.T c , , > ; a ",
"* = k l N L G ! H E E w w 8 8 q 9 8 8 ^ 8 8 O.1.1.7.w.9.9.u.8.z.B.b.Z.H.%X#X#XH.N.Z.n.t.1.u | } ' ` / } ~ [ @.T T Z c , > ; ; p ",
"* * = l z M v P G J R Q / w _ } Q ^ Q Q E Q _ 9 } O.,.3.9.r.r.r.r.h.b.D.D.S.N.c.x.e.3.>.y e e _ ` ~ / ` H I T T P C g > ; ; p & ",
"* * * = l z M L G G Z S R E ^ _ ` ~ ~ ~ ~ H ! ~ ~ _ | | <.,.2.2.4.2.2.0.t.c.c.x.v.4.u e o.} / / ~ ~ ~ ! G Z T Y L g f a a a p i ",
"* * * = = k l N C G S Z c H H ! / ~ E ! K K ! ! ! Q _ | | | r o.>.1.O.y 4.t.x.c.p.O.r w _ / ~ ~ ! H J G P L N j s a d a a i & & ",
"* * * = = k k z L A G C Z Z Z H ~ ~ E ! ! H ] [ ( ~ ~ ` _ _ } } e o.| e y O.>.>.t | / / / ~ E G G G A Z L L N j d a a p p & & & ",
"$ * $ $ % = k l j L C L x c x C D H J ! J I ] @.@.( ! ~ ~ ` ` / _ ^ / _ } _ _ | | _ / ~ ~ E G G C Z P L L N j z d p p p & # # # "
};
