/* XPM */
static char *result[] = {
/* columns rows colors chars-per-pixel */
"64 64 236 2 ",
"   c #4F3D38",
".  c #653E35",
"X  c #59423B",
"o  c #684439",
"O  c #784A3A",
"+  c #3F4040",
"@  c #444545",
"#  c #4B4645",
"$  c #534845",
"%  c #5C4A45",
"&  c #5C504B",
"*  c #5C5755",
"=  c #644B45",
"-  c #6B4D44",
";  c #734F44",
":  c #794F43",
">  c #6D5249",
",  c #755044",
"<  c #7C5244",
"1  c #78584C",
"2  c #645955",
"3  c #6D5A55",
"4  c #755B53",
"5  c #7B5C53",
"6  c #7D5E58",
"7  c #7B635B",
"8  c #844C37",
"9  c #8C503A",
"0  c #B15E3B",
"q  c #AE633F",
"w  c #B9653D",
"e  c #C5663C",
"r  c #C56A3D",
"t  c #CD6C3D",
"y  c #D36E3D",
"u  c #DD6F3B",
"i  c #D5713E",
"p  c #DC723E",
"a  c #E5753E",
"s  c #EC783E",
"d  c #F57C3F",
"f  c #FB7E3F",
"g  c #835444",
"h  c #8C5644",
"j  c #895946",
"k  c #845A4C",
"l  c #8B5C4C",
"z  c #945A44",
"x  c #9C5C44",
"c  c #975C49",
"v  c #835E53",
"b  c #8B5E52",
"n  c #915F52",
"m  c #A45E44",
"M  c #A65F44",
"N  c #93614E",
"B  c #9C624D",
"V  c #866357",
"C  c #8C6152",
"Z  c #946251",
"A  c #9C6451",
"S  c #9A695A",
"D  c #A46245",
"F  c #AB6243",
"G  c #A4644D",
"H  c #AB664D",
"J  c #A7684F",
"K  c #AD684E",
"L  c #B46444",
"P  c #BB6643",
"I  c #BC6944",
"U  c #B3674A",
"Y  c #B4694D",
"T  c #BC6B4C",
"R  c #BD704E",
"E  c #A26550",
"W  c #A96750",
"Q  c #AA6B57",
"!  c #B56D53",
"~  c #BB745A",
"^  c #886B64",
"/  c #8A726B",
"(  c #91766F",
")  c #B77A66",
"_  c #C26642",
"`  c #C36B44",
"'  c #CC6D43",
"]  c #C36D4B",
"[  c #CA6F4A",
"{  c #D36E42",
"}  c #D16F4A",
"|  c #C87248",
" . c #CA704A",
".. c #D57144",
"X. c #DC7445",
"o. c #D87842",
"O. c #D47249",
"+. c #DB7448",
"@. c #C16F50",
"#. c #C57557",
"$. c #D87954",
"%. c #E37644",
"&. c #E47944",
"*. c #EC7A43",
"=. c #E87948",
"-. c #F37C42",
";. c #FA7E41",
":. c #E57D51",
">. c #C67C62",
",. c #FE813F",
"<. c #BDB064",
"1. c #BCB976",
"2. c #DE8D4B",
"3. c #EE8D4D",
"4. c #FE8343",
"5. c #FF8B45",
"6. c #F68348",
"7. c #FF8C4B",
"8. c #FF9047",
"9. c #FF944B",
"0. c #FF9C4E",
"q. c #FF9452",
"w. c #FF9C53",
"e. c #DBA55C",
"r. c #ECAD5D",
"t. c #FFA453",
"y. c #FFAA55",
"u. c #F4A558",
"i. c #FFA459",
"p. c #FEAB5C",
"a. c #FFB157",
"s. c #FFB35B",
"d. c #FFBA5D",
"f. c #CCB76B",
"g. c #C4B96B",
"h. c #FCAD61",
"j. c #EAB262",
"k. c #FFB562",
"l. c #FFBC63",
"z. c #FABB67",
"x. c #FFC15F",
"c. c #C8C479",
"v. c #D1CA75",
"b. c #ECCC6E",
"n. c #F5C167",
"m. c #FFC463",
"M. c #FFC965",
"N. c #FFC56A",
"B. c #FFCD6B",
"V. c #FFD366",
"C. c #FFD36C",
"Z. c #FFDB6D",
"A. c #FFCE72",
"S. c #FFD472",
"D. c #FFDC73",
"F. c #FEDB7A",
"G. c #F0E477",
"H. c #FFE373",
"J. c #FFEB76",
"K. c #FFE37B",
"L. c #F5EA7D",
"P. c #FFEA7C",
"I. c #FFF37C",
"U. c #FFFF7E",
"Y. c #BA9785",
"T. c #B3B2A4",
"R. c #C4B48E",
"E. c #EABA9C",
"W. c #DABBA1",
"Q. c #C4BEBC",
"!. c #CBC687",
"~. c #D6CB88",
"^. c #DBD78A",
"/. c #CAC496",
"(. c #D5CA97",
"). c #DED198",
"_. c #E6D38D",
"`. c #E5CB96",
"'. c #FFC798",
"]. c #E7D598",
"[. c #FAD79A",
"{. c #FFE781",
"}. c #FFEC82",
"|. c #FFF383",
" X c #FFFE85",
".X c #FDF38C",
"XX c #FFFF8C",
"oX c #EAE998",
"OX c #FFE799",
"+X c #FFF693",
"@X c #FFFF94",
"#X c #FFFF9C",
"$X c #D3C7A9",
"%X c #C8C4B4",
"&X c #FCCDAA",
"*X c #E9D6A9",
"=X c #FDD8A8",
"-X c #EAD6B4",
";X c #FCD9B4",
":X c #FEDDBB",
">X c #FCE8A6",
",X c #FFE4AB",
"<X c #FFEAAB",
"1X c #FFFFA4",
"2X c #FFF2AD",
"3X c #FFFFAC",
"4X c #FFE4B4",
"5X c #FFEBB4",
"6X c #FFE5BA",
"7X c #FFECBB",
"8X c #F5F1B6",
"9X c #FFF3B2",
"0X c #FFFEB4",
"qX c #FFF5BC",
"wX c #FFFEBB",
"eX c #D2CCC6",
"rX c #EAD0C3",
"tX c #FCDDC9",
"yX c #FFE7C5",
"uX c #FFECCA",
"iX c #FFF3C3",
"pX c #FFFEC3",
"aX c #FFF6CC",
"sX c #FFFFCB",
"dX c #EBEAD3",
"fX c #FFEED6",
"gX c #FCF4D7",
"hX c #FFFFD3",
"jX c #FFFFDB",
"kX c #EEEDED",
"lX c #F7F6E5",
"zX c #FFFFE3",
"xX c #FFFFEC",
"cX c #F7F6F5",
"vX c #FFFFF3",
"bX c #FFFFFF",
/* pixels */
"+ @ @ @ @ @ @ # # % % % = = = > 4 1 1 l C C b C b B Q ) ) ) ) ) ! K K K W W E E E E A G B B B Z Z Z E Z Z b v 6 4 4 - = = = % % ",
"@ @ @ @ @ @ @ $ $ $ % = = - - , l n Z n A Z Z Z Z G Y #.>.) >.) ! ! Y K W K H W W H E E G B A A A A E A A Z C v 5 ; - = = = % % ",
"@ @ @ @ @ # $ $ % % = = = ; , g m W A Z A E A E G U U R >.#.| | T I U G G U Y K ! Y Y K J G A E E W W W A E A Z k ; 6 ^ 7 = = = ",
"@ @ @ @ @ # $ % % = ; , ; < g z L T G x c G E K G U T P R  .` ` I ` I F c G G K U U Y Y K H G E W K K Y W E W E l : / / / = = = ",
"@ @ @ @ # $ $ % - < h h z z z M P ] L F x B B G L ` P w ` ` ` ` I w w P F D D U U [ T Y Y Y K K K Y Y K E E K W c < V / / 6 = = ",
"@ @ @ # # X o ; < h h m M m m L I Y Y L F x B G D P w w r r t e r r y r ` r I I ` ] [ ] ] T T Y Y Y Y Y T T [ Y Q h k / 6 - o = ",
"@ @ @ #   o O O g g h z M L L H E K U L P K D H U r r t p y X.t t i t r ` y ' w P ` ..] T ] T P U Y ] [  .[ ] K W m h h : o o o ",
"@ @ #   . O O O 9 x g x L T ] T W [ ' { | ` ` { s w.w.w.y.9.q.p.8.6.a i t i 2.o.i r ` ` I | ] I I I O.O.+.O.[ Y Y Y L m z O O - ",
"@ # # . . o O 8 h m l W Y T T ` U U { ' p i p 6.q.i.N.w.B.k.N.s.w.t.w.3.3.n.n.u.u.l.i P I | | ` ' i o.&.X.X.| T [ [ ] P z h : ; ",
"# $ % = . . : l n n b B U { ....R | 0.7.9.7.q.q.i.p.S. XXXH.z.C.n.D.J.D.D.j.b.G.r.B.p.&.r I ..p a i p p X.O.[ Y K [ @.M m h g ; ",
"$ > ; > , 5 v k b b l n G I p i i p t.N.l.i.p.l.N.N.D.P.@X X X X|. X@XXX}.v.<.g.f.e.e.j.2.r 2.t.s.6.6.,.%...[  .@.] ] H z z z : ",
"3 3 v 5 5 5 5 5 1 1 l l l j ` 7.*.-.d.d.D.D.J.K.K.K.}.XX#X@X1X3X1X@X@X5XoXv.1.R.1.<.<.1.g.e.z.L.J.C.m.t.s X.X.%.[ @.Y W x z h g ",
"3 4 6 5 6 4 4 4 4 1 < 1 z 9 I 4.9.4.B.D.K. X XXX@XXX X#XXX1X3X3X0X1XOX(./.R.1.c.c.<.g.1.<.v.b.G.L.F.D.d.w.a -.d  .Y K E m x h g ",
"3 6 5 5 4 3 4 > > 1 g 9 h B t 6.&.i.|.#X X X@X#X@X1X1X3X3X3XwXwXhX2X=X/.~.(.].~.c.c.!.R.c.!.c.c.G.}. XL.D.0.d *.X.] Y G E m c g ",
"4 4 5 7 3 3 3 1 k 1 g j x P 4.t.w.J.#X1XsX0X1X3XwX0XwX0X3X9X3XzXhX=X[.`.`.].[.^.c.(.~.!././.!.!.!.^.L.XXI.9.s *.+.[ Y K W W z h ",
"4 4 v ( <./ 1 j k < j B L i t.l.H.J.@X#X0XpX3XpXjXzXhXpX0XsXsXpX9X'.[.[.].[.>X_.v.(.~.(.).$X(.^.(.!.^..XB.4.X.X.+.[ [ Y G W c h ",
"4 6 V ( ( ( v F z k z q w ,.s.N. XXX@X3XsXsXpXzXbXzXhXpXpXjXjXsX4X'.,X;X9XOX=X]._.~._.[.<X*X-X].^.^.(.oX Xw.&...+.[ ] T P F B h ",
"7 4 ( ( ( V j F z z B q 2.0.p.N.|.1X1X0XjXhXjXbXbXzXhXsXsXsXjXpX;X'.=X7XqXqX&X;X*X=X<X9X2X5X-X].)./.!.^.@XI.7.%.X. .` ] _ P m c ",
"1 5 v ^ V k x D z x D w 9.s.D. X@X1X3XpXhXxXxXbXjXxXhXzXhXhXsXsX;X&X&XiXwXqXuXfXyXiXqX0X9XqXyX;X).(.^.oX XC.9.-.&.+. .@.' I m n ",
"5 k b v C N L w q w w &.w.N.H.XX#XwXsXsXhXvXbXbXbXvXvXxXvXvXzXjX7X&X6X0XpXpX7XuXfXfXpXiXqXpX7X:X-XOX=X>X#Xl.d.9.-.$.} [ ` I F B ",
"5 k b Z K U F q r X.6.q.p.H. X#XpXzXzXbXvXbXbXbXbXbXbXbXbXxXhXpXqX0XpXjXsXqXjXjXhXyXuXqX5XiX;X=X[.:X2X1X.XB.x.5.;.-.:.O.[ I L G ",
"k l l A K G x F -.7.q.i.P.XX@XpXvXbXbXbXbXbXbXbXbXbXbXvXbXxXsX5XpXwXwXhXzXhXzXjXjXyX=X=X4X,X4X&X&XyXaXpX#X XZ.y.9.4.6.:.$.$.T G ",
"n c G K T Y F q 7.9.w.l.P.#XwXzXbXbXbXbXbXvXvXbXvXbXbXjXxXzXpX9X<X2XsXsXvXhXhXsXjX&X`.W.tXtX4X;X>XhXiXsX1X#XJ.x.w.9.;.=.+.O.] K ",
"H U T | | @.@.w &.q.h.A.}.@X0XvXbXbXbXbXbXbXbXbXvXzXjXxXvXxXwX2X[.2XwXxXxXhX4X&XpXiXY.R.&XtXyXsXqXuXhXaXpX1X XH.d.0.;.=.-.+. .U ",
"Y ] ] [ O.O.#.` r 7.N.K. X3XwXxXbXbXbXbXbXbXbXbXxXxXxXvXbXhXhXpX3X2XwXpXpXwXpX2X9X0XY.Y.E.&X:XqXqXuXuXaXqX0XU.J.V.d.0.d ....+.T ",
"Y Y ] } .... .| w 9.z.S.|.1XpXxXbXbXbXbXbXbXbXxXbXbXbXbXvXzXvXhXpXhXpXjXpXpXpXsXwX0X<X'.0XhX5XiX6XqXiXhXjXpX#X XC.d.y.0.-.=.X.I ",
"Y T | O.X.p ` w ..7.l.S.K.@XpXzXbXbXbXbXbXbXbXbXbXbXbXbXbXvXzXzXhXsXwXpXsXwXpXsX<XwXpXpXsXhXpXpX&X6XpXxXzXpX3X X XZ.x.0.f %.p 0 ",
"] [ [ O...' e ..7.w.S.K.P.@XwXxXbXbXbXbXbXbXbXbXbXbXbXbXbXvXvXjXsXwX0XsXhXjXsX0X>X=XwXsXzXsXaXpX'.&XqXzXhXhX#X XJ.H.V.0.d u t 0 ",
" .[ [ ..' ' ..7.w.N.S.F.|.@X3XhXbXbXbXbXbXbXbXbXbXbXbXbXbXxXbXvXsX0X0XwXpXzXjXpXwXvXsXpXpX4XpXpXpXpXsXhXjX3X@X XV.d.0.,.4.a e 0 ",
"| ] [ O.X.*.=.q.h.A.|.@X@X#X0XhXbXbXbXbXbXbXbXbXeXbXbXbXbXvXvXbXzXsXsXjXbXbXhXpXsXhXbXpX=XqXhXsXwXpXpXsXhXwX3X@X XJ.m.8.4.f t w ",
"@.[ [ X.a 4.7.q.w.S.|.1X#X1X0XjXbXbXbXbXbXbXbXbXbXbXbXbXT.cXbXbXbXjXzXbXbXbXbXzXjXvXbXjX5X0XwX5X<XhXuXwXjXzX0X@X XH.t.0.8.s u L ",
"} } ..%.a 4.w.w.h.z.}.@X@X3XsXvXbXbXbXbXbXbXbXbXbXbXbXbXbXbXbXbXbXbXbXbXbXbXbXbXbXbXbXhX6X5XpXpX4X6XgXzXzXbXhX XZ.d.5.9.4.*.y L ",
"X.%.&.%.-.;.w.i.k.D.|.#X@X0XzXbXbXbXbXbXbXbXbXbXbXbXbXbXbXbXxXbXbXbXbXbXbXbXbXzXbXbXvXhXpX,X4X=X6XuXgXxXvXhX0X XH.d.5.,.d X.p L ",
"X.=.d 5.4.*.q.l.l.|.#X1X3XpXvXbXbXbXbXbXbXbXbXbXbXbXbXbXbXbXxXbXbXbXbXbXbXbXjXjXbXbXzXsX0X<XpXsXyX5XsXzXxXsX1X XM.9.8.,.d ' ' P ",
"U +.-.7.7.4.t.z.z.|.XX#X0XjXbXbXbXbXbXbXbXbXbXbXbXbXbXbXbXbXbXbXbXbXbXbXbXzXjXvXbXvXpXvXhX,XpXzXjXzXjXhXsX0X@XJ.m.8.8.,.f e _ P ",
"W X.;.4.7.9.w.M.H.P. X@X1XsXvXbXbXbXbXbXbXbXbXbXbXbXbXbXbXbXbXbXbXbXbXbXbXbXbXvXvXzXhXjXhXqXhXzXzXbXzXsX3X0X XZ.H.m.a.,.s ' P L ",
"G Y :.-.;.;.i.s.S. XXX@X#X3XxXbXbXbXbXbXbXbXbXbXbXbXbXbXbXbXxXxXxXxXvXbXbXbXbXbXbXsXsXxXhXqXhXvXbXbX3XwX1X@XU.m.Z.Z.d.-.X.' P L ",
"Y [ =.:.*.;.q.z.l.C. X1X1X1XhXxXbXbXbXbXbXbXbXbXbXbXbXbXbXbXvXbXhXjXxXvXvXbXbXvXbXbXzXbXzXjXhXxXzX3X3X XJ.S.m.y.d.t.8.a u { P M ",
"` ..%.*.-.a 5.N.B.S.@X#XwX3XwXjXbXbXbXbXbXbXbXbXbXbXbXbXbXbXbXbXjXhXjXbXbXbXbXbXzXbXhXbXxXjXsXjXsX3X@XP.A.s.y.y.0.t.t.s %.' L M ",
"[ %.=.*.*.%.-.p.p.k.J.#X1X0X3XjXbXbXbXbXbXbXbXbXbXbXbXbXbXbXbXbXsXaXtXjXzXzXjXjXxXuXtX:XjXsXzXzXwX3X@XP.p.p.k.t.5.f 5.s { _ M 0 ",
"[ X.+.%.+.=.*.t.B.k.K.@X@X1XwXjXbXvXbXbXbXbXbXbXbXbXbXbXbXbXbXzXzXfXrXrXfXfXtX-X0XqX-X4X4XuXhXzX0X3XXXm.p.w.m.9.4.f f %.` L L m ",
"] T Y ] O.-.-.i.D.S.|.XX@X@XwXhXxXzXzXbXbXbXbXbXbXbXbXbXbXbXbXbXbXfX%XQ.eXeX$X(.-X*X-X;X6X-XzXpXwX#X|.N.p.p.a.9.,.-.d { w L 0 m ",
"A E A W  .&.a i.N.D. X@X#X@X@XwXzXjXzXbXbXvXvXbXbXbXbXbXbXbXbXbXbXbXeXQ.eXT.%X%X(.$X(.-XiXhXjXhX0X XK.N.s.y.9.0.5.f %.' w F m m ",
"Z Z n A T X...w.h.S.|.@X X#X#X#X0XwXhXvXvXxXvXbXbXbXbXbXbXbXbXbXbXcXdXQ.%X%XT./.R.eX-XfXpXpXpXjXwX@XD.D.l.w.5.4.-.%...] P M q x ",
"Z Z Z Z T ....4.h.z.S.F.|.#XXX@X3XwXhXzXbXvXbXbXbXbXbXbXbXbXbXbXbXbXcXcXkXdXdX$X%X-X9XwX0XsXpXsX0X@XS.A.J.p.5.*.%.O.} @.L M M m ",
"Z Z A c I { { =.w.z.K.XXA. XXX3X1XpXsXsXhXvXbXbXbXbXbXbXbXbXbXbXbXbXbXcXcXbXlXgX8X2X8X3X3XsXhX3X1X XA.C.B.d.t.-.%.+.[ T U M m x ",
"E Z B D ' t t y 7.k.S.|.F.@X@X3XwXpXjXhXjXvXbXbXbXbXbXvXbXbXbXbXbXbXbXbXbXvXlXhXsX0X3X#X#X3X3X1X X}.D.C.l.t.;.4.=.:.$.@.) ~ G z ",
"Z H L F ' ..y %.7.z.S.K.|.3X@X3XwXwXpXsXxXbXxXvXzXbXvXzXbXbXbXbXbXbXbXbXgXjXzXpXwXwX#X#X1X#X@X XK.D.d.s.w.7.;.;.=.:.:.>.) ) W z ",
"C c F U { y %.a 9.i.N.S.@X#X@X1X3X3X3X3XwXhXzXhXxXxXvXxXvXbXvXxXvXxXxXzXhXhXpX3XpXwX1X1X@X#X XP.B.M.l.t.9.8.4.4.*.=.2.>.) ) c z ",
"v k x L ' %.s p 4.q.l.A.P.@X+X.X{..X+X1X1X0X0XwXwXhXhXsXhXhXsXsXsXpXwXwX3XwX0X0X3XpX3X1X#X|.P.I.J.N.d.y.9.9.,.f *.&.$.#.) Q c h ",
"v v l U ` X...' { -.w.k.A.{.K.}.{.F..X+X+X@X#X@X1XwXpXsXpXpXsXsXsX1X3X3X3X#X3X3X3XwX3XXX X}.S.I.H.x.s.5.4.5.;.-.*.=.[ Y W W n z ",
"5 v V B Y Y Y Y P P { 6.7.w.k.N.F.z.A.{. X@X{.}.@X0XsXhXpXsXwX0X0X1X3X3X3X1X@X3X0XwX#X@XXXK.Z.B.m.d.d.y.9.4.;.*.*.=.[ W A n n l ",
"v V V C B E E H K L D w ` &.6.3.z.r.h.h.A.|.|.K.K.@X0X0XwXpX0X0X0X3X3XwX3X0X3X0X0XwX3X@X XI.B.s.d.x.m.t.8.5.;.*.*.+.@.E n Z n l ",
"v 5 v C C Z E G K D B D L e ' 7.j.h.7.q.h.F.K.S.P.#X1X1X1X3X3X1X#X3X3X0X3XpX0X0X3X3X1XXX XM.s.t.y.y.t.5.;.f -.*.*.O.T E A n b k ",
"5 v v v v C A E U D G F P ` %.q.p.k.q.q.k.S.S.D.K.#X#X#X@X#X#X#X1X3X3X0X3X3X3X1X3X#X@XXXI.Z.y.a.0.y.9.f *.;.*.*.%.} K E n b b k ",
"5 5 4 5 5 v Z B K Y ! ~ ] { %.7.p.z.i.i.m.D.S.S.S. XXX@XXX#X#X#X3X3X3X1X3X3X3X1X1X XI.D.B.s.d.y.0.y.0.d *.=.*.%.} T W A n b k , ",
"4 v b v v v b W T T R #.#.$.%.4.a.s.s.w.d.s.B.V.J.D.H.H. X@X@X@X1X3X3X1X1X3X3X#X XI.C.C.C.m.d.a.t.t.4.*.*.=.=.[ ] T E n n j : : ",
"4 5 v v v v b Y T ] [  .#.:.:.&.s.t.y.0.s.M.H.Z.H.C.J.H.J.@X@X#XXX@X@X#X@X@X#X@X XD.s.y.0.y.y.s.0.t.;.-.*.=.$.>.) ) c 8 8 O O ; ",
"4 3 6 b Z Z n Y T | { X.{ +.%.4.5.y.0.0.a.0.d.d.t.y.x.Z.C.I.U. X X X X@X#X X X XJ.M.9.;.*.;.4.9.8.5.4.;.*.$.>.>.#.M h 8 O O O > ",
"2 3 6 Z n Z A W Y ] .. .X.%.%.*.f 0.8.y.t.,.4.0.5.5.y.d.B.Z.J.Z.H.I. X XI.J.U.I.m.y.9.f d &.-.,.f %.O.[ ] #.>.#.! n g : O O ; - ",
"* 2 3 5 v b n A Y T T ` O.X.&.-.;.;.;.-.4.4.;.4.5.9.9.t.a.x.Z.C.V.H.H.U.J.H.V.m.t.,.d -.*.-.;.-.X.[ K W W ! ) ) S g < : O ; - - ",
"* * 2 3 4 6 b Z Y T P T T ' O.*.;.f f =.*.4.;.=.d d f 5.a.y.d.V.V.Z.Z.J.Z.M.a.w.;.-.d *.+.+.&.X.] W E Z Z A B c g < : ; ; - - = ",
"* * * 2 2 2 3 v E T Y Y T ] [ { -.;.;.=.;.-.;.:.=.=.*.f 9.9.9.a.d.M.B.B.m.y.0.,.*.%.%.+.%.O.| [ ! E Z Z Z Z b g < < : ; > - - = ",
"* * * & & 2 3 4 b E W U H L P T ' %.*.=.-.-.;.6.=.%.*.s ,.5.9.y.y.t.y.y.y.4.*.&.+.+.[ ] T Y T Y K Z Z Z C b v v < ; ; - = = = = "
};
