/* XPM */
static char *result[] = {
/* columns rows colors chars-per-pixel */
"64 64 247 2 ",
"   c #584844",
".  c #644B44",
"X  c #6C4D45",
"o  c #734E44",
"O  c #7A4F43",
"+  c #755145",
"@  c #7C5144",
"#  c #76574D",
"$  c #745C54",
"%  c #7D5D54",
"&  c #894D39",
"*  c #8B513B",
"=  c #99563A",
"-  c #A75B3B",
";  c #A7603E",
":  c #AC613D",
">  c #B4633C",
",  c #BA653B",
"<  c #BE693F",
"1  c #C1663B",
"2  c #C56A3C",
"3  c #CB6C3C",
"4  c #D26E3D",
"5  c #CF713F",
"6  c #D4703E",
"7  c #DB723D",
"8  c #E3743E",
"9  c #EB763E",
"0  c #E7783F",
"q  c #EC793E",
"w  c #F0773E",
"e  c #F47A3E",
"r  c #FB7C3E",
"t  c #845344",
"y  c #8B5543",
"u  c #8B5945",
"i  c #855A4B",
"p  c #8C5C4B",
"a  c #925643",
"s  c #945A44",
"d  c #9B5C43",
"f  c #9A5945",
"g  c #935E4C",
"h  c #845E52",
"j  c #8A5E52",
"k  c #A35D43",
"l  c #A85E44",
"z  c #95634B",
"x  c #9C624D",
"c  c #936F4C",
"v  c #8C6152",
"b  c #936252",
"n  c #9C6350",
"m  c #966B5B",
"M  c #A56144",
"N  c #AC6244",
"B  c #A36B43",
"V  c #A4644E",
"C  c #AC664D",
"Z  c #AE684E",
"A  c #B26444",
"S  c #BB6643",
"D  c #BD6945",
"F  c #B4674C",
"G  c #B86748",
"H  c #B4694C",
"J  c #BC6A4B",
"K  c #AB7949",
"L  c #BB7749",
"P  c #A36550",
"I  c #A86955",
"U  c #B96D51",
"Y  c #A07F52",
"T  c #BB7559",
"R  c #926E62",
"E  c #AA7362",
"W  c #B97A65",
"Q  c #C06745",
"!  c #C46A44",
"~  c #CB6D44",
"^  c #C46C4A",
"/  c #CB6E49",
"(  c #D36E43",
")  c #D56F45",
"_  c #CD7145",
"`  c #CD714A",
"'  c #C77848",
"]  c #D47244",
"[  c #DB7344",
"{  c #D77B47",
"}  c #D27149",
"|  c #C26F51",
" . c #C77657",
".. c #D47A58",
"X. c #E37543",
"o. c #E57A44",
"O. c #ED7A42",
"+. c #EB7945",
"@. c #F47C41",
"#. c #FB7E41",
"$. c #F07F48",
"%. c #C67B63",
"&. c #F0823F",
"*. c #FF823F",
"=. c #9A8452",
"-. c #B7884E",
";. c #A78755",
":. c #BA8955",
">. c #BB9C5B",
",. c #BBA35C",
"<. c #BBA761",
"1. c #BDB867",
"2. c #C8854C",
"3. c #D5854A",
"4. c #C48B53",
"5. c #D08E52",
"6. c #C79758",
"7. c #D49654",
"8. c #E88647",
"9. c #FE8443",
"0. c #FF8B45",
"q. c #F78648",
"w. c #FE8C4A",
"e. c #EB934E",
"r. c #FB9448",
"t. c #FF944B",
"y. c #FF9B4D",
"u. c #E69B55",
"i. c #FF9552",
"p. c #FF9C53",
"a. c #F89A55",
"s. c #C5A75E",
"d. c #D4A55D",
"f. c #E9A95A",
"g. c #F3A455",
"h. c #FFA353",
"j. c #F0AB57",
"k. c #FFAC56",
"l. c #FEA45A",
"z. c #FFAC5C",
"x. c #F3B05A",
"c. c #FFB35C",
"v. c #FEBB5C",
"b. c #CC9E60",
"n. c #C7A864",
"m. c #CAAB63",
"M. c #D5A865",
"N. c #C8B768",
"B. c #DCB46B",
"V. c #D5B868",
"C. c #DCBA73",
"Z. c #E4A967",
"A. c #FEAD61",
"S. c #FFAA6B",
"D. c #E7B969",
"F. c #FFB464",
"G. c #FFBC64",
"H. c #F9B76C",
"J. c #FEBC6B",
"K. c #E8BB73",
"L. c #FABC75",
"P. c #FFC25E",
"I. c #C8C36C",
"U. c #DDC66C",
"Y. c #CAC573",
"T. c #D9C975",
"R. c #DAD376",
"E. c #E7C76B",
"W. c #FFC363",
"Q. c #F2C867",
"!. c #FECC65",
"~. c #FFC36B",
"^. c #FECC6B",
"/. c #E7D66D",
"(. c #FED36D",
"). c #FED86C",
"_. c #E7C877",
"`. c #F4C776",
"'. c #FEC473",
"]. c #FFCB73",
"[. c #FFC47B",
"{. c #FFCD7C",
"}. c #E9D576",
"|. c #F4D475",
" X c #FFD475",
".X c #FEDB74",
"XX c #FED37B",
"oX c #FFDB7B",
"OX c #EAE476",
"+X c #FEE374",
"@X c #FBEA75",
"#X c #FFE37D",
"$X c #FEEB7C",
"%X c #FDF47D",
"&X c #B1AD8E",
"*X c #B9B589",
"=X c #BDB994",
"-X c #C7BD98",
";X c #C7BFA1",
":X c #D3C895",
">X c #D8D596",
",X c #EBC882",
"<X c #FDCF84",
"1X c #EAD484",
"2X c #FED482",
"3X c #FFDC83",
"4X c #F5D888",
"5X c #FFDB8B",
"6X c #F0CC98",
"7X c #EDD998",
"8X c #FAD997",
"9X c #FFE484",
"0X c #FFEB83",
"qX c #F5E38B",
"wX c #FFE48B",
"eX c #FFEC8C",
"rX c #FFF385",
"tX c #FFFB85",
"yX c #FFF48C",
"uX c #FFFC8C",
"iX c #E9E592",
"pX c #FDE697",
"aX c #FFEC93",
"sX c #FFF493",
"dX c #FFFE94",
"fX c #F4F39A",
"gX c #FFF29B",
"hX c #FFFF9C",
"jX c #D3CFA6",
"kX c #D8CAA6",
"lX c #E8D6A3",
"zX c #F0D8B0",
"xX c #E9E7A6",
"cX c #FEE9A5",
"vX c #FBF3A3",
"bX c #FFFFA4",
"nX c #FFFFAC",
"mX c #E8E4BF",
"MX c #FFE8B4",
"NX c #FAF4B7",
"BX c #FFFFB3",
"VX c #FFFFBB",
"CX c #F8EDCD",
"ZX c #F5F4C4",
"AX c #FEFEC4",
"SX c #FFFEC9",
"DX c #FFFFEC",
/* pixels */
"      . X . X X X X X + + O O # g g p g n P P C P P I %...%.%.W I ` / ^ U I V P n n V F C M V b b b b b b n n n n n y y @ o X . ",
"      . @ X X o o X o + O @ t u g n n n V I F H F H ^ ..%.%.W W | } ) / Q F C P P n V n C Z V P P n V n P V V P n f a a y t + o ",
"    . X + + X o o o o + t t t y f I V n P V J ^ ^ ! ^ ` %. .U | } [ } / ^ J Z P P P P V x V Z C C I n n P V V P l f I E I a y t ",
"  . X o + O O o + O O @ O t y a f V d k k F D ! ~ ! ~ D U T / / } / } | / / F F Z C C I V C V C J F V V C F I I l f E E E a y t ",
"  X O @ @ O O O @ O t t y y a a f M C k - l G S ! < Q 3 Q A A A ^ ! ( ~ [ [ ^ J J H ^ ` ^ H C V H J F P Z Z C C C l I E E n a t ",
". o + O O * & & t t y y a a a f d V N N k > 2 2 3 9.X.( 1 < A N N A ! ! ( ] ^ J ^ / ] [ } ^ D C F J F F Z Z C V C k C E P f = a ",
"X @ @ t & = = - a f k f d f d V C F N l > > , ] O.9.w.w.( 3 , , : : - ! ( ! ~ ~ ] [ X.+.o.} _ D S J J Z Z C P P C l k k = = = = ",
"O y y * * = = = - l l l l C Z J J D > , > 2 [ q.i.w.9.w.@.+.q.1 > , , > < 3 4 7 O.O.r #.r #.r 0 [ ( / J J J Z C Z Z l = f = - f ",
"t y a = - - - - A A Z C Z F | / ^ A > , 2 [ p.p.p.w.p.F.F.p.i.i.o.o.6 7 , 2 8 O.#.9.w.0.w.t.y.r.e 8 X.} ` J J Z H F F k k f k f ",
"t a f - - - - N G F Z H J ^ / / / G > , [ w.z.F.A.l.F.~.z.k.A.k.p.i.q.o.) q.q.9.t.i.p.h.i.p.h.y.0.q X.[ } ^ J H F J F N k k k k ",
"y a l l l A G G Q Q J / _ ~ } 0 X.X.q.8.i.F.A.A.F.G.z.F.z.z.~.].^.F.F.l.p.l.p.p.F.G.c.h.k.k.k.t.y.#.X.X.[ ^ G F | ^ ^ G l l k k ",
"b P C C F G ^ ~ ^ ^ } ) ] [ 8 q i.w.w.i.l.l.A.G.G.J.F.F.A.^. X~.F.F.J.A.~.~. X^.+X(.J.c.c.c.c.h.h.0.X.X.+.] ~ ~ } ) / / S A l - ",
"n n P C C H ^ ^ ^ ^ ~ 8 8 9 e p.c.z.i.F.J.F.~.J. XoX.X].+X0XrX0X X X'.J..X0X$X$X#XW.A.F.G.A.c.c.k.k.i.9.0 0 8 8 [ } } / Q S A - ",
"n n P l Z J ! ^ ! ! 4 8 0 e h.G.z.A.A.J.'.'.].XX9XrXtXyXyXdXdXdXdXdX#X#X0XtX#X#XoX~.G.F.F.c.W.W.G.c.c.k.*.e e e +.[ [ } / Q S l ",
"n P P H  .U ! D ! ~ ( 8 8 0 t.c.z.l.F.J.].XXoXtXuXuXuXuXuXuXbXnXnXbXdXdXtX0X0XuXrX#XJ.A.F.~.G. X~.W.^.^.c.9.#.r +.X.[ / / ~ Q > ",
"P P F %. .| ! ! ( 6 6 9 0 w.i.k.~.F.A.J.].].sXdXhXbXdXdXdXhXbXBXBXVXnXhXsX9XoXXX0X XJ.z.F.].~.^. X~.#X+XW.k.t.9.r +.X.) ) ~ ~ S ",
"V F | %. .` [ ] 8 8 r w.p.p.l.G.J. XXX~.J.{.0XdXnXnXhXbXbXnXBXAXSXBXnXhXdXsX9X9XuX^.'.'.~.~.J.J.H.~..X%X).G.k.y.0.e +.7 ( ( ~ A ",
"V C  . . .7 9.t.t.0.w.t.G.c.F. XXX0X0X3X'.XX#XdXnXBXnXBXnXBXAXSXAXBXhXbXdXyXhXdXbXyX0X].].].].~.^.|.}.@X^.W.h.h.0.9.r [ 6 ( 3 ~ ",
"C C J } ] 8 0.t.0.p.k.v.W.F.J.].#XoX9XtX0XuXhXnXnXVXSXSXSXAXVXBXBXbXdXbXsXyXdXbXnXhXdXuX9X].].].J. X_.|.)..XP.k.y.r.*.e 8 [ [ X.",
"M C D ~ 7 O.9.k.w.h.G.^.(.~. X$X0X#X0XuXhXfXvXNXZXCXDXCXSXMXBXVXVXbXgXdX9X9XdXdXhXbXdXeXXX].oX#X#XQ.Q.(..X).).P.h.r.r.0.r @.9 9 ",
"C A D ~ 7 9.y.h.h.k.c.G.].].uXdXuXrXuXfXfXfXxXxXZXCXDXzXMXcXAXBXbXbXbXdX{.wXuXbXhXhXhX3X].XX X#X0X.X~.].E.E.@X!.k.r.r.y.r e O.O.",
"D S ^ [ 8 0.y.h.!.!.^.^. XtXdXbXbXdXfXfXiXiX>XxXjXzXMXzXMXNXMXvXgXhXnXhXyXeX3XdXdXdXeX9X0XXX].oXoX#X.X/.B.R.OXQ.k.r.r.0.r r r O.",
"! _ ] 7 r y.y.G.W.(..X@XtXdXbXhXdXbXfXiX>XiX>X:X-X:XlXcXNXMXnXbXbXVXnXhXdXdXwX3XdXdXdXtX0XoX'.J.XX X}.|.E.V.I.f.g.t.r.r.#.#.@.O.",
"} ] X.0 w.h.^.).^..X+X$XrXuXdXdXbXfXfX>X*X=X&X=X-XkX6XcXVXNXNXhXbXnXnXdXhXsX0X2X3XeXeXgX3X].].'.oX XE.D.U.V.V.d.e.0.t.w.r r r @.",
"] [ X.X.0.k.G.+X%X+X$X0XuXdXdXdXfXnXxX:X&X&X*X-X-X:X8XcXNXVXVXBXnXBXnXdXsXdXeX3X2XyXyXyXXX X|.oX#X#X X/./.V.V.7.u.g.g.r.*.*.*.e ",
"[ [ [ X.t.h.!.%X$XrXuXdXhXhXbXhXbXvX>X>X=X=X-X-X,X8XBXBXbXnXBXVXnXnXBXhXhXdXdXwXyX9XdXsXwX3X XXXoXrX#X#X/.V.d.s.f.j.P.v.y.*.r e ",
"[ X.X.e w.k.).$XtXdXbXhXbXbXnXbXbXfXxXjX;X=X-X-XkXcXbXvXBXBXVXVX1.VXVXbXdXdXsXdX3X0XeXuX0X0X0X9XoX}.#XrX/.U.d.s.V.E.P.P.k.y.r r ",
"X.X.O.e 9.k.G.^.$XuXdXnXnXnXnXbXbXfXmXmXzX-X-X;X6XcXnXVXBXBXBXBXVXSXAXVXbXbXdXyX2X9X#X9XoX9XeXXXoX1X+X/./.V.d.6.s.x.x.v.k.y.*.r ",
"X.+.X.9 9.t.k.G.+XtXdXbXbXbXbXbXnXVXZXZXZX=X;XkX6XcXbXBXVXAXVXVXAXAXAXVXBXnXbXeX{.9XeXyX3X9X0X].].T.T.}./.I.s.6.7.f.j.k.k.y.*.*.",
"X.) ( ( 0 w.W.).$X0XdXdXbXbXhXhXfXbXAXZXZX=XkXkXlXcXhXBXBXBXSXAXVXVXAXVXBXbXdX3XXXwXeXaXeXyX0X'._.U.Y.Y.I.N.m.6.4.u.j.g.*.0.*.q ",
") ( ~ 4 @.w.z.G.$XtXuXrXhXhXbXhXhXnXnXNXjX;XkXkX8XgXbXnXBXBXAXVXBXBXVXBXBXdX[.S.L.{.wXgXhXdX3XXXK.T.Y.N.I.1.s.-.-.e.e.r.r r e 8 ",
"^ ^ ^ ~ 8 0.h.F.#XtXrXyXeXhXnXbXdXnXBXZXmXjXkXkX7XcXbXBXBXVXAXBXnXnXBXBXbXwXL.H.H.{.hXbXhXdX9XXXK.C.n.<.,.,.s.6.-.3.8.&.e r q 8 ",
"< ^ ! ! 4 @.9.c.(.$X#X0XtXdXbXdXdXhXnXnXxXjXlXlXcXBXnXnXBXBXVXBXBXnXnXbXdX2XL.H.{.3XgXnXnXdX2X'.M.:.;.;.;.,.,.,.-.3.&.&.&.8 &.9 ",
"! ~ ! D 3 9 $.l.W..XoX#XuXhXdXbXhXnXnXvXcXlXlXpXBXVXnXbXnXnXAXVXBXnXbXdXdX<XXXL.<XwXgXnXbXaX9XK.M.:.;.=.=.;.,.,.2.3.3.&.&.8 q 8 ",
"J ! U | / 4 9.t.z.G.].$XrXdXhXbXnXnXnXxXxXlXpXvXBXSXBXnXbXbXnXVXAXVXhXdXeX2X[.[.2XeXsXbXhXyXXXL.B.>.;.;.=.B -.-.2.2.&.e.e w e 8 ",
"J J  .| ] 6 q w.z.F.].9X0XrXhXbXhXbXnXvXiXqXpXgXnXVXnXbXbXnXnXnXBXBXhXwXwXwX2X2XeXaXdXnXnXbXeX{.M.n.:.Y c c K 2.-.3.j.j.*.r e 8 ",
"_ ! T | ` 6 +.w.p.A.'.oX0XrXhXhXhXfXhXnXiX1XaXhXnXBXbXbXhXbXdXhXBXnXhX3XaXeXdXsXbXhXdXnXnXbXdXsX<Xb.4.T Y z K K > 3.&.&.*.w 8 7 ",
"D G D  .} 8 @.t.p.l.J..X9XtXdXbXhXhXbXdXqX4X<XsXnXnXbXvX8XaXgXdXbXdXwX{.2XsXaXhXnXdXdXhXbXbXdXoXZ.b.Z.5.L B c ; < 3.&.e &.w 8 8 ",
"S J G G ~ q e p.i.l.F.].0XdXhXbXnXhXbXdXyX4X2XwXbXnXgXpX5X5X<XL.{.9XwX2XyX9XgXdXdXdXwXdXdXbXsXL.M.Z.M.u.4.K x K 2.&.y.&.w w w w ",
"F A D S ~ 7 @.t.p.h.A.F.#XuXhXhXdXdXbXdXdXyXwXaXgXnXbXvXcXcX<XK.Z.'.L.3XwXdXsXbXsXXXwXwX5XwX`.H.K.S.K.Z.d.4.-.3.r.&.*.r w e w w ",
"J J D D ~ 7 r 9.w.l.F.F.].yXdXhXdXdXaXdXhXsXyXsXgXgXvXvXBXcX5XK.Z.[.2XsXdXsXyXdXeX[.[.<X2X<X`.'.H.B.E.m.s.-.>.j.P.r.k.*.&.&.9 8 ",
"F J J S 3 7 @.9.w.h.G.~.'.XXuX0XtXgX5XaXaXaXgXhXsXsXgXpXcX8X,X2X[.{.3XdXgXeXeX9X9XL.L.L.{.4XXXK.V.B.B.V.m.,.,.U.!.P.y.*.&.q 7 7 ",
"I H ^ ~ 4 7 8 9.w.p.G.G.F.~.].2XXXXX5X1X4X5XyXaXgXnXBXnXnXvX5X8X3X3XwXdXaX3X{.XX3XL.L.<XL.`._._.D.N.N.U.N.s.1.OX@XP.r.*.e 8 8 7 ",
"J ^ ! ) 4 6 8 q.w.t.k.l.A.J. X`.H.`.B.T.,X4XwXsXdXnXBXBXBXnXgXpXsXeXeX3X3XwX3XwX5X{.<X[.L.`.B.B.B.V.N.s.,.1.1./.!.P.k.*.r w 8 7 ",
"J J _ 6 ~ 4 7 9 9.t.p.u.f.M.B.M.M.Z.M.M.C.K.<XgXbXBXBXBXBXBXhXaXwXsXwXyX3XeXwXwX2X2XwXwXL._.Z.N.m.N.n.b.1.N.R.Q.v.k.0.r e e 9 4 ",
"I P Z N > S 3 7 0 0.h.a.u.5.6.4.6.b.M.b.n.C.[.wXbXnXnXBXBXnXhXaX5XwX9X5X3XsXaX3X<X2XwXsXoX'.K.V.N.m.n.n.I././.!.!.y.y.9.e 9 e 4 ",
"V V M x d M > 1 3 0 q.e.e.3.:.-.4.b.b.>.n.M.'.4XdXdXbXbXnXbXbXhXwX2X1X,X{.<X8X2X{.5X3XL.L.L.D.m.N.I.N.1.I./.P.).P.r.y.0.#.$.X.7 ",
"x x k d s d - k N S ( q.o.{ 2.| 4.4.>.<.n.b.H.XXwXuXhXhXnXnXnXnXaX`._.,X,X<X8X<X5XwX2XL.L.K.B.N.N.Y.Y.1.R.OX).+Xv.*.9.9.#.$.X.6 ",
"x g d s * z d s z k : 7 { 3.' ' ' :.6.<.n.B._.|.'.0XdXdXhXnXbXbX0X1XT.,X6X5XaX5XpXwX{.'.Z.M.N.N.N.Y.I.Y.OX@X!.P.k.*.$.#.9.$.( ( ",
"x x s a y y = p = z : 3 6 ] { { 3. .4.4.m.T.1XqX0X9XrXgXbXnXbXdXsX9X`.,X5XaXaX5X<X<XH.L.M.b.s.N.<.I.I.OX%X!.0.r.y.t.9.8.....~ Q ",
"n n x s y y u i u z ; 1 [ 8.8.e.u.2.4.6.V.T.1X4XeXwXdXbXnXBXnXdXdXsXeXsXgXbXbX5X<X'.H.H.b.6.,.<.1.R.OX).!.k.9.r r.*.e @.} ) ) ~ ",
"n n V x z p i i % u = < ~ o.q.e.j.7.L 4.s.Y.1X7XpXwXrXdXBXdXbXhXbXbXgXhXnXnXBXhX3X`._.K.B.m.I.R.OX%X@X).P.y.9.O.*.@.[ ] / +.X.! ",
"P P x n x g p i i p s N > ! q.a.a.e.5.4.s.V.R.7XpXeX0XsXbXnXdXhXdXwX5XaXbXbXnXdXdX3X_._.D.U.}.OX@X@X+X!.h.*.9.@.+.o./ [ [ X.[ Q ",
"n n b b g g z i p u u - d - , q.w.8.{ 2.6.m.T.R.1X9XoX0XaXgXbXhXyX5X5X8XpXgXbXbXdXwX2X}.|.|.).@X@X%XP.P.y.*.o.[ o.} ^ } } } } F ",
"v v v h v g g p u s z = z = = , [ o.[ ! ' d.V.U.}.qX#X0X9XsXdXrX9X2X8X6X8XgXnXaXeX#X#XE.^.^.!.+X@X@Xv.k.*.O.[ ] } ^ J ^ ^ J U C ",
"v % h v h v p i i i v b z p s : 6 o.o.2 ] 5.V.V.R.}.}.9X9XoX.X X|.1X5X<XaXsXsXdXtX$XoX.XW.v.!.P.P.v.h.*.&.o.] ` ` ^ J F C I l a ",
"% h h h j i h i i i p R R m v B 2 0 o.[ ] 3.7.d.V.U.}.9X+X XD.|._.E.].XXrX#XrXuXuXtX%X).W.!.P.c.k.t.t.#.o.[ ) [ } ^ ^ F C k a y ",
"h h h h h j j j v i i i v m m J 2 6 0 8 5 { { 5.N.N./.`.D.x.B.E.D.D.^. X X.XrXtXuXtX+X(.(.!.v.v.t.9.e X.}  ...%.%.%.l = = * y t ",
"% % h h h j j j % i i i i u x , 2 1 3 1 3 3 6 3.7.6.d.d.3.u.7.7.d.u.7.f.J..X.X@X%X@XW.v.!.k.).h.*.@.X.} ^  .%.%.T l l = & & & t ",
"% % % % h h h h h j i t u p x N A 2 ~ 3 2 , 1 2 { 3.2._ 1 2 5 7 3.3.e.l.g.W.^.(.!.c.k.c.v.k.c.k.e X.` ^ | T W W I P f * & & t @ ",
"$ % % % h h h h j j i p i z M C A D ~ ~ D N : N : : : = - : , 2 5 2 q.i.w.p.F.G.c.t.0.#.w.t.t.0.#.) ^ ^ ^ J T E I s s y a y t @ ",
"$ $ % % % % h j h j p p p s x Z Z Z D J ^ N N M d k = ; x ; : > > , 1 2 ] ] p.w.#.0 8 [ [ O.X.o.) J H H F F I d s s y y y t t @ ",
"$ $ $ % % j j j v g v b b n M H J F H H L D V Z N x k d d = = x ; > : > , 1 6 7 7 [ X.) ( ^ J J J J H Z I V Z d s y y y t t t @ ",
"$ $ # # # v j j b v b b d d M N N F H J J U T T T H M B M z d s = ; > < 1 2 4 5 / ] ~ ~ ^ J F F F C I I P P P V a y t t t @ @ @ "
};
