/* XPM */
static char *result[] = {
/* columns rows colors chars-per-pixel */
"64 64 234 2 ",
"   c #3D3836",
".  c #463A37",
"X  c #553D36",
"o  c #46413D",
"O  c #594139",
"+  c #674439",
"@  c #3F4040",
"#  c #444545",
"$  c #4C4847",
"%  c #534945",
"&  c #554946",
"*  c #5C4945",
"=  c #555351",
"-  c #5A5756",
";  c #5E5856",
":  c #634B44",
">  c #6B4D44",
",  c #674F48",
"<  c #724E44",
"1  c #784F44",
"2  c #6E5047",
"3  c #65544D",
"4  c #6D544B",
"5  c #755145",
"6  c #7B5345",
"7  c #74554C",
"8  c #7B564A",
"9  c #74584E",
"0  c #7C594D",
"q  c #645652",
"w  c #6C5751",
"e  c #645955",
"r  c #6B5955",
"t  c #675C59",
"y  c #745B53",
"u  c #7C5C53",
"i  c #755E58",
"p  c #75615B",
"a  c #7B6A66",
"s  c #7E7671",
"d  c #8E4F38",
"f  c #99573A",
"g  c #A45D3D",
"h  c #A95C3B",
"j  c #B25E39",
"k  c #AA603E",
"l  c #B3633D",
"z  c #BB653C",
"x  c #BE683E",
"c  c #C1663A",
"v  c #C4693C",
"b  c #CB6C3D",
"n  c #D26D3E",
"m  c #DB733D",
"M  c #E7763E",
"N  c #F47B3F",
"B  c #FB7E3F",
"V  c #845544",
"C  c #885744",
"Z  c #8C5944",
"A  c #825649",
"S  c #845B4D",
"D  c #8C5C4C",
"F  c #925743",
"G  c #935A44",
"H  c #9B5C44",
"J  c #935E4B",
"K  c #9B5F4A",
"L  c #835E53",
"P  c #8A5F52",
"I  c #915F51",
"U  c #A35E43",
"Y  c #AF5F43",
"T  c #B15F43",
"R  c #8F604D",
"E  c #9B6047",
"W  c #95614E",
"Q  c #9C614C",
"!  c #866053",
"~  c #8C6153",
"^  c #86675E",
"/  c #946151",
"(  c #9B6351",
")  c #97695B",
"_  c #A26145",
"`  c #AB6244",
"'  c #A4644D",
"]  c #AB664E",
"[  c #A7684F",
"{  c #AE684E",
"}  c #B46442",
"|  c #BC6642",
" . c #B66846",
".. c #BD6945",
"X. c #B3674B",
"o. c #B4694D",
"O. c #BC6B4C",
"+. c #A36550",
"@. c #A86650",
"#. c #A86B56",
"$. c #B66D53",
"%. c #AE705B",
"&. c #B5735C",
"*. c #846D67",
"=. c #8D7069",
"-. c #88726C",
";. c #947267",
":. c #9D7569",
">. c #9D7B71",
",. c #A87667",
"<. c #A67A6E",
"1. c #AB7B6D",
"2. c #B67B67",
"3. c #A37B70",
"4. c #C26642",
"5. c #C36B44",
"6. c #CC6D43",
"7. c #C46D4B",
"8. c #CA6E4A",
"9. c #D26E44",
"0. c #D76F45",
"q. c #CB7047",
"w. c #CC704A",
"e. c #D47244",
"r. c #DC7445",
"t. c #D47249",
"y. c #D97448",
"u. c #DF794A",
"i. c #C5775B",
"p. c #D97A55",
"a. c #E37544",
"s. c #EA7742",
"d. c #E57943",
"f. c #EC7A43",
"g. c #E47A4B",
"h. c #EA7E49",
"j. c #F37C42",
"k. c #FB7D40",
"l. c #FE813F",
"z. c #D4884A",
"x. c #D89953",
"c. c #E88648",
"v. c #F68547",
"b. c #FE8442",
"n. c #FF8B45",
"m. c #F4834B",
"M. c #FE8C4B",
"N. c #E8974D",
"B. c #FF934A",
"V. c #F9944B",
"C. c #FF9B4D",
"Z. c #FF8E52",
"A. c #E79952",
"S. c #FF9453",
"D. c #F69956",
"F. c #FE9B53",
"G. c #FF9E59",
"H. c #D9A558",
"J. c #DBB25F",
"K. c #FFA14F",
"L. c #EAA75A",
"P. c #F2A355",
"I. c #FFA453",
"U. c #FFAB55",
"Y. c #FFA35B",
"T. c #FEAB5B",
"R. c #E5B05C",
"E. c #FFB257",
"W. c #FFB45B",
"Q. c #FFBC5E",
"!. c #DFAE61",
"~. c #D8B863",
"^. c #EEAC60",
"/. c #FFAD60",
"(. c #E7BA64",
"). c #FEB362",
"_. c #FFBC63",
"`. c #F9BB66",
"'. c #DCCF6E",
"]. c #E7C469",
"[. c #FFC362",
"{. c #FFCA65",
"}. c #FFC46C",
"|. c #FFCB6C",
" X c #FFD267",
".X c #FFD46C",
"XX c #FFDB6D",
"oX c #FFC670",
"OX c #FFCC72",
"+X c #E6D573",
"@X c #FFD372",
"#X c #F3D877",
"$X c #FFDB75",
"%X c #FFDD79",
"&X c #FFE574",
"*X c #FFEB74",
"=X c #FFE47B",
"-X c #F5EA7B",
";X c #FFEC7C",
":X c #FFF276",
">X c #FFF57B",
",X c #FFFD7E",
"<X c #BBBBAC",
"1X c #F9DC87",
"2X c #FFEC82",
"3X c #FFE887",
"4X c #FFF484",
"5X c #FFFD84",
"6X c #FFF58A",
"7X c #FFFE8C",
"8X c #FFE896",
"9X c #FFFE94",
"0X c #FFF198",
"qX c #FFFF9B",
"wX c #FFE7A9",
"eX c #FFF5A2",
"rX c #FFFFA4",
"tX c #FFFFAB",
"yX c #FFEAB6",
"uX c #FFF1B3",
"iX c #FFFFB3",
"pX c #FFFFBB",
"aX c #FFE6C8",
"sX c #FFFFC4",
"dX c #FFF2C9",
"fX c #FFFFCB",
"gX c #FFEFD8",
"hX c #FFF4D7",
"jX c #FFFFD4",
"kX c #FFFEDC",
"lX c #FFFFE4",
"zX c #FFFFEB",
"xX c #FFFFF3",
"cX c #FFFFFF",
/* pixels */
"@ # # # # # # # # # $ % * * : > y 8 8 L L L P P ~ ~ ) <.<.<.<.<.( ( ( +.+.+.+.+.+.+.K ( I I P ~ ~ L L L u u i i y w : * * * & % ",
"# # # # # # # # # % % & * : : > y u u L P L ~ I ~ I / ,.1.1.1.1.#.( +.@.@.@.[ X.@.@.+.( K / / / ~ P P L L u u u i , : * : * & % ",
"# # # # # # # # $ % * : : : > < 7 L L L P I I / / ( J #.2.1.#.#.[ @.@.@.o.$.O.7.O.o.@.+.( Q ( ( / ~ ~ ~ L L u u 7 > u s i : * & ",
"# # # # # # # # % & * : > > < < 1 L V D D J ( ( ( ' Q Q %.&.[ { { o.O.7.O.w.t.t.7.7.7.O.o.@.( ( ( ( / ~ P ~ L L 7 > *.*.a * : * ",
"# # # # # # # % & * : > > < < 1 6 P D Z F K ( +._ ] ] ` 7.8.O.O.O.8.q.r.w.y.y.w.w.y.t.7.o.o.O.] ( ( / I I ~ ~ L 0 < a -.a p : * ",
"# # # # # . o % * : : > > < 1 1 V P J G J ' +.{ ] X.X...t.r.r.y.y.d.r.r.a.s.a.y.a.y.w.8.O.O.7.X.$.( ( ( / / P L L < < *.i > X & ",
"# # # @   . . % * : > > < 5 A P P ( K U _ ] @.X. .O.O.6.a.a.M v.f.M M s.l.B d.a.f.a.0.t.8.w.8.6.4.O.+.+.( / / P P 0 < 2 > + + X ",
"# # # @ . . O X O : : 2 7 u u 0 P ' H U _ ] o.o.O.7.7.a.M N N.A.N.N.N.M N.D.F.j.j.f.a.y.t.y.t.a.5.6.7.+.( ( / / P P 1 < > + + : ",
"# # o o   . O O * , 9 y u 0 0 R E | E W  . .5.7.8.8.5.m z.H.H.H.H.H.H.R.L.N.P.V.N f.d.r.r.u.r.t.6.a.t.{ +.( +.I / P S 1 < > > : ",
"# # o o . O o 3 q 4 9 S W E E E  .8. .` ' ` 7.e.e.6.n z.z.x.J.J.J.H.(.(.(.L.L.K.B.j.B f.s.s.s.j.N s.0.8.o.@.+.K ( / P A < > > : ",
"$ $ o = O ; e 3 q 9 D R E k E ` O.%.O.o.` ` x 6.m j.v.x.J.~.].].].].+X(.`.L.x.A.A.n.B.B B N b.V.n.B a.y.t.7.@.+.( / ~ L 1 < > : ",
"- ; ; ; ; ; q 3 0 8 A Z C E } l `  .5.7...m n.B.Y.U.!.}.(.J.!.|.].$X=X4X@X_.(.R.x.F.B.V.N.v.V.U.I.n.a.k.j.a.5.U ( ( I P 8 2 > > ",
"- ; ; ; ; 3 3 3 4 8 d E Z l v b n  .s.b.Y._.U.).W.).#X3X6XOX_.oX@X3X4X*X2X=X#X~.L.T.T.A.x.A.E.[.W.n.k.a.f.9.O.O.( ( / P P 1 < > ",
"- ; ; ; q 3 3 4 4 0 Z G E l b v.d.c v.F.T.&X;X;XqX6XtXtXtX;X3X=X%X;X9X9XtX0X0X2X5X;X_.(.].'.-X*XI.I.U.k.f.6.5.X.@.( ( / P A 1 > ",
"; ; t t a p S 9 + R Z G E l z l.T.I.M..X|..X5XiXrXwX8XsXpX6X7X9X3X4XeXdXaXfXyXqXqXrX9X3XrX1X#X.XE. XE.n.f.t.9.O.] +.( ( I P 1 < ",
"; e e s -.*.0 + 0 C C g k z v c.|.[.$X5X9XqXsXiXfXuXtXtXpX9X7XqX7XqXpXdXaXgXkXyXjXiXpXsXfXsXfXqX7X,X*XC.j.y.y.8.X.@.+.( I P A 1 ",
"e e a -.-.^ 8 6 V C f E l b j.W.Y.@X=X5X7XpXlXlXjXfXfXjXiX0X0X6X9XfXkXhXlXlXhXkXaXjXzXsXkXkXzXiXqX>X*XE.k.d.y.8.$.] ' K F Z D 6 ",
"e r -.-.;.p 6 0 C f k k m c.F.Y.).|.>X9XqXjXcXcXfXkXfXfXtXtXwXeXtXjXhXhXlXkXcXkXyXpXjXzXlXcXcXjXiX5X*XE.n.d.a.t.O.X.' ' J F D A ",
"q r p ) ~ S d Z g g k d.B.v.F.[.>X5X5XtXtXjXzXcXkXjXpXjXiXiXkXiXpXkXkXgXgXhXfXfXfXsXfXxXcXcXcXiXtX5XXXE.C.l.j.r.7.$.{ +.K G Z S ",
"3 9 ! W W W Z l l z h.Y._.G.T.@X$X7XqXpXsXxXxXxXcXzXlXjXfXlXkXlXpXcXkXlXhXlXlXjXdXpXjXlXlXxXcXrX7X,X&X[.U.B.b.y.7.i.$.+.H G Z S ",
"w 9 ! W [ W k b c e.M._.}.).|.@X5X7XrXiXkXxXcXcXcXcXcXcXjXjXcXxXxXcXcXxXxXlXlXkX<XjXjXcXxXcXcXlXqX7X:X&X[.K.l.d.8.i.i.%.' J Z P ",
"w 0 Q { _ k l z 6.r.S.=XOX_.|.5X4X7XrXiXfXcXcXcXcXcXcXxXcXlXcXcXcXcXcXcXzXlXzXlXlXkXjXjXlXcXcXpXtX5X,X&XQ.K.l.d.t.7.i.2.%.#.I ~ ",
"9 0 W o.o.5.l b d.d.G.).=XOX%X4X>X9XrXsXlXcXcXcXcXcXcXxXcXxXcXxXcXcXcXxXlXzXkXkXcXcXxXiXyXfXjXtXtXqX5X,X{.E.B.l.y.w.O.$.@.( ( / ",
"y 0 / o. .n b c.j.S.Y./.OX%X4X2X2X7XiXsXcXcXcXcXcXcXcXcXxXcXcXcXcXcXcXcXzXxXzXlXcXcXzXzXwXlXfXtXrX9X9X*X X{.U.l.f.t.7.o.{ +.( / ",
"y p W X. .e.M M.r.Y./.|.=X3X6X6X7X9XtXlXcXcXcXcXcXcXcXcXcXcXcXcXcXcXcXlXkXlXcXcXcXcXcXcXlXcXzXkXiXpXrX5X,X&XQ.U.k.a.8.O.@.+.( I ",
"y u ( 5.e.b r.S.B.T._.OX3X6X9X8X0XtXiXcXcXcXcXcXcXcXcXcXcXcXcXcXcXcXcXlXlXcXcXcXcXcXcXcXsXcXcXlXiXiXqXqX7X,X{.K.k.a.8.7.o.@.K J ",
"u ( { 5.5.z h.M.)._.oX1X=X6X1XqXqXiXjXcXcXcXcXcXcXcXcXcXcXcX<XcXcXcXcXxXxXcXcXcXcXcXcXxXkXcXcXlXjXiXtXqX9X:X[.B.k.a.w.7.T U f d ",
"/ ] o.X.v z e.m./._.2X;X7X0XeXqXtXrXfXlXcXcXcXcXcXcXcXcXcXcXxXxXxXcXxXcXcXcXcXcXcXcXcXcXcXcXcXzXpXpXpXtXrX*X*XC.k.a.t.4.j h f d ",
"/ [ o. .5.c e.S./.oX9X7X9X3XqXqXrXrXrXrXiXkXcXcXcXcXcXcXcXcXxXlXzXzXzXcXcXcXcXcXcXcXcXcXcXcXcXcXkXjXtXtX5X5X XE.k.s.9.c j h d d ",
"u W O. .v c g.Z./.3X7XrX9X9XrX0XqXtXpXeXrXlXcXcXcXcXcXcXcXcXcXcXzXkXcXcXcXcXcXcXcXcXcXcXcXcXcXcXjXjXpXqX5X&XQ.B.k.M n c j h f d ",
"y u W } v m h.h.G.oX2X9X7XpXtXiXpXtXiXiXjXjXcXcXcXcXcXcXcXcXcXcXcXxXzXcXcXcXcXcXcXcXcXcXcXcXcXsXsXfXiX9X,X>XW.b.k.0.b | j h g F ",
"u y S W  .v r.c.S.OX4X9X9XqXsXfXfXpXpXzXcXcXcXxXcXcXcXcXcXcXcXcXcXcXcXcXcXcXcXcXxXcXcXcXcXcXlXjXfXtXrX9X7X>XQ.b.s.n 4.| T U U F ",
"2 y I D E l m.S.).`.4X4XrXiXjXjXkXlXzXcXcXcXcXcXcXcXcXcXcXcXcXcXcXcXcXcXcXcXcXcXcXcXcXcXcXcXkXjXpX9XqXrX*X*XQ.n.d.n 5.z T U U F ",
"y P J S E c M._.@X@X6X9XrXiXxXlXlXcXcXcXcXcXlXcXcXcXcXcXcXcXcXcXcXcXcXcXcXcXcXcXcXcXcXxXkXxXxXkX9X9X7X9X5X XE.b.m 6.4.| } U H F ",
"u / $.%.m M.T.@X%XOX7XqXrXfXlXzXlXcXcXcXcXcXcXcXcXcXcXcXcXcXcXcXxXcXcXcXcXcXcXcXcXcXxXlXzXxXjXiXtX9X6X&X&XQ.B.b.a.6.v } T U U F ",
"y / i.p.w.M.[.*X%X@X2X7XtXfXzXzXfXcXcXcXcXcXcXcXcXcXcXcXcXcXcXcXcXcXcXcXcXcXcXcXcXcXxXkXlXjXjXtX9X5X&X=X$X{.b.M m 6.4.} Y U U F ",
"y ! 2.w.&.M T.@X=X2X4XqXiXjXcXzXjXxXzXcXcXcXcXcXcXcXcXcXcXcXcXcXcXcXcXcXcXcXcXcXcXcXcXzXzXjXsXrX9XqX1X1X+XI.M.f.0.6.4.} Y U H F ",
"y P #.i.i.5.v.I./.%X7X7XrXqXlXcXlXlXxXcXcXcXcXcXcXcXcXcXcXcXcXcXcXcXcXcXcXcXcXcXxXxXxXxXsXpXrXrX7X#X'.'.R.P.j.g.t.6.| } Y H H G ",
"7 J o.O.6.b d.Y.T.OX4X7XrXtXpXkXcXkXcXcXcXcXcXcXcXcXcXcXcXcXcXcXcXcXcXcXcXcXxXcXlXcXcXjXfXiXrXqX3X@X].~.H.c.N c.p.8.z } Y U H F ",
"P ' 5.7.e.6.c h.G.).%X=X9XtXpXlXcXxXzXzXcXcXcXcXcXcXcXcXcXcXcXcXcXcXcXcXxXxXlXcXlXxXlXkXsXiXrXrXqX=X'.x.x.N r.p.p.w.| } U U G F ",
"~ +.] @.t.5.f k S._.=X;X9XiXfXfXfXjXxXlXcXcXcXcXcXcXcXcXcXcXcXcXcXcXcXcXxXxXjXzXzXzXzXlXpXpXiX9XqX-X~.x.N.M a.p.i.8.} } U H F F ",
"P / X.+.] ' G k m.Y.@X6XqXrXfXpXkXpXfXlXxXcXcXcXcXcXcXcXcXcXcXcXcXcXcXcXcXkXkXlXkXxXlXlXjXiXqX;X#X!.x.c.f.M 0.t.w.7.X.Y U H F C ",
"L ( 7.t.] E f k g.Z.).}.7XrXrXtXsXtXtXlXlXcXcXcXcXcXcXcXcXcXcXcXcXcXcXcXcXjXfXjXsXfXjXfXfXiX7X%X}.x.c.c.M M 0.9.7.7.$.Y U H F C ",
"L ( O.8. .W Z f e.Z./.$X%XrXiXiXsXtXrXpXzXxXcXcXcXcXcXcXcXcXcXcXcXcXcXcXcXlXzXjXjXtXsXsXsXrX7X=X`.A.c.m m y.0.8.7.O.$.] U F F V ",
"! / @.7.] E E d | M.Y.OX}.9XiXpXsXtXqXiXsXjXcXcXcXcXcXcXcXcXcXcXcXlXjXlXsXxXkXjXtXtXqXqXrXqX9X2X`.^.c.c.M a.9.7.O.O.o.@.H F F V ",
"i ! / 5.x l _ H v Z.Y.@X@X7XiXpXiXqXqXiXpXkXzXxXxXcXcXzXxXcXlXjXjXjXfXfXjXfXsXsXtXrXrX4XrX7X7XOXL.^.V.j.j.t.8.7.O.O.@.+.K F V 1 ",
"r 0 Q ..E k z l j m.S.}.Y.}.9XqX9X9XqXiXpXiXkXjXcXxXcXzXkXfXsXpXsXsXfXfXfXsXjXfXiXrX9X4X;X7X5X|.|.Q.G.n.s.8.7.7.$.2.&.#.1.:.P 1 ",
"r S ` _ ` E k k h h.G.)._._.).@X%X7XqX7XrXtXpXpXsXxXlXlXfXiXiXiXrXiXfXjXfXsXiXiXiXqX4X6X2X6X$X).Q._.I.b.a.7.7.7.$.2.2.1.<.>.P 1 ",
"r 8 Z U ` _ ` ` _ z G.T.Y.Y.G././.@XtX9XrX9XiXrXsXlXzXlXsXiXiXpXpXpXjXfXpXfXsXiXrXtX6X%X$X3X>X[.Q.E.I.n.y.7.O.o.] &.2.<.3.;.A 5 ",
"r w C K U ` ` ` ` v Z.Y./.Y.S.Z.h.Y.6X6X7XrX7X7XtXjXjXkXiXiXtXsXpXjXlXfXsXjXfXsXiXrX7X2X$X&X.XQ.[.U.K.l.8.7.O.X.@.+.) ,.:.) u 1 ",
"e r y J U U _ Q G g c.M.S.G.G.Z.m.D.}.9X6X7X6X2X9XtXfXkXjXkXkXkXjXkXlXkXfXpXpXtXqXrX7X5X$X$X{.U.W.K.n.s.8.7.O.@.] ( ( / ~ P L < ",
"e r y P ( ( ( W W H h m g.m.Z.Z.A.D.@X|.@X|.}.@X6XrXpXfXjXlXzXcXcXxXkXjXpXsXfXqXiXiXrX7X*X5XQ.K.K.C.l.e.O.$.o.{ +.( / ~ ~ L u 7 ",
"e e r i P ' U / W J x c e.h.h.S.D.L.).@X4X%X@X}.=XqX9XtXiXjXlXcXcXxXfXjXsXrXrXrXqX5X5X5X&X>XQ.E.C.B s.8.o.o.] @.+.( / P ! L u 9 ",
"e e e r L L P ] W Q 5.n m v.M.S.^.P.oXOX|.%X|./.|.4X%X4X9XtXpXsXfXlXzXkXpXrX9X7X=X.X=X>X.XW.U.n.N M a.7.o.@.[ +.( / / P L L u 9 ",
"; e q r r u P ] ] ` ] e.n.m v.F._.|.Q.|._._._.).}.}.@X$X4XqXtXiXsXkXfXsXtXrX9X*X.X_.F.Q.B.j.j.f.s.d.r.O.@.+.+.( ( / I P L u i 2 ",
"; e e e r r y L W { $.t.a.B M.B.B.C. X{._.W.[.Q.Q.[.|.{.*X9XqXtXiXpXiXtX9X9X&X|.T.I.C.M.j.t.7.8.t.8. .@.+.( ( ( / ~ P L u u 7 > ",
"- ; e e e r y u y ! #.p.p.p.s.b.B.W.[. XQ.Q.K.Q.E.Q.[.{.XX5X5X9XrX7X5X5X.X.X_.T.C.n.B N e.O.o.o.O.{ [ @.+.( / / / ~ P L 0 7 > > ",
"- - ; ; e e e r r y ~ 7.p.p.p.c.j.n.T.I.XX*X[.E.E.[.{.{.{.&X*X5X>X{.T.I.C.C.C.n.M a.a.r.w.o.X.@.{ @.+.( ( ) :.>.>.=.V + + + + : ",
"- - ; e e e e t r 9 S ] 7.t.8.8.8.t.k.k.U.Q.[.B.C.K.U.U.I.U.E.XXQ.I.n.b.b.B N e.5.7.O.8.O.] @.+.+.+.( / / :.>.>.=.8 1 + + + + * ",
"- - ; ; e e e e r r 9 Q K { @.+.X.u.7.t.l.B.B.d.N l.n.U.C.I.C.l.j.b.B j.N N e.o.X.{ o.] +.+.+.+.Q ) / / ~ ) >.;.*.u 2 + + X : : ",
"- - - - ; e e t e r 3 w 0 L / ( ] 8.a.y.r.f.y.r.r.r.d.b.M.I.B a.0.a.a.r.r.r.o.] ] ] +.+.+.( ( / / / / ~ P P =.=.u > > : : : * * ",
"- - - - - - ; e e e q 4 4 7 S ( +.w.w.o.8.t.t.O.q.7.t.f.j.y.y.8... .7.t.5.X.' _ Q +.+.( ( / / / ~ P P P L u L 7 2 > > : : : : & ",
"- - - - - - ; e e e e q r r 4 L / ' / ( ( { $.&.&.o.o.O.O.7.O.X.@.@.{ 7.o.Q K ( ( ( ( / I / ~ P ~ ~ P L L u u 4 > : : : * * & * ",
"- = - $ & - - ; e e e r 3 : 3 w 7 u L L ! ) ) <.1.#.( +.o.@.o.X.@.+.( ( ( / / / / ~ / P ~ ~ P ~ L L L u u u i y : : : * * * * % "
};
