/* XPM */
static char *result[] = {
/* columns rows colors chars-per-pixel */
"64 64 238 2 ",
"   c #3D3836",
".  c #413E3C",
"X  c #5B3E37",
"o  c #5C4239",
"O  c #644439",
"+  c #3F4040",
"@  c #444545",
"#  c #4A4645",
"$  c #4B4A48",
"%  c #534745",
"&  c #554845",
"*  c #564B47",
"=  c #5B4945",
"-  c #5B4E49",
";  c #53514F",
":  c #5C524E",
">  c #545352",
",  c #595756",
"<  c #5D5956",
"1  c #5D5D5B",
"2  c #634C45",
"3  c #6C4D44",
"4  c #654F49",
"5  c #724E45",
"6  c #67524A",
"7  c #6C544C",
"8  c #7C5345",
"9  c #73554B",
"0  c #785549",
"q  c #7C594D",
"w  c #635652",
"e  c #6B5752",
"r  c #645955",
"t  c #6C5A54",
"y  c #735B54",
"u  c #7C5C53",
"i  c #705D59",
"p  c #6F625E",
"a  c #78625C",
"s  c #7A6A66",
"d  c #777371",
"f  c #884E39",
"g  c #97553A",
"h  c #A65B3B",
"j  c #B55F3C",
"k  c #AC613D",
"l  c #B3633D",
"z  c #BA653C",
"x  c #B7683E",
"c  c #C66A3D",
"v  c #D36F3D",
"b  c #DB733E",
"n  c #E8773F",
"m  c #F57C3E",
"M  c #FC7E3F",
"N  c #845445",
"B  c #8C5644",
"V  c #855847",
"C  c #8C5A45",
"Z  c #835B4E",
"A  c #8C5C4B",
"S  c #945B44",
"D  c #955946",
"F  c #9B5C44",
"G  c #935D4B",
"H  c #835E53",
"J  c #8A5F52",
"K  c #925F51",
"L  c #A65E43",
"P  c #94614E",
"I  c #9C624E",
"U  c #876257",
"Y  c #8C6052",
"T  c #946252",
"R  c #9B6351",
"E  c #97685A",
"W  c #A36145",
"Q  c #AB6243",
"!  c #A4644C",
"~  c #AB664D",
"^  c #A3684F",
"/  c #AE684E",
"(  c #B46443",
")  c #BA6745",
"_  c #BE6A44",
"`  c #B3674C",
"'  c #B4694D",
"]  c #BC6B4C",
"[  c #A36550",
"{  c #A86954",
"}  c #B46C53",
"|  c #A7715E",
" . c #B7735B",
".. c #856D65",
"X. c #956E62",
"o. c #87726C",
"O. c #96746B",
"+. c #857875",
"@. c #8A7A75",
"#. c #977B72",
"$. c #A77769",
"%. c #B67966",
"&. c #A27C70",
"*. c #C16743",
"=. c #C46A42",
"-. c #CB6D44",
";. c #C36D4B",
":. c #CB6E4A",
">. c #D66F43",
",. c #C8714B",
"<. c #CC714A",
"1. c #D47243",
"2. c #DB7444",
"3. c #D47249",
"4. c #DB7448",
"5. c #C87556",
"6. c #D67A56",
"7. c #E47644",
"8. c #E77845",
"9. c #EC7943",
"0. c #F37C42",
"q. c #FA7E41",
"w. c #F17F4B",
"e. c #E57E53",
"r. c #C17962",
"t. c #FF803F",
"y. c #B9B367",
"u. c #BBBB7B",
"i. c #FF8342",
"p. c #FF8B46",
"a. c #F6844A",
"s. c #FE8C4B",
"d. c #FF9047",
"f. c #FF934B",
"g. c #FF9B4D",
"h. c #FB8B53",
"j. c #FF9552",
"k. c #FF9C53",
"l. c #FE9C5A",
"z. c #F9A253",
"x. c #FFA453",
"c. c #FFAB55",
"v. c #F4A359",
"b. c #FEA45A",
"n. c #FFAB5B",
"m. c #FFB35B",
"M. c #FFB75B",
"N. c #CFB969",
"B. c #FFAD61",
"V. c #ECB663",
"C. c #FFB463",
"Z. c #FEBC64",
"A. c #FFBB69",
"S. c #FFC15F",
"D. c #C8C578",
"F. c #DACD75",
"G. c #FFC463",
"H. c #FFCB65",
"J. c #FFC46A",
"K. c #F7CE6C",
"L. c #FFCB6C",
"P. c #FFD46B",
"I. c #FFD96B",
"U. c #ECC872",
"Y. c #F6CC72",
"T. c #FECC72",
"R. c #EAD475",
"E. c #F6D776",
"W. c #FFD473",
"Q. c #FFDB74",
"!. c #FFDD7C",
"~. c #FFE374",
"^. c #FFEB76",
"/. c #F1E37D",
"(. c #FFE37A",
"). c #FFEC7D",
"_. c #FFF27A",
"`. c #FFFB7D",
"'. c #9E9E96",
"]. c #BCBB84",
"[. c #BEBD95",
"{. c #BBBAAA",
"}. c #F2BC84",
"|. c #EABBA3",
" X c #C8C488",
".X c #D7CE8C",
"XX c #C8C49A",
"oX c #E7CB85",
"OX c #FAC98A",
"+X c #FFDD86",
"@X c #ECD591",
"#X c #FBDA95",
"$X c #ECEC8F",
"%X c #FFE582",
"&X c #FFED83",
"*X c #FFE88B",
"=X c #F7F684",
"-X c #FFF383",
";X c #FFFD85",
":X c #FFF48C",
">X c #FFFE8B",
",X c #FEE998",
"<X c #FEF394",
"1X c #FFFE94",
"2X c #FFF39D",
"3X c #FFFF9C",
"4X c #CDC8A8",
"5X c #D5C9A4",
"6X c #DBCEB0",
"7X c #FFCAAB",
"8X c #FCD8A9",
"9X c #E6CCB9",
"0X c #EED0B1",
"qX c #FED7B6",
"wX c #EEEAA6",
"eX c #FEE7A7",
"rX c #FFFEA3",
"tX c #FFF5AA",
"yX c #FFFFAB",
"uX c #FFE4BB",
"iX c #FFEBB8",
"pX c #FFFFB4",
"aX c #FFF3B9",
"sX c #FFFEBC",
"dX c #DDD2C3",
"fX c #F9D7C5",
"gX c #FFE8CA",
"hX c #FFF3C6",
"jX c #FFFFC4",
"kX c #FFFFCB",
"lX c #FFE7D1",
"zX c #FFF1D5",
"xX c #FFFFD3",
"cX c #FFFFDB",
"vX c #FFFFE3",
"bX c #FFFFEB",
"nX c #FFFFF3",
"mX c #FFFFFF",
/* pixels */
"+ @ @ @ @ @ @ @ @ @ @ @ @ @ $ * w 4 7 y y u u H H J J &.&.&.&.&.[ E K K R K R R T T T K K A J H H H u H u u u y i e 2 * & % % # ",
"@ @ @ @ @ @ @ @ @ @ @ @ @ $ $ % e i y y y H H H J J J &.$.$.&.$.{ R [ [ [ [ [ [ [ [ [ [ G K T K Y U H H u u u i y 4 2 = = & % % ",
"@ @ @ @ @ @ @ @ @ @ @ @ @ # & = 4 y y u H H J J K K G E &.$.[ | [ [ [ [ ~ ~ ~ } / ~ ~ [ [ R I K T Y Y H H u u u 0 4 y ..i = & % ",
"@ @ @ @ @ @ @ @ @ @ @ @ $ % = 2 4 y 8 8 Z H K K T R G I | $.~ ~ [ ~ ~ } } ' ' ;.;.] } ~ [ [ R R T T T J U H H H 0 4 ..d d 2 & % ",
"@ @ @ @ @ @ @ @ @ @ @ # % = 2 2 3 u 8 Z N D K K G L L [ { { ` ` } ' ' ' ] ;.:.:.3.;.] } / ~ ~ [ [ R T K J J H H u 3 s ....i = & ",
"@ @ @ @ @ @   @ @ @ # % = 2 3 3 9 H H B A K K R [ [ L ~ ` ` ` ] ] ] ;.;.;.:.4.4.3.<.<.] ] ' / ! ~ R R R T T H H u 5 9 o.y 2 X = ",
"@ @ @ @       . @ @ $ & 2 4 5 u H H H B D K [ [ { / ' ` ] ;.] :.:.:.:.3.4.4.8.7.7.7.4.:.;.] ] Q ~ [ [ R R T J Y J 0 5 5 3 X X X ",
"@ @ @           . # & 4 7 y u u H J B D I [ [ ~ ` ' ;.;.:.:.:.3.4.7.7.8.9.q.s.9.0.8.7.4.<.<.;._ ( Q ~ [ R T T Y J H 5 3 3 O O = ",
"@ @ +           o ; t t y u u H J K D K [ ` ` } ] ;.:.3.4.2.2.9.q.q.q.q.p.c.M.S.t.t.m 7.7.7.2.:._ ) ` [ [ I T T J J q 5 5 2 2 2 ",
"@ @ @ o     . ; < w y y u H H E $.$.| ~ ` } ;.;.<.3.3.2.8.9.0.t.s.c.f.s.S.H.H.P.x.p.i.M a.0.9.1.-.*.` ` ~ { R R T J H 0 5 3 2 2 ",
"@ $ $ $ $ ; , r w t y y H H J T | %.y. .] ;.3.4.4.7.8.9.q.t.f.x.H.G.M.I.`.~.^.I.m.c.g.d.g.t.0.n b -.;.] ' / ! [ T J J u 5 3 2 2 ",
", 1 , , , , < r t y u u H J T L ! ! }  .` :.>.7.n a.t.p.f.c.M.G.`.^.;X;X3X;X`.^.~.M.c.m.G.g.x.p.8.>.:.:.;.` ! L I K J H 5 3 3 2 ",
", , > 1 , , r t y u q V A A G ! W /  .' *.v 9.t.f.f.m.M.G.I.P.I.;X>X1X3XrX1X>X;X`.S.H.M.G.c.I.c.q.7.4.3.>.:.` ~ [ T J J Z 5 3 2 ",
", , 1 > , < t t u a V C A D G L I l x 8.f.m.m.c.m.G.Q.1X>X^.H.`.3XrXyXpXpXrX3X3X`.I.P.H._.3X;XP.x.i.9.7.7.:._ ` ~ [ T J H 9 3 3 ",
", > > 1 d s t y Z Y P P A C F Q v 2.s.M.C.C.J.Q.J.~.>XpXjXrX>X3XyXyXpXxXxXjXpXjX1X;X_.`.;XyX>X;X`.M.s.M 9.4.:.] } [ R T J q 3 2 ",
", 1 1 d d +.y H T I P P S g l 9.g.C.J.J.Q.Q.).Q.(.>XpXsXkXsXrXpXkXxXcXvXxXkXcXkXpX3XrXrXyXyX1X;X`.G.m.p.q.8.-.;.` [ R I J H 0 3 ",
", , 1 d +.+.s H [ ^ ! ( k c a.f.m.P.`.Q.&X:X-X).(.rXxXcXkXjXyXpXsXkXvXbXvXvXnXcXjXpXkXjXyX3XpX>X_.H.M.g.t.0.8.<.;./ ~ I C V u 3 ",
", , d d +.d H T ! ~ ( k c v a.C.W.>X(.).&X1X;X;X;XsXvXjXcXjXkXsXcXbXbXmXbXbXbXcXjXjXkXjXpXpXrX>X^.S.m.g.d.M 9.3.;.] Q I S C N 0 ",
"> > 1 d s u J E ` ] ) =.s.a.b.C.Q.Q.!.-X-X1X3X3X3XpXjXvXbXcXkXcXmXmXmXmXbXnXmXnXbXkXvXcXxXcX3X>X^.P.M.x.f.i.0.8.;.] / { G C N 0 ",
"> > , 1 t u T [ ;.1.v j.j.b.C.A.!.~.:X=X>X1XrXyXkXkXjXvXvXcXxXxXnXmXmXmX{.mXmXmXmXmXnXmXmXnXpX1X`.~.H.c.x.f.i.9.3. . .~ F S V H ",
"; ; < r y H T ` <.2.s.k.B.C.L.L.L.).1X<X1XrXrXpXvXxXnXmXmXcXnXnXmXmXmXmXmXmXmXmXmXmXmXmXbXcXyX>X1X^.I.m.g.t.0.9.4.5.r. .! D A q ",
"; ; < t u J R ' :.0.x.n.n.A.J.J.(.>X;X1X>X3X1XpXcXmXmXmXmXmXnXmXmXmXmXmXmXmXmXmXmXmXmXmXkXpX1X>X1X;X_.M.g.p.t.0.7.3.5.%.| | K J ",
"; ; < t u Y R / :.0.s.L.C.J.T.T.%X:XrX;X1XrXrXsXcXmXmXmXmXnXmXmXmXmXmXmXmXmXmXmXmXmXmXmXvXkXyX>X>X>X_.G.c.d.p.t.w.4.:.' / R T J ",
"> > r i u E | | 5.9.x.L.J.W.W.%X%X>X1X-X1X3XrXsXvXmXmXmXmXmXmXmXmXmXmXmXmXmXmXmXmXmXbXjXcXsXyX3X1X>X^.G.m.g.d.t.0.8.4.<./ [ T Y ",
"< < t e y X.$.%.5.2.M.W.-X%X&X&X:X1X<X1X3XyXyXjXcXmXmXmXmXmXmXmXmXmXmXmXmXmXmXmXmXbXnXvXvXxXsXsXpX1X`.H.c.x.d.i.0.0.7.:.] [ R J ",
"< < e y u U $.%.5.-.Z.Q.;X<X,X:X,XrXrXrXyXsXjXkXcXmXmXmXmXmXmXmXmXmXmXmXmXmXmXmXmXmXmXbXvXxXxXjXkXrX`.^.H.x.g.i.M 0.7.:.` [ G B ",
", r r e y Z A | ,.9.n.W.*XrX2X<X*XtXeXtXyXyXjXjXcXmXmXmXmXmXmXmXmXmXmXmXmXmXmXmXnXbXnXmXmXkXsXpXrXrX`._.S.c.g.d.M q.>.;.( L g f ",
", r t y y q Z A Q p.C.Y.:X:X,X+X#X*X#XrXeXpXjXcXcXmXmXnXmXmXbXvXmXmXmXmXmXmXmXmXnXnXnXmXnXsXjXsXsX3X;X`.~.H.g.d.M 9.3.=.j h g f ",
", r t t y 9 q V D l n.R.(.+X#XOXU.}.#XOXsXjXxXaXcXcXvXbXmXmXkXxXvXnXmXmXmXmXmXmXnXbXjXjXyXpXsXcXsXrX;X^.H.m.g.i.0.7.v *.h h f f ",
", r e t y e 9 8 g I c v.R.oXoXoXOXOXOXOXsXsXcXpXaXnXmXmXmXnXsXsXkXnXmXmXmXmXmXmXmXvXpXtXyXrXsXjXxXpX>X`.^.c.f.t.m >.c j h g f f ",
"< r e e e 9 9 8 V I l p.E./.R.OX+X!.*XrXyXcXeXiXxXkXmXmXmXcX8X8XaXvXbXmXmXmXmXmXnXkXpXpXrX3XpXsXkX1X^.I.J.x.q.M 9.>.c j j g g B ",
", t t e e 7 9 0 C g l a.Q.-XE.+X*X*X*XtXsXxXsXaXvXjXnXmXmXsX#X7XiXkXcXvXmXmXmXmXvXjXxXsXrX2XyXxXyX;X~.H.M.m.f.M m >.*.( L F B B ",
"= w t e e 7 9 0 V S k j.).3X1X3X*X%X+X,XjXkXkXvXbXvXxXnXxXvXkXiX8XuXxXcXvXmXmXmXbXcXxXkX<XrXtXrXrX1X~.H.S.c.g.p.m 7.=.( L F B N ",
", r t r e 6 9 8 V g k j.J.;X3X3X2X1X<XrXkXjXjXjXvXxXcXnXcXvXxXiXuXjXuXvXnXnXnXmXkXxXkXsXpXyXrX#X*X>X~.J.M.x.p.d.m b c ( Q L B N ",
"r r p o.o.s a 0 8 g c a.n.(.rX2XyXyXyXxXkXsXsXaXkXcXnXmXsXxXkX8XaXaXkXcXbXnXbXvXxXvXxXsXsXsXyX*XE.).Q.M.m.g.f.M 9.7.c ( L F D f ",
"w r d d y.o...q q k 1.n.A.1X2XsXpXkXjXsXvXxXpXvXbXvXmXnXbXkXiXsXjXiXnXvXnXbXgXuXjXjXeX#X8X0X#XR.F.(.H.M.c.f.g.f.9.v -.( L F B N ",
", r +.@.o.U o.q 8 k k.n.&XrX2XaXjXxXxXjXsXkXmXmXmXmXmX'.mXmXhXiXjXkXkXkXvXzXgXuXeX,X#X8X@XoX.X.XD.R.K.M.m.x.f.0.m 2.*.( L F B N ",
", r i @.@.a q 0 8 k w.s.L.Y.2X,XaXxXvXxXcXxXmXmXmXmXmXmXmXnXxXxXkX8X7X7XfXfXuXqXwX@X6XXX.X5XD.D.D.R.K.m.x.g.f.0.7.v *.( L F B N ",
": : e i a y q q N z s.v.A.!.&XrXjXxXxXkXkXbXmXmXmXmXmXmXnXcXuXjXuX8X7X|.dX6X5X5XXX XXX X.X.X Xy.F.R.K.m.x.k.i.e.e.3.*.( L g N N ",
"w : w e u u u q V z c l.a.b.Q.3XrXpXtXsXsXvXcXbXcXbXbXvX7X|.aXaX8X8XqX|.9X6XXXXXXXXX X X]. Xy.D.F.G.Z.c.x.f.9.a.6.:.*.L L B N 8 ",
", r r t y u u J C z a.1.1.f.V.&X1X2X<XpXvXxXpXxXsXsXgXuX|.|.qX8X8X7XbXfX9X4XXXXXXXXXXX].u.u.y.F.N.v.m.C.l.q.q.w.6.:.) L L B N 8 ",
"r r r t y u q q C z b c _ ,.a.l.T.W.%X1XjXjXpXjXpXjXgXfX|.|.7XqX7X7XqX8XuX6X4XXX[.{.[.].u.y.y.N.v.v.l.x.s.0.9.4.4.;.` L D B N 5 ",
", r r t t y 9 q 8 k v x x _ j.j.A.Y.+X3XpXjXxXcXkXpXxXqX9X|.qXqX7X7XlXlXfX6X4XXX[.].].u.u.D.U.R.v.j.s.q.q.n 7.4.:.;.` L D N N 5 ",
", r r e y t y 9 0 g a.1.c ( a.h.B.A.!.:X1X1XsXxXsXkXvXcXqX9X9XgX7XqXiXgXtX9X4X{.XXu.u.].D.$X/.Z.z.a.0.n 7.7.4.:.;.;.~ R B N N N ",
", r r r t 9 y 9 0 x a.v w._ h.h.B.B.T.:X1X+X3XyXsXkXkXaXfXfXfXfXgXaXtXjXhX8X6X4X6X$X.X4X$X1X;XZ.j.a.b 2.4.4.:.:.] } { R B N N 5 ",
", < r 6 3 9 e u q S z z =.h.l.a.j.l.B.A.W.!.:XrXtXsXxXkXxXzXlXcXkXsXxXsXtXuXdXwX$X`.=X$X>X1X-Xb.a.n b >.4.:.:.] ` ~ [ R B N N 5 ",
", < : 2 6 7 0 8 A C W l c b.l.C.B.A.A.!.!.;X1X(.2XpXkXpXpXaXxXbXxXcXvXxXkXjXxX:X=X>XrXsX;X;XQ.f.n 2.2.1.3.;.] } } %.| E &.O.Z 5 ",
", : - 2 4 7 5 q A P W z 2.b.l.T.T.A.n.T.+X:X%X&X&X1XrX3X:XsXkXcXxXcXxXxXkXrXrX1X=X>XrX1X(.Q.m.8.7.4.1.3.:.;.` ~ } $.$.&.#.O.H 5 ",
", ; * - 4 4 7 q U A I W z x.b.Q.T.C.A.J.A.&X-X&X&X;XyXrXyXkXxXpXyXyX3XyXsXyX>X(.L.~.(.Q.W.m.s.7.e.6.6.<.;.;.} { [ | &.&.#.O.0 5 ",
", > - - 4 4 7 y u Z A P Q z 9.j.T.n.J.G.W.-X>X(.(.:X1X1XrXyXpX>X>X;X1XyXrX3X!.L.J.W.H.C.b.k.p.6.6.6.5.;.] ] ' ~ R R E O.O.X.q 3 ",
", , : : - 4 e y u Z Z Z P ! Q 2.s.c.C.J.-X-X~.Q.(.-X1X3X3X3X1XW.Q.1X>X-X&XJ.A.G.n.A.k.v 2.v :.6.6.5.;.] ' / / [ R T K J H H u 3 ",
", , , , r r t t y a a q q P ~ n k.x.Z.G.M.~.W.P.J.).>X>X;X-XL.C.Z.(.W.L.G.Z.C.k.j.k.2.z _ =.=.5.<.;.] ` ~ ~ ~ [ R R J H H u u 9 ",
", , , , 1 < r t t y y y u U I ) n c v b c.Z.Q.c.s.k.Q.(.(.J.B.C.x.C.n.C.m.b.p.l z z l z ( ] ] ] ] ) ( / ! [ R R T K J H H u u e ",
", , , , , < r r t i y y u u Y W ) -.c s.k.s.c.i.k.p.x.M.k.j.s.c.n.j.f.f.f.j.l ( k Q Q ( ( ` ] ] ' / / ~ ! R R T T J J H u u y 7 ",
", , , , , , r r t t t y y u H C F ! ;.9.f.f.m.p.i.g.f.p.q.p.s.n b 1.,.-.7.z k k Q Q Q / ` ` ' / / ~ ! ^ [ R T Y J H H u u u y 7 ",
", , , > , < < r r r s ..s a y H X.E ! ' ,.3.0.0.2.0.M t.0.q.7.M 2.5.5. ./ W W W W W / Q / / / ~ ! ! I I R T J J H H u u u i 7 2 ",
"1 > , , , , , 1 r r s +.+.+.o.o.#.T T / ;.,.,.<.3.3.7.0.9.0.7.4.-.,. . . .! ! ! ! ! ! ! ! ! [ [ [ R R T T T J J H u H u 7 6 2 2 ",
"> > , , , , , , < r w t s +.@.@.U H Y T [ ~ ' ] / ;.3.8.9.7.7.-.;.] ` ~ W ! ! ~ ! R ^ ! [ [ R R R T T K J U O.#.#.o.5 O O X 2 & ",
"> 1 , , , , , , , < : : w t t y i u H Y T R [ ! / / / ;.4.4.-.] ) Q ~ L F [ I ^ R I R [ R R R R K E T J J O.#.@.o.9 3 O X X X % ",
"1 > , , , , , , , , : : w w t t t i u H U Y T T R R [ ! ] ] ;.( Q ! W F F I G I R R T R K T K J J J J H u ..@.o.s y 2 X X X & % ",
"> , , 1 , , , , , , ; : - : t t t t t u u H J J T Y R R [ ~ [ ! F P D S P G P G T T T T Y T Y J H H H u u u o.o.u 2 2 = = & & % ",
", , , > , , , , , , > > > : < r r t t t y u u H U J J Y T R R T G G P J A A J A J J Y J J H J H H H u u y y y 6 4 2 = = & & % % ",
", , , , , , , , , > , > , < : w r r r t t t i ..U H J H A J J J Y Y U J J J J J H J H J H H u u u u y y y y y 4 & = % = % % # # ",
", > > > $ , , , , , , , ; $ * : : r r r r p s +.@.s u u a u H H H H H u H H H u H H H H u u u y y y y i y t t w 2 & % % % # # @ "
};
