/* XPM */
static char *result[] = {
/* columns rows colors chars-per-pixel */
"64 64 196 2 ",
"   c #3B3735",
".  c #3D3836",
"X  c #3E3B3A",
"o  c #413F3D",
"O  c #493C38",
"+  c #503C39",
"@  c #45413F",
"#  c #53403D",
"$  c #61463F",
"%  c #3F4040",
"&  c #444545",
"*  c #4B4645",
"=  c #4E4A47",
"-  c #474848",
";  c #4B4C4B",
":  c #534745",
">  c #544845",
",  c #5B4944",
"<  c #524D49",
"1  c #5D4E48",
"2  c #52514F",
"3  c #5D524D",
"4  c #555452",
"5  c #585756",
"6  c #5D5956",
"7  c #5D5C5B",
"8  c #634C45",
"9  c #6B4D45",
"0  c #714E44",
"q  c #7A4F45",
"w  c #685147",
"e  c #63534E",
"r  c #6B554D",
"t  c #755246",
"y  c #7C5346",
"u  c #73564D",
"i  c #79574C",
"p  c #76584E",
"a  c #7C594D",
"s  c #635652",
"d  c #645955",
"f  c #6C5A55",
"g  c #6C5B55",
"h  c #625D5A",
"j  c #715750",
"k  c #735B54",
"l  c #7C5C54",
"z  c #735E59",
"x  c #64605E",
"c  c #6C615D",
"v  c #73625D",
"b  c #7B645D",
"n  c #656463",
"m  c #6C6461",
"M  c #686866",
"N  c #6C6C6C",
"B  c #736663",
"V  c #746966",
"C  c #796863",
"Z  c #726E6C",
"A  c #7B6C68",
"S  c #72706F",
"D  c #7E716E",
"F  c #757473",
"G  c #7E7673",
"H  c #7B7877",
"J  c #7C7A79",
"K  c #FD7E3F",
"L  c #845546",
"P  c #895747",
"I  c #8C5946",
"U  c #885648",
"Y  c #835B4D",
"T  c #8C5C4D",
"R  c #935B46",
"E  c #9B5D46",
"W  c #935E4B",
"Q  c #9B5F4B",
"!  c #835E53",
"~  c #8A5F52",
"^  c #915F52",
"/  c #A45F46",
"(  c #95604F",
")  c #9C614D",
"_  c #876053",
"`  c #8C6052",
"'  c #85645A",
"]  c #8F675B",
"[  c #86685F",
"{  c #936152",
"}  c #9B6351",
"|  c #966859",
" . c #95695A",
".. c #A5644E",
"X. c #AB664E",
"o. c #AD684F",
"O. c #B76544",
"+. c #BD6744",
"@. c #BC6947",
"#. c #B3674B",
"$. c #B4694D",
"%. c #BB6B4C",
"&. c #A36550",
"*. c #AA6650",
"=. c #AB6A53",
"-. c #A36C5B",
";. c #A96E5B",
":. c #B26C54",
">. c #BA6E52",
",. c #B06E58",
"<. c #A9715E",
"1. c #B3735C",
"2. c #BC7359",
"3. c #856C65",
"4. c #8C6E65",
"5. c #856F69",
"6. c #936D65",
"7. c #83726D",
"8. c #8C746E",
"9. c #9C7265",
"0. c #957369",
"q. c #96786F",
"w. c #837673",
"e. c #857A76",
"r. c #8B7A75",
"t. c #827A78",
"y. c #937B74",
"u. c #9D7B71",
"i. c #A07365",
"p. c #AD7461",
"a. c #B27562",
"s. c #B87762",
"d. c #B47A67",
"f. c #BD7B65",
"g. c #BA7C69",
"h. c #A17B70",
"j. c #C16744",
"k. c #C46B46",
"l. c #CC6D45",
"z. c #C36D4B",
"x. c #CA6F4A",
"c. c #D26F44",
"v. c #D06F49",
"b. c #CF7146",
"n. c #CD704A",
"m. c #D57146",
"M. c #DC7446",
"N. c #D47249",
"B. c #DA7448",
"V. c #C67354",
"C. c #CA7454",
"Z. c #C5775C",
"A. c #CA7A5C",
"S. c #D67954",
"D. c #D47C5E",
"F. c #E37645",
"G. c #E97743",
"H. c #E57845",
"J. c #EB7943",
"K. c #E47949",
"L. c #F37B42",
"P. c #FA7E41",
"I. c #F37F49",
"U. c #E17D56",
"Y. c #C37B64",
"T. c #CC7C61",
"R. c #FF803F",
"E. c #FF8442",
"W. c #FF8B45",
"Q. c #FF8F48",
"!. c #FF9047",
"~. c #FF944A",
"^. c #FF9B4D",
"/. c #FFA04F",
"(. c #FFA451",
"). c #FFAC55",
"_. c #FFB057",
"`. c #FFB55A",
"'. c #FFBB5D",
"]. c #FFBE60",
"[. c #FFC05F",
"{. c #FFC462",
"}. c #FFCB65",
"|. c #FFD167",
" X c #FFD469",
".X c #FFDC6D",
"XX c #FFE16F",
"oX c #FFE471",
"OX c #FFEB75",
"+X c #FFF177",
"@X c #FFF479",
"#X c #FFFC7D",
"$X c #FFFF83",
"%X c #FFFF8C",
"&X c #FFFF93",
"*X c #FFFF9B",
/* pixels */
"% & & & & & & & & & & & & & & ; 4 < < 5 5 5 5 5 d s m e.e.e.r.r.z g k k k k g g g g g f e 6 d s 5 5 5 5 5 5 5 5 5 4 - & & & & & ",
"& & & & & & & & & & & & & & & & 4 5 5 5 5 5 6 d d s f w.r.e.r.r.b k k k k k k k k k k g r r d d d 5 6 5 5 5 5 5 5 - & & & & & & ",
"& & & & & & & & & & & & & & & & ; 5 5 5 5 s d d f g r b r.8.b [ l l l l l l l l l k k k k r g d d d d 5 5 5 5 5 2 & 7 N n & & & ",
"& & & & & & & & & & & & & & & & & 5 2 < 1 d d f g g u j 3.4.l ! ! ! ! ! ! ! ! ! ! l l l k k k k f d d d 5 5 5 5 ; & N N N & & & ",
"& & & & & & & & & & & & & & & & & 4 < 1 8 e f k u j u i ! ! ! ! ! ~ ! ~ ~ ~ ~ _ ! ! _ l l l k k z g f s d 5 5 5 4 & n S N 7 & & ",
"& & & & & X X & & & & & & & & & ; 5 s 1 w r k k k i a Y Y ~ ~ ` ` ` ^ ^ { ` ` ` ` ~ _ ! ! ! l k k k f f d d 5 5 5 & - S 5 & . & ",
"& & & & .   . & & & & & & & ; 4 5 d s w w k k l ! ! ~ ^ { { } } } } } { } } } { { { ` ~ ! ! ! y i k k k d d d 5 5 ; & - %   . . ",
"& & & X     X . X & & ; 4 5 5 5 6 d 8 w j l ! ! ~ { { ( } } } &.&.&.&.&.&.&.} } } { ( ^ { ~ ! L y u k k z f d 5 5 5 & & & % . & ",
"& & & X       X % ; 5 5 5 5 5 5 s f r k l ! ~ { { } } &.*.X.*.o.*.o.o.o.,.d.d.1.-.} } { { { ~ ! L y p k k f f d 7 5 2 & & & & & ",
"& & & %     % ; 5 5 5 5 5 5 5 n 5.7.5.! ! ~ { { } &.*.X.o.$.$.$.$.>.$.>.f.2.>.:.d.d.&.&.} { { T U L a l k k f d 5 5 5 - & & & & ",
"; - - ; ; 4 5 5 5 5 5 5 5 5 6 f 5.r.y.q.{ { { &.&.o.$.$.$.$.z.%.z.z.z.z.z.z.+.@.:.s.,.*.&.Q ( W U L ! l k k g f d 5 5 4 & & & & ",
"5 5 5 5 5 6 5 5 5 5 5 4 4 5 d k l ' u.u.| } } ..o.$.$.z.z.z.n.x.x.x.z.x.x.l.k.%.%.%.>.o.o.&.&.{ W ` ~ ! p k r r f d 5 5 ; & & & ",
"5 5 5 5 5 5 5 5 5 5 4 2 2 s f k ! 0.u.i.| &.*.*.#.$.z.x.x.n.N.m.N.B.N.N.m.m.l.l.z.z.z.:.$.#.&.} { { ` _ a i r r f d d 5 5 & & & ",
"5 5 5 5 5 5 5 5 5 5 4 2 3 r u l Y ~ W R / *.*.$.$.%.z.n.N.B.B.F.K.F.B.B.F.M.M.c.x.v.x.z.%.$.*.&.} { { ` ! u u r f f 5 5 5 ; & & ",
"5 5 5 7 N n 5 5 5 5 6 6 s k l Y P I R E / *.$.%.z.x.N.N.B.H.G.G.L.L.J.G.J.H.F.M.F.m.m.x.z.$.$.*.&.} { ` ! l j k f d d 5 5 5 & & ",
"5 5 5 H H F 5 5 5 5 s d g l l Y I R ) ..#.$.%.z.n.N.B.B.F.G.L.L.P.K P.L.L.L.J.G.G.H.M.N.x.z.z.$.&.{ { ` ! ! l j k f d 5 4 5 ; & ",
"5 5 n J J J 7 5 5 6 h f k l ! P W ) ..X.O.k.x.n.B.M.F.H.J.L.P.E.W.!.!.E.W.E.P.P.L.J.F.N.N.x.%.:.*.} { ` Y ! l l g g s 3 < < 2 & ",
"5 5 S J J n 5 5 5 s f f k l ~ ^ } ..X.@.+.x.N.N.M.H.G.L.L.K W.~.^.(.).^.^.~.!.Q.E.L.G.F.N.x.%.$.X.&.} { ` ! l k k f e 6 < < < ; ",
"4 5 5 N n 7 5 5 6 d g g l ! { { &.$.#.z.n.N.B.H.G.L.L.E.E.Q.~.^.).`.`.`.`.).(.(.W.P.L.F.N.x.z.%.o.*.) { ~ _ l l k v f g < < < 2 ",
"2 2 5 5 5 5 5 5 s g r u b T { ..X.$.%.x.b.N.M.J.J.L.K E.Q.^.).`.'.{.].'.].`.`._.^.E.L.J.F.N.x.z.%.=.&.{ ~ _ ! a k 7.v s < = < 2 ",
"2 2 4 5 5 5 5 5 d g f p ! { } &.$.$.z.n.B.F.H.L.P.R.W.!.^.).`.}.}.}.}.{.{.].'.`.^.Q.E.L.F.M.x.x.%.o.X.) ` ! a b p A e.c 3 < < 2 ",
"2 2 4 5 5 5 5 7 g f u i T { &.X.:.%.z.N.F.H.L.P.E.!.^./.).`.}. X.X X X X|.}.{.'.`.(.W.K J.M.m.x.z.%.o.) ( Y i b k v D G N M 4 5 ",
"2 2 4 6 5 5 7 s g r p Y W ) X.#.%.z.v.B.F.J.P.P.W.^.)._.'.}. X.XoXoXoXoXXX X}.}.'.(.Q.K K M.m.l.z.%.X.) ( T a a k g d c 7 5 5 5 ",
"4 4 4 5 5 n S B C 5.' _ ( ) :.$.z.x.N.M.H.L.E.!.^.).`.[.[.}..XXX+X@X@X+XoX.X.X}.{.).!.E.K H.M.l.z.%.o.*.) T _ a k g d d 5 5 5 5 ",
"5 5 5 5 5 N J e.r.y.q.] } &.*.$.z.x.B.H.J.L.E.~.(.`.{. X XXXOX+X$X$X$X$X+XOXoX}.'.(.^.W.P.J.c.c.l.+.#.X.} { ~ ! b u s s 5 5 5 5 ",
"5 5 5 5 5 6 t.e.y.y.6.{ } *.$.z.x.N.M.J.L.K Q.^.`.[. XoXOX@X#X$X%X$X$X#X@X@XoX}.`.(.!.E.P.J.K M.l.+.O.o.&.{ ` ! l k g s 5 6 4 ; ",
"5 5 5 5 5 6 d 5.y.q.] { &.X.$.z.N.B.H.J.P.W.~.(.'. XoX#X$X#X%X%X%X$X$X$X+XOXXX}.OX'.^.E.P.J.K c.l.j.O.o.&.{ ~ ! l k f 5 < @ o   ",
"5 5 5 5 5 6 f k l ~ ` } &.$.%.x.N.M.H.L.E.!.(.`.{..X@X#X$X$X%X%X%X$X$X#XOXXX.X X'._.^.Q.R.K M.M.c.j.@.$.&.} { _ ! k g >       o ",
"5 5 5 5 5 5 g l ! ~ ^ } &.$.%.x.N.F.J.P.E.~.).{..XOX#X#X$X%X%X%X%X%X$X#XOXoXoX X[._.(.!.K L.J.B.B.C.z.:.&.} { ~ _ u 8 +         ",
"5 5 5 5 5 h k l ! ~ { } ..#.z.x.B.H.L.E.Q.^.OX}.XX@X#X$X$X%X%X%X%X%X%X$X+XoX.X X{._.).~.E.P.I.S.S.D.Z.$.X...{ ! l t $ + O       ",
"5 7 4 5 5 h k l ! ` { Q ..O.k.x.B.H.L.E.~./.}.}.OX#X$X%X%X%X%X%X&X&X%X$X@XoX.X X}.`.(.^.Q.E.I.E.S.D.Z.$.o.} ( T q 9 8 # @ % X % ",
"4 4 7 4 5 g k l _ ` } &.X.O.z.n.B.H.L.E.^.).[.}..X#X$X%X&X%X&X&X&X&X%X$X@XoX.X X{.'.(.~.!.R.I.I.U.S.C.%.o.&.{ L y 0 9 # : - & & ",
"; 4 5 5 6 g k ! ! ` } ..X.@.z.x.F.J.L.E.~.%X'.}.oX$X%X%X&X&X&X*X&X&X&X%X@XOX.X X}.'.).^.!.R.K G.M.m.x.%.#.&.^ L q 0 8 8 , : & & ",
"4 5 5 5 s g k l ` ^ } &.o.$.z.v.M.G.K E.~.).[. XOX$X%X&X*X*X*X*X&X&X%X$X#XOX.X X[.'.)./.!.Q.P.J.H.N.x.%.X.&.W L q 9 8 8 : : * & ",
"6 5 M S G w.5.! _ { } &.o.$.z.x.M.J.K W.(.`.{..XOX$X%X&X&X&X*X*X*X&X%X$X@XOX.X.X}.`.).).^.W.K L.H.m.x.$.o.&.^ U q 9 9 8 , > * & ",
"5 5 J J t.t.r.3.` ` } &.o.$.z.x.m.G.P.Q.(.'.}..X@X$X$X%X&X&X&X*X*X&X$X$X#XOXXX.X|.'.'._.^.W.K J.H.m.l.$.o.&.( T q q 9 8 8 , * & ",
"5 5 F J G A r.[ ! { { &.$.$.z.n.M.M.K R.~.).}.oX@X#X$X$X%X%X&X&X&X%X%X$X$X#XOXoX X}.[.`.^.W.P.L.M.N.k.@.X.} { ~ y q 9 8 8 : : & ",
"4 5 7 H t.V k l _ { } &.*.$.%.l.M.K K R.Q.(.[..X+X+X@X$X$X%X%X%X%X%X$X$X%X$X@XOXXX X}._.^.Q.P.G.M.N.x.%.o.} { 9.] t 0 9 8 , : * ",
"2 2 5 5 c f k l _ { } &.*.$.z.l.l.K K J.!./.'.}.XXOX@X#X$X$X%X%X%X$X$X$X$X$X#XOX.X X}.`.^.W.L.J.F.N.z.%.*.} 9.h.u.l 0 9 8 , : * ",
"4 2 4 6 d f g l ! ` ( } *.$.%.l.c.M.F.K Q.^.).{..XXXOX@X#X$X$X$X$X$X$X#X$X#X+XoX.X|.[.).^.E.P.J.M.N.z.$.&.-.i.h.u.' 0 9 8 , : * ",
"5 5 4 7 6 d k l ! ~ { ( ..$.%.x.l.M.J.L.R.Q./.`.}..XXXOX@X#X#X$X$X$X$X$X@X@XOXXX X}.[.`.(.W.I.J.M.N.z.#.....| 9.0.! 0 9 8 , , * ",
"5 4 5 5 s d z k ! _ { Q ..o.$.z.b.m.H.J.P.W.^.`.}. X.XoXOX@X#X@X#X#X#X#X@XoX.X X}.{.'._.~.E.I.J.m.n.%.X...E W { ~ ! u 9 8 , : * ",
"5 5 5 5 d d f k l ! ^ W ) *.:.%.n.N.B.H.L.E.^.(.`.{.}..XoXXXXXOXOX@X@X+XOXXX.X|.{.'.'.).~.E.I.K.B.x.$.#...E R ~ ! ! l w 8 , , * ",
"5 5 5 5 5 d f k l a Y ^ -.<.d.Y.V.b.B.F.L.K Q.~./.(.'.}.}.|.}.|.|. X X.XoX.X}.}.[.'.).!.E.P.J.B.v.z.@.o...) } ` ! ! l u 8 , : * ",
"5 5 5 5 6 s f g k l !  .| ;.d.f.Y.A.N.F.J.K K W.!.^.).).'.'.`.'.'.{.}.}. X X}.'.'.`.(.Q.P.J.F.B.n.z.$.*.&.} ^ { ! ! l k 8 , : * ",
"5 5 6 < < 8 s k k l ! ] | } &.*.>.x.n.B.H.J.J.K K W.^.^././.(.(.).`.'.'.[.'.`.).(./.!.E.L.J.B.x.z.%.$.X.} } ^ ~ ! ! l k r 1 : - ",
"5 4 2 < < 3 e w k k l ! ` } } *.$.%.n.n.m.F.J.K L.R.R.W.Q.~.~.^.^.^.)._.).^.^.^.Q.Q.E.P.J.H.B.x.z.#.*.&.} } ^ ~ ' 8.5.C w.D 5 * ",
"5 < < < < , 1 g k k l ! ! { } &.$.$.z.n.n.B.H.M.J.J.R.K K W.Q.!.Q.Q.~.^.!.W.W.R.K K K J.H.M.N.x.2.1.*.&.} { ~ ~ ' y.r.e.e.G d & ",
"5 2 < ; < < e d g k k l ! _ { { &.#.$.z.x.N.B.B.M.J.J.L.R.L.R.R.K E.E.E.K K K L.J.J.J.J.B.N.x.A.Y.g.p.} } { ~ ! l 5.r.r.e.G ; & ",
"5 4 < < = < 3 s f k k l ! ! ` { &.&.*.%.z.x.x.v.B.M.F.J.J.L.L.J.P.P.L.L.J.H.K K K.F.F.B.N.x.V.Y.Y.s.;.{ { ` ~ ! l l C 7.D m 2 & ",
"5 5 4 < = < 5 6 d f k k l ! ! ` { } *.o.%.%.z.x.l.N.B.M.H.M.M.E.J.G.J.G.F.H.H.F.M.N.N.x.x.z.>.f.s.;.&.{ { ~ ! ! l k k f d s 5 & ",
"5 5 5 6 6 4 5 7 d f g k k l ! ! ~ ^ &.X.o.$.#.%.z.n.n.B.N.N.B.M.F.B.B.M.M.m.M.m.c.n.z.z.%.z.$.1.=...Q W T ! ! l k k f d d 6 5 ; ",
"5 5 5 5 5 5 5 5 s h f k k k l ! ! T R ) &.&.X.$.@.%.%.x.x.n.N.b.N.N.S.N.v.N.l.l.k.z.%.%.>.$.o.X.( W ( T T ! ! k k f f f 6 5 5 2 ",
"5 5 5 5 5 5 5 5 6 s d g k k k i y L U I Q Q ..&.X.#.%.%.%.%.%.z.C.A.T.V.z.z.z.%.%.$.$.:.*.*.&.} { W W ` ! ! l k z f d d 5 5 5 2 ",
"5 5 5 5 5 5 5 5 5 6 s d g g k t t l ! ~ ` { } / ) ..X.o.%.$.$.@.2.Y.f.>.>.$.$.#.#.o.o...&.&.} { { T Y ! ' l k k f f f 5 5 5 5 ; ",
"5 5 5 4 5 5 5 5 5 5 N A V v k k 3.b l l ~ ` ^ ^ ) ) ) ....*.X.X.o.g.g.g.1.#.o.*.*.&.&.&.} { { ` ~ ~ a l l k k f f d 5 5 5 5 2 & ",
"5 4 7 4 5 5 5 5 5 5 n J J e.w.7.e.k k z ! ! ~ ~ { } } } ) ........*.a.a.p.*...&.&.&.} { ^ ^ ` _ ! ! l l k k z f d d 5 5 4 ; & & ",
"5 7 4 5 5 5 5 5 5 5 4 5 N G t.w.z z k k k l ! ! ~ _ ^ { { ( R ( ) ( } ) ) } } } } ^ ^ ` ~ ~ ! ! ! l l l k v D t.t.Z = .   . % & ",
"5 5 5 5 5 5 5 5 5 4 2 2 4 5 s s d f g z k k z ! l ! ! _ ` W W ` W ( W T R { ` { ~ ~ ! ! ! ! l l k k f f f 7.t.J S 2 *       o & ",
"5 5 5 5 5 5 5 5 5 5 2 2 2 5 5 6 d d d d f f k k l l ! ! ! ! Y L L P L P L _ T ! ! ! ! ! l l l z k k z f f V t.S 7 5 - X   . & & ",
"5 5 5 5 5 5 5 5 5 5 2 2 2 2 5 5 5 5 d d d d f f f z l l l b l i L y y a a a p p k l l l k k k k z f f d d d N N x & & & & & & & ",
"5 5 5 5 5 5 4 5 5 6 4 2 2 2 4 5 5 5 6 5 d d s d d d f z k k l l u i k l k u u u j k k k k f z f f d d d 5 5 5 2 - & & & & & & & ",
"5 4 5 5 6 5 5 5 5 5 5 2 5 4 4 5 5 5 5 5 5 5 7 Z n s 6 d d f g g g g k f g r f k f f f f f f d d d d d 5 5 5 5 ; & & & & & & & & ",
"5 7 4 ; ; 5 5 4 5 5 5 5 2 < ; 2 ; 5 5 5 5 x n H J n 5 5 5 6 s d d d d d f g g g f f f f f d d d 6 5 5 5 5 5 5 4 & & & & & & & & "
};
