/* XPM */
static char *result[] = {
/* columns rows colors chars-per-pixel */
"64 64 223 2 ",
"   c #6F463A",
".  c #7C4A37",
"X  c #774939",
"o  c #4C4240",
"O  c #564745",
"+  c #5C4944",
"@  c #634B45",
"#  c #6B4D44",
"$  c #724E44",
"%  c #784F44",
"&  c #6F5048",
"*  c #7B5144",
"=  c #795347",
"-  c #745C54",
";  c #7E5D54",
":  c #864C38",
">  c #86513D",
",  c #975339",
"<  c #A6593A",
"1  c #B45C39",
"2  c #BC663F",
"3  c #C7683D",
"4  c #CC6B3C",
"5  c #D46E3C",
"6  c #DB6F3E",
"7  c #D7713F",
"8  c #DB713E",
"9  c #E16F3F",
"0  c #E3743D",
"q  c #EB763D",
"w  c #ED793E",
"e  c #F1773E",
"r  c #F47A3E",
"t  c #FC7D3E",
"y  c #845343",
"u  c #8B5543",
"i  c #885B4C",
"p  c #915643",
"a  c #945944",
"s  c #9B5A43",
"d  c #975B48",
"f  c #9A5E4B",
"g  c #835D52",
"h  c #8E5F52",
"j  c #A35D44",
"k  c #AB5E43",
"l  c #95614F",
"z  c #9D634D",
"x  c #8D6152",
"c  c #886457",
"v  c #946151",
"b  c #9C6350",
"n  c #9D6B5B",
"m  c #A66146",
"M  c #AD6343",
"N  c #A4634D",
"B  c #AC654D",
"V  c #A7684F",
"C  c #AD684E",
"Z  c #B36343",
"A  c #BC6543",
"S  c #BB6845",
"D  c #B3664C",
"F  c #B8674A",
"G  c #B3694D",
"H  c #BB6A4B",
"J  c #A46550",
"K  c #A96750",
"L  c #B76D53",
"P  c #AC705C",
"I  c #986F61",
"U  c #9D7265",
"Y  c #A57464",
"T  c #A77565",
"R  c #C36641",
"E  c #C36A45",
"W  c #CC6C43",
"Q  c #C36C4A",
"!  c #CB6E49",
"~  c #D46E43",
"^  c #D96F43",
"/  c #D26F48",
"(  c #CE7143",
")  c #CD714A",
"_  c #D57145",
"`  c #DB7245",
"'  c #D47249",
"]  c #DA744A",
"[  c #DD784E",
"{  c #C67659",
"}  c #D57855",
"|  c #DC7B56",
" . c #D47C5B",
".. c #DB7D59",
"X. c #E47543",
"o. c #EA7642",
"O. c #E57944",
"+. c #EC7943",
"@. c #E67649",
"#. c #E3794D",
"$. c #F17741",
"%. c #F37A41",
"&. c #FC7D41",
"*. c #E37C53",
"=. c #CA7B61",
"-. c #FF823E",
";. c #BE864E",
":. c #C7864C",
">. c #D7884B",
",. c #C68B50",
"<. c #C89855",
"1. c #D99A54",
"2. c #E6824D",
"3. c #F68547",
"4. c #FF8443",
"5. c #FF8B45",
"6. c #FF8C4A",
"7. c #FF9346",
"8. c #F2924B",
"9. c #FF944B",
"0. c #FF9A4D",
"q. c #E89A53",
"w. c #F09750",
"e. c #FF9451",
"r. c #FF9D52",
"t. c #C8A65B",
"y. c #D3A35B",
"u. c #D3AA5C",
"i. c #DAB35F",
"p. c #ECA657",
"a. c #FFA353",
"s. c #FFAB55",
"d. c #F4A558",
"f. c #FEA559",
"g. c #FEAC5B",
"h. c #EFBB5E",
"j. c #FFB057",
"k. c #FFB35C",
"l. c #FEBB5D",
"z. c #C8AD61",
"x. c #D3AC61",
"c. c #DAAF60",
"v. c #CCB364",
"b. c #CBBD69",
"n. c #D7B865",
"m. c #E5AD62",
"M. c #E4BB66",
"N. c #FFB462",
"B. c #F4B961",
"V. c #FFBC63",
"C. c #FFC15F",
"Z. c #DCC76D",
"A. c #D0CE6F",
"S. c #DED777",
"D. c #E8C469",
"F. c #FFC363",
"G. c #FECA65",
"H. c #F5C76B",
"J. c #FFC66B",
"K. c #FFCB6C",
"L. c #EED16C",
"P. c #FFD066",
"I. c #FFD36C",
"U. c #FFDB6D",
"Y. c #EACB76",
"T. c #FECE71",
"R. c #F9C975",
"E. c #EAD778",
"W. c #FFD373",
"Q. c #FFDD74",
"!. c #FFDC79",
"~. c #EFE274",
"^. c #FFE374",
"/. c #FFEA76",
"(. c #FFE57B",
"). c #FFEC7B",
"_. c #FFF37C",
"`. c #FFFB7E",
"'. c #B8B8B5",
"]. c #FFDC83",
"[. c #F5D289",
"{. c #F8D988",
"}. c #FDD999",
"|. c #FDE383",
" X c #FFEC82",
".X c #FFE28C",
"XX c #FFEA8D",
"oX c #FFF383",
"OX c #FFFD85",
"+X c #FFF58B",
"@X c #FFFF8C",
"#X c #FEE293",
"$X c #FFEC92",
"%X c #FFE49D",
"&X c #FFED9B",
"*X c #FFF595",
"=X c #FFFF93",
"-X c #FFF39D",
";X c #FFFF9C",
":X c #FCDAA5",
">X c #FEDCAA",
",X c #FFECA2",
"<X c #FFECAB",
"1X c #FFF2A3",
"2X c #FFFFA3",
"3X c #FFF6AA",
"4X c #FFFFAC",
"5X c #FFE8B4",
"6X c #FFF3B4",
"7X c #FFFFB4",
"8X c #FFF4B9",
"9X c #FFFEBC",
"0X c gray77",
"qX c #FFEDC4",
"wX c #FFF5C1",
"eX c #FFFFC4",
"rX c #FFFFCB",
"tX c #FFFFD3",
"yX c #FFFFDC",
"uX c #FFFFE4",
"iX c #FFFFEC",
"pX c #FFFFF3",
"aX c #FFFFFE",
/* pixels */
"o O O @ @ # $ % y y y y u u * u f f d f K F Q Q ' ` ] *.*. . ...' ! H F D D D H C N K J f f v v v v v v v x v h v v u y $ # @ + ",
"+ + + # # # # $ y u u u u u u s N J J G F Q ' X.O.` +.t @.*.#.&.%.] ] ` / / ) ] Q D B K j z J b b b J K K J J b b a y y * $ @ @ ",
"@ @ @ # % * # = y a j j j a j Z Z H Q ' ) ' X.+.o.` ` w +.e 5.9.O.~ ` 5 ` o.+.%.r ' H L C B N J K G G G H H B K j s v U c % $ & ",
"+ @ # $ % * # y Z 2 A 2 Z A Z R ~ W ` 6 ~ ` X.w ` / q 4.9.6.%.6.0.q 5 8 0 ^ 3.4.6.q >.( Q L G H Q Q Q Q H H D K N s U U U u u y ",
"+ + # # $ * = y j A R 3 W ^ 3 W 7 ` ` 7 5 ` ` 0 0 5 4.r.g.f.g.g.r.9.` %.w.3.8.l.p.-.w 7 _ ) _ _ / ' ! ! Q Q G G B a n T T b a p ",
"+ @ # $ $ X . y s k R ~ 6 e 9 6 ` X.o.X.7 5 ^ o.&.0 O.k.F.V.Q.I.V.d.q.>.1.q.q.p.q.-.-.-.O.+.+.` #.+.+.' ' ' ! G D j d U J s , y ",
"+ @ # # X . : u u u Z 5 X.t t $.X.$.r t e 0 0 $.6.6.e.K.(.I.oXoX(.J.N.q.1.c.<.>.>.>.y.1.>.3.-.r 4.9.6.5.-.r _ ! Q j s a > , : : ",
"@ @ @   X . . : : p Z ~ o.6.X.o.+.r 9.0.9.6.9.e.r.N.(.(.OX^.OXOX(.I.K.p.y.v.b.;.:.:.:.<.<.y.p.7.a.g.s.r.a.6.%.' Q G R k s , , u ",
"+ # &   X . : . u s F ! X.w ` e 5.4.a.s.a.g.V.N.N.T.oX).OX@X=X+X|.T.J.M.D.v.v.<.:.,.<.<.;.v.Z.p.h.j.s.s.j.a.5.O.@.Q E k s s u y ",
"# * = X X . . i z D E _ 0 w 4.q 6.r.a.g.V.Q.@XT.(.oX=X=X@X@XoX#X{.[.Y.D.Y.E.Y.<.<.<.t.z.t.t.n.M.Z.Z.h.l.l.l.j.7.&.] H B j j u y ",
"& = = = = i x l B Q E q 4.0.k.F.a.0.l.W.Q.OX=XOX;X=X=X=X=X=X].R.[.D.Y.H.!.T.m.c.1.v.v.z.z.z.x.1.u.i.~.L.F.G.C.-.6.X.) F j s p u ",
"x x g g g g z J Z W 7 6.k.V.F.P.Q.k.V./.).=X=X=X2X2X2X;X2X$X].XX.X}.[.!.|.W.Y.D.Y.n.Z.b.b.v.v.z.b.b.A.S.~.L.P.a.t ` ! H j s p a ",
"z V c ; g i z m 2 5 ` 4.N.F.F.^._./.Q.).OX=X@X4X7X7X7X9X4X-X*X*X*X,X3X*X+X+X|.].[.E.[.A.A.x.u.t.u.x.A.A.Z.L.P.a.%.Q H L B d a p ",
"J C h g g g l , S +.6.a.k.V.Q.^.@X@X=X=X=X;X2X7XeXtXeX7X9X7X-X2X2X4X4X2X2X1X-X*X.X$X{.{.L.Z.c.Z.n.z.u.u.Z.D.C.h.&.) F F D j s a ",
"V b l x I x m m S -.0.k.F._._.@X;X;X;X;X4X4X9XrXuXtXtX9X7X4X4X4X9X4X2X-X4X4X4X4X1X1X6X$X|.E.H.Y.n.c.y.y.i.D.D.k.5.@.! H D N s s ",
"V v v Y P P z m M 5 r.g.K.).@X@X2X2X;X2X9X7XrXiXyXuXyXtX9XeX7X9X9XeX7X&X2X9XrXrXeXeX7X9X;XXXL.E.n.n.n.n.u.v.p.k.a.4.] Q G K f s ",
"K J J T Y P m < A 5 a.I._.@X@X=X;X=X=X7X9XrXiXpXpXaXiXiXyXuXtXrX7XrXtX7XrXeXrXrXtXrXtXeX9X3X%X|.Y.M.E.[.A.L.h.V.s.6.o./ R Z N s ",
"V C T T T D Z S 4 %.a.(.;X2X4XeX4X2X;X7X9XtXuXaXaXaXaXpXiXiXyXtXeX9XrXrXuXtXuXrXyXyXuXuXeX3X<X:X[.~.#X&X#XE.(.g.0.4.` ` E Z M s ",
"f G F L G 2 3 4 o.a.Q.@X4X9X9XtXeX2X;X7X9XyXuXaXaXaXaXaXiXiXiXpXrXtXuXuXyXyXiXyXuXiXpXaXpXrX8X>X}.%X<X1X-X$X|.^.a.r X.] W S Z N ",
"l D H D S 3 5 8 6.k.OX;X4XrXuXpXuX9X2X7X9XrXyXpXpXaXaXaXpXpXuXuXeXtXuXiXpXpXrXrXiXiXaXaXaXiXuX>X:X:X6X-X&X$X X~.V.9.O.` ` W 3 D ",
"N M F D S 4 w 3.V.Q.OX;XrXpXaXiXrXeX9X7XtXrXiXiXaXaXpXaX'.pXiXrX9XyXyXuXuXtXtXrXuXpXaXaXaXiXtX>X:X,X&X&X-X=XoX_./.k.r @.X.` / F ",
"N m B B S 4 %.0.Q.=X4XrXuXaXaXaXrX7X3X3X7XyXuXpXpXiXaXpXiXtXeXtXeX8XwXqXyXiXpXuXuXiXpXiXuXyXrX9XeXrX,X<X-XXXOXoX).U.a.%.+.] / Q ",
"B m B F W 6 4.k.=X7XrXaXaXaXaXaXeX8X9X<XeXrXyXyXyXuXuXiXuXtXrXrXeXeXrXiXiXiXyXyXyXuXuXiXaXtX9XrXrX7X-X%X,X*X=X@XOX^.V.4.O.] ` ! ",
"B B G Q W ` 6.V.@X9XtXaXaXaXaXuX5X5X6X4XeXyXiXuXuXuXrXtXyXtXtX9XeXeXrXuXiXyXpXaXiXuXuXpXaXyXeXeXrX9X2X,X,X*X=XoXoXU.l.0.&.X.` ' ",
"D F F Q _ _ 9.J.@X7XyXaXaXaXiX9X>X<X,X9XeXuXuXuXpXuXtXuXuXyXyXtXeXtXtXuXpXpXaXaXaXyXiXiXuXtX9XeX9X7X4X4X4X2X;X;XOXI.P.j.-.+.+.+.",
"Q Q H Q 4 _ 4.V.;XrXpXaXaXpXuX6X}.:X4X9XrXyXtXaXaXuXtXiXuXpXiXrX9XwXrXuXiXpXaXaXaXiXyXaXaXuXtXrX7X2X2X2X4X2X4X=X@X`.G.0.r -.t w ",
"H Q E W R 4 6.(.4XrXaXaXaXiXyX5X>X>X6XrXyXuXyXaXiXuXyXyXiXyXuXrXrX9XeXwXyXaXaXaXaXpXpXaXaXuXpXrX-X4X2X4X4X4X4X=X@X/.j.7.6.4.-.q ",
"H Q E / ( 5 e. X9XiXaXaXaXiXtX5X8X6XeXeXtXuXpXaXpXiXyXtXuXyXtXyXeX8X5XwXuXaXaXaXaXaX'.aXpXaXiX9X,X7X4X4X4X2X2X@X`.I.a.0.5.4.t r ",
"Q Q Q W 5 3.f.oX9XaXaXaXaXuXtXeXeXeXrXuXyXrXaXaXaXaXpXiXiXiXuXuXyX9X6X9XuXaXaXaXaXaXaXuXpXiXyXyXeX<X4X4X;X2X=X=XOXP.s.7.-.r q q ",
"H Q S E 4 0 r.I.eXaXaXaXaXiXiXtX6XeXrXrXeXeXpXaXaXaXaXaXiXuXiXtXtXeXeXiXpXaXaXaXaXaXaXaXuXtXrXrX7X<X[.#X*X+XOX=XOXl.s.5.r w 0 q ",
"H E E W 5 +.e.Q.7XuXaXaXaXiXuXeXeXeXtXtXrXrXtXuXpXpXuXpXpXpXaXiXyXuXuXuXiXaXaXaXaXaXaXaXaXtX7XrX9X4X}.[.].|.=X=XOXF.j.s.0.6.t t ",
"H H ! 5 +.9.g.(.;XtXpXaXpXpXpXaXtXtXeXrXrXrXtXtXuXpXiXpXaXiXuXpXuXaXaXpXpXaXaXaXaXaXaXaXyXtXeXtXrX4X<X,X{. X;X@XOX_.j.s.a.5.q X.",
"R E / 5 %.a.K.OX2XrXtXuXiXpXiXaXtX9X9XeXeXtXrXtXuXpXiXaXpXiXiXiXpXaXaXpXaXpXaXaXaXaXaXpXyXtXuXeX9X1X2X-X{.=X;X=X=XOXU.s.a.4.q 0 ",
"/ ! ~ 0 6.V.^.@X4XrXrXrXiXaXpXpXtX9XwX8XeXrXyXtXrXyXpXaXaXiXrXtXpXaXaXaXpXpXaXaXaXaXaXpXyXiXyX9X9X4X*X#X#X-X=X=X7X=XU.l.9.t X.7 ",
"/ W ' &.r.V._.OX2XtXtXyXyXaXpXiXtXtXrXrXeXeXeXrXtXuXpXaXaXuXrXrXuXaXpXpXpXpXaXaXaXaXaXaXiXiXeXeX7X7X$X{.$X;X2X;X;X`./.P.s.&.q 7 ",
") ` @.q 9.g.Q.=X2X7XuXuXyXpXaXyXuXtXyXrXeX8XwXeXyXpXaXaXaXiXtXrXyXaXaXpXiXaXaXaXaXaXaXaXaXiXeXrXeXrX2X@X;X@X;X2X=XU.C.s.0.t 6 W ",
"/ ^ #.' 9 9.V.I.=X4XyXtXyXuXaXaXiXyXtXrXrXtXrXtXuXaXaXaXaXaXyXtXiXpXpXpXiXpXpXiXpXaXaXaXaXiXuXtXeX;X;X4X4X=X@X/.^.l.9.t 5.q ~ ~ ",
"` ` ` [ q 0.g.J.oX=X9XrXrXuXpXaXaXaXyXrXrXtXyXyXiXaXpXaXaXaXiXpXpXaXiXpXpXaXpXpXaXaXaXaXaXaXyXeX9X7X9XeXeXeX@XOXC.G.0.t e r o.0 ",
"~ X.X.o.4.r.k.K.!.@X4XrXtXrXiXaXaXaXuXyXyXyXtXyXaXyXtXyXiXaXaXaXaXaXpXaXaXaXaXpXpXiXaXaXaXtXuXyXeX7X;XrX9X2X=X/.G.C.s.%.q q X.5 ",
"X.X.X.w 4.e.g.N.I.oX2X7X7XrXrXpXaXaXaXiXpXtXeXyXtXrXrXuXuXaXaXaXaXaXaXaXaXpXuXyXuXaXaXaXaXyXtXrX7X2X9X7X;X;X_.C.s.j.0.q q 0 ^ ~ ",
"` +.X.q t 9.f.N.N.Q.@X2X9X4XeXuXaXaXaXaXaXyXtXrXeXtXrXpXaXaXaXaXaXaXaXaXaXaXiXaXaXaXaXaXaXyXrXtX9X;X2X;X;XOXF.0.0.a.9.q X.6 ^ W ",
"` %.+.%.r 5.f.J.W.oX).@X;X2XeXtXpXaXaXaXaXaXaXuXyXuXaXaXaXaXaXaXaXaXaXaXaXaXaXaXaXaXaXaXaXiXuXyX2X;X=X@X@XOXj.0.7.-.e 6 6 ^ 9 4 ",
"` +.%.&.+.X.6.V.Q.oX^. X@X;X7X9XeXrXyXaXpXaXaXaXaXaXaXaXaXaX0XaXaXaXaXaXaXaXaXaXaXaXaXaXaXyXtXrX7X2X2X=X_.^.j.a.5.7.t ` ~ 5 ^ W ",
"` +.+.t e 4.6.g.T.(.(.@X=X;X;X2X2X4XrXrXuXaXaXaXaXaXaXaXaXaXaXaXaXaXaXaXaXaXaXaXaXaXaXaXuXtXrXeX4X;X2XOX^.U.k.0.4.6.r X.W 3 W 2 ",
"! ] +.w q 4.6.r.T.J. X=X;X=X=X@X=X;X4X7XyXaXaXaXaXaXaXaXaXaXaXaXaXaXaXaXaXaXaXaXaXaXaXiXyXeX9X2X;X2X4X=X^.U.s.0.4.&.@.] W W ~ k ",
"Q X.X.q &.0.e.e.N.J.OX(.@X=X;X=X=X;X4X7XeXiXaXaXaXaXaXaXaXaXaXaXiXiXiXiXaXaXiXaXaXiXpXtXeX9X7X2X;X@X;X@X^.P.0.9.&.+.X./ R R R j ",
"H _ o.%.4.e.r.e.4.T.(.).OX XoX=X;X2X;X2X7XrXpXaXaXaXaXaXaXaXaXpXpXiXuXpXaXuXyXeXeX7XeX4X4X7X4X4X=XOXOXU.g.0.7.4.&.#.*.'  .{ F j ",
"C E o.&.6.r.r.f.r.N.).@X=X=X=X@X=X=X=X4X7XrXyXpXaXaXaXaXaXaXaXuXrXtXyXuXpXpXiXtX4X2X2X;X2X4X4X4X=XOX).l.0.0.0.4.+.....*.| } D j ",
"C S ~ r 6.s.a.a.N.J.^.(.@X=XoX X@X@X;X;X4X7XeXtXaXaXaXaXpXaXaXiXtXyXiXtXpXpXaXpX9X4X2X2X2X4X2X;XOX^.F.a.5.6.9.-.O.#.2. . .} A j ",
"C F E X.r 6.7.r.N.K.oX!.(.Q.E.!.|.@X@X X@X=X2X7XrXiXuXuXuXiXpXuXrXuXiXpXaXaXaXiXeX7X7X4X7X;X@XOX^.F.a.7.4.4.-.t r +.] |  .{ A j ",
"D D E ` 0 w 9.r.k.V. XW.N.H.E.!.(. XoX@XoXW.+X2X7XrXuXiXyXuXuXtXuXiXuXaXaXiXuXuXtXeX9X7X;X;X@XOXU.a.7.7.9.4.%.%.r %.` _ ! Q G k ",
"D C Q / +.w r 5.6.r.K.K.N.^.(.+XW.(.@X@X@X!.J.=X7XeXrXyXeXrXtXtXeXpXiXpXpXiXrXeXyXyXeX7X4X2XOX_.k.a.5.7.5.&.X.o.+._ / ! ! Q G m ",
"C C D Q / ` ` q 4.6.g.V.f.R.(.).(.).|.OXoXQ.W.@X;X4XrXtXrXyXyXyXuXyXtXiXiXrXeX9XtXtX7X2X@XOX_.^.s.7.t %.t %.] / ] ' ) Q Q H L z ",
"z N J C H E ( W _ 5 6.r.f.f.B.L.H.!.OX(. XW.T.oX@X=X;X7XeXeXrXeXtX7X7XrXyXrXrX9X7X;X2X=XOX^.P.C.0.-.t q r %.X.` / ) ! Q H G C f ",
"v b b J C F Q Q A E _ r 6.3.6.f.f.g.V.K.J.V.V.W.!.oXoX@X=X7X9X9X9X4X7X7XtXrXrXrX7X=X=X`.^.P.j.9.-.-.t r %.r X.` ' ~ ! Q H L N a ",
"b b v b B G H F H E ) 0 4.7 5 %.%.6.e.g.V.g.k.g.V.J.J.T.).@X;X7X4X2X2X2X4X7X7X4X;X=XOX/.G.s.6.t -.-.r r $.o.` ` ] / ! Q F G f y ",
"x v v b J N G H E E ! X.r q ` ` ] 0 0.k.a.r.0.e.f.l.F.l.I._.OXOXOXOXOX).@X2X4X2X=X/.P.F.s.0.-.$.$.r +.o.@.] / } ~ / Q H F m a y ",
"; g x l b b D Q Q Q W X.+.O.[ [ ^ 0 6.9.0.4.4.t 9.0.k.j.l.G.^.^.U.P.P.F.Q.OXOX_.U.J.l.a.0.5.t +.o.@.^ X.X.] .. ...{ A 1 1 , u * ",
"- ; c h b N K H H S E X.o.o.X.' / X.9.5.-.4.-.t 4.9.s.a.a.s.j.l.k.l.k.j.k.G.^.P.G.s.9.9.-.+.+.X.] ~ X.@.X.}  .=.{ E A < < , : % ",
"- - ; v b N K D G G H _ ` X.O.' / X.4.5.t -.t t -.5.5.6.5.7.0.7.6.0.0.7.0.r.s.k.s.a.5.-.t O.` ` ` ` X.o.@.' ,.L L H Z < , , y $ ",
"- - g v b b K D D K Q W ` r t +.X.` %.&.%.-.-.t t r t t t -.-.t -.-.-.5.9.a.7.7.9.9.-.r X.X.] X.X.@.o.+.` ! { { L M m , p u * $ ",
"- - x v b f J D G D A Q 8 X.~ X.` ' X.o.q r r %.+.+.+.%.%.t t t -.-.t -.0.0.5.4.4.4.r +.^ ! / X.X.] X.X./ Q H F M j s a p u * # ",
"; ; v v v J K G C D D E ` ` / ~ / ` X.] ` ` #.#.@.+.+.o.X.r t t -.-.5.7.7.0.6.t $.$.%.] / Q Q ! / / ` X.' ! H Z j s p u u y $ # ",
"; g h d d b J J N C L F E R / ~ ~ X.` ' ) ) ' *.| @.+.o.X.+.e t t -.7.6.-.-.-.t o.o.X./ Q H H F Q ! ! / Q F D B j a a a y % # @ "
};
