/* XPM */
static char *result[] = {
/* columns rows colors chars-per-pixel */
"64 64 208 2 ",
"   c #3C3735",
".  c #3D3836",
"X  c #3E3B39",
"o  c #4C3C36",
"O  c #423E3C",
"+  c #543D37",
"@  c #54413B",
"#  c #684437",
"$  c #784A3A",
"%  c #3F4040",
"&  c #444545",
"*  c #4B4644",
"=  c #4E4845",
"-  c #4B4B4A",
";  c #524745",
":  c #544845",
">  c #5C4A45",
",  c #544E4A",
"<  c #5B4E49",
"1  c #52514F",
"2  c #5C524E",
"3  c #555453",
"4  c #595756",
"5  c #5D5956",
"6  c #5C5C5C",
"7  c #644C45",
"8  c #6C4D44",
"9  c #624E49",
"0  c #714F44",
"q  c #784F43",
"w  c #665147",
"e  c #6A5147",
"r  c #64524C",
"t  c #6B544C",
"y  c #755145",
"u  c #7B5345",
"i  c #73554B",
"p  c #7A574B",
"a  c #74584D",
"s  c #7C594D",
"d  c #635652",
"f  c #645955",
"g  c #6C5A55",
"h  c #695C59",
"j  c #735B54",
"k  c #745A54",
"l  c #7C5D54",
"z  c #6D615E",
"x  c #74625D",
"c  c #7B625B",
"v  c #696564",
"b  c #6C6D6C",
"n  c #796A66",
"m  c #787675",
"M  c #7B7A79",
"N  c #8A533F",
"B  c #9B5B3D",
"V  c #A8613C",
"C  c #B4633B",
"Z  c #BB673C",
"A  c #C76C3E",
"S  c #D06F3E",
"D  c #D5703D",
"F  c #DC733E",
"G  c #E2753E",
"H  c #F47B3F",
"J  c #FD7E3F",
"K  c #825444",
"L  c #8B5643",
"P  c #8D5945",
"I  c #845848",
"U  c #845B4C",
"Y  c #8B5D4C",
"T  c #945B43",
"R  c #9B5C44",
"E  c #985C47",
"W  c #935E4C",
"Q  c #835E53",
"!  c #8A5F52",
"~  c #915F51",
"^  c #A25E43",
"/  c #8E604F",
"(  c #9E6144",
")  c #95614D",
"_  c #9C624D",
"`  c #866053",
"'  c #8D6052",
"]  c #83645B",
"[  c #8B665B",
"{  c #8D685C",
"}  c #936252",
"|  c #9B6351",
" . c #94675A",
".. c #A46045",
"X. c #AB6243",
"o. c #A5644D",
"O. c #AB664D",
"+. c #AD684F",
"@. c #B56443",
"#. c #B96543",
"$. c #BC6945",
"%. c #B2674A",
"&. c #B4694D",
"*. c #BB6B4C",
"=. c #A36550",
"-. c #A96650",
";. c #AA6A54",
":. c #B66C51",
">. c #AE725C",
",. c #BD7257",
"<. c #BD755C",
"1. c #876D65",
"2. c #936E63",
"3. c #82716C",
"4. c #8B736C",
"5. c #92746C",
"6. c #9A746A",
"7. c #8B7771",
"8. c #857976",
"9. c #8C7A75",
"0. c #937A73",
"q. c #9C7B72",
"w. c #A77869",
"e. c #B77C6A",
"r. c #C46B46",
"t. c #CC6E45",
"y. c #C36D4B",
"u. c #CA6E4A",
"i. c #D26F43",
"p. c #C97049",
"a. c #CC714A",
"s. c #D57244",
"d. c #DB7446",
"f. c #D37249",
"g. c #DB7549",
"h. c #DD7849",
"j. c #C87658",
"k. c #D77A55",
"l. c #D37D5D",
"z. c #E37645",
"x. c #E57845",
"c. c #EC7A43",
"v. c #EA7A47",
"b. c #F47C42",
"n. c #FA7E41",
"m. c #C27A62",
"M. c #CA7C62",
"N. c #FE813E",
"B. c #B6B677",
"V. c #ED8148",
"C. c #FF8442",
"Z. c #FF8C45",
"A. c #F78348",
"S. c #FF8C4D",
"D. c #FF9047",
"F. c #FF9349",
"G. c #FF9B4D",
"H. c #FF9452",
"J. c #FF9C53",
"K. c #FF9E58",
"L. c #FFA14F",
"P. c #FFA351",
"I. c #FFAC55",
"U. c #FFA65B",
"Y. c #FFAB5C",
"T. c #FFB157",
"R. c #FFB359",
"E. c #FFBC5D",
"W. c #FFAE61",
"Q. c #FFB462",
"!. c #FFBC64",
"~. c #FFC15F",
"^. c #FFC362",
"/. c #FFCB65",
"(. c #FFC56B",
"). c #FFCC6C",
"_. c #FFD067",
"`. c #FFD36A",
"'. c #FFDC6D",
"]. c #FFCF72",
"[. c #FFD472",
"{. c #FFDA75",
"}. c #FFDF79",
"|. c #FFE16F",
" X c #FFE473",
".X c #FFEC75",
"XX c #FFE37A",
"oX c #FFEB7D",
"OX c #FFF177",
"+X c #FFF57A",
"@X c #FFFB7D",
"#X c #FFF583",
"$X c #FFFE84",
"%X c #FFFF8B",
"&X c #FFFF93",
"*X c #FFFF9B",
"=X c #FFFFA3",
"-X c #FFFFAB",
";X c #FFFFB4",
":X c #FFFFBC",
">X c #FFFFC3",
",X c #FFFFCB",
"<X c #FFFFD3",
"1X c #FFFFDB",
"2X c #FFFFE3",
"3X c #FFFFEC",
"4X c #FFFFF3",
"5X c #FFFFFE",
/* pixels */
"% & & & & & & & & & & & & & & - 3 1 1 5 f f g g g g c 9.9.9.0.0.c l l l l l l l l l l j i a k k g g g f f f 5 4 4 4 - & & & & & ",
"& & & & & & & & & & & & & & & & 3 4 d d f f g g g a j 7.0.0.0.0.] Q Q Q Q Q Q Q l l l l a l j k k j j g g f f 5 4 & & & & & & & ",
"& & & & & & & & & & & & & & & & - 5 f f g g j a x l p ] 0.5.] { ` ` ! ! ` ` ` ! ! ! c ` Q l l l j k g j g g f f 2 * 4 b 6 & & & ",
"& & & & & & & & & & & & & & & & = d r w t g j c s l Q U 2.6.' } } } } ' } } } ` ! / ` ` Q Q Q l s c j j j g g f 2 = b b b & & & ",
"& & & & & & & & & & & & & & & - : d r e y i l Q I U U Y } } | } | } } | | | | } | ' ' ' ! ` ! Q ` l l j k g g g d ; v b b 6 - & ",
"& & & & & X X & & & & & & & * ; < g j y i s Q ! / Y ) ) _ | | =.=.=.=.=.o.| =.| | | | } } ` ! ! U c l l j j j g f > < b 4 & X & ",
"& & & & .   . & & & & & & * , f g j s u I ! ! } ) | ) _ =.=.=.-.-.=.=.O.O.-.-.o.=.=.=.| } } ! L I ! Q l l j k j g 9 : , &       ",
"& & & X     . . X & & - 3 f f g k l p p U ! } | _ =.=.=.O.+.&.-.&.&.&.+.&.&.+.:.+.O.=.=._ | | W P U ! Q ` l j k k g > : = X X & ",
"& & & .     . . % - 4 4 5 f g k l l K ! ! } | | =.=.-.O.+.:.*.*.*.:.*.&.,.j.e.j.,.&.+.-.=.=.=.} T P ! ! Q l l j k g r > : * & & ",
"& & & %     % - 4 4 4 4 f k j Q 4.5.2.} | ~ | =.-.&.&.:.*.*.y.y.y.y.y.j.M.j.y.y.m.e.:.&.+.-.=.( E T U ! ! Q l l j k g < : = & & ",
"- - * - - 4 4 4 4 4 4 f h j l l 4.q.q.w.| | =.-.&.&.y.y.y.y.u.u.a.a.t.a.u.f.t.t.j.j.y.:.&.&.:.^ ..W W ' ` ! Q l j j g f : : = & ",
"4 4 4 4 4 4 4 4 4 4 5 f g j l Q !  .w.w.;.=.-.:.*.*.y.u.u.u.u.d.d.f.d.f.d.d.i.i.u.f.u.y.y.*.:.&.o.o.| } Y ! U s l k j g < : = & ",
"4 4 4 4 4 4 4 4 4 5 d t a p l ! ! w.w.w.;.&.&.*.y.y.u.f.d.d.g.z.x.x.x.z.z.z.z.x.g.d.d.d.f.a.y.:.+.=.=.| ) U U s l j k g g : ; * ",
"4 4 4 4 4 4 4 4 5 f d t k p Q ! W =.o.^ %.y.y.y.u.f.f.d.d.x.x.c.b.b.J c.c.b.H c.z.x.c.b.x.g.y.*.&.&.-.=._ Y U s l l k g g < ; * ",
"4 4 4 6 b v 4 5 f f k k l Q ! W R X.%.#.r.f.f.d.d.g.z.z.x.c.b.H n.Z.D.Z.C.F.F.C.n.n.n.n.c.d.f.y.y.*.+.=.| Y U l l l k k g f : * ",
"4 4 4 M M m 4 f f g k Q Q ~ | ^ X.@.u.t.i.d.z.v.v.c.c.v.b.H N.Z.F.J.I.I.R.^.R.L.Z.F.Z.n.b.x.d.f.f.u.&.-.| | Y ! Q l l k g h < ; ",
"4 4 v M M M 6 h g k Q ! ~ ~ =.O.#.u.s.z.x.b.b.C.N.N.N.N.C.Z.F.L.I.R.~./.`.`./.R.T.G.D.Z.C.n.x.d.g.g.u.*.=.| } ` ` l l t e e d ; ",
"4 4 b M M v h h k l ! ~ =.-.&.*.u.d.b.J C.Z.Z.L.R.R.L.F.D.G.T.R./.`.'. X+X@X+X!.R.I.G.P.F.Z.b.b.x.x.f.y.&.-.| ` Q Q a k e w 9 , ",
"3 4 4 b v 5 f g Q ! | O.-.*.y.f.g.n.D.I.R.R.R.^./._._.R.I.E./.|.OX&X*X%X$X@X X.X`.R.I.I.P.G.Z.C.J b.g.u.*.-.| } ! Q l l t w 9 2 ",
"- 3 4 4 4 f g l ! | %.*.u.u.g.b.C.F.I.E.@X@X X|.|.|.`.`._.OX|.$X$X;X:X:X%X%X@X@X%X/.R.P.P.F.G.D.C.n.b.g.y.&.o.| ! 5.] j e 7 7 d ",
"3 1 4 4 5 h g Q } O.&.i.b.b.b.C.T.T.^. X$X@X.X@X'.'..X X XOX@X&X;X>X>X:X-X&X%X$X*X*X_.R.P.G.G.D.Z.Z.b.z.p.*.+._ } 2.5.c j w 2 r ",
"- 1 1 4 5 g l Q | O.d.x.J J G.~.T.^.`.OX$X+X|.OX'..X.X%X%X*X=X:X>X>X,X:X3X=X:X=X-X$X@X`.R.L.G.D.G.Z.N.H i.*.%.o.| ' 5.0.1.n d f ",
"3 1 4 4 f g l ! | %.t.x.Z.Z.T. X.X$X$X%X@X@X$X$XOX@X%X=X;X:X2X4X:X>X<X>X:X-X:X;X;X%X$X'.^.I.F.F.Z.Z.Z.A.d.y.%.o.| ' ` c c g g f ",
"3 3 4 4 d n 4. .>.j.g.J S.G.~.'.$X$X=X*X$X%X&X=X&X%X*X;X>X>X3X2X1X<X<X:X=X-X-X-X%X=X$X'.^.R.G.Z.F.Z.C.H z.t.*.&.| | Y c l j f f ",
"4 4 4 4 f n q.w.B.M.v.n.G.L.R.@X$X%X=X@X&X&X*X*X=X-X-X:X>X,X5X5X3X<X1X>X;X-X=X*X&X%X%X.X/.R.G.F.F.D.Z.N.b.z.y.:.-.| ' Q l k g f ",
"4 4 4 5 g l q.w.>.k.v.H.T.~. X$X@X@X&X=X=X&X&X*X-X>X>X>X,X,X1X5X4X5X2X>X;X-X=X=X*X%X%X.X_.T.G.F.F.F.C.C.n.b.g.y.-.| ` ` l j t r ",
"4 4 4 f k l ~ w.e.l.n.K.E.^.+X.X%X%X&X*XB.&X*X-X:X:X<X<X<X2X1X<X5X5X4X;X>X:X=X=X=X=X&XOX'.~.L.F.Z.C.Z.C.n.b.z.u.+.| } U l # # o ",
"4 4 4 f k l ~ =.y.f.n.U.^..X=X:X%X*X=X;X-X;X;X1X>X>X>X1X>X<X<X2X5X2X2X1X;X;X-X=X=X=X&X+X'.`.I.I.L.G.S.Z.C.n.z.y.&.=.' K # # # + ",
"4 4 4 f k Q ~ o.*.f.c.G.$X%X,X>X,X,X1X:X:X:X>X,X<X2X1X,X<X<X2X4X5X5X5X2X,X>X;X-X&X-X$X@XOX X`.R.P.G.D.D.C.b.f.y.-.^ L $ $ # # + ",
"4 4 f g k Q ! | &.u.b.I. X@X:X<X<X:X1X<X<X,X<X1X2X2X5X4X2X2X3X4X5X5X5X4X<X>X:X-X&X%XOX+X$X@X|.E.R.L.Z.C.n.v.d.y.&.R N N # # # + ",
"4 4 5 g k Q ! | -.y.d.J.`.$X&X>X>X,X2X,X<X1X3X3X3X3X5X2X4X3X4X5X5X5X5X4X<X,X<X-X*X$X$XOX+X+X XE.E.G.Z.n.c.g.u.y.X.R L $ $ # # 7 ",
"4 4 f f k Q ! } o.O.S Z.^.&X*X:X:X;X>X:X2X3X3X5X5X5X3X3X4X5X5X5X5X5X5X5X<X-X=X=X&X%X@X.XOX|..X_./.R.Z.C.b.d.u.#.^ R L K u 8 8 > ",
", 3 f g j l ` ' E o.Z Z.U.XX$X$X;X:X-X,X3X5X3X5X5X5X5X5X5X5X5X5X5X5X5X5X4X:X-X*X&X%XOXoX X'.`.`.^.R.I.F.n.v.t.@.^ T L K q 8 8 > ",
"3 4 f g j l U / W R C h.!.^.[.XX&X=X:X>X:X<X<X5X5X5X5X5X5X5X5X5X5X5X5X5X3X;X=X*X=X&X#X@XOX.X|._./.~.I.G.Z.x.u.@.^ T L K q 0 7 # ",
"4 4 b 3.7.5.2.U W R V z.R.XX}.{.&X;X>X:X;X1X5X4X5X5X5X5X5X5X5X5X5X5X5X5X<X:X=X*X;X%X%X$X$X$X.X`.^.R.I.I.N.x.a.#.^ R L K q 0 7 7 ",
"4 5 8.8.0.0.5.[ P T C v.!.XXXX#X#X%X=X-X-X,X4X1X5X5X5X5X5X5X5X5X5X5X5X5X4X>X-X=X:X&X%X&X$X$X|._.^.E.L.G.H v.a.%.^ T L K q 8 7 7 ",
"4 5 m 9.7.1.q. .I N C d.H.!.#X#X%X*X*X-X:X,X4X4X5X5X5X5X5X5X5X5X5X5X5X1X<X<X2X:X,X-X&X&X%X.X|._./.R.P.Z.H z.a.:.^ T I K q 0 8 7 ",
"3 5 z 8.9.{ ' / Y L B A S.K.[.#X&X*X*X-X>X,X>X1X4X5X3X4X5X5X5X5X5X5X5X<X<X1X<X2X;X*X*X*X$X@X+X|.R.I.G.G.b.d.a.m.>.T L K q 0 8 7 ",
"1 1 5 g c l U / / N V Z s.H.XX&X*X,X-X-X:X,X<X3X2X5X3X3X4X5X5X5X5X5X4X1X>X;X=X-X-X=X*X&X$X@X.X_.E.R.L.J c.g.j.m.e.~ L q q 0 8 7 ",
"3 2 2 g j c ` / / ( B C r.(.#X%X;X:X:X-X1X>X<X5X1X<X5X5X4X5X5X5X5X5X2X,X;X-X-X=X=X*X%X%X@X`._./.~.R.G.H z.g.j.m.e.~ L u q 0 8 7 ",
"4 5 d f j l ` W ) ( ( V Z G.%X=X>X<X;X;X;X3X2X5X3X3X4X3X5X5X5X5X3X3X1X>X:X=X-X=X;X&X%X+XXX).^.E.!.P.S.b.z.f.y.e.w.~ L q q y 8 7 ",
"4 5 f g g c Q } | o.( V C F *X=X&X*X=X=X1X5X5X4X5X4X2X1X4X5X5X5X5X2X,X>X>X:X-X;X&X#XoXXX[.^.I.G.D.Z.J c.d.t.#.&.=.~ U p q y 8 7 ",
"4 5 f f g j l ' | ) ( B B V Y.!.Q.*X*X%X;X>X,X3X5X3X<X1X1X5X5X5X5X2X<X:X1X;X<X-X%XXX}.[.`.Q.L.Z.N.H b.z.s.r.#.=.~ ~ ~ K y q 8 7 ",
"4 5 f f g k l ` ` U $ N ( B A V.H.[.%X;X*X*X:X3X5X2X2X<X<X1X5X5X1X:X,X,X3X<X<X#X#XXX[.).Q.P.G.C.b.b.z.s.i.y.:.=.=.~ ! Q y q 8 7 ",
"4 5 f f f g j Q ` s u I P P A A v.W.[.%X*X=X1X2X5X1X-X;X;X:X<X4X<X-X=X:X<X;X=X#X{.[.].(.Y.F.n.n.b.x.g.f.y.*.-.-.~ ~ ~ Q q 8 8 7 ",
"4 4 5 r w e i l U s s s I K V A i.).XX#X$X=X-X2X2X*X#X=X*X;X=X>X:X>X:X;X*X<X,X&X].^.!.I.G.Z.n.c.z.g.f.y.*.&.o.~ ~ ! ~ Q l 0 8 7 ",
"4 4 3 9 9 r t i l l s s u u P V V.).{.%X#X*X-X,X<X=X(.{.*X&X}.$X=X<X<X-X$X=X=XXX!.Y.P.J.Z.n.b.x.d.s.y.y.:.-.=.=. .w.2.1.0.4.k 7 ",
"4 , , < 9 w e y j l s s s u B T R S. X%X%X%X*X-X=X!.W.W.].].(.].{.#X*X&X*X*X#X(.U.G.Z.Z.N.b.x.x.k.j.y.:.&.-.=.~  .q.q.0.0.7.k 7 ",
"4 , , , < 7 t j j l l U U U I B ..C A.Y.(.A.P.[.(.S.H.K.K.W.W.R.).%X%X%X#XU.Y.J.H.n.b.n.b.v.z.k.k.l.j.:.-.=.| } } 2.q.0.0.4.e 7 ",
"4 3 , < 9 9 t g j j l ! ` Q / I E X.C A.G.d.x.v.d.x.V.S.S.F.H.K.R.#XXXH.F.S.S.S.A.c.x.v.c.v.h.l.l.j.j.+.o.=.| } } ` { 4.4.n t > ",
"4 4 3 , < < d g j j l c ! ` / ) W T V A.b.F A C Z S D F G H c.c.A.A.J.A.v.V.c.V.G G z.z.z.d.g.l.j.j.&.+.=.| } } ! ! l l l k g < ",
"4 4 4 4 5 d f g g j j l Q ` } ) | ( o.o.O.$.@.@.Z t.d.d.d.s.D F F d.G d.s.S S D d.z.g.f.f.f.u.j.:.%.%.o.o.| ~ ' ! Q l l k k g 9 ",
"4 4 4 4 4 5 f g g j j j l c Y } ) _ ..+.&.*.*.r.t.u.f.f.g.f.d.d.d.s.i.r.S A i.s.d.d.f.u.u.u.*.*.&.O.O.o._ ) } ` ! l l l k g g d ",
"4 4 4 4 4 4 f f g g j j l l l U P E ..X.+.+.&.&.*.r.u.u.a.f.f.f.f.g.k.a.t.t.t.t.i.u.u.y.y.*.*.&.%.o._ | | } ` ! c l l j k g f d ",
"4 4 4 4 4 4 5 5 f g j j k c s u K ) ) _ o.o.+.%.%.*.*.y.p.a.p.u.j.l.j.a.u.y.u.u.y.y.y.*.&.&.&.+.o.o._ } } } ` ! Q l k k k g f < ",
"4 4 4 4 4 4 5 h f f n n n c j ` 2.[ } | | | =.-.%.%.%.&.*.*.*.y.p.M.m.l.j.*.y.*.*.*.&.:.-.-.O.=.o._ ) Y ` ` ! l l j k g g h < ; ",
"4 4 4 4 4 4 4 4 f f z 8.B.7.3.4.0.` ! ` } } | | =.-.-.&.&.&.&.%.*.:.<.<.j.:.&.&.&.+.O.-.=.=.=.| | } ! ! Q Q Q l l j k g r < ; - ",
"4 4 4 4 4 4 4 4 5 f f g 6 m 9.7.c l c ! ! ' } } | | =.=.=.O.X.O.O.+.+.+.O.-.+.O.-.O.=.=.=.| | | } ! ! ! Q 1.4.0.9.3.9 + + + @ & ",
"4 4 4 4 4 4 4 4 4 3 2 2 d g g k j j l Q ! ! ` ' } } | | | o.o.o.o.o.o.^ ..=.=.=.=.| | | | } } } ! ! Q Q l 4.9.9.3.w 7 o o o O & ",
"4 4 4 4 4 4 4 4 4 4 3 2 2 d f g g g k k l l ! ! ! ~ } } } } E E E ( R R ( | o.) | | | } } ' ! ` Q l l l j 1.9.3.x g > @ o O & & ",
"4 4 4 4 4 4 4 4 4 4 1 3 2 2 f f g g k g k l l Q ! ` ! ` ` } } W W T T W W W W W ~ } ~ ` ! ! Q ` l l l l k k 3.n v > : ; O & & & ",
"4 4 4 4 4 4 4 4 4 4 1 1 3 2 d f f g g g g k k l l Q Q ! ` ! ` ! U Y / ' ! Y Y Y ! ` ` ! Q c l l l j j j k g g r > ; = & & & & & ",
"4 4 4 4 4 4 3 4 4 4 4 3 4 2 2 5 f f f f g g l 3.] l l l l Q Q ! ! ! ` ! ! ! Q ! ` Q Q l l k j j j j g g k g f < : ; * & & & & & ",
"4 4 3 - - 4 4 4 4 4 4 4 3 - - 2 , 5 f f g v v 8.9.n k k l l l l l l l l l l l l l j j j j k j j j g g g g f f 5 = & & & & & & & "
};
