/* XPM */
static char *result[] = {
/* columns rows colors chars-per-pixel */
"64 64 184 2 ",
"   c #0D020A",
".  c #11060F",
"X  c #181015",
"o  c #121218",
"O  c #191418",
"+  c #1B1B1C",
"@  c #221D1E",
"#  c #221F24",
"$  c #242126",
"%  c #282427",
"&  c #22232D",
"*  c #2C272C",
"=  c #2D2A2D",
"-  c #2D2E31",
";  c #292B37",
":  c #312D32",
">  c #2F3032",
",  c #2F313D",
"<  c #323335",
"1  c #3C3735",
"2  c #3D3836",
"3  c #353539",
"4  c #373A3B",
"5  c #3C3B3C",
"6  c #413F3E",
"7  c #7D2725",
"8  c #44413F",
"9  c #2E2D44",
"0  c #313344",
"q  c #3E3E42",
"w  c #333648",
"e  c #36394B",
"r  c #3B3C4B",
"t  c #3C3E52",
"y  c #342F6F",
"u  c #3D3A65",
"i  c #373578",
"p  c #433C41",
"a  c #3F4041",
"s  c #3E4155",
"d  c #444545",
"f  c #494345",
"g  c #4D4A47",
"h  c #45444B",
"j  c #474848",
"k  c #4B4B4B",
"l  c #524D4A",
"z  c #594B4B",
"x  c #52514F",
"c  c #414454",
"v  c #464955",
"b  c #4D4E52",
"n  c #41455C",
"m  c #4A4D59",
"M  c #524F54",
"N  c #4F5051",
"B  c #4E515E",
"V  c #555453",
"C  c #585756",
"Z  c #5D5A56",
"A  c #56565B",
"S  c #595759",
"D  c #5C5B5B",
"F  c #625E5C",
"G  c #795D5A",
"H  c #5F605F",
"J  c #61605F",
"K  c #7C605D",
"L  c #444761",
"P  c #464A65",
"I  c #494E6A",
"U  c #555564",
"Y  c #5E5E60",
"T  c #54546B",
"R  c #5A5B6B",
"E  c #4B4979",
"W  c #535373",
"Q  c #595B78",
"!  c #605F60",
"~  c #5F637B",
"^  c #646463",
"/  c #696867",
"(  c #67676A",
")  c #6C6C6B",
"_  c #706F6E",
"`  c #6F706F",
"'  c #76746C",
"]  c #616578",
"[  c #747474",
"{  c #787676",
"}  c #797877",
"|  c #787778",
" . c #777878",
".. c #7B7B7B",
"X. c #E53733",
"o. c #E23D39",
"O. c #AF3E59",
"+. c #B23E54",
"@. c #B7485C",
"#. c #966B5C",
"$. c #AC4963",
"%. c #807F7F",
"&. c #D97472",
"*. c #E37472",
"=. c #E27875",
"-. c #E07C79",
";. c #423F94",
":. c #464289",
">. c #4B4889",
",. c #4E508A",
"<. c #52538A",
"1. c #454295",
"2. c #484696",
"3. c #4B4E94",
"4. c #44449C",
"5. c #4A4E9C",
"6. c #53529D",
"7. c #59579D",
"8. c #5B5B9F",
"9. c #68698C",
"0. c #7D7E80",
"q. c #7C7E88",
"w. c #646499",
"e. c #777891",
"r. c #4A4DA1",
"t. c #4848A6",
"y. c #4648AB",
"u. c #4B51A3",
"i. c #4A52AE",
"p. c #5455A0",
"a. c #4649B1",
"s. c #434ABB",
"d. c #6E6DA1",
"f. c #7877A6",
"g. c #3F4FE5",
"h. c #404DD7",
"j. c #404DD9",
"k. c #4352D2",
"l. c #4053E5",
"z. c #838484",
"x. c #82838B",
"c. c #868888",
"v. c #8C8C8C",
"b. c #989683",
"n. c #8E8F90",
"m. c #8A8A9B",
"M. c #918F91",
"N. c #939394",
"B. c #989798",
"V. c #96999A",
"C. c #9C9C9C",
"Z. c #9FA09F",
"A. c #A7A69A",
"S. c #8B8AA7",
"D. c #AB9CA4",
"F. c #9FA2A2",
"G. c #A2A3A3",
"H. c #AAA4A8",
"J. c #A7A8A9",
"K. c #ACADAD",
"L. c #B5A4A3",
"P. c #A2A2B1",
"I. c #AFB0B0",
"U. c #B3B4B4",
"Y. c #B7B7B8",
"T. c #B7B8B8",
"R. c #BABBBB",
"E. c #C0C0BF",
"W. c #BEBDC2",
"Q. c #C2C2C2",
"!. c #C7C8C7",
"~. c #C7C7C8",
"^. c #CDCDCC",
"/. c #D1C7C7",
"(. c #CFD0D0",
"). c #D3D3D3",
"_. c #D8D7D7",
"`. c #DCDCDC",
"'. c #E0E0DF",
"]. c #E4E4E3",
"[. c #ECECEB",
"{. c #EFF0F0",
"}. c #F5F5F5",
"|. c #FEFEFE",
/* pixels */
"C C C C C C C C C C C C C C C C Z V Z C C C C C C x V V C C V l V C C C C C C C V x x V N x C C C C C C C j d d d d d d d d d a ",
"C C C C C C C C C C C C C C V x l V V Z C C C C x x C C C C C V V C C C C C C C V x x x x C C C C C C C C j d d d d d d d d d d ",
"V C C C C C C C C C C C V V l l l V Z V C C C V V ) G.F.v.N.c.z.z.c.N.z.C.G.[ C V V V V C C ' ^ C C C C C g d d d d d d d d d d ",
"l C C C C C C C C C C C Z l l l l l x Z C C / v.v.^ / ..B.J.H.G.G.G.A.v.[ ) ! c.v.) C C C ) ..} } D C C C k 6 6 6 d d d d d d d ",
"l C C C C C C C C C C C C l l l l l l V C v.A.b.q.K.`.|.|.}.}.}.[.[.[.[.].~.U.x.b.A.v.C C / ..} ..' C C C k 1 1 1 2 d d d d d d ",
"C C C C C C C C C C C C V l g l l l g V z.C.' k v.^.[.|.}.[.].[.].].].].].`.~.M.k ' N.v.C C / ..{ ^ C C C V 1 1 1 2 5 d d d d d ",
"C C C C C C C C C C C C C V l z l x V C G.( l p v.Q.|.|.'.).).)._._.)._.].'.Q.M.f k ^ J.C C C J C C C C C C 6 1 2 2 5 j d d d d ",
"C C C C C C C C C C C C C C C C x l C C N.^ 3 p v.~.|.|.^.Q.Q.Q.Q.Q.Q.~.].'.~.M.f < ^ n.C C C C C C C C C C k 2 2 d d d d d d d ",
"C C C C C C C C C C C C C C C C C C C C V ( + p v.).|.|.K.I.I.I.K.U.I.G.].'.!.N.f . ) V C C C C C C C C C C V d 2 d d j d d d d ",
"C C C C V V C C C C C C C C C C C C C C k (   p v.'.|.}.v.Z.C.Z.C.C.Z.n._.'.(.M.p   / C C C C C C C C C C C C k d d d d d d d d ",
"C C x x x x V ^ ) C C C C C C C C C Z V C ^   5 v.}.|.'.) c.v.v.v.v.c.` Q.].`.M.f   ^ Z x C C C C C V x C C C V d d d d d d d d ",
"C V V x x x Z } _ C C C C C C C C C H H D H   q G.|.|.E.+ 3 d V V d 4 + H.'.'.G.p   A V V C C C C V x x V C C C k d d d d d d d ",
"x V x x x x ) ../ C C C C C C C C C Z ^ D A   p ).|.|.U.J.R.Q.Q.E.R.U.C.C.'.'.Q.f   A S C C C C C V x x V C C C V d d d d d d d ",
"l V x x V C { } J C C C C C C C C C Z ^ / V   M {.U.%...V % @ @ # @ = V [ [ G._.Y   V C C C C C C V x x C C C C C j d d d d d d ",
"l V V C C C } ' Z x V Z C C C C C C C { ) b   C.R.3 5 M V d 3 ; % j C V C D < C.C.  b C C C C V C C V V C C C C C k d d d d d d ",
"x C C C C C { _ F l x C C C C C C C Z ..) 5 _ j < < ; p & o 5 a o 3 0 5 q 4 d A p | p b C C C x x V C C C C H C C V d d d d d j ",
"l Z C C C C F } / l l V Z V C C C C J } ) 8 (.D 3 & 0 r & & & & , r r r r , & , h _.5 C C C C l g g C C C ' ) C C C g d d j V V ",
"Z V C C C C C C J V l x V Z C C C C F ) C ) ].n.w 0 s t 0 0 0 0 t s s s s w w w x.].[ C C C C V l g Z ` H } [ V C C V V C C C l ",
"C C C C C C C C C x l x Z C C C C C C V j 5 v.Y.n n L u s s n L L L P L n n n n I.B.2 j V N N x x l V } } ..) x l x V l x C C x ",
"C C C C C C C C C x l V V C C C C C V O O e % I.] P I I I I I I I I I I I I P T U.# r O X k N V x g l ' ..' Z V l l l l l C C V ",
"Z C C C C C C C C C V C C C C C C C V c ] ~ # Y ).^.W.Y.Y.Y.Y.R.Y.R.Y.Y.R.R.^._.( # Q ] v V V l x l x H J C C C V l l l l Z C C ",
"^ C C C C C C C C C C C V C C C C C V k M k : m ).].].].].].].].].].].].].].].).B < j C V C C V V V C C C C C C C C l l Z V C C ",
"^ D C C C C C C C C V V N C C C C C V x x d 3 U ).'.'.'.`.'.'.'.'.'.'.'.].`.`.).U 4 d C C C C C Z C C C C C C C C C C C C C C C ",
"} ) C C C C C C C x x x x C C C C C V x x d $ U ).`.`.`.`.`.`.`.`.`.`.`.`.`.`.^.m % d C C C C C C C C C C C C C C C C C C C C C ",
"..J C C C C C C C x x V V x C C C C V V V { $ m )._._.`.`._.`._._.`._._._.`._.^.v % { V V V C C C C C C C C C C C C V x C C C C ",
"^ C C C C C C C V x N N V C C C C C C C C G.$ m /.*.*.*.&.K.R.~.W.P.S.7.p.6.u.f.:.y m.m x V C C C C C C C C C C C C x x C C V V ",
"C C C C C C C C C x V C C C C C C C C C C C.3 m /.=.*.&.&.V.I.S.d.7.5.t.y.a.a.y.;.;.7.:.E A C C C C C C C C C C C C x x x x V D ",
"C C C C C C C S C C C C C C C C C C C C A ( 9 I D.@.@.@.$.e.f.p.r.t.s.j.l.l.l.l.h.s.t.1.1.:.W T T T U U U U U A C V x x V J { ..",
"C C C C C C S A U T T W W ,.,.,.3.3.5.5.5.5.5.u.u.r.u.u.u.u.u.u.r.i.k.l.l.l.l.g.l.k.i.u.u.u.u.u.u.u.u.u.5.u.5.5.5.5.3.,.<.w.9.9.",
"C C C Z C V V C C C C C C C C C C C C C S h 9 U D.+.+.+.O.~ <.2.2.t.s.j.l.l.g.g.h.s.4.1.2.>.W T U U U U U A S S C C C C ` [ } } ",
"C C C V x x x x C V C C C C C C C C C C C d 3 B L.-.-.-.-.z B E :.2.;.t.y.a.a.y.4.;.;.:.E A C C C C C C C C C C C C C C C J ....",
"C C C x x V x x x V C C C C C C C C C C C d * m L.o.X.X.X.7 5 p t u i t.;.t.;.8.>.y u U C C C C C C C C C C C C C C C C C J ..{ ",
"Z V l l l x V x C / ^ C C C C C C C C C C 5 = m I.n.n.n.n.c.` ^ ! [ x.n.n.n.n.E.m * 3 l C C C C C C C C C C C C C C C C C C J Z ",
"C Z x l k k C ^ } ..[ D C C C C C C C C C d = m (.K.K.K.K.K.K.K.K.K.K.K.K.K.K.(.m = 6 l V C C C C C C C C C C C C C C C C C C C ",
"C C V l l V C ) ..{ } / C C C C C C C C C Z.q U (.T.T.T.T.T.T.T.Y.Y.Y.Y.T.T.T.^.B p C.l Z C C C C C C C C C C C C C C C C C C C ",
"C C C x l k V ' { C ^ H C C C C C C C C C C.3 B ).U.T.U.U.U.U.U.Y.U.U.U.U.Y.U.~.v 3 Z.V x C C C C C C C x F J Z C C C C C C C C ",
"C C V x x l l ' ) C C C C C C C C C C N x c.= V (.I.I.I.I.I.I.I.I.U.U.I.U.I.U.~.b = z.l l l C C C C C V V Z { J C C C C C C C C ",
"C V x x C C C C C C C C V V C C C C V V x V - ^ (.I.K.I.I.K.I.I.K.K.K.K.K.K.K.~. .: / V l x C C C V x N l F ) [ C C C C C C C C ",
"C V x x x Z C C C C V x x x C C C C C V x ` G.F.N.0.0.0.0.0.0.0.0.0.0.0.0.0.0.N.G.G.z.C C C C C l x x x l z F { C C C C C C C C ",
"C C x x C C C C C x x x x x C C C C C V V / ....0.z.0.c.v.v.n.n.v.v.v.v.c.z.0... ...{ D C C S V V x x V x V F _ C C C C C C C C ",
"C C V V C C C C C V C x x x C C C C C C C ( .   4 [ [ [ [ [ R [  .H [ [  .[ [ a     [ Y C C C V x x V V C ^ { / C C C C C C C C ",
"C C C C C C C C C C C C V V C C C C C C / z.$   a ....0. .0.j  ...d ........0.a   > 0.[ C C C C V V C C C ' { Z C C C C C C C C ",
"C C C C C C C C C C C C C C C C C C C C c.z...C.d z.z.D q.z.j z.z.j z.0.Y 0.0.j A j ..c.C C C C C C C C C ^ Z C C C C C C C C C ",
"C C C C C C C C C C C C C C C C C C C C v.z.z.B.j c.x.k c.c.k c.c.k c.c.V c.c.N I.n.0.c.C C C C C C C C C C C C C C C C C C C C ",
"C C C C C C C C C C C C C C C C C C C C c.z.S < b n.n.b n.n.k n.n.k n.n.C n.n.N D A ..v.C C C C C C C C C C C C C C C C C C x x ",
"C C C C C C C C C C C C C C C C C C C C z.z.N.N.V N.N.N N.N.b N.N.b N.N.S N.N.S * ..0.c.C C C C C C C C C C C C C C C C C V V x ",
"C C C C C C C C C C C C C D ^ C C C C C ..x.) U.D C.V.V C.V.k C.V.N Z.V.D C.V.H J.{ ..c.C C C C C C C C V C C C C V C C C C C V ",
"C C C C C C C C C C C C ) ....` Z C C C { z.C.v.! F.F.C F.G.b F.F.N F.F.Y F.F.^ H n.0.c.C C C C C C C C Z x l V x l V C C C C C ",
"C C C C C C C C C V V x J [ } ../ C C C [ z.^ ( / J.J.A J.J.b J.J.V J.J.H J.J.( % D 0.z.C C C C C C C C V l l l l l C C C C C C ",
"C C C C C C C C C x x N x / ' } ^ C C C } x.0.2 ) K.K.S K.K.N I.K.A K.K./ I.K.` V.%.0.} C C C C C C C C V x l l l V C C C C C C ",
"C C C C C C C C x x V V N V ) / C C C C [ z.{ U.[ U.U.D U.U.N U.U.C U.U.( U.U.[ J.{ 0. .C C C C C C C C C x x V C C C C C C C C ",
"C C C C C C C C C C C x x C C C C C C C J ..N.)  .R.R.Y R.R.V R.R.S R.R.) R.R...0.J.{ J C C C C C C C C C C C C C C C C C C C C ",
"C C C C C C C C C C Z x V C C C C C C C C N ^ a ..Q.E.Y Q.Q.N E.E.A Q.Q.) E.Q...%.Z N S C C C C C C V x V C C C C C C C C C C C ",
"C C C C ) ' ^ C C C C C C C C C C C C C V 8 ..F.z.~.!.^ !.!.V ~.~.D !.!.[ ~.~.z.[ v.d V C C C C C V x N x C C C C C C C C C C C ",
"C C C ) ....[ C C C C C C C C C C C C C C d D n.c.^.^./ ^.^.V ^.^.H ^.^.[ ^.^.c.F.[ d C C C C C V x x x x C C C C C C C C C C C ",
"V k N ) ) { } C C C C C C C C C C C C C C g Y > v._._.!.)._.V )._.H ).).^.)._.n.) D g C C C C C V C x x x C C C C C C C C C C C ",
"d d j F D _ ..Z C C C C C C C C D H C C H H > > N.`.`.`.`.`.c.`.`.v.`.`.`.`.`.N.< > H H C C C C C C C V C C C C C C C V k V V C ",
"d d d d C l _ V C C C C C C C ) ..' C C Z.V.> a j c.x.x.z.c.c.z.z.c.x.x.z.c.c.j 4 < V.J.' H Z C C C C C C C C C V x j d d d j V ",
"d d d d g d g V C C C C C C ^ } ..) C C G.C.d Z 4 V V V V V V k j V V V V V V 5 C g V.I.J Z l C C C C C C C C x d d k ^ ) D d j ",
"d d d 6 6 6 6 V C C C C C C ' ..} ^ C C z.G.G #.= * * * * * = ^ ) = * * * * * = #.K Z.n.C J x l V C C C C V j d d g ` ) ) ) d d ",
"d d d d 1 1 6 x C C C C C C ` ......N j d z.n.` k 4 3 3 > > > 4 4 > - < 3 3 q k ) n.N.V l l l l C Z C V k d d d d 8 C ) ` H a j ",
"d d d d 5 1 1 g C C C C C C ^ [ [ ` j d d d d Y { .. . .0......... .{ } [ | 0...` C / l g g l l C V k d d d d d 6 1 d H d d d d ",
"d d d d d 5 6 d x C C C C C x j D N d d d d d d d d d d d d d d d a 1 1 2 2 V C Z C V l g l x x k d j d d d d d 2 2 5 d d d d d ",
"d d d d d d d d d k x N k j d d d d d d d d d d d d d d d d d d d d 6 1 5 2 l C V Z V V V l k d d d d d d d d d d 2 a d d d d d "
};
