/* XPM */
static char *result[] = {
/* columns rows colors chars-per-pixel */
"64 64 202 2 ",
"   c #0D020A",
".  c #11060F",
"X  c #191418",
"o  c #18161A",
"O  c #221D1E",
"+  c #221F24",
"@  c #242126",
"#  c #282427",
"$  c #22232D",
"%  c #2C272C",
"&  c #2D2A2D",
"*  c #2D2E31",
"=  c #312D32",
"-  c #2F3032",
";  c #2F313D",
":  c #323335",
">  c #3C3735",
",  c #3D3836",
"<  c #35353A",
"1  c #373A3B",
"2  c #3C3B3C",
"3  c #47272A",
"4  c #413F3E",
"5  c #4E3B3B",
"6  c #7F3C39",
"7  c #44413F",
"8  c #6E413F",
"9  c #313344",
"0  c #3E3E42",
"q  c #343749",
"w  c #3B3C4B",
"e  c #393B52",
"r  c #433C41",
"t  c #3F4040",
"y  c #3E4155",
"u  c #444545",
"i  c #494345",
"p  c #4D4A47",
"a  c #45464A",
"s  c #4B4B4B",
"d  c #524D4A",
"f  c #52514F",
"g  c #434756",
"h  c #4D4E52",
"j  c #41455C",
"k  c #4A4D5A",
"l  c #4F5051",
"z  c #4E515E",
"x  c #555453",
"c  c #585756",
"v  c #5D5A56",
"b  c #555659",
"n  c #585759",
"m  c #5C5B5B",
"M  c #6B4B55",
"N  c #645655",
"B  c #6C5655",
"V  c #625E5C",
"C  c #735654",
"Z  c #7C5452",
"A  c #5F605F",
"S  c #61605F",
"D  c #7C605D",
"F  c #444761",
"G  c #464A65",
"H  c #494E6A",
"J  c #565866",
"K  c #5E5E60",
"L  c #5B5F75",
"P  c #5F637B",
"I  c #646463",
"U  c #686867",
"Y  c #6C6C6B",
"T  c #706F6E",
"R  c #6F706F",
"E  c #76746C",
"W  c #616578",
"Q  c #747474",
"!  c #787676",
"~  c #797877",
"^  c #787778",
"/  c #777878",
"(  c #7B7B7B",
")  c #9D302A",
"_  c #A42F28",
"`  c #A63C38",
"'  c #C13930",
"]  c #E63A33",
"[  c #8F423E",
"{  c #B7433B",
"}  c #CA433B",
"|  c #DF443B",
" . c #E2453B",
".. c #EB423C",
"X. c #FA453F",
"o. c #B83B5C",
"O. c #853276",
"+. c #A4366C",
"@. c #954D49",
"#. c #94514E",
"$. c #8A5452",
"%. c #A44C49",
"&. c #AD4E49",
"*. c #BD4B45",
"=. c #B04A49",
"-. c #A5534F",
";. c #B7514C",
":. c #B55452",
">. c #966B5C",
",. c #A5467B",
"<. c #807F7F",
"1. c #A36A68",
"2. c #CB4B44",
"3. c #D84C45",
"4. c #C7514B",
"5. c #D1544D",
"6. c #DE4D5C",
"7. c #CB5A55",
"8. c #D55B55",
"9. c #E54D43",
"0. c #E84E46",
"q. c #F84944",
"w. c #E8554D",
"e. c #F5524B",
"r. c #E24C51",
"t. c #EB5B54",
"y. c #E95D59",
"u. c #E86058",
"i. c #D04E6A",
"p. c #D76B67",
"a. c #DE736E",
"s. c #C96A7C",
"d. c #D27B78",
"f. c #E26C67",
"g. c #E07974",
"h. c #E67D78",
"j. c #E5817D",
"k. c #4C2E81",
"l. c #3F54A4",
"z. c #464B9C",
"x. c #634A97",
"c. c #7D7E80",
"v. c #7C7E88",
"b. c #767FB0",
"n. c #8B488A",
"m. c #AE6E93",
"M. c #8479A9",
"N. c #A37AA8",
"B. c #838484",
"V. c #82838B",
"C. c #868888",
"Z. c #8C8C8C",
"A. c #989683",
"S. c #8E8F90",
"D. c #918F91",
"F. c #939394",
"G. c #969598",
"H. c #96999A",
"J. c #9B9C9C",
"K. c #BD9796",
"L. c #9FA09F",
"P. c #A7A69A",
"I. c #918DAA",
"U. c #8784B9",
"Y. c #838ABF",
"T. c #9FA2A2",
"R. c #A2A3A3",
"E. c #A5A6AC",
"W. c #A7A8A8",
"Q. c #ACADAD",
"!. c #A4A6B8",
"~. c #AFB0B0",
"^. c #B3B4B4",
"/. c #B7B7B8",
"(. c #B7B8B8",
"). c #BABBBB",
"_. c #D78582",
"`. c #E28380",
"'. c #E69693",
"]. c #E49B98",
"[. c #E4A19E",
"{. c #DEBEBD",
"}. c #E2AEAC",
"|. c #C0C0BF",
" X c #E1C0BF",
".X c #BEBEC5",
"XX c #C2C2C2",
"oX c #C7C8C7",
"OX c #C7C7C8",
"+X c #CDCDCC",
"@X c #DBC8C8",
"#X c #CFD0D0",
"$X c #D3D4D3",
"%X c #DBD6D5",
"&X c #DDDDDC",
"*X c #E1C4C3",
"=X c #E0E0DF",
"-X c #E4E4E3",
";X c #ECECEB",
":X c #EFF0F0",
">X c #F5F5F5",
",X c #FEFEFE",
/* pixels */
"c c c c c c c c c c c c c c c c v x v c c c c c x f x x c c x d x v x c c c c c x f f x f x c c c c c c c a u u u u u u u u u t ",
"c c c c c c c c c c c c c c x f d x c c c c c v d x c c c c c x v x v x c c c c x f f f f c c c c c c c c p u u u u u u u u u u ",
"x c c c c c c c c c c c c x d d d x v x c c c x x Y R.T.Z.F.C.B.M.B.S.B.J.R.Q x c x x x c v Q I c c c c c s u u u u u u u u u u ",
"d c c c c c c c c c c c c d d d d d f v c c U Z.Z.I U ( G.W.W.R.P.P.P.Z.Q U I Z.Z.U c c c U ( ! ! m c c c s 7 , 4 u u u u u u u ",
"d c c c c c c c c c c c c d d d d d d x c Z.P.A.v.Q.&X,X,X>X>X>X:X;X;X;X-XoX~.V.A.P.Z.c c U ~ ( ( T c c c s > > > > u u u u u u ",
"c c c c c c c c c c c c x d p d d d p x B.J.E s Z.+X;X,X>X;X-X;X-X-X=X-X-X&XOXF.s E F.Z.c v U ( ! I c c c x > > > > 4 u u u u u ",
"c c c c c c c c c c c c v x d d d f x c R.U f r Z.XX,X,X=X$X$X$X$X$X$X%X-X-XXXF.i s U W.c c c m c c c c c c 7 , , , t u u u u u ",
"c c c c c c c c c c c c c x v v f d c c F.A 1 r Z.OX,X,X+XXXXXXXXXXXXXXX-X=XXXF.r : I S.c c c c c c c c c c s , > u u u u u u u ",
"c c c c c c c c c c c c c c c c c c c c x Y o r Z.$X,X,XQ.~.~.~.~.~.~.W.-X=XoXD.i . Y x c c c c c c c c c c n t , u u u u u u u ",
"c c c c c x c c c c c c c c c c c c c x s Y   r Z.-X,X>XS.J.L.J.T.L.J.Z.&X=X+XD.r . U x c c c c c c c c c c n s u u u u u u u u ",
"c x f f f f x S Y c c c c c c c c c c c x I   r Z.>X,X=XY C.Z.Z.Z.Z.C.R XX-X&XS.a   A v f c c c c c f f c c c x u u u u u u u u ",
"c x x f f f v ( T x c c c c c c c c A A m m   0 R.,X,XXXo < u x x u 1 o R.-X&XW.r   b x c c c c c x f f c c c c s u u u u u u u ",
"f c f f f f Y ( U c c c c c c c c c v I m b   4 #X,X,X^.W.).XXXXXX|.^.J.L.=X=XXXi . b v b n c c c x x f x c c c x u u u u u u u ",
"d x f f x c ! ~ S c c c c c c c c c v I U x   x :X^.M.( x # O O O O & x Q Q R.%XV   x n c c c c c x f f x c c c c u u u u u u u ",
"f f x c c c ~ Q v x c c c c c c c c c ! Y h   J.(.: > d x u < & # u x x x m : J.J.  h x c c c c c c x x c c c c c s u u u u u u ",
"f c c c c c ! T N d d c c c c c c c v ( Y 2 Y p : : - 4 $ o 2 w o ; 0 9 t 1 u n r ^ 0 l c c c d f f c c c m A c c x u u u u u s ",
"d v c c c c S ! U d d x c c c c c c S ~ U 7 $Xm < $ 9 r $ $ $ $ ; w w w w ; $ ; a $X2 c c c c d p p c c c R R x c c p u u p x x ",
"v x c c c c c v V x d d c c c c c c S Y v U -XZ.q 9 e e 9 q 9 9 e e g y e q 9 q V.-XQ c c c c x d p v R A ~ E x c c v f x c x f ",
"x c c c c c c c c x d d c c c c c c c x u > Z.).j j F j y j y F F F G F F j j j ^.G.< p x f f f f d x ~ ~ ( Y d f f x d f c c f ",
"c c c c c c c c c x d f c c c c c c x X o y @ ~.W G H H H H H H H H H H H H F L /.+ w X X s f f f p d E ( E v c d d d d d c c x ",
"v c c c c c c c c c c c c c c c c c x g P P @ m $X#X.X^././.).).).)./././.).+X%XI + L W g x x f f d f A A c c c f d d d f x v x ",
"A c c c c c c c c c c c x c c c c c x s f s : k $X-X-X-X-X-X-X-X-X-X-X-X-X-X-X#Xz - p b x c c x x c c c c c c c x v f f x v c c ",
"I m c c c c c c c c c f f c c c c c f f f u < J #X&X=X=X=X=X-X=X=X&X=X=X&X=X=X#XJ 1 u b c c c c c c c c c c c c v c c c c c c c ",
"( Y c c c c c c n f f f f c c c c c x f f i 3 C @X*X X{.{.@X*X*X%X%X&X&X&X&X&X+Xk # u c c c c c c c c c c c c c c c v x c c c c ",
"( S c c c c c c c f f f f x n c c c c x Z 1.) =.].].'.'.'.'.].[.[.}.{.@X%X%X%X#Xg @ ! x f c c c c c c c c c c c c c x f c c c c ",
"I v c c c c c c x f f f f x c c c c C @.%.d.' 2.h.t.t.w.t.a.g.j.`._._.m.m.b.b..Xk $ J.f f x c c c c c c c c c c v x f f c c x c ",
"c c c c c c c c n x x c c c c c c B #.=.2.p.' 3.h.e.e.e.e.t.f.g.h.g.p.s.m.N.U.!.z < J.x f c c c c c c c c c c c c x f f f f x m ",
"c c c c N N N B C Z $.#.-.-.;.;.4.2.3.9.9.0.0.0.t.X.X.q.q.q.e.t.y.y.0.r.6.i.i.s.4.` -.@.#.$.Z C B N N v c c c c c c f f x S Q ( ",
"c c c c c c c c n c c c c c c c c B #.&.*.2.| 5.a.| ......w.f.8.8.p.7.o.+.O.k.G.Q 1 x c c c c c c c c c c c c c c c x x U ( ( ! ",
"c c c c c x x c c c c c c c c c c c C #.&.{ ` 2.a. . . . .5.5.5.5.7.:.,.n.x.z.I.b % r n c c c c c c c c c c c c c c c c Y E ( ( ",
"c c c x f f f f c x n c c c c c c c c v Z [ ` &.d.y.u.y.y.} *.*.=.%.@.M.Y.Y.Y.I.z 0 2 c c c c c c c c c c c c c c c c c v S ~ ( ",
"c c c f f x f f f x c c c c c c c c c c c u 3 M K.] ] ] ] _ 6 8 8 5 e l.l.l.l.E.k % , c c c c c c c c c c c c c c c c c c S ( ! ",
"c x f d f f f f v U I c c c c c c c c c c 2 # k ~.S.S.S.S.C.Q A A Q B.S.S.S.S.|.k % < d c c c c c c c c c c c c c c c c c c V m ",
"c v f d d f c S ! ~ Q m c c c c c c c c c u * k #XQ.Q.Q.Q.Q.Q.Q.Q.Q.Q.Q.Q.Q.Q.#Xk % 4 d x c c c c c c c c c c c c c c c c c c c ",
"c c f d d f c T ( ! ! U c c c c c c c c c L.2 J $X(.(.(.^.(.(.(.(.(.(.(.(.(.(.+XJ 4 J.d c v c c c c c c c c c c c c c c c c c c ",
"c c v f p d x T ! c U m c c c c c c c c c J.< z #X^.^.(.^.^.(.^.^.^.^.(.^.^.(.OXg < L.d x x c c c c c c c v V v c c c c c c c c ",
"c v x f f d f T Y c c c c c c c c c c x f C.- b #X~.~.~.~.~.~.~.~.~.~.~.~.~.~.OXh & C.d d f c c c c c x x c E I c c c c c c c c ",
"c x f f c c x v c c c c x x c c c c x x f x & I #X~.~.~.Q.~.~.~.~.~.Q.Q.~.~.~.OX^ = U x d d c c c x f f f N Y ! c c c c c c c c ",
"c x f f x c c c c c x f f f c c c c c f f R R.T.F.c.c.c.c.c.c.( c.c.c.c.c.c.c.F.T.R.B.c c c c c d x s f f f V ! c c c c c c c c ",
"c c f f x c c c c x f f f f c c c c c x x I c.( ( B.c.C.C.S.S.S.Z.Z.Z.Z.C.B.c.( ( ( ! v c c c x x d x x f f V E c c c c c c c c ",
"c c x x c c c c c x c f f f c c c c c c c Y     1 Q / Q Q Q A Q / A Q / Q / Q t     Q K c c c c f f x x c I ! U c c c c c c c c ",
"c c c c c c c c c c c c x x c c c c c c Y c.@   t ( ( ( c.c.g / ( u ( / ( ( / t . - c.Q c c c c x x c c c T ! v c c n c c c c c ",
"c c c c c c c c c c c c c c c c c c c c Z.B.( J.u c.B.m v.c.s B.B.a B.B.m B.B.a b a c.C.c c c c c c c c c I m c c c c c c c c c ",
"c c c c c c c c c c c c c c c c c c c c Z.B.C.H.s C.V.s B.C.s C.C.a C.C.l C.C.l ~.S.c.C.c c c c c c c c c c c c c c c c c c c x ",
"c c c c c c c c c c c c c c c c c c c c C.B.c - l Z.S.l Z.S.s S.S.s S.Z.b S.Z.x n m c.C.n c c c c c c c c c c c c c c c c c x d ",
"c c c c c c c c c c c c c c c c c c c c B.B.F.D.c F.F.h F.F.h F.F.h F.F.n F.F.n # ( c.C.c c c c c c c c c c c c c c c c c x x x ",
"c c c c c c c c c c c c c m U c c c c c ( C.Y ^.m J.H.x J.J.s J.H.l J.J.m J.J.A W./ ( C.c c c c c c c c v c c c c x x c c c c x ",
"c c c c c c c c c c c c Y ( ( Y v c c c Q V.L.Z.K T.R.c T.T.h T.T.l T.T.A T.T.A A S.c.C.c c c c c c c c x d f f f d x c c c c c ",
"c c c c c c c c c x x x S Q ~ ~ U c c c Q C.V U U W.W.b W.W.h W.E.x W.W.I W.W.Y # n c.B.c c c c c c c c f d d d p d c c c c c c ",
"c c c c c c c c c f f f f U Q ( I c c c / V.<.1 Y Q.Q.m Q.~.l Q.Q.b Q.Q.I Q.Q.Y H.<.c.( c c c c c c c c v f d d f x c c c c c c ",
"c c c c c c c c x f x x f x U U c c c c Q C.Q /.Q ^./.m ^.^.h ^.^.c /.^.U /.^.Q Q.Q c.Q c c c c c c c c c f f x v x c c c c c c ",
"c c c c c c c c x c c f f x c c c c c c A ( S.Y ^ ).).m ).).x ).).n ).).U ).).( <.W./ I c c c c c c c c c c c c x v c c c c c c ",
"c c c c c c c c c c c x x c c c c c c c c x I t ( XX.XV XX|.h XX|.m |.|.Y XXXX( c.v x c c c c c c c x f x c c c c c c c c c c c ",
"c c c c U Q I c c c c c c c c c c c c c x t ( T.B.OXoXI oXoXx OXOXm oXOXQ OXOXB.Q Z.u x c c c c c x f f x c c c c c c c c c c c ",
"c c c Y ! ( Q c c c c c c c c c c c c c c 7 m S.C.#X+XU +X+Xc +X#Xm #X#XQ +X#XC.T.Q u x c c c c x f f f f x c c c c c c c c c c ",
"x s s R R ! ~ c c c c c c c c c c c c c c p K - Z.$X$X+X$X$Xx $X$XA $X$X+X$X$XS.Y m p c c c c c x c f f f c c c c c c c c c c c ",
"u u u S A R ( c c c c c c c c c A A x c A S - - F.&X&X&X&X&XC.&X&XZ.&X&X%X&X&XF.- - A S c c v x c c c x c c c c c c n x h l c c ",
"u u u u c d R c c c c c c c c Y ( R c c L.J.- t a C.B.V.B.B.C.B.B.B.C.V.C.C.B.a t : H.W.Q v f v c c c c c c c c c f u u u u u x ",
"u u u u p i p c c c c c c c S ( ( Y c c P.J.t m < x x x x x x s s x b x x c x 1 c p H.~.S v d v c c c c c c c f u u p I Y n u u ",
"u u u u 2 > , c c c c c c c E ( ( A c c B.T.D >.& % % % % % & I Y % % % % % % & >.D L.S.v S f d x c c c c x p u u p R Y R R u u ",
"u u u u , , , f c c c c c c Q ~ ( ~ f s t B.F.R s 0 < : : - - 1 1 * * : < < 2 s Y F.F.x p d d d c c c x s u u u u 7 c Y R m u u ",
"u u u u , > , s c c c c c c U E / R s t u a t A ! ( / / c.( ( ( ( ! / ! Q ^ c.c.R c U p p d d f c x s u u u u u 4 > u A u u u u ",
"u u u u u 2 t u f c c c c c f u m l u u u a u u u u t a u u u u u t > > > 4 x c c c x d d d f f s u u u u u u u , > t u u u u u ",
"u u u u u u u u u s f x s u u u u u u u u u u u u u u u u u u u u u 4 > , , s c c c c f f d s u u u u u u u u u u , t u u u u u "
};
