/* XPM */
static char *result[] = {
/* columns rows colors chars-per-pixel */
"64 64 191 2 ",
"   c #383634",
".  c #383635",
"X  c #393735",
"o  c #3A3634",
"O  c #3C3735",
"+  c #3B3937",
"@  c #3D3836",
"#  c #3D3937",
"$  c #3E3937",
"%  c #3F3A37",
"&  c #3A3A39",
"*  c #3E3A38",
"=  c #3E3B39",
"-  c #3F3B3A",
";  c #3F3C3B",
":  c #3C3C3C",
">  c #3C3D3D",
",  c #403E3D",
"<  c #423F3D",
"1  c #413F3E",
"2  c #44413F",
"3  c #46413E",
"4  c #3F4040",
"5  c gray25",
"6  c #404141",
"7  c #424241",
"8  c #414242",
"9  c #434242",
"0  c #424343",
"q  c #434343",
"w  c #434444",
"e  c #444444",
"r  c #444545",
"t  c #474745",
"y  c #454646",
"u  c #464747",
"i  c gray28",
"p  c #494442",
"a  c #4B4745",
"s  c #4A4746",
"d  c #4C4847",
"f  c #4E4B47",
"g  c #474848",
"h  c #494A49",
"j  c #494A4A",
"k  c #4A4B4A",
"l  c #4E4B48",
"z  c #4F4C48",
"x  c #4F4C49",
"c  c #4C4C4B",
"v  c #4D4C4B",
"b  c #4F4D4A",
"n  c #4F4E4B",
"m  c #4E4D4D",
"M  c #4D4E4E",
"N  c #4E4E4E",
"B  c #504C48",
"V  c #514C48",
"C  c #514D49",
"Z  c #524D49",
"A  c #504D4A",
"S  c #514D4A",
"D  c #524D4A",
"F  c #504E4A",
"G  c #514E4A",
"H  c #524E4B",
"J  c #544F4B",
"K  c #504E4C",
"L  c #524E4C",
"P  c #524F4C",
"I  c #534F4C",
"U  c #53504D",
"Y  c #51504E",
"T  c #51514F",
"R  c #52514E",
"E  c #52504F",
"W  c #52514F",
"Q  c #54504D",
"!  c #55504D",
"~  c #54514E",
"^  c #54514F",
"/  c #55524F",
"(  c #57524F",
")  c #515050",
"_  c #525150",
"`  c #525151",
"'  c #525250",
"]  c #535250",
"[  c #535351",
"{  c #515252",
"}  c #535352",
"|  c #525353",
" . c #555250",
".. c #545351",
"X. c #555351",
"o. c #545352",
"O. c #545452",
"+. c #545453",
"@. c #555453",
"#. c #555553",
"$. c #565452",
"%. c #565552",
"&. c #565453",
"*. c #565553",
"=. c #575553",
"-. c #565554",
";. c #565654",
":. c #575654",
">. c #575655",
",. c #575755",
"<. c #575756",
"1. c #585350",
"2. c #5B5753",
"3. c #5C5753",
"4. c #585655",
"5. c #595755",
"6. c #585756",
"7. c #595857",
"8. c #5B5856",
"9. c #5C5956",
"0. c #5E5956",
"q. c #5F5A57",
"w. c #5A5958",
"e. c #5B5A59",
"r. c #595A5A",
"t. c #5E5A58",
"y. c #5E5B59",
"u. c #5C5B5A",
"i. c #5C5C5B",
"p. c #5D5D5B",
"a. c #5E5C5B",
"s. c #5E5D5C",
"d. c #5E5E5C",
"f. c #5E5E5D",
"g. c #5F5E5D",
"h. c #5E5F5F",
"j. c #625D5A",
"k. c #645F5C",
"l. c #60605E",
"z. c #61605F",
"x. c #61615F",
"c. c #64605D",
"v. c #606161",
"b. c #626260",
"n. c #636261",
"m. c #666260",
"M. c #676360",
"N. c #646462",
"B. c #656463",
"V. c #666462",
"C. c #636464",
"Z. c #666564",
"A. c #676665",
"S. c #696766",
"D. c #686866",
"F. c #686867",
"G. c #696867",
"H. c #6A6968",
"J. c #6A6A68",
"K. c #6B6A69",
"L. c #6A6B6B",
"P. c #6C6A68",
"I. c #6D6A69",
"U. c #6C6B6A",
"Y. c #6D6D6B",
"T. c #6F6C6A",
"R. c #6B6C6C",
"E. c #6E6D6C",
"W. c #6F6E6C",
"Q. c #6F6E6D",
"!. c #6D6E6E",
"~. c #706D6B",
"^. c #706F6E",
"/. c #716F6E",
"(. c #6F706F",
"). c #73716F",
"_. c #727170",
"`. c #737371",
"'. c #757371",
"]. c #747372",
"[. c #757473",
"{. c #767674",
"}. c #767675",
"|. c #777675",
" X c #787675",
".X c #787776",
"XX c #787877",
"oX c #797877",
"OX c #797977",
"+X c #7A7978",
"@X c #7B7A79",
/* pixels */
"4 w r r r r r r r r r r r r r h &.I I =.6.6.6.6.6.>.g.@X@X@X@XoXu.6.6.6.6.6.6.6.6.6.6.#.T ' @.6.6.6.6.6.6.6.6.6.6.+.i r r r r r ",
"r r r r r r r r r r r r r r r r } 6.6.6.6.6.6.6.6.O.;.{.@X@X@X@Xz.6.6.6.6.6.6.6.6.6.6.6.' #.6.6.6.6.6.6.6.6.6.6.>.i r r r r r r ",
"r r r r r r r r r r r r r r r r h 6.6.6.6.6.6.6.6.>.T x.@X].g.n.6.6.6.6.6.6.6.6.6.6.6.6.6.o.>.6.6.6.6.6.6.6.6.6.) r r.!.h.r r r ",
"r r r r r r r r r r r r r r r r r -.Q V I =.6.6.6.>.' ' A.E.w.6.6.6.6.6.6.6.6.6.6.6.6.6.6.6.6.6.6.6.6.6.6.6.6.6.N r L.!.!.r r r ",
"r r r r r r r r r r r r r r r r r } I V V I 6.>.T T T T @.6.6.6.6.6.6.6.6.6.6.6.6.6.6.6.6.6.6.6.6.6.6.6.6.6.6.6.} r C.!.R.f.r r ",
"r r r r q , , q r r r r r r r r h >.=.V V ~ 6.6.@.T T T @.6.6.6.6.6.6.6.6.6.6.6.6.6.6.6.6.6.:.X.6.6.6.6.6.6.6.6.6.y j !.5.p * 7 ",
"r r r 9 @ O # 9 q r r r r y c +.6.6. .V C 4.6.6.6.>.;.;.6.6.6.6.6.6.6.6.6.6.6.6.6.6.6.6.6.6.:.V H 4.6.6.6.6.6.6.6.N r j 2 O @ # ",
"r r r ; O O = @ = r r k ` 6.6.6.6.6.D V $.6.6.6.6.6.6.6.6.6.6.6.6.6.6.6.6.6.6.6.6.6.6.6.6.6.6.I V I 6.6.6.6.6.6.6.>.y r e ; = q ",
"r r r = O O O @ 9 c -.6.6.6.6.6.6.=.I =.6.6.6.6.6.6.6.6.6.6.6.6.6.6.6.6.n.|. XW.A.w.6.6.6.6.6.$.V V &.6.6.6.6.6.6.6.) r r r r r ",
"r r r 1 O O < m >.6.6.6.6.6.6.g.^._.U.w.6.6.6.6.6.6.6.6.6.6.6.6.6.6.6.z. XT.j.j. X|.u.6.6.6.6.I V V I 6.6.6.6.6.6.6.6.h r r r r ",
"h h h c v o.6.6.6.6.6.6.6.6.6.w.^.@X@X].6.6.6.6.6.6.6.6.6.6.6.6.6.6.6.y.0.q.! ( Z._.B.6.6.6.6.I V C X.6.6.6.>.6.6.6.6.} r r r r ",
"6.6.6.6.6.6.6.6.6.6.6.;.o.>.6.6.6.g.oX@Xz.6.6.6.6.6.6.6.6.6.6.6.6.6.6.:.=.Q I W 6.6.6.6.6.6.6.:.&.4.6.6.[ ' T T >.6.6.6.k r r r ",
"6.6.6.6.6.6.6.6.6.6.' T T T #.6.6.^.@X/.s.6.6.6.6.6.6.6.6.6.6.6.6.6.6.6.O.T ' ' [ 6.6.6.6.6.6.6.6.6.6.6.T T T T ;.6.6.6.-.r r r ",
"6.6.6.6.6.6.6.6.6.6.[ T T T [ 6.*.9.1.Z ^ 6.6.6.6.6.6.6.6.6.6.6.6.6.6.6.>.' T T [ 6.6.6.6.6.6.6.6.6.6.6.#.T T ' 6.6.6.6.6.c r r ",
"6.6.6.g.^.B.6.6.6.6.6.@.#.;.6.] l f S B z 6.6.6.6.6.6.6.6.6.6.6.6.6.6.6.6.@.T T ' >.6.6.6.6.6.6.6.6.6.6.6.O.' 6.6.6.6.6.6.-.r r ",
"6.6.6.oX@X|.6.6.6.6.6.6.6.6.6.U f b ' W Y >.6.6.6.6.6.6.6.6.6.6.6.6.6.6.6.>.T T T @.6.6.6.6.6.6.6.6.6.6.6.6.[ @.6.6.6.:.:.6.c r ",
"6.6.B.oX@X@Xg.6.6.6.6.6.6.6.6.I H *.T T T ;.6.6.6.6.6.6.6.6.6.6.6.6.6.6.6.6.6.-.-.6.6.6.6.6.6.6.6.6.6.6.6.6.6.6.6.6.6.I V D ..r ",
"6.6._.@X@XA.6.6.6.6.6.6.6.6.6.:.4.;.T T ' 6.6.6.6.6.6.6.6.6.6.6.6.6.6.6.6.:.6.6.6.6.6.6.6.6.6.6.6.6.6.6.6.6.6.6.6.=.I X.V V C c ",
"o.6.w.H.A.w.6.6.6.6.6.6.6.6.6.6.6.6.T @.6.6.6.6.>.#.>.6.6.6.6.6.6.6.6.6.I I 6.6.6.6.6.6.6.6.6.6.6.6.6.6.6.6.6.6.6.a.0.j.J B V P ",
"T ' 6.6.6.6.6.6.6.6.' @.6.6.6.6.6.6.>.' >.6.6.6.T T T O.6.6.6.6.4.=.6./ V I 6.6.6.6.6.6.6.6.6.6.6.6.6.6.6.6.6.6.6._.k.2.z f f X.",
"[ T ;.6.6.6.6.6.6.6.;.T >.6.6.6.6.6.6.6.6.6.6.6.@.T T T 6.6.6.6.D V H ! J $.6.u.z.z.6.6.6.6.6.6.6.6.6.6.6.@.;.6.6.U. XV.%.F n [ ",
"T T @.6.6.6.6.6.6.>.T T ' 6.6.6.6.6.6.6.6.6.6.6.;.T T T O.6.6.6.X.C V c.'.@X_.|.@XoX6.6.6.6.6.6.6.6.>.T T ' T ;.6.w._.OXJ.D.@.>.",
"T T @.6.6.6.6.6.6.[ T T T @.6.6.6.6.6.6.6.6.6.6.>.T o.T T >.6.6.4.&.6.w.E.@X@X@XoXB.6.6.6.6.6.6.6.6.6.' T T T @.6.6.6.u.u.6.6.6.",
"@.@.>.6.6.B.E.B.A.E.l.[ T -.6.6.6.6.6.6.6.6.6.6.6.-.O.6.6.6.6.6.6.6.6.6.6.w.z.A.u.6.6.6.6.6./ ~ X.4.6.6.@.O.;.6.6.6.6.6.6.6.6.6.",
"6.6.6.6.6.H.@X@X@X@X.Xg.6.6.6.6.6.6.6.6.6.6.6.6.6.6.6.6.6.6.6.6.6.6.6.6.6.6.6.6.6.6.6.6.6. .V V V C =.6.6.6.6.6.6.6.6.6.6.6.6.6.",
"6.6.6.6.6.w.oX@X@X@XU.w.6.6.6.6.6.6.6.6.6.6.6.6.6.6.6.6.6.6.6.6.6.6.6.6.6.6.6.6.6.6.6.6.6.&.C V V V C 6.6.6.6.6.6.6.6.6.6.4./ S ",
"6.6.6.6.6.6.w.E.@X|.z.6.6.6.6.6.6.6.6.6.6.6.6.6.6.6.6.6.6.6.6.6.6.6.6.6.6.6.6.6.6.6.6.6.:.H V V V V V &.6.6.6.6.6.6.6.o.E 3 % @ ",
"6.6.6.6.6.6.6.6.6.6.6.6.6.6.6.6.6.6.6.6.6.6.6.6.6.6.6.6.6.6.6.6.6.6.6.6.6.6.6.6.6.6.6.6.I V I Z ! H I 4.6.6.6.6.6.6.>.t   O O - ",
"6.6.6.6.6.6.6.6.6.6.6.6.>.@.6.6.6.6.6.6.6.6.n.^.U.w.#.o.' [ 6.6.6.6.6.6.6.6.;.;.6.6.6.6.:.=.I 3.j.I.w.6.6.6.6.6.6.+.u +   o O O ",
"6.6.6.6.6.6.6.6.6.6.6.[ o.' o.6.6.6.6.6.6.6.oX@X@XH.' T T T @.6.6.6.6.6.6.T T T ' >.6.6.6.S.M.m.'.@XE.6.6.6.6.6.+.y 4 & X . o = ",
"6.6.6.6.6.6.6.6.6.6.6.[ T T T 6.6.6.6.6.6.6.n.@XH.z.@.T T T >.6.6.6.6.6.6.[ T T T [ 6.6.6.^.@X@X@X@X_.6.6.6.6.+.y r 6 > > : 5 r ",
"=.4.6.6.6.6.6.6.6.6.6.@.T T o.6.6.6.6.6.6.6.6.].H.6.6.O.T >.6.6.6.6.6.6.6.o.T @.>.6.6.6.6.g.].@XoX^.n.6.6.6.6.i r r r 8 0 w r r ",
"V $.6.6.6.6.6.6.6.6.6.>.T T 6.6.6.6.6.#.-.6.6.6.6.6.6.>.T #.6.6.6.6.6.6.6.-.T o.6.6.6.6.6.6.6.6.6.6.6.6.6.6.} r r r r r r r r r ",
"=.6.6.6.6.6.6.6.6.6.6.6.>.@.6.6.6.6.6.6.' o.@.T O.6.6.6.6.>.6.6.6.6.6.6.6.6.@.T >.6.6.6.6.6.6.>.;.6.6.6.6.6.} r r r r r r r r r ",
"6.6.A.^.|.|.E.w.6.6.6.6.6.6.6.6.6.=.^ o.T T T T T [ 6.6.^.U.6.6.6.6.I I $.6.6.>.6.6.6.6.6.6.6.@.T ' >.6.6.6.6.y r r r r r r r r ",
"6.6.@X@X@X@X@XA.6.6.6.6.6.6.6.6.X.V A T T T T [ [ O.>.7.G.[.u.-.6.6.V V V =.6.6.6.6.6.6.6.6.6.6.O.T T #.6.6.6.N r r r r r r r r ",
"-.6.|.@X|.U.oXB.6.6.6.6.6.6.6.:.C V R T ' T ' O.6.6.@.d.b.`.D.T 6.6.I V V =.6.6.6.6.6.6.6.6.6.6.6.6.[ ' #.6.6.>.y r r r r r r r ",
"O.6.g.oX@XA.6.6.6.6.6.6.6.6.6.I V C ;.T ;.O.T T ;.6.6.#.s.p.,.T ;.6.D V I 6.6.6.6.6.6.6.6.6.6.6.6.6.@.T -.6.w.^.F.r r r r r r r ",
"T T #.w.z.6.6.6.6.6.6.6.6.6.6.V V C / #.6.>.@.@.>.[ [ ' T T T T ;.&.V C 4.6.6.6.6.6.6.6.6.6.6.6.6.6.6.>.6.6.U.@X+X| r r r r r r ",
"-.T T >.6.6.6.6.6.6.>.6.6.6.6./ V V  .6.6.6.6.6.6.' T T T T ' @.6.I I =.6.6.6.6.6.6.B.oX|.H.6.6.6.6.6.6.6.B.^.@X@Xi.r r r r r r ",
"6.6.;.6.6.6.6.6.6.6.#.T #.6.6.6.4.&.6.6.6.;.6.6.6.6.[ ' @.[ o.6.6.6.6.6.>.o.>.6.6.u.].@X@X@XE.6.6.6.6.6.6.9.j.~.^.>.y r r r r r ",
"6.6.6.6.6.6.6.6.6.6.6.' T >.6.6.6.6.6.6.6.o.' 6.6.6.6.6.6.6.@.>.6.6.6.6.-.T ' 6.6.H.@X@X@X@X@Xn.6.6.6.Q C V ( t.w.6.N r r r r r ",
"6.6.6.6.6.6.6.6.6.6.>.[ O.u.g.6.6.6.6.6.6.;.T -.6.6.6.6.6.6.6.6.6.6.6.6.' T T >.6.z.@X|.n.A._.z.6.6.6./ X.V H =.6.6.6.i r r r r ",
"6.6.6.6.6.6.6.6.6.T T ,.b.Y.@X|.H.6.6.6.-.T T T -.6.6.6.6.6.6.6.6.6.6.>.T T T @.6.6.6.6.6.6.6.6.6.6.6.6.6.:.6.6.6.6.6.) r r r r ",
"6.6.6.6.:.&.4.6.6.#.#.b.b.N.|.@X@XU.6.6.[ T T T [ 6.6.6.6.6.6.6.6.6.6.6.' [ [ @.6.6.6.6.6.6.6.6.6.6.6.6.6.6.6.6.6.6.6.6.i r r r ",
"6.6.6.~ V V $.6.6.6.w.z.e.w.6.w.z.g.6.6.>.' [ [ >.6.6.6.6.6.6.6.6.6.6.6.6.@.6.6.6.6.6.6.6.6.6.6.6.6.6.6.6.6.6.6.6.6.6.6.) j r r ",
"6.=.X.V V H ~ D 6.6.6.6.6.6.6.6.6.6.6.6.6.6.6.6.6.6.6.6.6.6.6.6.6.6.6.6.6.6.6.6.6.6.6.6.6.6.6.6.6.6.6.6.6.6.6.6.g._.U.n.oX(.{ r ",
"6.I V V V V V Q 6.6.6.6.6.6.6.6.6.6.6.6.6.6.6.6.6.6.6.6.6.6.6.6.6.6.6.6.6.6.6.6.6.6.6.6.6.6.6.w.H.A.6.6.6.6.6.6.g.@X@X@X@X}.r.r ",
"6.I V V V V Q 6.6.6.6.6.6.6.6.6.6.6.6.6.6.6.6.6.6.6.6.6.6.6.6.6.6.6.6.6.6.6.6.6.6.6.6.6.6.6.6.^.@X@XH.6.6.6.6.6.6.U.@X@X@X].j r ",
"6.$.V V V V I 6.6.6.6.6.6.6.6.6.6.6.6.6.6.6.6.6.6.6.6.6.6.6.6.6.6.6.6.6.6.6.6.>.>.6.6.6.6.6.B.@X@X_.H.6.6.6.6.6.6.6.n._._.B.) r ",
"6.6.=.I V V $.6.6.6.6.6.6.6.6.6.6.6.6.6.6.6.6.6.[ >.6.6.6.6.6.6.6.6.6.6.6.O.' T T ;.6.6.6.6.g.@X`.A.@.;.6.6.6.6.6.6.6.6.6.6.>.y ",
"6.6.6.6.6.=.6.6.6.6.6.6.6.6.6.6.6.6.6.6.6.@.T T [ ' 6.6.6.6.6.6.6.6.6.6.6.[ T T T @.6.6.6.6.6.U.b.' T T #.6.6.6.6.6.6.6.6.6.6.c ",
"6.6.6.6.6.6.6.6.6.6.6.6.6.6.6.6.&.~ H X.6.6.[ T T T 6.6.6.6.6.6.6.u.A.g.6.>.T T ' 6.6.6.6.6.6.6.[ T ' ' [ 6.6.6.6.6.6.6.6.6.6.) ",
"6.6.6.6.6.6.6.6.6.6.6.6.6.6.6.Q V V V V =.6.;.T T T -.6.6.6.6.6.B.].@XA.6.6.#.T 6.6.6.6.6.6.6.6.@.T @.6.6.6.6.6.6.6.6.6.6.6.6.) ",
"6.6.6.6.6.6.6.6.6.6.6.6.6.6.X.V C &. . .6.6.6.' T T o.6.6.6.@.[ G.@X|.w.6.6.6.o.o.6.6.6.6.6.6.6.>.T ' 6.6.6.6.6.6.6.6.6.6.6.6.c ",
"6.6.6.6.6.6.6.6.6.6.U.E.A.z.8.0.P.g.6.6.6.6.6.6.;.#.6.6.6.6.6.' ,.@X@XoXU.6.6.6.6.6.6.6.6.6.6.6.6.>.[ ;.6.6.6.6.6.6.6.6.6.6.) r ",
"6.6.6.6.6.6.6.6.6.6.n.@X@X@X'.).oXw.6.6.6.6.6.6.6.6.6.6.6.>.T T T z.^._.^.w.6.6.6.6.6.6.6.6.6.6.6.6.6.6.6.6.6.6.6.6.6.4._ k r r ",
"6.6.6.6.6.6.6.6.6.6.@.w.K.|.@X|.g.6.6.6.6.6.6.6.6.6.6.6.6.@.T T ' >.6.&.I 6.6.6.6.6.6.6.6.6.6.6.6.6.6.6.6.n._.@X@XQ.d $ @ = 1 r ",
"6.6.6.6.6.6.6.6.6.[ T T ' 6.6.6.6.6.6.6.6.6.6.6.6.6.6.6.6.@.T O.T T ' C V 6.6.6.6.6.6.6.6.6.6.6.6.6.6.6.6._.@XXX(.L a O O O - r ",
"6.6.6.6.6.6.6.6.6.>.T T T ;.6.6.6.6.6.6.6.6.6.6.6.6.6.6.6.6.T ^ G K x B H >.@.#.6.6.6.6.6.6.6.6.6.6.6.6.6.H.@X(.h.<.s ; @ = e r ",
"6.6.6.6.6.6.6.6.6.6.T T T ' 6.6.6.6.6.6.6.6.6.6.6.6.6.6.6.6.>.Q V V B I T T ' T @.6.6.6.6.6.6.6.6.6.6.6.6.6.E.!.v.r r q q r r r ",
"6.6.6.6.6.6.6.6.6.6.' [ T T #.6.6.6.6.6.6.6.6.6.6.6.6.6.6.6.6.6.Q  .=.6.o.T T T O.6.6.6.6.6.6.6.6.6.6.6.6.6.6.M g r r r r r r r ",
"6.6.6.6.6.6.6.6.6.6.>.o.6.=./ 6.6.6.6.6.6.6.g.E.n.6.6.6.6.6.6.6.6.6.6.6.6.-.@.>.6.6.6.6.6.6.6.6.6.6.6.6.6.6.6.c r r r r r r r r ",
"6.6.X.I D 6.6.6.6.6.6.6.~ V C Q C 6.6.6.w.z.n.oX@XB.6.6.6.6.6.6.6.6.6.6.6.6.6.6.6.6.6.6.6.6.6.6.6.6.6.6.6.6.6.} r r r r r r r r "
};
