/* XPM */
static char *result[] = {
/* columns rows colors chars-per-pixel */
"64 64 232 2 ",
"   c #3C3735",
".  c #3D3836",
"X  c #3E3B3A",
"o  c #413F3D",
"O  c #563A34",
"+  c #663C33",
"@  c #44413F",
"#  c #734434",
"$  c #3F4040",
"%  c #444545",
"&  c #4A4645",
"*  c #4E4A47",
"=  c #4C4C4B",
"-  c #524D49",
";  c #52514F",
":  c #5E544F",
">  c #555453",
",  c #585756",
"<  c #5B5956",
"1  c #5C5B5A",
"2  c #6C564D",
"3  c #705D4F",
"4  c #645A55",
"5  c #6C5D56",
"6  c #635D5A",
"7  c #7C5952",
"8  c #61605F",
"9  c #6F615C",
"0  c #776458",
"q  c #656463",
"w  c #686867",
"e  c #6C6C6B",
"r  c #706F6E",
"t  c #6F706F",
"y  c #747372",
"u  c #787675",
"i  c #797877",
"p  c #7B7A79",
"a  c #B85036",
"s  c #D95628",
"d  c #D05234",
"f  c #EA5928",
"g  c #F15A22",
"h  c #E85735",
"j  c #F75F32",
"k  c #D86F3D",
"l  c #EA6127",
"z  c #F26522",
"x  c #F36E21",
"c  c #F37321",
"v  c #F47B21",
"b  c #F37328",
"n  c #F56C33",
"m  c #E57739",
"M  c #F77532",
"N  c #8B554B",
"B  c #9B5449",
"V  c #845B51",
"C  c #A95849",
"Z  c #BC5646",
"A  c #91694D",
"S  c #9D724E",
"D  c #876953",
"F  c #997553",
"G  c #AF694E",
"H  c #A9784A",
"J  c #B77A48",
"K  c #A87D59",
"L  c #856D61",
"P  c #8A7268",
"I  c #987667",
"U  c #927672",
"Y  c #AE6B62",
"T  c #A57F6E",
"R  c #D45D46",
"E  c #C86F43",
"W  c #D78C3E",
"Q  c #DC973F",
"!  c #F58321",
"~  c #F68C21",
"^  c #F68D2C",
"/  c #F69421",
"(  c #F79C21",
")  c #F6932B",
"_  c #F79B2B",
"`  c #E58B3A",
"'  c #F88431",
"]  c #F98C30",
"[  c #E89739",
"{  c #F29235",
"}  c #F99430",
"|  c #F49C32",
" . c #F99B30",
".. c #F7A222",
"X. c #F8A521",
"o. c #F8AC21",
"O. c #F7A52B",
"+. c #F8A52D",
"@. c #F8AB29",
"#. c #F9B322",
"$. c #F9BB22",
"%. c #FAB62C",
"&. c #FABD2E",
"*. c #E9A839",
"=. c #F5A333",
"-. c #F9A330",
";. c #F6A935",
":. c #F9AC30",
">. c #F9B330",
",. c #FABC31",
"<. c #F6B83C",
"1. c #FAC421",
"2. c #FBCB21",
"3. c #FAC52A",
"4. c #FBCA2B",
"5. c #FCD321",
"6. c #FCDB21",
"7. c #FBD62D",
"8. c #FBC531",
"9. c #FBCB32",
"0. c #F7C638",
"q. c #FAC43B",
"w. c #FBCB3C",
"e. c #FCD531",
"r. c #FCDA31",
"t. c #FBD53D",
"y. c #FCDA3D",
"u. c #FDE321",
"i. c #FEED21",
"p. c #FDE82C",
"a. c #FCE232",
"s. c #FDED31",
"d. c #FAE83B",
"f. c #FFF531",
"g. c #FEF43A",
"h. c #BA8448",
"j. c #B78458",
"k. c #BDAD47",
"l. c #9E8A70",
"z. c #B18568",
"x. c #A68D76",
"c. c #B88A75",
"v. c #B4A571",
"b. c #CA8743",
"n. c #D2964B",
"m. c #F7AD4B",
"M. c #F7BA46",
"N. c #F5B653",
"B. c #F4BC5B",
"V. c #CA8F64",
"C. c #C8937A",
"Z. c #D69A7A",
"A. c #E8AA6D",
"S. c #F6BA68",
"D. c #FABC78",
"F. c #FAC442",
"G. c #FBCC43",
"H. c #F8C64A",
"J. c #FBCC4B",
"K. c #FCDB44",
"L. c #FAD449",
"P. c #FDDC4C",
"I. c #F8C657",
"U. c #FBCD54",
"Y. c #F4C45A",
"T. c #FBCE5C",
"R. c #F8D653",
"E. c #FDDC53",
"W. c #FCD25C",
"Q. c #FCDC5B",
"!. c #FCE346",
"~. c #FBE948",
"^. c #FEF446",
"/. c #F9E956",
"(. c #FEF453",
"). c #FFF35A",
"_. c #FBCB63",
"`. c #F9C864",
"'. c #FBCB6D",
"]. c #FCD364",
"[. c #F3D865",
"{. c #FDDD62",
"}. c #FCD26B",
"|. c #F3DB6C",
" X c #FCDB6C",
".X c #EFC979",
"XX c #F8C577",
"oX c #FBCC74",
"OX c #EFDA74",
"+X c #FCD374",
"@X c #FCDB74",
"#X c #F3D778",
"$X c #FCD47C",
"%X c #FCDB7C",
"&X c #FDE366",
"*X c #F4E669",
"=X c #FCE26C",
"-X c #EFEB73",
";X c #FCE673",
":X c #FCE57C",
">X c #FDF573",
",X c #FBF57C",
"<X c #D59D81",
"1X c #DAA283",
"2X c #E4A987",
"3X c #E9B789",
"4X c #F5B98A",
"5X c #F8A991",
"6X c #F9BB91",
"7X c #FAC284",
"8X c #F9C78B",
"9X c #EED384",
"0X c #EDD68A",
"qX c #FCD583",
"wX c #FCDB83",
"eX c #FCD68C",
"rX c #FCDA8C",
"tX c #FAC590",
"yX c #FBCC90",
"uX c #FBD490",
"iX c #FCDB90",
"pX c #ECE487",
"aX c #F7E686",
"sX c #FCE485",
"dX c #FCE48C",
"fX c #FAE98C",
"gX c #F8F387",
"hX c #FDE590",
"jX c #FDEB90",
"kX c #FCEE99",
"lX c #FEF291",
"zX c #F8F297",
/* pixels */
"$ % % % % % % % % % % % % % % = > - - > , , , , , , 6 p p p p i 1 , , , , , , , , , , > ; ; > , , , , , , , , , , > = $ % % % % ",
"% % % % % % % % % % % % % % % % > , , , , , , , , > > u p p x.hXpXl., , , , , , , , , , > > , , , , , , , , , , , % % $ % % % % ",
"% % % % % % % % % % % % % % % % = , , > , , , , , , ; 8 p y 3XdXhX3X1 < , , , , , , , , > > > , , , , , , , , , ; % 1 t 8 % % % ",
"% % % % % % % % % % % % % % % % % , - - - , , , , > > ; w l.eXlXlXiXl.> , , , , , , , , , , , , , , , , , , , , = % e e t % % % ",
"% % % % % % % % % % % % % % % % % > - - - - , , ; ; ; ; > 1XfXlXlXjX2X, , , , , , , , , , , < < , , , , , , , , , $ q e e 8 % % ",
"% % % % % X X % % % % % % % % % * > , - - ; , , > ; ; ; L yXlXlXlXlXuXI , , , , , , , , , , , ; , , , , , , , , , % = e , % X $ ",
"% % % % .   . % $ % % % % % = > , , ; - - > , , , , > > Z.jXjXlXlXlXjX1X, , , , , , , , , , : * ; , < , , , , , , = % = @   X . ",
"% % % X     X . X % % = > , , , , < - - > < , , , , , e yXlXlXlXlXlXjXyXP , , , , , , , , , , ; * ; , , , , , , , , % % % X X % ",
"% % % X       X % = , , , , , , , > ; > , , , , , , , C.dXlXlXjXlXlXlXdX<Xy u r q < , , , , , ; = = > , , , , , , , = $ = $ $ = ",
"% % % X   X X = , , , , , , , 1 e y e < , , , , , , 9 tXjXjXjXjXfXfXjXjXtXU 1 8 u u 1 , , , , ; = = ; , , , , , , , , = $ = = $ ",
"= = = = = > , , , , , , , , , , r p p y , , , , , , c.iXjXjXjXjXjXjXjXjXdXC.- > q y q , , , , ; = ; > , , , , , , , , > $ $ $ $ ",
", > , , , , , , , , , > > , , , , 6 i p 8 , , , , 6 4XjXjXjXhXiXiXjXjXjXjX6X3 ; , , , , , , , , , , , , ; ; ; ; , , , , ; = $ = ",
", , , , , , , , , , > ; ; ; > , , t p r 1 , , , , c.uXhXjXhXhX5X5XiXjXhXjXiXc.> > , , , , , , , , , , , ; ; ; ; > , , , , $ $ $ ",
", , , , , , , , , , ; ; ; ; > , > < > - > , , , 1 3XhXhXjXhXtXiXiXtXjXjXfXdX4X4 ; , , , , , , , , , , , > ; ; ; , , , , 1 = $ = ",
", , , 1 t q , , , , , > > > , ; * * - - - , , , T uXjXhXjXhX5XkXkX6XrXfXdXsXwXz.> , , , , , , , , , , , , > > , , , , , , , = $ ",
", , , p p u , , , , , , , , , ; * * > > - > , < 2XhXhXhXhXyX6XkXkX4X8XsXsX:X:XA.; > , , , , , , , , , , , > > > , , , , , 1 > $ ",
", , q p p p 1 , , , , , , , , ; = > ; ; ; > , I yXhXhXhXhX5X7XkXlX4X4X:X:X;X;XoXz., , , , , , , , , , , , , , , , , , - - - ; % ",
", , t p p w , , , , , , , , , > , , ; ; > , , 1XiXhXhXdXeX4X4XkXlXD.D.oX@X;X=X XA., , , , , , > , , , , , , , , , > ; ; - - - - ",
"> , , e w , , , , , , , , , , , , , ; > , , P yXhXdXdXsX7X8XXXkXjXXXoXD.=X=X X&XY.F , , , , , , , , , , , , , , , 8 < 8 - * - - ",
"; ; , , , , , , , , > > , , , , , , > ; , , Z.rXwXsXwX%XD.oXoXhXjX'.'.S.].{.{./.{.n., , , , , , , , , , , , , , , t 8 : - * * > ",
"> > > , , , , , , , > ; , > , , , , 6 D I C.7XwX:X%X%XXXoXoX'.fXjX_._._.I.Q.Q.E./.H.n.F 0 8 , , , , , , , > > , , e u 8 > * - > ",
"; - > , , , , , , , 4 L T c.C.<X2X4XtX8X8XqX%X%X%X%X@XXX}.'.}.fXfX_.W.W.B.E.E.E.P.P.J.H.0.F.<.*.n.b.h.S D 3 > > , , t y e w > , ",
"; ; w I T c.C.1X2X6XtXyXtXuXiXrXrXwXwXwX%X%X%X;X@X X'.'.].].].aXaXT.U.R.U.J.P.K.K.K.y.y.y.r.r.7.r.7.7.4.2.8.<.*.Q n.h.j.F 0 < , ",
"v.jXiXyXyXuXuXiXiXiXiXrXrXeXrXwXwXwX%X%X@X@X@X X X}.`.].{.W.R.aXaXE.E.L.L.F.G.y.t.y.y.r.r.r.r.7.r.r.r.r.7.r.7.7.r.7.7.4.4.r.s.k.",
"8XiXiXiXiXiXiXiXiXrXrXrXwXwXwX%X%X@X@X@X X X}.]._._.Q.Q.Q.Q.P.:XsXP.K.K.K.t.q.,.0.4.4.3.3.3.3.3.3.4.4.4.4.7.7.7.7.r.e.r.e.r.r.9.",
"1XtXiXiXiXiXuXeXeXeXqXwXwX$X$XoXoXoX'.'.}.].{.{.&X).W.E.E.E.P.:X:XK.y.9.3.$.p.6.1.$.o.o...( ( ( ..X.X.o.o.o.o.#.#.$.$.1.3.4.3.*.",
"L 2XtXiXiXeXeXqXqXqXqXoXXX@X@X+X X X=X&X&X&X).).).).(.P.!.P.K.*XOX4.1.1.$.6.i.i.u.6.6.6.5.5.1.1.$.1.3./ ( o.o.#.#.o.#.o.#.( s # ",
", 5 1XtXeXqXqXqX$X$X$XoXoX>X>X,X;X X{./.Q./././.~.~.^.!.K.r.2.W.|.2.2.2.2.u.6.6.6.5.2.1.1.1.4.r.d.s.i.X./ o.o.o.o.o.o.o./ s + X ",
", , 6 Z.4X$X$X$X+X+X}.}.'. X=X>X,X,X,X=X/.E.P.!.~.~.d.r.1.5.5.[.|.2.5.$.6.5.5.2.1.1.1.3.L././.~.d.7.$.( o.o...o.o.X.X.~ s O     ",
", , , 4 Z.D.oX+X+X}.}.}.]._.T.T.W.&X;XgXlXgX*XP.K.e.2.2.2.1.6.R.[.6.1.2.2.2.1.1.$.R.-X-X*XR.0.@.( ( ( ....o.o...X.X.! s O     . ",
", , , , 4 V.D.'.}.}._.W.W.W.U.U.I.H.H.J.U.=XaXzXwXY.$.1.1.1.5.!.*X5.1.1.1.$.Y.#XpXOXY.*...( / / ( ..............X.v d @ X X @ % ",
", , , , > < V.N.T.W.W.U.U.U.J.J.J.M.M.F.q.q.,...N..X0X0XY.$.$.r./.$.#.B.0X0X.XN.....( / ~ ~ ~ ( ................v d & $ $ % % % ",
"- > , , , , < j.N.U.U.U.J.J.G.J.G.w.,.<.<.+.~ / / ( ..X.S..XB.0.F.B.XXS.O.( ( / / ~ ~ ! ! ! X.X.( ....( ....( c a % % % % % % % ",
"> , , , , , < , K m.H.G.J.G.G.w.w.w.t.,._ v v v ! ~ / / ( X.o.M.<.o.../ / ~ ~ ~ ! v v c v o.X.( ( ( ( ( ( ( z a % % % % % % % % ",
", , w r u u e , 4 K m.M.w.q.w.w.9.9.4.4.! x c v v v ~ X.$.$.N.M.M.I.1.1.o./ v v v c x ! #...( ( ( ( / ( / z C % % % % % % % % % ",
", , p p p p p w , > K ;.q.9.8.9.9.9.&...#.v x v ..2.6.5.2.0..X..X..XF.2.6.6.5...v x v #.( / / / / / / / l C < = % % % % % % % % ",
"> , u p u e u q , , , F *.&.3.8.8.3.( / X.$.2.u.i.i.6.2.$.0X*.( ..O.0X1.2.6.i.i.i.2.$.o./ / / / / / ~ l B , < , % % % % % % % % ",
"> , 8 i p w , , , , , > A *.,.3.3.+.~ / / 1.i.i.i.u.5.1.OXS.( / ..( B.9X1.5.u.i.i.i.2./ / / / / / ~ g N > , < t w % % % % % % % ",
"; ; > , 8 , , , , , , , , D *.%.%.~ ~ / ~ 1.i.i.u.5.2.I.OX../ ~ ( / ..9X[.2.5.u.i.i.5.~ / ~ ~ ~ ! f N > , , w p p > % % % % % % ",
"> ; ; , , , , , , , , , , > 0 [ / ~ ~ ~ ~ 6.i.i.6.2.q.pX*./ ! ! / ! ( O.0X0.2.6.u.i.6./ ~ ~ ~ ! l 7 > , , q t p p 1 % % % % % % ",
", , , , , , , , , , > ; > , < k v ~ ~ ! ( 6.i.u.5.3.-XB.( ~ ! v / ! ~ ( N.pX4.2.6.i.u.( ~ ~ ! ) W , , , , < 6 e t , % % % % % % ",
", , , , , , , , , , , ; ; , < d ! ~ ~ ! o.u.u.5.1.|.OX( / ! c v ~ c ! ~ / [.-X1.5.6.u.#.~ ! / &.[ , , > - - > , , , = % % % % % ",
", , , , , , , , , , > > > 1 8 l ! ! ! ! 1.u.6.2.L.-X@./ ! v x v / x c ! / O.-XR.2.5.u.1.! _ &.&.-.4 , - > - ; > < , , % % % % % ",
", , , , , , , , , ; ; < 8 e U z ! ! ! ! 6.6.5.9.*XH.( ~ v c x v / x c v ~ / <.-X0.2.6.6.O.&.&.,.:.A , , , > , , , , , > % % % % ",
", , > < > > > , , > > 8 8 q Y z v ! v ~ u.5.2./.R.( / ! c v $.6.6.1.! c v ~ ( R./.4.2.s.0.$.,.%.:.J , , , , , , , , , , = % % % ",
", , < - - - > , , , , q 1 < Z v v v v o.u.4.~./.@./ ! v #.u.1.X...1.u.$.v ! ~ O./.~.a.s.e.,.,.>.>.b., , , , , , , , , , ; = % % ",
", > > - - - ; - , , , , , , d v v v v 1.5.a.d.0./ ~ ( 6.1.! v v v v ! 1.u.X.! ( t.(.d.s.r.>.>.>.:.` , , , , , , 8 t e 8 i t ; $ ",
"< - * - - - - ; , , , < > < s c v v v 6.6.s.a...( 2.6./ v v c v c v c v / 5.6.8.4.~.^.s.s.>.;.@.:.{ 4 , , , , , 8 p p p p i 1 % ",
", - - - - * - , , , , , , V g c v c v i.i.p.#.1.6.o.c c v c c c c c c b ~ :.4.f.a.9.g.f.f.>.:.:.-.} I , , , , , , e p p p y & % ",
", > - - - - - < , , , , , B z x c c ~ i.i.u.u.1.! c c c c c c c c c ! O.>.>.>.%.r.s.s.f.f.,.-.-.-. .Y , , , , , , , 8 y y q ; % ",
", , > - - - > , , , , , , Z z c c x ..i.i.5.~ x x c c c x c x c v O.>.>.>.>.>.:.:.&.a.f.f.3.-.-.+.} k > , , , , , , , , , , , % ",
", , , < < > , , , , , , , d x x x x c o...x c c x x x x x x b ^ =.:.>.>.>.>.:.:.:.:.:.,.9.-.-. . . .W ; > , , , , , , , , , , = ",
", , , , , , , , , , , , < h z z x x x x x x x x x x x x v ^ ` S S Q =.:.:.:.:.:.+.-.-.-. .-. . . .} ' 4 - , , , , , , , , , , ; ",
", , , , , , , , , , , , 7 g x x x x x x x x x x x x ! ) [ H , , q y z.[ +.;.;.:.-.-.-.-.-. . . . .} ] V , , , , , , , , , , , ; ",
", , , , , , , , , , , , B g x x x x x x x x z c ~ | | h.4 , > > w p u 4 J {  .-.+.-.-. . . . .} } } ' C , , , , , , , , , , , = ",
", , , , , , , , , , e r Z z x x x x x x x v ) +.| b.9 > , , , ; , p p i e 9 E ] } -. . . . .} } } } ] E , , , , , , , , , , ; % ",
", , , , , , , , , , 8 p R z c x x x x ! _ :.=.W D , , , , , ; ; ; 8 t y e , , V E ]  . .}  .} } } ] ] k , , , , , , , , ; & % % ",
", , , , , , , , , , > , h z x x b ~ +.:.;.` S , , , , , , > ; ; ; , , > - , , , , V m ' ] } } } ] ] ] n , q t p p t & . . X $ % ",
", , , , , , , , , ; ; 2 g x v _ :.>.-.[ H < , , , , , , , > ; > ; ; ; - * , , , , , , G m M ] ] ] ] ' M V y p i t = &       o % ",
", , , , , , , , , , ; B b +.>.>.:.| J 4 < , , , , , , , , , ; > = ; = - - , > , , , , , 4 G n ' ' ] ' n C w p t 8 , & $ . X % % ",
", , , , , , , , , , - H } =.-.| b.0 , , , , , , , , , , , , , - - * = ; > ; ; ; > , , , , , 4 R n M n j Z , t t 8 % % % % % % % ",
", , , , , , , , , , ; 3 [  .W D , , , , , , , , , , , , , , , , - > > , > ; ; ; > , , , , , , , V R j j 7 , , = % % % % % % % % ",
", , , , , , , , , , , > < > ; , , , , , , , 1 e 8 , , , , , , , , , , , , , ; , , , , , , , , , , , , , , , , = % % % % % % % % ",
", < > - - , , , , , , < ; - - - - , , , , 8 q i p q , , , , , , , , , , , , , , , , , , , , , , , , , , , , , > % % % % % % % % "
};
