/* XPM */
static char *result[] = {
/* columns rows colors chars-per-pixel */
"64 64 206 2 ",
"   c #3B3735",
".  c #3D3936",
"X  c #3E3B3A",
"o  c #413E3D",
"O  c #45413F",
"+  c #6E4A3B",
"@  c #3F4040",
"#  c #444545",
"$  c #4A4644",
"%  c #474847",
"&  c #4C4A47",
"*  c #474848",
"=  c #4C4C4B",
"-  c #524D4A",
";  c #52514F",
":  c #555453",
">  c #585756",
",  c #5B5956",
"<  c #5C5B5A",
"1  c #674D45",
"2  c #625A55",
"3  c #695955",
"4  c #6B5C54",
"5  c #625E5B",
"6  c #725C53",
"7  c #7C5D53",
"8  c #715E58",
"9  c #61605F",
"0  c #6A635D",
"q  c #746355",
"w  c #7D6353",
"e  c #776B52",
"r  c #756A5C",
"t  c #7C735F",
"y  c #656463",
"u  c #696664",
"i  c #696867",
"p  c #6C6C6B",
"a  c #796B63",
"s  c #706F6E",
"d  c #6F706F",
"f  c #7E7160",
"g  c #73716F",
"h  c #757472",
"j  c #787675",
"k  c #797877",
"l  c #7B7A79",
"z  c #9D5F3C",
"x  c #A36336",
"c  c #B57C31",
"v  c #D86A38",
"b  c #CE763B",
"n  c #D57B38",
"m  c #E76A2C",
"M  c #EE7729",
"N  c #F37423",
"B  c #F47C23",
"V  c #E37A37",
"C  c #965D4D",
"Z  c #855C53",
"A  c #945F54",
"S  c #B45C45",
"D  c #88654D",
"F  c #9B644B",
"G  c #976C4F",
"H  c #9D754D",
"J  c #876752",
"K  c #946B54",
"L  c #947C54",
"P  c #A5754D",
"I  c #B67447",
"U  c #BD7B45",
"Y  c #A36753",
"T  c #887765",
"R  c #957B63",
"E  c #C76844",
"W  c #C37843",
"Q  c #D67A41",
"!  c #D5832D",
"~  c #DA952B",
"^  c #DC893B",
"/  c #D8953F",
"(  c #EB832D",
")  c #ED8C29",
"_  c #F48424",
"`  c #F58D22",
"'  c #F18328",
"]  c #EE9726",
"[  c #F69422",
"{  c #F69B22",
"}  c #F59429",
"|  c #F09A2C",
" . c #EB8C34",
".. c #F48E33",
"X. c #EA9536",
"o. c #F59933",
"O. c #F69A35",
"+. c #F99C30",
"@. c #DDB039",
"#. c #F7A323",
"$. c #F4AC24",
"%. c #F8AC24",
"&. c #F7A629",
"*. c #F7B124",
"=. c #F8B222",
"-. c #F9BC23",
";. c #F7B32C",
":. c #F8B92C",
">. c #F9BC2D",
",. c #ECA539",
"<. c #F4A636",
"1. c #F7AB32",
"2. c #F9A930",
"3. c #F5A33A",
"4. c #F6AC3D",
"5. c #E9B836",
"6. c #F7B732",
"7. c #F7BC39",
"8. c #FAC423",
"9. c #FBCD22",
"0. c #FAC32B",
"q. c #FACC2C",
"w. c #FCDA24",
"e. c #FBD42A",
"r. c #ECC237",
"t. c #FAC131",
"y. c #FACC33",
"u. c #F4C638",
"i. c #F7C93A",
"p. c #FACD3D",
"a. c #FBD434",
"s. c #FBDA35",
"d. c #FAD33A",
"f. c #FBDA3A",
"g. c #FDE136",
"h. c #9C8451",
"j. c #B79849",
"k. c #A4845B",
"l. c #B98252",
"z. c #958367",
"x. c #9B8769",
"c. c #8C8576",
"v. c #A88A68",
"b. c #B4986F",
"n. c #AA9772",
"m. c #B89B73",
"M. c #B7A479",
"N. c #C58743",
"B. c #D68E41",
"V. c #CF9E44",
"C. c #D39547",
"Z. c #C6A448",
"A. c #D4A946",
"S. c #D6AF54",
"D. c #F7BB44",
"F. c #F8BE43",
"G. c #F5B348",
"H. c #F6BC4B",
"J. c #F5BE52",
"K. c #D8AD66",
"L. c #C5A675",
"P. c #D0AD7D",
"I. c #D6B477",
"U. c #F8C645",
"Y. c #F6CA44",
"T. c #F9CC42",
"R. c #F6C24E",
"E. c #F5CA4D",
"W. c #FAD444",
"Q. c #FCD54A",
"!. c #FACD54",
"~. c #FACC5B",
"^. c #FAD453",
"/. c #FCD958",
"(. c #FDE14B",
"). c #FCE459",
"_. c #EEC868",
"`. c #F9D364",
"'. c #FCDD63",
"]. c #FCD469",
"[. c #FCDB6C",
"{. c #EFCC7C",
"}. c #F3CC78",
"|. c #FCD274",
" X c #FBDA74",
".X c #FAD47A",
"XX c #FBD97B",
"oX c #FCE268",
"OX c #FCE070",
"+X c #DAB581",
"@X c #DCBD82",
"#X c #DAC483",
"$X c #DEC883",
"%X c #E8C684",
"&X c #F4CD89",
"*X c #ECD287",
"=X c #EEDA8A",
"-X c #FBD583",
";X c #FBD68C",
":X c #F7D988",
">X c #FBD691",
",X c #FCDA91",
"<X c #F9E18E",
"1X c #F9E98E",
"2X c #FDE390",
"3X c #FDEB90",
/* pixels */
"@ # # # # # # # # # # # # # # * : ; - > > > > > > > 5 l l l l k < > > > > > > > > > > : = : : > > > > > > > > > > : * * # # # # ",
"# # # # # # # # # # # # # # # # ; > , > > > > > > ; : j l l l l 9 > > > > > > > > > > > ; > > > > > > > > > > > > # @ * # # # # ",
"# # # # # # # # # # # # # # # # & > > > > > > > > > ; 9 l h 9 9 > > > > > > > > > > > > > : > > > > > > > > > > = # < p 9 # # # ",
"# # # # # # # # # # # # # # # # $ : ; & - > > > > > = : y d > > > > > > > > > > > > > > > > > > > > > > > > > > = * p d d # # # ",
"# # # # # # # # # # # # # # # # # ; ; - - ; > > ; ; ; ; : > > > > > > > > > > > > > > > , : , , > > > > > > > > > # y d p < # # ",
"# # # # # X o # # # # # # # # # & > : - - ; > > : ; ; ; : > > > > > > > > > > > > > > > > , : ; > > > > > > > > > * * p > # X @ ",
"# # # # .   . # @ * # # # # = > > > ; - - : > > > > > : > > > > > > > > > > > > > > > > > > : - = > , > > > > > > = # = O     X ",
"# # # X     . . X # # = ; > > > > , - - ; , > > > > > > > > > > > > > > > > > > > > > > > > > ; - ; : , > > > > > > # # # X X # ",
"# # # .         # = > > > > > > , : ; ; , , > > > > > > > > > > > > > > 9 j j s y , , > > > > ; = = > > > > > > > > ; @ * # # # ",
"# # # @     @ ; > > > > > > > < s s p , > > > > > > > > > > > > > > > 9 j s 5 5 j j < > > > > ; & = ; > > > > > > > > * # # # # ",
"= * * = = > > > > > > > > > > > s l l g > > > > > > > > > > > > > > > < , , ; ; y d y > > > > ; - - : > > > > > > > > ; # # # # ",
"> > > > > > > > > > > > : > > > , 9 k k 9 > > > > > > > > > > > > > > > > ; ; ; , > > > > > > > : , > > ; ; ; ; > > > > = # # # ",
"> > > > > > > > > > ; ; ; ; : > , d k g < > > > > > > > > > > > > > > > : ; ; ; : > > > > > > > > > > > ; ; ; ; : > > > > @ * @ ",
"> > > > > > > > > > ; ; ; ; ; > > , : - : > > > > > > > > > > > > > > > > ; ; ; ; > > > > > > > > > > > : ; ; ; > > > > > = * * ",
"> > > 9 d y > > > > > : > > > ; = & = = = > > > > > > > > > > > > > > > > : ; ; : > > > > > > > > > > > > : ; > > > > > > > @ * ",
"> > > k l h > > > > > > > > > ; = = ; ; ; > > > > > > > > > > > > > > > > > ; ; = > > > > > > > > > > > > > ; : > > > > > > = * ",
"> > y k k l < > > > > > > > > ; @ @ @ * * @ * = : : > > < u c.M.M.t > > > > : > > > > > ; ; % % > > > > > > > > > > , ; - - ; # ",
"> > h l l i > > > > > > > > > > @ @ * * @ * @ * - ; : > , 0 n.#XI.x.0 > > > : > > > > : : < : % > > > > > > > > > : ; ; - - - & ",
"> > > i i < > > > > > > > > > > = = @ @ @ * * ; - ; ; : > t M.=X1XM.f < > > : : > > > : : < : % > > > > > > > > > 9 , 2 - - - ; ",
"= : > > > > > > > > ; > > > > > @ @ @ @ * @ ; : > ; > > 2 z.%X1X3X$Xx.0 < > : : : : > : : ; % # > > > > > > > > > d 9 , - & - ; ",
"; ; > > > > > > > > > ; > > > > * # @ * : : : > 9 < < , r M.=X3X3X=XM.z.9 < > : ; : > > : ; O % > > > > > > : > > d k y ; - = : ",
"; ; ; > > > > > > > ; = ; > > > ; ; ; : > > > < y u < 5 z.@X<X2X1X1X#Xz.9 < < : : : : : : : = @ > > , = : = ; > > , g k p u : > ",
"; ; > > > > > > > : ; ; ; : > > > < < > > : : > < y < r m.*X2X,X,X<X*Xb.e : > > > > : : > : : O > , > ; = ; ; : > > > , , > , > ",
": : > > > y p y y p 9 : ; : > > < 9 y < > > : : : : , T +X:X,X>X>X<XOXI.z.< > > > > > : > : : ; : : > > > : > > > > > > > > > > ",
"> > > > > i l l l l h 9 > > > > < i i 9 > > > , : ; 8 n.%X,X:X;X:X-X X_.b.r : > > > > > , : ; O - - : > > > > > > > > > > > > > ",
"> > > > > < k l l l p < > > > > > 9 9 < , 2 3 u w T x.P.:X-X-X-X.X|.].`.S.h.e e 4 4 2 , 5 2 : ; - - = > > > > > > > > > > > ; = ",
"> > > > > > > p l j 9 > > > > > r f f T R x.v.b.m.L.I.}..X.X|.XX X].~./.E.S.Z.j.j.h.h.h.h.z.e e - - = > > > > > > > > : - O o   ",
"> > > > > > > > > > > > > > > > m.M.+X+X@X@X%X*X}.{.|.|.[.].'.[.[./.Q.W.f.p.u.u.r.r.@.@.A.A.Z.j.- - ; > > > > > > > : #       o ",
"> > > > > > > > > > > > > : > > +X%X&X&X&X-X-XXX X X[.oXoX/./.oX'.W.d.a.a.q.0.0.0.8.:.:.0.:.5.@.9 a > > > > > > > : @ X         ",
"> > > > > > > > > > > ; : ; : > m.+X&X-X-X.X X X[.oXoX).).(.Q./.^.p.e.e.e.q.y.0.0.-.=.=.*.$.~ c g k d > > > > > : % @ X       . ",
"> > > > > > > > > > > : ; ; ; > a v.I.}.|.].].'.oXoXoX/.Q.W.d.W.W.y.i.d.i.Y.Y.u.:.=.#.$.] ! x + l l d > > > > > @ % @ @ @ X o # ",
"> > > > > > > > > > > : ; ; ; > 2 r v.K._.~.~.!.!.!.!.~.~.R.Y.p.Y.U.H.J.H.G.1.&.$.#.#.] ! x + $ j d 9 > > > > * @ % % @ @ @ # # ",
"& : > > > > > > > > > > ; ; > > > 5 f k.S.J.E.T.T.7.1.O.3.4.D.D.D.D.4.3.O.} [ { { { ) n z + # # , > > > > > : @ * # * * @ @ * @ ",
"> > > > > > > > > > > > > ; > > < i s a L A.D.i.t.;.&.#.=.;.D.G.H.F.>.%.#.[ [ { [ ) b F 1 # # # > > > > > > ; * # # @ # * * * * ",
"> > i d j j d > > > > > > > > > < i p u 8 L V.1.6.&.=.9.e.i.H.G.4.H.p.e.9.=.{ [ ) b F 8 > * # # ; ; > > > > > # # * @ # * @ @ * ",
"> > l l l k l i > > > > > > > > > < < < 2 4 H / +.{ -.w.s.E.G.o.o.G.E.s.w.-.{ ) b F 8 0 9 = # # : ; ; : > > > = # # * # * * @ * ",
": > j l j p k y > > > > > > > > > > > > > > 7 I ( { 8.e.W.H.O.` ` O.H.W.e.8.#.| l.w , 2 < = # # > > : ; : > > > * * * @ @ @ * @ ",
"; , 9 j l y > > > > > > > > > ; > > > > > > Z I ( { 8.a.Y.,.} ` [ } 3.R.a.q.:.,.N.J : , > : * * > > ; ; > > > d i @ * * * * * * ",
"; ; : , 9 > > > > > > > > > > - > : : : > , J E ( #.q.d.7.&.{ #.#.{ &.7.f.s.0.6.C.J > > < < : * > > > > > > p l l : * @ * @ @ * ",
"> ; ; > > > > > > > > > > > > ; : : - - > > C v ' *.e.q.;.#.[ ` [ { %.t.f.s.y.6.B.K < < y p y : > > > > > y d l l < * @ * * @ * ",
"> > : > > > > > > > : = > > > > : - - ; 2 2 C m ` =.9.-.#.` B B ' } ;.>.a.g.a.6.X.P 3 < 9 i u : > > > , > , < p d > @ * @ @ * * ",
"> > > > > > > > > > > : = > > > > > ; : , 6 S m B #.=.[ _ N M M  .,.2.6.t.t.>.2.X.I 8 > < < < : > > > ; - - : < > > ; @ * * * @ ",
"> > > > > > > > > > > ; > , 9 > > > > > : 7 S m N B _ B M V b I l.C.,.<.2.2.2.+. .W 7 > > > : : > > > ; : - ; > > > > * @ * @ * ",
"> > > > > > > > > : = > 9 d k j > > > > , Z E m N N B V n I D w T R l.B.X.O.+.O.X.Q Z , < : : ; > > > > > : > > > > > ; * * @ * ",
"> , , , > > > > > : : y 9 y j l > > > > 2 A E N `  .^ U G q 2 : > 3 7 G U B. .....Q A u y ; * $ > > > > > > > > > > > > * @ * @ ",
"> : , - & = ; > > > , 9 < > > > > > > > , C n ..^ N.H w 3 , : : : > : 3 7 Y W n V V Y p < = O @ > > > > > > > > > > > > : * * * ",
"> ; ; - - - ; - > > > > > > > > > > > > 2 D W N.P D 0 < , , > : ; ; : ; > 3 Z S E E A 3 : * # # > > > > > > > > < d p y k d : @ ",
", ; - - - - - ; > > > > > > > > > > > > > 4 D D 4 , , y 9 < > > > : > > > > , 3 A Z 6 : = # # # i i > > > > > > 9 l l l l k 9 @ ",
", ; - - & - - , , > > > > > > > > > > > > > > > > > > > > > > > > > > > > > > > > > > > > > > d l l i , > > > > > p l l l h * # ",
": : - & - - - , > > > > > > > > > > > > > > > > > > > > > > > > > > > > > > > > > > > > > > 9 l l d i > > > > > > > y d g y ; # ",
"> > : - - & ; > > > > > > > > > > > > > > > > > ; > > > > > > > > > > > > : ; ; ; > > > > > 9 l h y : > > > > > > > > > > > > # ",
"> > > , > > , > > > > > > > > > > > > , > : ; ; : ; > > > > > > > > > > > : ; ; ; : > > > > > p 9 : ; ; : > > > > > > > > > > = ",
"> > > > > > > > > > > > > > > > : ; - ; > > : : ; ; > > > > > > > < y 9 > : ; ; ; > > > > > > > : = = : : > > > > > > > > > > ; ",
"> , > > > > > > > > > > > > > ; - - - - : > : = ; ; > > > > > > y d l y > > : ; > > > > > > > > : : : > > > > > > > > > > > > ; ",
"> > > > > > > > > > < > > , ; - - : : ; > > > : ; ; : > > > : : p k k < > > > : : > > > > > > > > = : > > > > > > > > > > > > = ",
"> > > > > > > > > > i p i 5 , 2 p < > > > > > > : : > > > > > = > k k k p > > > > > > > > > > > > : : > > > > > > > > > > > ; * ",
"> > > > > > > > > > y l l l h d j < > > > > > > > > > > > > ; ; ; 9 d h p < > > > > > > > > > > > > > > > > > > > > > > : = # # ",
"> > > > > > > > > > : > i j l j 5 > > > > > > > > > > > > : ; ; : > > > ; > > > > > > > > > > > > > > > > 9 d l k d & .   . o # ",
"> > > > > > > > > : = : : > , > > > > > > > > > > > > > > : ; : ; ; ; = & > > > > > > > > > > > > > > > > d l l d = = . . . . # ",
"> > > > > > > > > > : = = : > > > > > > > > > > > > > > > > ; ; = = = = - > : : > > > > > > > > > > > > > p l d 9 > # X . . # # ",
"> > > > > > > > > > ; ; : ; > > > > > > > > > > > > > > > > > - - - = - : : ; ; : > > > > > > > > > > > > > p d 9 # # # # # # # ",
"> > > > > > > > > > : ; = : : > > > > > > > > , > > > > > > > > ; ; : > : = : = > > > > > > > > > > > > > > > = # # # # # # # # ",
"> > > > > > > > > > : : , : ; , > > > > > > < d y > > > > > > > , > > > > > : > > > > > > > > > > > > > > > > = # # # # # # # # ",
"> , ; ; - > > > > > > > ; - - ; = > > > < 9 y j j y > > > > > > > > > > > > > > > > > > > > > > > > > > > > > > # # # # # # # # "
};
