/* XPM */
static char *result[] = {
/* columns rows colors chars-per-pixel */
"64 64 71 1 ",
"  c #161513",
". c #181714",
"X c #1B1916",
"o c #1E1D19",
"O c #211E1A",
"+ c #25221C",
"@ c #2A261F",
"# c #232321",
"$ c #2B2720",
"% c #2E2921",
"& c #242729",
"* c #262A2D",
"= c #2A2D2E",
"- c #322D24",
"; c #363027",
": c #383127",
"> c #363129",
", c #3B342A",
"< c #3F382D",
"1 c #2C2F31",
"2 c #2E3031",
"3 c #363633",
"4 c #363837",
"5 c #3C3933",
"6 c #353738",
"7 c #373838",
"8 c #3C3C3A",
"9 c #40372B",
"0 c #443B2E",
"q c #493E2F",
"w c #463E31",
"e c #493F30",
"r c #413F39",
"t c #3F413F",
"y c #4B4132",
"u c #45423E",
"i c #4C453B",
"p c #504639",
"a c #554B3C",
"s c #464542",
"d c #4A4741",
"f c #4D4B46",
"g c #4E4D49",
"h c #524B40",
"j c #514F49",
"k c #5B5246",
"l c #55534D",
"z c #58554E",
"x c #565551",
"c c #585651",
"v c #5C5A54",
"b c #635A4D",
"n c #635E54",
"m c #615E58",
"M c #646057",
"N c #6C6355",
"B c #65625A",
"V c #6A665C",
"C c #746C5F",
"Z c #6E6A61",
"A c #746E62",
"S c #777165",
"D c #7A7264",
"F c #7A7468",
"G c #7F7A6D",
"H c #827B6D",
"J c #847E72",
"K c #868073",
"L c #8E8779",
"P c #948C7D",
"I c None",
/* pixels */
"IIIIIIIIIIIIIIIIIIIIIIIIIIIIIIIIIIIIIIIIIIIIIIIIIIIIIIIIIIIIIIII",
"IIIIIIIIIIIIIIIIIIIIIIIIIIIIIIIIIIIIIIIIIIIIIIIIIIIIIIIIIIIIIIII",
"IIIIIIIIIIIIIIIIIIIIIIIIIIIIIIIPPIIIIIIIIIIIIIIIIIIIIIIIIIIIIIII",
"IIIIIIIIIIIIIIIIIIIIIIIIIIIIIILVVLIIIIIIIIIIIIIIIIIIIIIIIIIIIIII",
"IIIIIIIIIIIIIIIIIIIIIIIIIIIIIIM&&BIIIIIIIIIIIIIIIIIIIIIIIIIIIIII",
"IIIIIIIIIIIIIIIIIIIIIIIIIIIIIK=  =KIIIIIIIIIIIIIIIIIIIIIIIIIIIII",
"IIIIIIIIIIIIIIIIIIIIIIIIIIIIIVX  XVIIIIIIIIIIIIIIIIIIIIIIIIIIIII",
"IIIIIIIIIIIIIIIIIIIIIIIIIIIIK4    4KIIIIIIIIIIIIIIIIIIIIIIIIIIII",
"IIIIIIIIIIIIIIIIIIIIIIIIIIIIVO....oVIIIIIIIIIIIIIIIIIIIIIIIIIIII",
"IIIIIIIIIIIIIIIIIIIIIIIIIIIKtX..X.X8JIIIIIIIIIIIIIIIIIIIIIIIIIII",
"IIIIIIIIIIIIIIIIIIIIIIIIIIIZ#..XXXX#ZIIIIIIIIIIIIIIIIIIIIIIIIIII",
"IIIIIIIIIIIIIIIIIIIIIIIIIIHuXXX.XXXXsGIIIIIIIIIIIIIIIIIIIIIIIIII",
"IIIIIIIIIIIIIIIIIIIIIIIIIIA&oXooXooX%ZIIIIIIIIIIIIIIIIIIIIIIIIII",
"IIIIIIIIIIIIIIIIIIIIIIIIIIjOooooooooogIIIIIIIIIIIIIIIIIIIIIIIIII",
"IIIIIIIIIIIIIIIIIIIIIIIIIZ=+OOOoOoOoO=ZIIIIIIIIIIIIIIIIIIIIIIIII",
"IIIIIIIIIIIIIIIIIIIIIIIIIl+OO+OO+O+O++lIIIIIIIIIIIIIIIIIIIIIIIII",
"IIIIIIIIIIIIIIIIIIIIIIIIZ3++++++++++++4ZIIIIIIIIIIIIIIIIIIIIIIII",
"IIIIIIIIIIIIIIIIIIIIIIIIx@++@+++++++++@cIIIIIIIIIIIIIIIIIIIIIIII",
"IIIIIIIIIIIIIIIIIIIIIIIZtO@@@@+@@@@@@+@7ZIIIIIIIIIIIIIIIIIIIIIII",
"IIIIIIIIIIIIIIIIIIIIIIIv=@@@@@@@@@@@@@@=vIIIIIIIIIIIIIIIIIIIIIII",
"IIIIIIIIIIIIIIIIIIIIIIZu@$$$$$%%@%%$%%$$uZIIIIIIIIIIIIIIIIIIIIII",
"IIIIIIIIIIIIIIIIIIIIIVv>$@-$-%%%%%%%%%%%>vVIIIIIIIIIIIIIIIIIIIII",
"IIIIIIIIIIIIIInmBvvzld3%%------%----%%%%%5dlcnmmBBIIIIIIIIIIIIII",
"IIIIIBBmmmmljhe93>%%%%-%---%=---=----;--%%%%%%-35usjlvvBBBBIIIII",
"IBvvhir5>-@@@@%%%%-%------->;;;;;;;;---------%$$@@@@@@-:58ifcvBI",
"Bvx%@@@@$@@@@%%%%%-----;;;;>>>>>>>>>>>>>----------@@@@@@@@@@-lvm",
"mvl$@@@@@@@$%%%%-----;;:;>>>>,,>:,>,>>>;;;;-----%-@-@@@@@@@%$lvB",
"Ivv8%%%%%%%%%-------;;:>,>,,,,<<<,,,,,,::;;;----%-%-%%%%-@%%rvvI",
"IIvvu-%%%%%%%----;->:>>>,,<<<<<<9:9,<,,,,,;;9-----%%%%%%%$-uvvII",
"IIIvvi%%-%%%%:--;;:>:,,,<,<<<<<<99t,t:,,,,,;--9::----%%---ivcIII",
"IIIIxvf-%---:%:-;:::,,,<<<<<505<y99yt,t:,,9:9::-:-:--%---dvcIIII",
"IIIIIxvl-----::::>,,,999<<9w0wqytyq99y999,9:9::::::-----jvxIIIII",
"IIIIIIlvz--::::::,,,<<<<<005wwyyqq00q0<0<<<9::::::::;-;zvlIIIIII",
"IIIIIIIIvv:-::::,,,<<<<<y00wwqyyyytyq0000<<<<<9:::::;>zcIIIIIIII",
"IIIIIIIIIcn,:::9,,,9<0<0<ywyyyyyyytqqq000<<9<9::,,::<nvIIIIIIIII",
"IIIIIIIIIIlm9::,,9<<<0<y<wwwwyyyyyqqqqqt000009<9,::<BxIIIIIIIIII",
"IIIIIIIIIIIlBr,,9,99<000y5yyyyyyyyqqtqqq000<0<<<,,tNjIIIIIIIIIII",
"IIIIIIIIIIIIgVi,999000y0wyyyyyyyyyytqqqqq0000<<<<yVxIIIIIIIIIIII",
"IIIIIIIIIIIIIgZi9900<0y<<yyyyyyyyyyyyqtqq00009<<pVgIIIIIIIIIIIII",
"IIIIIIIIIIIIIIsZa900y0<yyyy0yyypyyyyyqqqtqq000<aNaIIIIIIIIIIIIII",
"IIIIIIIIIIIIIIIsC<00qq0qqyyyyyyyyyyyyqqyyqq0000VfIIIIIIIIIIIIIII",
"IIIIIIIIIIIIIIItB9000qqwqyyyyyyyyyyyyqyqyqq000<NtIIIIIIIIIIIIIII",
"IIIIIIIIIIIIIIIfn0000qwyqyyqypypyyyyyyyyqqq0000bfIIIIIIIIIIIIIII",
"IIIIIIIIIIIIIIIck00qqqqwyqypyyyyyyyayyqqqqt00q0kcIIIIIIIIIIIIIII",
"IIIIIIIIIIIIIIIBi9qw0wwyqyyyypyyyyyyyyyyyq0q000yVIIIIIIIIIIIIIII",
"IIIIIIIIIIIIIIIV9q99qwqyqyyyyyyyayyyyyyqyqqqq000VIIIIIIIIIIIIIII",
"IIIIIIIIIIIIII4Cq0qqqqqwqyyyyyyyyyyyyyyyqqq000q0C4IIIIIIIIIIIIII",
"IIIIIIIIIIIIIIsN009qqwqeyqyyyyyeyyyyyyyyyqqqq000VsIIIIIIIIIIIIII",
"IIIIIIIIIIIIIIzb0qqqqqqqqeeeyyypyyyyeyyeqqq0q000zzIIIIIIIIIIIIII",
"IIIIIIIIIIIIIIVi0q00q0qqqeyeyyyyyyyyyyeeqqqqq000pVIIIIIIIIIIIIII",
"IIIIIIIIIIIIIIAe000qq0qqyeeyyeeyyqyyeeeeqqqq0qqqqAIIIIIIIIIIIIII",
"IIIIIIIIIIIII=SqqqqqqqqqeeeeyyaAHaeyyeeqqq0qqqqqqD2IIIIIIIIIIIII",
"IIIIIIIIIIIII8AeqqqqqqqqeeeepCHlkHDeeeeqqqqqqqqqqA8IIIIIIIIIIIII",
"IIIIIIIIIIIIIznqyqqqqqyqqeeNJb=II-bJNqqqqqqqqqqqqnzIIIIIIIIIIIII",
"IIIIIIIIIIIIIVaqqqqqqqqqqbHV2IIIIII2VHb0qqqqyqqqqaVIIIIIIIIIIIII",
"IIIIIIIIIIIIIDyqqqqqqqqkHC0IIIIIIIIII3CHbqqqqqqqqyDIIIIIIIIIIIII",
"IIIIIIIIIIII=SqqqqqyqaFSsIIIIIIIIIIIIIIsFFaqqqqqqqS*IIIIIIIIIIII",
"IIIIIIIIIIII7AqqqqqyCHj*IIIIIIIIIIIIIIII*jHCyqqqqeA5IIIIIIIIIIII",
"IIIIIIIIIIIIzNqqqqNJv*IIIIIIIIIIIIIIIIIIII*vHNqqqqNzIIIIIIIIIIII",
"IIIIIIIIIIIIVCqqbHV1IIIIIIIIIIIIIIIIIIIIIIII1VHbqqAVIIIIIIIIIIII",
"IIIIIIIIIIIIMPHHA4IIIIIIIIIIIIIIIIIIIIIIIIIIII4AHHPnIIIIIIIIIIII",
"IIIIIIIIIIII=VAu*IIIIIIIIIIIIIIIIIIIIIIIIIIIIII*sAV1IIIIIIIIIIII",
"IIIIIIIIIIII***IIIIIIIIIIIIIIIIIIIIIIIIIIIIIIIIII***IIIIIIIIIIII",
"IIIIIIIIIIIIIIIIIIIIIIIIIIIIIIIIIIIIIIIIIIIIIIIIIIIIIIIIIIIIIIII"
};
