/* XPM */
static char *result[] = {
/* columns rows colors chars-per-pixel */
"64 64 226 2 ",
"   c #3B3735",
".  c #3D3936",
"X  c #3E3B3A",
"o  c #413E3D",
"O  c #43403F",
"+  c #6B463A",
"@  c #3F4040",
"#  c #444545",
"$  c #4A4644",
"%  c #4D4A47",
"&  c #474848",
"*  c #4C4C4B",
"=  c #514D4A",
"-  c #4F504F",
";  c #52514F",
":  c #555453",
">  c #585756",
",  c #5B5856",
"<  c #575858",
"1  c #5C5B5A",
"2  c #685047",
"3  c #69574E",
"4  c #615754",
"5  c #685754",
"6  c #635A55",
"7  c #6B5B54",
"8  c #625E5B",
"9  c #6B5D59",
"0  c #735D54",
"q  c #7B5C54",
"w  c #61605F",
"e  c #6D6558",
"r  c #7C6254",
"t  c #74665C",
"y  c #796859",
"u  c #656463",
"i  c #696765",
"p  c #696867",
"a  c #6D6C6B",
"s  c #746863",
"d  c #7D6C61",
"f  c #716E6D",
"g  c #6F706F",
"h  c #78746F",
"j  c #757472",
"k  c #787675",
"l  c #797877",
"z  c #7B7A79",
"x  c #975938",
"c  c #AD7331",
"v  c #C9792B",
"b  c #C4673B",
"n  c #D96637",
"m  c #CA7738",
"M  c #DC7A37",
"N  c #EC6B28",
"B  c #F26F23",
"V  c #ED792B",
"C  c #F37423",
"Z  c #F47B22",
"A  c #F17D28",
"S  c #E56B34",
"D  c #E77A31",
"F  c #F37E34",
"G  c #895B4F",
"H  c #935A49",
"J  c #885E52",
"K  c #AB5B4A",
"L  c #8B674E",
"P  c #97694E",
"I  c #8C794F",
"U  c #96754D",
"Y  c #876956",
"T  c #966657",
"R  c #8B7352",
"E  c #977B59",
"W  c #A8654B",
"Q  c #BB6447",
"!  c #BD6C43",
"~  c #A7764B",
"^  c #B57A48",
"/  c #AD7C55",
"(  c #826E61",
")  c #847462",
"_  c #8B7A65",
"`  c #937B64",
"'  c #C86A45",
"]  c #D16B43",
"[  c #C77743",
"{  c #D47943",
"}  c #CF892C",
"|  c #D9883C",
" . c #DC963F",
".. c #EA882C",
"X. c #F58522",
"o. c #F58B23",
"O. c #F38729",
"+. c #EA9A27",
"@. c #F59322",
"#. c #F69C22",
"$. c #F4932C",
"%. c #F69B2B",
"&. c #E68838",
"*. c #F48933",
"=. c #EA9B37",
"-. c #F59433",
";. c #F59A35",
":. c #F99B30",
">. c #DAAD39",
",. c #DAB43D",
"<. c #F7A322",
"1. c #F7A627",
"2. c #F7AA22",
"3. c #F8AC23",
"4. c #F8AD2B",
"5. c #F8B323",
"6. c #F9BC24",
"7. c #F7B52D",
"8. c #F9BC2B",
"9. c #E7A63A",
"0. c #F9A530",
"q. c #F9AD30",
"w. c #F5A33C",
"e. c #F6AB38",
"r. c #F6AA3E",
"t. c #E7BB37",
"y. c #F7B836",
"u. c #FAC324",
"i. c #FBCB23",
"p. c #F6C32E",
"a. c #F9C42C",
"s. c #FACB2C",
"d. c #FBD427",
"f. c #FCDA23",
"g. c #FBD32B",
"h. c #FCDA2B",
"j. c #EBC43B",
"k. c #FBC231",
"l. c #FBCE34",
"z. c #F7C53B",
"x. c #F9CC3B",
"c. c #FBD432",
"v. c #FBDB34",
"b. c #FBD33A",
"n. c #FBDC3D",
"m. c #FDE224",
"M. c #FDE438",
"N. c #9F844C",
"B. c #B0904E",
"V. c #B8964A",
"C. c #AD8858",
"Z. c #9D8568",
"A. c #98907B",
"S. c #A5886A",
"D. c #AF936E",
"F. c #A8946D",
"G. c #AD9E78",
"H. c #B79A72",
"J. c #B7A379",
"K. c #C68445",
"L. c #C69748",
"P. c #CC9752",
"I. c #CAA54A",
"U. c #D7B04B",
"Y. c #ECAE49",
"T. c #F7B746",
"R. c #F5B24A",
"E. c #F6BB4B",
"W. c #F5BD54",
"Q. c #CA9F63",
"!. c #CFAA6A",
"~. c #C8A878",
"^. c #D2AC7E",
"/. c #C7B27C",
"(. c #D4B57B",
"). c #EABB6A",
"_. c #F6C145",
"`. c #F8C942",
"'. c #FACC43",
"]. c #F6C54A",
"[. c #F7CD4B",
"{. c #FBCA4C",
"}. c #F9D343",
"|. c #FAD746",
" X c #FAD44C",
".X c #F6C552",
"XX c #F8CA58",
"oX c #FAD553",
"OX c #FCDB55",
"+X c #FBD95C",
"@X c #FDE34A",
"#X c #FDE658",
"$X c #EEC86F",
"%X c #F9CB68",
"&X c #FCD362",
"*X c #FBDB64",
"=X c #FCD36C",
"-X c #FCDC6B",
";X c #ECC87C",
":X c #F4D375",
">X c #FBD474",
",X c #FBDB73",
"<X c #FBD47C",
"1X c #FBDA7B",
"2X c #FDE263",
"3X c #FCE56C",
"4X c #FCE172",
"5X c #D7B782",
"6X c #DCBC82",
"7X c #DBC583",
"8X c #E4C383",
"9X c #ECC788",
"0X c #F2CE87",
"qX c #EDD689",
"wX c #FCD584",
"eX c #FBDB83",
"rX c #F5D78B",
"tX c #FAD48B",
"yX c #FBDB8C",
"uX c #FBD491",
"iX c #FCDA91",
"pX c #FAE38E",
"aX c #F7E88E",
"sX c #FBEA8F",
"dX c #FDE490",
"fX c #FDEC90",
/* pixels */
"@ # # # # # # # # # # # # # # * : = = : > > > > > > 8 l z z z l 1 , > > > > > > > > > : ; ; > > > > > > > > > > > ; & # # # # # ",
"# # # # # # # # # # # # # # # # : > > > > > > > > : < k z z z z w > > > > > > > > > > > ; : > > > > > > > > > > > & # @ # # # # ",
"# # # # # # # # # # # # # # # # * > > : > > > > < < = w z j 1 u > > > > > > > > > > > > < ; > > > > > > > > > > - # 1 g w # # # ",
"# # # # # # # # # # # # # # # # # > = = = > > > : < - : p a < > > > > > > > > > > > > > > > < > > > > > > > > > - # p g g # # # ",
"# # # # # # # # # # # # # # # # # : = = = = > > ; ; ; ; : > > > > > > > > > > > > > > > > > , , > > > > > > > > : # u a a 1 # # ",
"# # # # # X X # # # # # # # # # * > : = = = > > : ; ; ; : > > > > > > > > > > > > > > > > > > ; > > > > > > > > < # * a < # X # ",
"# # # # .   . # # # # # # # * : > > = = = > > > < : < : > > > > > > > > > > > < > > > > > > > % = , > > > > > > < * # * O       ",
"# # # X     X . . # # & : < < < > , = = : > > > < : : , > > > > > > > > > > > > > > > > > > , ; % ; > > > > > > > > & # # X X # ",
"# # # .   .   . # * : > > > > > > : = : , , : > > > > > < < < 1 > > > > w k k a e < < > > > > ; = = : > > > > > > > - # # # # # ",
"# # # o     o * < < > > > > , 1 g j a < > > < < > > > > < < < 1 > > > w k a w w k j 1 > > > > = = % ; > > > > > > > > & # # # # ",
"* & * * = : > > < > # # # # # # # # # # * : : : : > > 8 u l A.G.F.Z.1 , > > > > : : > > > > > > : - * & & # > > > > > : # # # # ",
"> < > > > > > > < : # # # # # # # # # # # = : : : > > 1 w h G.7X7XF.e , > > > > : > > > > > > > : : < : * # - ; : < > > * # # # ",
"> > > > > > > > > > # # # # # # # # # # & = ; ; : , : : 8 _ /.qXqXJ._ 8 : < > > > > > > > > > > : : 1 1 - & ; ; > > > > < # # # ",
"> > > > > > > > > > # # # # o # # # # & * = ; ; ; : : : e F.7XaXaX7XG.t > > > > > : > , > > > > : : 1 < * # - ; > > > > > * # # ",
"> > > 1 f u > > > > # # o o X # # $ * * ; : ; ; ; : , , d /.qXsXfXqX/.) 8 1 > > > : ; ; : > > > : : - * # O - > > > > > < : # # ",
"> < < l l k > > > > # # o   o # * * : < < < 1 : , , : t Z.7XpXfXfXaX7XF.s w w 1 > > : ; ; , > > < : * & # O : : > > : < > > * # ",
"> > u l l l 8 > > > & $ $ # $ * : : : < 1 w u w < > 1 ) J.qXfXfXfXaXqX/.Z.p u 1 , > : ; ; : > > : : - & # # > > > > > = = = ; $ ",
"> > j z z i > > > > - - - - ; : : > > < 1 u a p 1 > 9 Z.(.yXfXdXdXfXyX(.Z.e w 1 , , : ; : : : : : < : * & # > > > < = : = = = * ",
": < > p i < > > > > : > > > > > > : : : , w i u 1 8 d H.qXpXdXuXiXdXaX0XG.d 8 < > > : : > > ; : : : < - * # > > > 1 6 8 = = = = ",
": ; > > > > < > > > > 1 8 w 1 > > : ; : : , , 1 > 8 Z.(.rXdXiXuXuXyXaXaX(.N.6 < > > > > > > > ; : < < : * $ > : > f 8 > = % % : ",
": ; : > > > > > > > < w i a w < > : > : : ; ; ; : y H.9XpXiXiXuXuXyXeXeX$XF.y < > > > > > > > : < : > : = * < < > a k u ; = ; ; ",
"* ; : > > > > > > > < u a f w , > > > < : : : ; 5 ` /.rXyXuXtXyXtXwXwX4X:X!.N.w > > > > > , > > > > : ; = * ; : > 1 g l a p ; > ",
": ; < > > < > > > ; > w i u 1 > > > < 1 , 4 , 4 y H.8XyXyXwX0XtXtX<X>X-X-X).B.y 6 , , , : , > > 1 1 , ; = = : : > > > 1 1 > , > ",
": : > > > u a u i f : < 1 1 , > , 8 9 q y ( ) ` S.(.0XeXeX<XwXwX<X>X%X*X*X*XU.C.N.R R r 0 e 6 1 1 8 8 6 : = < : > > > > > > > > ",
"< > > > > p z z z z e t y ( ( ( _ ` S.S.D.H.~.!.(.;X<X1X>X>X>X1X1X=X&XXXOXOX].U.I.I.V.B.B.N.U I N.d Z.y y e , : > > > > > > > > ",
"< : > > > , l z z z F.D.H.~.^.5X5X5X6X8X8X;X;X;X<X,X,X>X=X=X=X,X,X*XoX{. X|.|.b.j.j.j.j.t.,.,.,.I.,.V.V.V.B., , > > , , > > ; * ",
"> > > > > > < a l l (.6X9X9X9X9XtXtXwXwXeX<X1X<X,X-X-X*X&X+X*X-X-XOX Xb.b.b.l.l.p.s.a.a.a.p.p.p.j.p.t.t.,.,., : > > > ; ; O o   ",
"> > > > > > , > > < 5X8X0XuXuXtXtXwXwX<X<X,X,X-X-X-X#X+X#XOXOX*X*XOXb.l.g.g.s.u.u.6.u.p.u.6.6.6.6.u.u.u.t.>.: , > > > #       o ",
"> > > > > > > > > > D.5X8X0XwXwX<X<X<X,X4X4X3X2X2X#X#X#X@X@XOXOXoX'.s.g.f.f.d.s.s.p.s.s.u.5.2.5.5.5.5.+.} c , , < < #           ",
"> > > > > > > > > > d S.^.8X0X<X>X>X=X-X-X3X3X3X3X#X#X@Xn.c.b.|. Xb.s.i.g.c.b.}.}.}.x.s.6.3.2.2.2.+.+.v x + , : : # @ X         ",
"> > > > > > > > > > 8 y / Q.).>X%X&X&X+X&X&X*X-X*X+X+XXX Xx.x.|.|.x.x.[.{.].]._._.z.y.7.3.2.<.<.<...v x + O < : # # @ @ X X o # ",
": > > > > > > > > > < , q ` Q.).%XXXXXXXoX{.{.{.XXXXXXW..X_.z.x.'.`.E.W.W.W.R.r.0.%.<.<.<.<.<.+...c x + $ # > # # # # @ @ # # # ",
"= : > > > < > > > > > , 5 t E Q.)..X{.[.'.'.`.y.r.w.;.w.r.T.T._.E.E.T.r.w.;.;.-.o.@.#.#.#.#.+...b x 2 # # # : # # # # # # # # # ",
": > > > > > > > < > > w p i d E V.Y._.x.x.x.k.7.%.o.@.<.4.y.T.E.E.T.y.4.<.@.o.X.@.#.#.#.#.@...b x = $ # # # : # # # # # # # # # ",
"> > u f l k f < > > 1 p j f f s U V.Y.y.k.k.8.1.<.<.5.6.a.z.E.R.T.E.z.a.6.5.<.#.#.#.#.@.o...! H 3 % # # # # > # # # # # # # # # ",
"> > z z z z z u > > < u a a u 8 7 R V.9.y.7.1.<.5.i.f.h.x.{.R.0.e.E..Xb.f.f.d.5.#.@.@.o.M ! G 7 1 : # # # # > - # # # # # # # # ",
"> > k z l a l u > > : , 8 w 1 > 1 7 R V.>.=.#.#.6.f.m.v.[..XY.$.$.Y..X[.v.m.f.6.<.@.o.M ! G 9 i u 1 * # # # > > & # # # # # # # ",
": > 8 l z u > > > > : > > < < < > , 3 P | ..o.<.u.f.h.b..XR.-.X.o.-.R..X|.h.f.u.<.@...m P 5 1 e u 1 - # # # > g p # # # # # # # ",
"; - : < w > > > > > < > < < > > > : 6 G [ D o.<.u.f.v.[.E.w.o.Z X.O.;.E.[.b.f.i.3.%.=.| L 4 : 1 8 > - # # # a z l : # # # # # # ",
"> - - > > > > > > > > > : 4 > > : < 6 T ' D o.2.i.g.|.].r.@.X.X.o.o.$.e.].|.g.i.5.2.9.L.U 5 : : > > ; * # # g z z < # # # # # # ",
"> > : > > > > > > > > 4 : : : > > < 9 T n V o.3.g.c.`.y.%.@.#.2.3.<.#.%.T.'.v.g.s.y.y. .~ 6 : > < < : - & # 8 f g < # # # # # # ",
"> > > > > > > > > > : : ; ; ; : > 1 5 K M V @.5.g.v.j.7.1.<.<.<.<.<.<.<.q.x.@XM.g.8.7. .~ 7 , , 1 w w w > * : 4 < < - # # # # # ",
"> > > > > > > > > > : ; = = ; : > , 3 K S Z #.u.h.c.6.2.1.#.o.X.X.o.#.5.8.l.M.M.v.s.q.=.^ e , > w p g g w ; - : < > > # # # # # ",
"> > > > > > > > > ; : ; = = ; 4 > , q Q N Z <.i.f.i.5.#.o.X.Z C Z o.%.4.8.l.M.M.v.k.q.=.^ Y 1 , 1 u a g u ; > > < < > ; # # # # ",
"> , , , > : : > > : 4 : ; = : > : 4 G b N Z <.6.i.2.#.X.C B C A O.:.0.4.y.a.l.h.c.a.0.;.K.P 6 < < 8 w u < ; < > > > > > & # # # ",
"> : , = = = : > > > > : : : > > : 2 H b N C o.<.#.o.C C C V D M &.=.r.q.q.q.y.8.k.q.0.-.M P 5 < < < < < > - < > > > > < ; * # # ",
"> : ; = = = ; = > > > > > > > > < 5 K n B C C Z Z Z C Z D M [ ~ / P.P.w.e.0.0.q.0.0.:.-.| W 0 < > > > > > : > > 1 g a u l g - # ",
", = = = = = = = > > > > > > < < 1 q K n B B B C C V ..| [ W L r d ` C.K.=.=.;.:.:.:.:.-.&.Q r < < > > > ; ; > < w z z z l l 1 # ",
"> = = = % = = , , : > > > > > > < J Q S B C Z O.*.| m ~ P e , 1 w p d U ^ [ &.-.;.;.;.*.&.' J 8 w 1 > - * $ > > > a z z z j & # ",
"> : = = = = = , > , > > > > > > , J ' S O.O.....| ^ P q 5 , ; ; > 1 8 5 e T ^ { &.*.*.*.F ' J i u 8 - $ # # > > > > w f j u : # ",
"> > : = = = : > > > > > > > > > 4 G m ..$.=.| V.U r e , > > : ; : ; : : > 5 q P ' { &.*.F { T f i < $ O o # > > > > > > > > > # ",
"> , : , > : > > > > > > > > > > , L | ..| K.U Y 7 1 > < > > : : = ; ; ; : : > 5 J W ' ] S ] T i w - $ # # # > > > > > > > > > * ",
"> > > > > > > > > > > , > > > > 6 r ~ ^ ~ L 7 6 1 8 w 1 , > < : : : : : : : > > 1 9 G K Q K q 5 : & # # # # > > > > > > > > > - ",
"> > > > > > > > > > > : : : > > : 6 3 0 3 4 1 > 1 u i w < > > > , > , : > > > > < , 4 9 q 5 4 : - & # # # # > > > > > > > > < - ",
"> > > > > > > > > > > > > > : = = : ; ; , , < : ; ; : > , < : : p z k , > > > : : > > > > > > > > - - > > > > > > > > > > > > * ",
"> > > > > > > > > > a a u w , 4 p w , > > > > > : : > > , < : ; : z z l p > > > > > > > > > > > > > : : > > > > > > > > > < ; # ",
"> > > > > > > > > > w z z z j f l < > > > > > > > > > > < < - : ; w f g g 1 > > > > > > > > > > > > > > < < < < > > > > ; & # # ",
"> > > > > > > > > > : 1 a k z l 1 > > > > > > > > > > > < : - = : : : : = > > > > > > > > > > > > > > , > u f z z f $ o   o o # ",
"> > > > > > > > > ; - ; ; > > > > > > > > > > > > > > > : : : : ; ; : = = > > > > > > > > > > > > > > > > f z l f = $ .     o # ",
"> < > > > > > > > > ; - ; : > > > > > > > > > > > > > > > > = : = = * = = > : : > > > > > > > > > > > < < p z f w < & X   o O # ",
"> > > > > > > > > > ; ; ; ; > > > > > > > > > > > > > > > > > = = = = = ; ; ; ; : > > > > > > > > > > > > > a f w # # # O # # # ",
"> > > > > > > > > > ; ; ; ; > > > > > > > > > > > > > > > > > > = ; < > : ; ; - : > > > < > > > > > > > > > > * & # # # # # # # ",
"> > > > > > > > > > > : > : ; > > > > > > > 1 a u > > > > > > > > > > > > : : < > > > > > > > > > > > > > > < * # # # # # # # # ",
"> > : ; = > > > > > , : ; = = - = > > > 1 w u l l u > > > > > > > > > > > > : < > > > > > > > > > > > > < < < : # # # # # # # # "
};
