/* XPM */
static char *result[] = {
/* columns rows colors chars-per-pixel */
"64 64 55 1 ",
"  c #3B3735",
". c #3D3936",
"X c #3D3C3B",
"o c #413F3E",
"O c #42403F",
"+ c #3F4040",
"@ c #434444",
"# c #494645",
"$ c #4D4A47",
"% c #474848",
"& c #4C4B4A",
"* c #514D4A",
"= c #52514F",
"- c #555453",
"; c #585756",
": c #5D5956",
"> c #5C5B5B",
", c #625E5C",
"< c #61605F",
"1 c #646463",
"2 c #696867",
"3 c #6C6C6B",
"4 c #706F6E",
"5 c #6F706F",
"6 c #73716F",
"7 c #747372",
"8 c #787675",
"9 c #797877",
"0 c #7B7B7A",
"q c #81807F",
"w c #848483",
"e c #888787",
"r c #8D8C8C",
"t c #908F8F",
"y c #90908F",
"u c #939292",
"i c #999796",
"p c #989897",
"a c #9D9C9C",
"s c #A0A09F",
"d c #A3A3A3",
"f c #A8A8A7",
"g c #ACACAC",
"h c #B0AFAF",
"j c #B4B4B4",
"k c #BBBBBA",
"l c #C0C0BF",
"z c #C4C3C3",
"x c #C8C7C7",
"c c #CCCCCB",
"v c #D0CFCF",
"b c #D4D4D4",
"n c #DDDDDD",
"m c #E0E0DF",
"M c #E1E1E1",
/* pixels */
"+@@@@@%@%@+%@%@%-*=--:;;;:>00007>;;;;;;;;;;-==-;;;;;;;;;;=%@@%@%",
"@@@%%@@@%@%@%+@%=;::;-;;;--80000<;;;;;;;;;;;=-;;;;;;;;;;-$@%%+%+",
"@%@%@@@@@@@@%+%+$;;:;--;;;=<07>1;;;;;;;;;;;;;-;;;;;;;;;;-@>3<+@%",
"@@@@%@@@@%@%%%@%@;**=:;;;-=-23>;;;;;;;;;;;;;;;;;;;;;;;;;&@355%%+",
"%@%@@%@@%+%%+%%+@==$*=;;====-;;;;;;;;;;;;;;;;;;:;;;;;;;;=@153>%@",
"%@@@@Xo@%%++%+%%$;;**=;;-===-;;;;;;;;;;;;;;;;;;*;;;;;;;;;%&3;@X+",
"@%@@. X@+%%%%+&-;;***:;;;;;-;;;;;;;;;;;;;;;;;;;*=;;;;;;;;=@$O X.",
"@@@X  X +++%-;;;;:**--;;;;;;;;;;;;;;;;;;;;;;;;;***;;;;;;;;#@@XX@",
"%@@X   X@&-;;;;;;-==;;;;;;;;;;;;;;;;<8831:;;;;;-&&-;;;;;;;=+%+%%",
"@@@O  O&;;;;;;;<563:;;;;;;;;;;;;;;;<83,,88:;;;;=*&=;;;;;;;;&+%%+",
"&&$&&-;;;;;;;;;;6906;;;;;;;;;;;;;;;>:,=-161;;;;=**-;;;-;;;;=+%%+",
";;;;;;;;;;;--;;;;<90<;;;;;;;;;;;;;;-;=&=;;;;;;;;-:;---==;;;;&%+%",
";;;;;;;;;;-===-;;506>;;;;;;;;;;;;;;;-=-=-;;;;;;;-;;;====-;;;;%+%",
";;;;;;;;;;-===-;;:=*-;;;;;;;;;;;;;;;--==-;;;;;;;:-;;-==-;;;;;&%+",
";;;>51;;;;;---;-$$&&%>;;;;;;;;;;;;;;;-===;;;;;;;;;;;;-=;;;;;;-%+",
";;;997;;;;;;;;;=&&-=--;;;;;;;;;;;;;;;;===-;;;;;;;;;;;;=-;;;;;;=%",
";;1999>;;;;;;;;=&;===;;;;;;;;;;;;;--;;;--;;;;;;;;;;;;;;;;;;***=#",
";;7002;;;;;;;;;-;;===;;;;;;;;;;;;;;:;-;;;;;;;;;;;;;;;;;;;-==***$",
"-;;22>;;;;;;;;;;;;&;;;;;----;;;;;;:-==;;;;;;;;;;;;;;;;;;;>:,****",
"=-;;-;;;;;--;;;;;;;=;;;;==--;;;;-::-**-:;;;;;;;;;;;;;;;;;7<:**$-",
"-=;;;;;;;;-=;;;;;;;;;;;;--==;;;;****=;;:<<;;;;;;;;-;;--;;39<=*$=",
"=--;;;;;;;===;;;;;;;;;;;-===-;;;-**1796809;;;;;;;;-=--=-;;6932-;",
"==-;;;1dxchj2-;akdwkkhpkhgw=-rju1-::3ikdzxxhhu1-;adj0dfdajsgw;;;",
"---;1pfmnMlnba;cnnxnnnbnnnj-9nnzk;---fnbnmbbnnnj1nnnvnnnnmmms;;;",
"-;;;dnkMvzjmnnr0kvvnnnmnvcr;lnnbnq;;;fmnbzxknnnnjgcvnmnnbbvcw;;;",
";;;;knzz003fnnk>;;qbmnv9;;;rnnnbmj;;;jnmk-;;-ynnn*&;<bmmw-;-;;=*",
";;;;gnbmncatfsw;;;;knna;;;;xnnpvnne;;fnnzasagbnnf*&-;cnnq;;-*oo ",
";;;;;hnnnmknnj>;;;-knnu;;;unnn;hnnx;;hnnnnnnnnnb:*=;;cnm9;-$   o",
";;;;0seflbbnnnh;;;;jnmy53;xnnncnnmms;gnnnnnnnnmi,3:;;cnnq-%     ",
";;;qnnn2;;7hnnn3;;;knnu00snnnnnnnnnc1anng-2anmmk604;;cnnq@+X   .",
";;;;vmzzq72hknb5;;;dnna02cnng>dwwvbmdfmnd---fnmMk06;;cnb0%++XX+@",
"-;;;umbnnnnnjnd;;;;dnnr5dxnz=-;;;ucmbhnnd;;::smnmg<;;xnx0+@@@@@@",
"&-;;;txnnnMnh7;>;;;pnve>bcnp=;;;;;jbnnbzu;;;;;gxnba;;knz0@@@@@@@",
"====aasf0qq7iaaa&-&;gfs911<=esdu&->2kdaw==-;eaai8-;4ahhq@++3drdu",
"@o#&vMnn+@++cnnb@+X@bnnv+X+>Mnnz@+Xqnnnz+++1nnMz+X+qnnngX Xqnnnk",
"@o==bMMn@o++vnnn+oX1nnnx+++>nMnb@+X6nnnx+O+<nnnz++XwnnngX X0nnnf",
"+o==nnMn<oo+nnnbXooocnnc+++&bMMx+Oo#bnml+OO7nnnh+o+tnnnlXXX0nnnj",
"eetijjjjttttgjjktitthjjjuttejhggttttjjjiuuttjjhgtttejjjeurreahju",
"bnnn4+++vMMn#+oXbnnb-o+&cnnvX+X-bnnc+++=Mnnz+++4nnMcoO&eMnngX X+",
"bnnn;o@ovnnn%Oo+nnnc++++nnnc++X&bnnkOo@0nnnz=%+;nnnz+#&aMnba XX+",
"bnnn@oo@znnnX+++nnnb++oonnnc+X+1bnnd+o+=nnMk==%4nnnk++@aMnnjXXXX",
"jkhk>%%&gkkk@%#%jlkh&%@&jkkf&&#2kkks%%%=xxjj1123kkka@+%9kkku++++",
";;;;;;;;;;;=-><;;;;;;--;;;;;;;;;;;;;===;;<08124<;;;--&%>;;;%@%++",
";;;;;;;;;==;13083;;;;--&-;;;;;;;;;;;====;;;;;;;;;;;;;;;;;;;%@@@@",
";;;:;-;;;--1<18003;;-===-;;;;;;;;;;;===;;;;;;;;;;;;;;;;;;;;;%%%%",
";;;***-;;;;<>>;;<>;;-=-=-;;;;;;;;;;;;;;;;;;;;;;;;;;;;;;;;;;;&%@@",
";--*****;;;;;;;;;;;;;;;;;;;;;;;;;;;;;;;;;;;;;;;;;;;;;;;;>53<05&%",
":*******;;;;;;;;;;;;;;;;;;;;;;;;;;;;;;;;;;;;;;;;31;;;;;;<00007>%",
";******;;;;;;;;;;;;;;;;;;;;;;;;;;;;;;;;;;;;;;;;5003;;;;;;30007%%",
";-***$*:;;;;;;;;;;;;;;;;;;;;;;;;;;;;;;;;;;;;;;10053;;;;;;;<551&%",
";;-***-;;;;;;;;;;;;:;:;;=;;;;;;;;;;;;--&=;;;;;>051-;;;;;;;;;;;;%",
";;;:;-;;;;;;;;;;;;;-;===-=;;;;;;;;;;;-==&-;;;;;3<--&-;;;;;;;;;;%",
";;;;;;;;;;;;;;;;=-*-;;-===;;;;;;;>2>;;&=-;;;;;;;---=-;;;;;;;;;;-",
";;;;;;;;;;;;;;:*****-;-===-;;;;;1702;;;=;;;;;;;;;&-;;;;;;;;;;;;&",
";;;;;;;;;;:;;:-**-=-;;;===-;;;--208;;;;--;;;;;;;;&-;;;;;;;;;;;;&",
";;;;;;;;;;331,;:3<;;;;;;--;;;;;-;0093;;;;;;;;;;;;;--;;;;;;;;;;-%",
";;;;;;;;;;1008769;;;;;;;;;;;;;=*=>444;;;;;;;;;;;;;;;;;;;;;;;-%@@",
";;;;;;;;;;-;3808<;;;;;;;;;;;;-==-;;-=;;;;;;;;;;;;;;;;<7095%.o o@",
";;;;;;;;;====;;;;;;;;;;;;;;;;-=;===**;;;;;;;;;;;;;;;;7095&&  oo@",
";;;;;;;;;;===;;;;;;;;;;;;;;;;;=*&=&&=;--;;;;;;;;;;;;;205>;%ooo@@",
";;;;;;;;;;===-;;;;;;;;;;;;;;;;-=*=**====-;;;;;;;;;;;;;45<%@@.@@@",
";;;;;;;;;;=-==-;;;;;;;;;;;;;;;;;==-;====-;;;;;;;;;;;;;;&%@@%@@@@",
";;;;;;;;;;;-;-=;;;;;;;,31;;;;;;;:;;;;;-;;;;;;;;;;;;;;;;%@%@@@%@@",
";;-**;;;;;;;***=*;;;;<1901;;;;;;;;;;;;;;;;;;;;;;;;;;;;;-@@@%@@@#"
};
