/* XPM */
static char *result[] = {
/* columns rows colors chars-per-pixel */
"64 64 53 1 ",
"  c #060606",
". c #0B0B0B",
"X c #151514",
"o c #1B1B1B",
"O c #252424",
"+ c #282726",
"@ c #292827",
"# c #2B2B2B",
"$ c #322F2C",
"% c #31302F",
"& c #353434",
"* c #3B3735",
"= c #3C3937",
"- c #373838",
"; c #3D3C3B",
": c #413F3E",
"> c #41403F",
", c #3F4040",
"< c #444544",
"1 c #494745",
"2 c #4A4947",
"3 c #474848",
"4 c #4C4C4B",
"5 c #514D4A",
"6 c #52514F",
"7 c #555453",
"8 c #585756",
"9 c #595857",
"0 c #5C5C5B",
"q c #615F5D",
"w c #61605F",
"e c #646463",
"r c #686767",
"t c #686867",
"y c #6C6C6B",
"u c #706F6E",
"i c #6F706F",
"p c #71706F",
"a c #747473",
"s c #787675",
"d c #797877",
"f c #7B7B7A",
"g c #807F7F",
"h c #838383",
"j c #888887",
"k c #8C8C8C",
"l c #908F8F",
"z c #939292",
"x c #989797",
"c c #9C9C9B",
"v c #A2A2A1",
"b c #ACACAC",
"n c #B1B1B1",
/* pixels */
",<<<<<<<3<<<<3<4755:686;88qffffs08888888=684-67888888888873<<<<<",
"<<<<<<<<<<<<3,3,74o,:<;=o38sfffdq888884o,=<,&O488888888881<<<<<<",
"<<<<<<<<<<<<33<3@.&O < O&.%wfaqe88888&.*O , O%.&888888886<0ie,<<",
"<<<<<<<<<<3<,,3,X:  X1X  ,X6ry8888888X:  X4X  ,X888888884<yyi3<<",
"3<<<<<<<333,33,3*;.$456&.;<6788888888<< &787& ,2888888887<euy0<<",
"<<<<<,:<,,333,,3:<;%:#<*-,<67888888884<:&<$<*:<288888888833u8<,,",
"<<<<**=<3,3,3,67*X$1O5#6&o&7888888888&o&6#4#6&o%5888888884<3>*-=",
"<<3;**==,3,47888+45::8,182+8888888888+282,8,183O55888888881<<:=<",
"<<<=***;,48888884,+#<8<##,4888888888er7&&18<##,344788888886<<<<<",
"3<<>**>489888880%o%4#7#4Oo#88888888ws$o@e=8#4+o+546888888883<<<<",
"2424478888888889&7su<%<77,%888888880q@:5e8*<68,#557888888887<<<<",
"88888888888878886qe:966%387888888888755<%656%2867888666688884<3<",
"88888888887666786,,7#3#<%&788888888874&#,+<+<%&68888666678888,3,",
"8888888888766678+*%OO<OO&-O8888888888+&$OO2OO&&+8888766688888433",
"8880ie8888877786&:++-7,#O<,8888888888-<++,7<++<;88888768888888,3",
"888ffa8888888886<,-<4474-3488888888884<&<6474-26888888778888886,",
"88efff0988888886>,*>;,,<-,388888888873;;<,::<,,28888888888955561",
"88iffe8988888888-*34;8,66--8888888888-;66:9,64;-8888888887555555",
"788ye98888888888483<484>67,8888888886186<182<48388888888809q5555",
"6688988888678888<-&><8<<-,,7888888865:&&<<8<<&*<888888888pqq5255",
"7688988888768888;;48>4<8,,,7888855556;;6q13<84;,888887888ysw7556",
"66789888886668883784646477,77888755qa0yaey4628738886666880pdtt79",
"667899888766678887<24644,77748888889yfp4q7646<788886666788800898",
"77889eyety0767882<2<<6><4,,88888888884<61,6,<2,27888777888888888",
"88888yffffs08888<4<<,8,<<63788888888815<<<7<<<2<2578888888888888",
"888889sfdfy9888876<47886,77888888888856147884<225558888888898865",
"8888889yfsw98888777674744778888888888766674664465558888888865:::",
"888888888889888864676767647888888888874676764446555888888881$:$:",
"88888888888887886787780ry84777888888847877876856qyq6888887<*:$::",
"8888888888867678877788r00w77747888888767778778qqadu988887<<;$:$:",
"88888888888766688778888i888444888888887777888880sgu98887<<<=:::>",
"78888888888766788888888ar88778088888887788888qeqsuw98883<<<:<>1>",
"4788888888876688888088800888678888888868088808808888887<<<<<<<<<",
"8888888888888788800008080088888888888900800000087888887<<<<3<<<<",
"88eiadi888888888e00ee8ww0ww8iy8888658qqqee0ee0ee47888883<<<<<<<3",
"88ffffft8888888800ee070ee0w8ra0788444q0rr080ee0077478883<3<<<<<<",
"78sfayfe8888888780e87870ew80eir6885240qr08080e0088777888<<<<<<<<",
"780sft788888888600eeeeewree7008689555qereeeeerew8884788ir<<<<3<<",
"6670e78888888884tt80e8e00rr6666687558yr00r8r00ry888888yff7<<<<<<",
"7668888888888887e40re8erw6e6666785678e80reeaay8e88888riff0<<<<<3",
"88788888887,w088riiyr8rtair6777888888rppyraaaaar8888800ii83<<<<<",
"888888888886,888iar8iri8raa8887888888par8addfdaa88844370084<3<<<",
"88888888088700e8i08r0rwr80y8888888887r88rrfsieai8887744878833<3<",
"8888888808,8eidateaitertaw8888888888660syrrryaw8888888888884<<<<",
"888q8888877eeeaffgifgrgaigi8888888886ugufgrgdagy888888888888333<",
"8885456888008088hihhgeghgig8888888888gughgehhgig88888888888843<<",
"8795556588888888iihf08wfhiy9888888888yuhdw8wdhiy888888880irefi7<",
"85>5555688888888eiiaifiaair8888888888ruaayfyaairrr8888800ffffa0<",
"855>555999997979fjfehegegjd8888888888fhgehrheghgfdr888888yfffa3<",
"8755555q97979999ju8ua8dy8uj8888888888ji8ya8dy8akfay8888888eiie7<",
"99q55>5997999979eshja8ajhae8888888888eahha8ajhdgir7888888888887<",
"797q999999997799kzlyj0jykzk8888888888kzkyj0kylzke774788888888884",
"99799997867q9888lg88fjd89hk8888880r08kg88fjf00hl7477778888888887",
"799999998q779995e4ykeyeky6r88888eafr8r8ykryeli8r7778878888888877",
"9999799988q788650jzdzfzfzjw88876rfd88ekzfzfzfzke8777888888888874",
"9797999788yuwq8qczzvcfvczzc888868ffdyczzcvfcczzx877788888888887<",
"8888888888wgddauxgvvjwkvvgl8886660uppzgvvjwkvvgz88888888888851:<",
"88888888886qysgsdgcdeaefcgu8876568876agxfeaefxgi88888epffy1::::<",
"8888888886566988glzllzllzlf8876866664glzllzllxlg88888pfdi43*::;<",
"8888888887666688cvaux8cravv8885746445vvayx8cravc88888rfiw83,$;<<",
"8888888899666699j0slh8hls0j8888555456j8ulh8hla0j888888yie<<<:<<<",
"8888888899666669lbncz9zcnbl8888857787lbncl8zcnbl888888843<<<1<<<",
"8888988888969969bnk0vjvplnb8888888888bnk0vjv0lnb88888884<<<<<<<<",
"8975588888995555zu88yzpdfdz8888888888xy88rlr88px88888887<<1<<<<<"
};
