/* XPM */
static char *result[] = {
/* columns rows colors chars-per-pixel */
"64 64 57 1 ",
"  c #060606",
". c #0B0A0A",
"X c #141313",
"o c #1A1919",
"O c #20201F",
"+ c #252525",
"@ c #292727",
"# c #282827",
"$ c #2B2B2B",
"% c #312E2C",
"& c #31302F",
"* c #2F3030",
"= c #353434",
"- c #3A3735",
"; c #3C3837",
": c #373838",
"> c #3D3C3B",
", c #413F3D",
"< c #42413F",
"1 c #3F4040",
"2 c #444544",
"3 c #494745",
"4 c #4A4947",
"5 c #474848",
"6 c #4C4C4B",
"7 c #514D4A",
"8 c #51514F",
"9 c #555453",
"0 c #585756",
"q c #595857",
"w c #5C5C5B",
"e c #615E5D",
"r c #61605F",
"t c #646363",
"y c #686767",
"u c #696867",
"i c #6C6B6B",
"p c #706F6E",
"a c #6F706F",
"s c #71706F",
"d c #747373",
"f c #787675",
"g c #797877",
"h c #7B7B7A",
"j c #807F7F",
"k c #80807F",
"l c #848383",
"z c #888887",
"x c #8C8C8C",
"c c #908F8F",
"v c #90908F",
"b c #939393",
"n c #9B9B9B",
"m c #A0A09F",
"M c #A2A2A2",
"N c #ACACAC",
"B c #B1B0B0",
/* pixels */
"12222222222225259779q00009ehhhhfw0000000000989900000000009522222",
"222222222222222290qq0000099fhhhfr0000000000089000000000093222222",
"252222225222225240000000q98thdwr000000000000q99q0000000082wpw522",
"222222222222222239777000q088yiw00000000000q09qqq0000000082iia222",
"22222222551552223877770088889q000000000000009qqq0000000085tpiw22",
"222221,2115515154907780098889q00000000000000eq9900000000055i05>2",
"2222-;;25151156000977900qq9900000000000000009997700000000625,-->",
"225>-->;1516900000779000q9qq00000000000000000qq77700000000322,,1",
"222>;;;:169q000009890000000000090000ejsite7e00096690000000922222",
"222,--<6qq0q00qwadiq00000000000w000rfyeejpe900077680000000052222",
"44466900q00q00qqahhd0000000000w9000wee89ypee00q76790009000092222",
"qq000000000990000wghr00000000099000999789099qqq99q00898800006222",
"00000000008888900ahaw0000000w99w000098889eqq9q00q000888800009225",
"0000qq00009869909w96900000009ww900009988799qqq00q000988800000622",
"000wat000009990866855w00000099w9000009888qqq9q900000098000000922",
"000hhd00000qq0q8819960000000w99w0000008888qqqqqq0000009900000062",
"nMbbMbfbntyxxtzgtiki8idytiwwttw9w9089985405134:56;@98$@6@:3,X%83",
"aBNhMbkjbx0lbgalaiijwwdd0itwwww9w9996886<80::0:<33==0,o<6o,,-.,6",
"0xBjhbnMbbdwxlqjdllad0yawwtttwww999068526206=68>:@=*50@@0:,. %o7",
"89nvicgMnhxqalatdgkgai0itwwwttwww9986662266022826@+2&96$3y>= o&,",
"tMvlnvtxnbtgzddlawkjitiyttt9wtw089886802198234,191+@82*22=weo =4",
"cz900vdrhgyxw00yh0tityy099ww9ww0977eiwsiyy64000<69313*6999>ge730",
"tMblnctxmbrdzddkiwkhytiyttt9wtw000999id3198226,,91+@6<$<,#20X ,7",
"90nvyvlMmlc0izatghlgiywit0twttw0009998823660<27,3@+2$86$59-= O>>",
"0cBddnnMnnjtcl0kdlkad0ydrwtttwww009089226206=63-=+=&20@#0=>. =O0",
"iBNwMcxxbbulbdalaaajrwda0itrwtww09996996<89>=9-,,,==0>o25o22,.37",
"nMvzmhabnhiczyzgtika0iaytirwtww000089992703,3<=<3=@89$$6@-42X@;;",
"q00q00000000000000000000000000900000900000007777777000000002---,",
"q000000000000900000000tai099890000000000e900007qeye90000092>----",
"0000000000089890000000ghhy988890000006967000qutefji90000922:----",
"0000000000098880000000thir9888900000099679000pjffjse0009222:>>,2",
"00000000000088990000000dy00989000000006090000epjfpe90005222<2222",
"6900009w00008800000999w90000890000000989000000000000009222222522",
"900w000900000900000999989000000000000098000000009000009222222222",
"00tadgiw00000000099988888800ai0000689000000000096900000522222222",
"00hghhht00000000066888899900ydw900677900000000000699000622222225",
"99dhgigt0000000966889889009wtay800877900000000000098900022222222",
"nNbbMzdbntyxxylhtyji9iaytyrwtt0909887992603,25:56>@68$$t*$::X$22",
"iBNwncljbx0lbdaliiajtwga9itwwww600866886299:-0-,52:=0>oqyo::*.:5",
"9xBddbnMcbawcl0jpljad0yar9tttwww0080885251yy=w9>-@=*2t*-h:*..$X2",
"0wnbixgMnjc9alatfglgiy0iiwwwttqw0080966226wh90y26@+3%99:06$@.o**",
"yMclnxtxnbthzddlirjjiwiiwiy0www00008969220i90t6291+@3,$22$12X *1",
"cz000bdwhhixwwwthwtytit000twwwwq000095966wtwtyd2693<4%6906*2:::1",
"yMblnctxnbrhzjlzfwjjiwitwit0wtwq09986692266226>,91+@83$21$26X *1",
"9encicgMnhctdzjhkjlgit8yywtwttqw00996655556022916@+2*96$58:: o**",
"0xBdacnMbbatcl9jdllad9tdwwtttrwq090069526205=69>=@=*59@$0=:. $o2",
"iBN8Mxjhcz9zbdazaaajrwda0iywwwe000006966160>:0:152==0>o16O95wX22",
"bNcznhycntixxtzhtika0iaiyiwwwt00w99690956w5155:6e2@89*$6$6ytO1w2",
"q777477qqq00000000000000000000000000000000009wwahhy000000ihhhd52",
"q977777q00000000000000000000000000000000900009tghpi0000000tspt82",
"0097479000000000000000009000000000000988800000whdy90000000000005",
"0000e900000000000009099788000000000009888900000ie888900000000096",
"0000000000qq000097790q98880000000wte0989800000009898900000000008",
"00000000000900q777779q9888900000tdgy0098w90000009890000000000009",
"0000000000qqqq977998q00889900099igfw009990000000089q000000000005",
"0000000000iiyeqqie000000990000q80hgfi9w0000000000989000000000085",
"00000000q9ejjjpphq900000000000888epdpq000000000000000000009973<3",
"00000000qq9eydjfe0q000000000098880q970000000000000000tahgp3,,,,2",
"00000000079779990000000000000989888770000000000000000ahgp85,-,>3",
"00000000099799e90000000000000089686470990000000000000ihaw05>,>12",
"00000000qq8878qq00000000000000077777888890000000000000iir222>222",
"00000000qq89889qqq000000000000007990988890000000000000w65225<322",
"0q0000000098qq8q9q9q00eit00000000000q999000000000000000622222222",
"0q97700000qq77777qqqqeefjt00000000000qqq000000000000000922222222"
};
