/* XPM */
static char *result[] = {
/* columns rows colors chars-per-pixel */
"64 64 54 1 ",
"  c #060606",
". c #0B0A0A",
"X c #151515",
"o c #1A1A1A",
"O c #20201F",
"+ c #242424",
"@ c #282727",
"# c #2B2B2A",
"$ c #30302F",
"% c #353434",
"& c #3B3735",
"* c #3C3837",
"= c #3D3C3B",
"- c #403F3E",
"; c #42403F",
": c #3F4040",
"> c #444544",
", c #494746",
"< c #4A4947",
"1 c #474848",
"2 c #4C4C4B",
"3 c #504B47",
"4 c #514D4A",
"5 c #51514F",
"6 c #555453",
"7 c #585756",
"8 c #595857",
"9 c #5C5C5B",
"0 c #615E5C",
"q c #61605F",
"w c #646463",
"e c #686767",
"r c #686867",
"t c #6C6B6B",
"y c #706F6E",
"u c #6F706F",
"i c #71706F",
"p c #747373",
"a c #787776",
"s c #797877",
"d c #7B7B7A",
"f c #807F7F",
"g c #80807F",
"h c #838383",
"j c #888887",
"k c #8C8C8C",
"l c #908F8F",
"z c #90908F",
"x c #939392",
"c c #989797",
"v c #9C9C9C",
"b c #A1A1A1",
"n c #ACACAC",
"m c #B1B1B1",
/* pixels */
":>>>>>>>>1>1:111ce56ele77uvsddsa97777vu77eke55tc77777777761>>>>>",
">>>>>>>>>1>11:>>nmk9bjb9kmnpddddq7777bmk9bjb7knn7777777771>>>>>>",
">>>>>>>>>:1::11:knmvx7xvmnlqdp9w77777lnmvx7xvmnx777777775>9uq>>>",
">1>>>>>>>1>111:1h9uxf7fxp9j5eu7777777k9pxh7hxp9j777777772>ttt>1>",
">>1>>>>>:11:1:11vbuwc2cuubb5677777777vbptc7ctpbv777777776>wut9>>",
"1>>>>=->1:11:11:dkxkkxxkxkd5677777777fkxllxllckf777777777>1u71=:",
">>>:***>:1:1:126ufvp9uwdvfu7777777777uhvdwpwdvft5777777772>1-&==",
">>1=&&***1116777zfbbkwkbbfx7777777777xfbbjqjbbfx2477777777,>>==>",
"1>>*&&**:2687777vxxvbdbvxxv777777777qvccvbsvbxxv42677777775>>>>>",
">>>;*&:288777789pkcdxdxdxjw777777799apkxjcfcdxj9425777777772>>>>",
"12<2267787787788ddhxwtwku7e7777777798t5txsiqli7w426777677775>1>>",
"7777777777766778kjdddkd99hk7777777767kf99djd90fk6776665577772>>>",
"7777777777655567kxxdk9jukxj9777777776kxktj0kukxk7777555577777:>1",
"7777777777655567wphhu7phhde7777777776qphjp7pjhpe77776555777772>>",
"7779uw7777766675jt2eu9pu9uh7777777777jt5ta7pt7uj77777657777777>>",
"777ddp7777777775pjf9hwfwfhd7777777777djd0fefwfhd777777667777772>",
"77wsdd0777777785quuprdtsuue7777777777eupstduspue777777777784446,",
"77pddw7777777786ruhs98qshuu7777777777euhd97qshut7777777776463433",
"678rr87788887777guhhgwhghug7777777775fufffwffhuf7777777779805334",
"5577777768567777udusfrfsudu6777776762tfusftfsudu777777777i083336",
"65777777776577777wputwttu9667777444456qsuuwetaq7777777778taq6345",
"5567777777555777t97rqrwr79u267776440psusdsewe79u7774465689iatr68",
"5567887775555677upe7teu7rpu227777688uspsduet7epp7775626687799788",
"66777wtwrt065677ruutr7etuut7797778887rupte7etpur6677667777777777",
"77777rddsds97777w7qew7wew7w7777777777w80eq7qt9493568777777777777",
"777778ddddt87777tt99w7w99ee7777777777ee09e7e98et3338777777887753",
"7777778tsaq87777qwwwwwwwwww7777777777qeewwqwqwq83326777777754;-&",
"77777777877877779qw99979w99777777777799q99988w9745577777776,&&&-",
"7777777777777677q9ww99wwww97667777777q9ewq7qww0qqr067777751*&&&&",
"7777777777756567qqw9w99wew96626777777qq9qw9qqqqqpft7776861:*&&&-",
"77777777777655577999999u997222977777769989990qraafi877751:::==-;",
"67777777777655677799777we796677777777657878899iaayq7777111>:>>,;",
"3677777777775577777677777777567777777766777777777777776>>>>>>1>>",
"6777777777777677767666767767777777777776767667766777776>>>>1>>>>",
"88wiaat977777777766662666677ut77775467666776667726777771>>>>>>>1",
"77dddsse77777777622626266557ep96772225676676776276267772>>>>>>>>",
"67adataw7777777722222227222qwpe57744452572767225776277761>>>>>>>",
"680sde7777777774226262225666q96577434765262655667766779te>>1>>>>",
"556897777777777222:27762225255556634755>27762165777777tdd6>>>>>>",
"755677777777777612:1>7:1:2:6555675567>5>>>91>>2>77777wudd9>>>>1>",
"88687777776567772:2>:5:12-157567777771:2>:w:29>27777799uu611>>>>",
"777777777776577776>22211>57777677777655>27twq2yw777621697721>>>>",
"777777777766699716725122761777777777512728we6wt2777662277771>>>1",
"777777777557qtda>=27>>>51=:7777777775==27:2>72=-777776777772>>>>",
"68886688766qwwpd9=%>>5>-%%17777777775>%%:,7,:%%>777777777777111>",
"88843467779q7979292>,5,:2727777777777,72:272>27277777777777721>>",
"7673345377777777=&45=7-55=&7777777777**66-7-66=%777777779uewdu6>",
"84434335777777771:=>:>=>=:17777777777,:=>--->*=2ee7777799ddddp9>",
"843333688877777741&26252%12777777777721*26262%1wdde777777tdddp1>",
"8644334888777777=,@@-6>@@1=7777777777=,@@-6>@@52dye7777777qpyw6>",
"6884336766877777@%%++1++%%@7777777777@%$++,++%&#pe7777777777777>",
"88888877888677775&$:@>@:$%577777777775$$-@1@>$%wq555677777777772",
"867777777686777744>$542#>259777779e9765:#555$1766262677777777776",
"8877777778887784@&43>%>22=@77777wpde7#*56>$>67-#6667777777777772",
"8777777777888663@o+,#6$,@o@77755eda77$o@2$6$2@o#7567777777777772",
"6777777777ryw0000>##>7>#@=2977957ddst2:@@:8:#@-2766677777777776>",
"7777777777wdddpy%171-7-17,@777455qyiy@271:7:172@7777777777774,->",
"777777777768rada=o%5#4@5%o&7775557764&o$5#5#5%o%77777wpddt;---->",
"77777777754657772>=&>$>&->,776565564321=%>$>%->,77777ydsp22-&-*>",
"77777777786456771>.%675%.:,77755242341-.%575%.:177777edu97>--*>,",
"7777777777555677X=  X2X  -X7777543345X* .X2X..-X777777tuw>>>->>>",
"7777777778555567&.%O > +&.%7777755776$.$O > O%.%777777721>>>->>>",
"777777777786885872O==,:2+17777777777771O==>==O1777777772>>>>>>>>",
"7864477777685335477=5096ae77777777777777=575=77777777776>>>>>>,>"
};
