/* XPM */
static char *result[] = {
/* columns rows colors chars-per-pixel */
"64 64 54 1 ",
"  c #060606",
". c #0B0B0B",
"X c #151515",
"o c #1C1C1B",
"O c #242424",
"+ c #282827",
"@ c #2B2B2B",
"# c #322E2C",
"$ c #30302F",
"% c #353434",
"& c #3A3735",
"* c #3B3837",
"= c #3D3C3B",
"- c #413F3E",
"; c #42403F",
": c #3F4040",
"> c #444544",
", c #494745",
"< c #4A4947",
"1 c #474848",
"2 c #4C4C4B",
"3 c #514D4A",
"4 c #51514F",
"5 c #555453",
"6 c #585756",
"7 c #595857",
"8 c #5C5C5B",
"9 c #615E5D",
"0 c #61605F",
"q c #646363",
"w c #696766",
"e c #696867",
"r c #6C6C6B",
"t c #706F6E",
"y c #6F706F",
"u c #71706F",
"i c #747373",
"p c #787776",
"a c #797877",
"s c #7B7B7A",
"d c #807F7F",
"f c #7F8080",
"g c #838383",
"h c #888787",
"j c #8C8C8C",
"k c #908F8E",
"l c #90908F",
"z c #949393",
"x c #989897",
"c c #9C9C9C",
"v c #9FA0A0",
"b c #A2A2A2",
"n c #ACACAC",
"m c gray69",
/* pixels */
":>>>>>>>>>111>>153466666669dassp866666666665355666666667651>>>>>",
">>>>>>>>>>>>:1>156666666645issas0666666666664566666666666>>>>>>>",
">>>>>>>>>>>>1:>>,66666666630si8q6666666666667556666666664>7y0>>>",
">1>>>>>>>>>>11:1>63336666635wr7666666666666676766666666631rry>1>",
">>>>>>>>11:1::1:,5333366354466666666666666666695666666664>qrr8>>",
">11>>=->::111111,653346654425666666666666666664466666666712r61=:",
">>1>***>>11:>115663336666666666666666666666666533666666664><-&**",
">>:=**=*=:1146666633566666666666666666666666669333666666661>>-=>",
">>>=&&**>2666666663566666666666666669udww757666532566666664>>>>>",
">>>-&*;266666668tir76666666666666660dw97du966663322666666661>>>>",
"<<<2356666666667tspi666666666666666899459t996693335666566665>>1>",
"666666666665566670pp06666666666666656434966566555566554456662>>>",
"66666666665444566tst86666666666666665454496666666666444466666:1:",
"6666666666444456675356666666666666666444446666666666544466666211",
"6660yq66666556652221166666666666666665444596666666666546666666:1",
"666asp6666666672225546666666666666666544455666666666665566656621",
"66=Oqr=+2@@55+=2>*>>=162>555265666q080rqwir6yfreahwjje0xzydchjbx",
"62.682o1:o=7%%>>:&4&*55:2552566668808qw7ii80furrhtilg7jzffjv5nmw",
"5O% .:%6@+6<$%+&=4<%26>1>1526566608qqq88iq7puggif7gl8izlvczpumj3",
"%*O %*21@22$>O+1>4::6221>125556686qq607wr6qrsfsiqrgy8jsvvgzrkc35",
"<& X5>+>>@><++:5--2>:42:>252566648q85qwwri0rdf0rgiihsqzvhixcgzvq",
"5:-<6@2665#<>>52-6662244521556666550yyypapr0rq6sq666heis0ixawwhk",
"1% X5>+>>+:2+O:5--2>>42:>54226566800yyyiiy0rdd9tgiihs0zvjqlxglbw",
"==O %-q4%88@:O+2>4:>6221>225656686qq8qqyr6eradpiqrhy7jsvbalrzc95",
"6o%..<<s&%i2$%+*=42%26>2>1446566688qqq88iq7iidhts3gl8yzlbcziinj6",
"6<.=>>Oq7o27%%><:*6*=54:2552565668q8qqr8ui90dtwwgruzg6jzddkv0nmw",
"66%X>2%$r%$55+*21%21=162>554465668q888rqwit6tdwqsg8jle0czudchknz",
"666766766666666666666666666666666666666566663333533666666661&&&*",
"6666666666665566666666qtw755546666666656666655399w776666751*&&&&",
"6666666666655556666666pssw4444566666654446669w9qist766665>:*&%&-",
"6666666666652546666666qswq6444666666654445665tspssu566651>:===->",
"66666666666552566666666iw765456666666545566659isptq76661>>1:>:>>",
"3566666666754466666556656666256666666626666666666666665>>>>>>1>>",
"5666666766766566666655555666866666666662666666666666665>>>1>>>>>",
"66wtppt766666666654525252566yr66662556666666666544566661>>>>>>>>",
"66ssspsw66666677522525555566wi86662225666666666654456662>>>>>>>1",
"56idprpq676677652344255565588iw267423666666666666644666611>>>1>>",
"56*oq6%O2@@55+=,>%,>:12115555666670069r0wir6yfrqshqjjwqczqicgjbz",
"51.-1>o2-o-6%%,--&5%:52>2522556667870qw6yi80fyyygyizg6jxfgjv1nmq",
"5o$ .-$6@O5,$%O%%,2%1611>1222555788qqw70iwqssfgif6gj8szxvvzrrmj1",
"==o %%41@24@>O@2-3>>522>>225555678qq8q8qr8isfffiqrgr8zfcvfjqjv21",
"4= X51@:>@>2+O-5--2>>22->552565678006qqqryssffsyfsiji8zcjqjxffv8",
"6,>26$3655$2><82>666,22256256666688688265rppryyfq666jqpsqyz111fj",
"4= X5>@:>@:4@O7t,-2>>2,>>554466668006qqqryqrff8yfpihsqzcjqjxfjv8",
"--o %%31@25%2O@w6q>>5,,>>245556688qq6q6qr5rrpfsiqyhr8jfcvsjrjx11",
"3o-  &$6@O62$%O&:64%24>,>144655668qqqq88iq6iifgif6hj8yzzvcxpymg1",
"5,.---o;:o:6%%>,:%5%=54>2552566668088qr6yi80fyyygypzg8jzfjzvsnmq",
"93#.-;#O2@@44@=41*2>:,61>454465666008qrqryy6yfrefhqjjqqcjjjvzcnz",
"53333335556666666666667766666666666666666666666tssr666666rsssi1>",
"6533333959556666666666756666666666666666666666qssyr6666666qyyq4>",
"95533356559966666666666755666666666666444666668sir4566666666666>",
"55595496945566666666655354666666666664444566666r0425566666666662",
"5966666666666666533566544466666668q06644466666664445566666666664",
"55666666666666933333565444566666qisq6662666666665446666666666664",
"66666666666666333555766545566655wsp66664566666666246666666666662",
"6666666666rrw959w9566666556666746sssr666666666666666666666666651",
"6666666666qdssiup77666666666664540ttt8666666666666666666666651>>",
"666666666657widp9666666666666543466636666666666666666qtssr1=&=->",
"666666666534475566666666666665554543,6666666666666666tspy21&&&=,",
"66666666655335676666666666666635222236566666666666666rst861:&=>>",
"666666666653556666666666666666533323544456666666666666rtq>>>>>>>",
"666666666645355666666666666666663556544456666666666666621>>1,>>>",
"66666666666566366666669rq6666666666665666666666666666662>>>>>>>>",
"6653366666673334366679qpsq666666666666666666666666666665>>>>>>>>"
};
